<svg width="195" height="172" viewBox="0 0 195 172" fill="none" xmlns="http://www.w3.org/2000/svg">
<path d="M116.978 110.343H61.4268C59.0581 110.343 57.1406 108.434 57.1406 106.076V30.2241C57.1406 27.866 59.0581 25.957 61.4268 25.957H116.978C119.347 25.957 121.265 27.866 121.265 30.2241V106.076C121.265 108.434 119.347 110.343 116.978 110.343Z" fill="white" stroke="#E0E0E0" stroke-width="2" stroke-miterlimit="10"/>
<path d="M96.4204 89.8767H81.9826C80.3753 89.8767 79.0781 88.5854 79.0781 86.9852C79.0781 85.3851 80.3753 84.0938 81.9826 84.0938H96.4204C98.0277 84.0938 99.3248 85.3851 99.3248 86.9852C99.3248 88.5854 98.0277 89.8767 96.4204 89.8767Z" fill="#E0E0E0"/>
<path d="M103.039 96.1373H75.3196C74.4736 96.1373 73.7969 95.4636 73.7969 94.6214C73.7969 93.7792 74.4736 93.1055 75.3196 93.1055H103.039C103.885 93.1055 104.562 93.7792 104.562 94.6214C104.562 95.4355 103.885 96.1373 103.039 96.1373Z" fill="#E0E0E0"/>
<path d="M108.149 56.0491C108.149 61.7197 105.639 66.8008 101.663 70.2537C98.336 73.1452 93.9652 74.8857 89.1996 74.8857C84.434 74.8857 80.0632 73.1452 76.7357 70.2257C72.7597 66.7728 70.25 61.6916 70.25 56.021C70.25 45.6061 78.7378 37.1562 89.1996 37.1562C99.6613 37.1562 108.149 45.6342 108.149 56.0491Z" fill="#F2F2F2" stroke="#E0E0E0" stroke-width="2" stroke-miterlimit="10"/>
<path d="M101.662 70.2522C98.3346 73.1437 93.9638 74.8842 89.1982 74.8842C84.4326 74.8842 80.0618 73.1437 76.7344 70.2241C78.1161 69.6908 79.9208 68.9889 82.3459 68.0064C82.9099 67.7818 83.3329 67.3607 83.5867 66.8274C83.7277 66.5186 83.7841 66.2098 83.7841 65.8729V61.3532C83.6995 61.269 83.6431 61.1567 83.5867 61.0725C83.1919 60.483 82.9381 59.8092 82.8535 59.1074L82.4587 58.9109C81.3026 59.1916 81.3872 57.9564 81.077 55.5703C80.9642 54.5877 81.1052 54.3912 81.5564 54.2228L81.923 53.7175C79.6671 48.6644 80.795 45.4922 83.0227 44.3693C82.2895 42.7692 82.2331 42.1797 82.2331 42.1797C82.2331 42.1797 86.9705 42.9657 88.5779 42.6569C90.6364 42.2358 93.8228 42.7411 95.0072 45.4642C96.9811 46.2221 97.7425 47.4854 97.9117 48.8048C98.0808 50.04 97.7143 51.3875 97.3477 52.4262C97.3195 52.5104 97.2913 52.5665 97.2631 52.6227C97.2631 52.6507 97.2349 52.6788 97.2349 52.7069C97.1785 52.8472 97.1503 52.9595 97.0939 53.0718C97.0657 53.128 97.0657 53.1841 97.0375 53.2403C97.0093 53.3526 96.9529 53.4648 96.9247 53.5491C96.9247 53.5771 96.9247 53.5771 96.8965 53.6052C96.8683 53.6894 96.8401 53.7736 96.8119 53.8579C96.7837 53.9701 96.7555 54.0544 96.7273 54.1386C96.7555 54.1667 96.7555 54.2228 96.7837 54.2509C97.0939 54.3912 97.2067 54.672 97.0939 55.5422C96.8119 57.8161 96.8965 59.1916 95.7122 58.8828L94.6688 60.6795C94.6406 60.876 94.6124 60.9883 94.5842 61.1006C94.556 61.4374 94.556 62.1112 94.556 65.8167C94.556 66.2659 94.697 66.687 94.9226 67.0519C95.1764 67.445 95.543 67.7818 95.9941 67.9783C95.9941 67.9783 96.0223 67.9783 96.0223 68.0064C98.4756 69.0451 100.28 69.7188 101.662 70.2522Z" fill="white" stroke="#E0E0E0" stroke-width="2" stroke-miterlimit="10"/>
<path d="M96.756 54.1666C96.8406 53.6052 96.5869 52.8753 96.3895 52.3981C96.3613 52.3139 96.3049 52.2296 96.2767 52.1454C95.3743 50.3488 93.344 49.5908 91.4265 49.4785C86.5199 49.2259 86.0405 50.1523 84.5178 48.7487C84.9972 49.4505 85.0254 50.6014 84.2922 52.0051C83.7846 52.9876 82.7977 53.4368 81.8953 53.7175C79.6394 48.6644 80.7673 45.4922 82.995 44.3693C82.2619 42.7692 82.2055 42.1797 82.2055 42.1797C82.2055 42.1797 86.9429 42.9657 88.5502 42.6569C90.6087 42.2358 93.7952 42.7411 94.9795 45.4642C96.9534 46.2221 97.7148 47.4854 97.884 48.8048C98.2224 50.9102 96.9816 53.2403 96.756 54.1666Z" fill="#E0E0E0"/>
<path d="M83.7599 61.3544C83.6753 61.2702 83.6189 61.1579 83.5625 61.0737V60.793C83.8163 61.2141 84.1265 61.579 84.4931 61.9159L88.0461 64.4143C88.8639 65.1161 90.0764 65.1161 90.9224 64.4424L94.2498 61.4667C94.3626 61.3825 94.4754 61.2702 94.5882 61.1579" stroke="#E0E0E0" stroke-width="2" stroke-miterlimit="10"/>
<path d="M41.5141 97.2903H5.78621C3.41752 97.2903 1.5 95.3813 1.5 93.0232V43.2787C1.5 40.9207 3.41752 39.0117 5.78621 39.0117H41.5141C43.8827 39.0117 45.8003 40.9207 45.8003 43.2787V93.0513C45.8003 95.4094 43.8827 97.2903 41.5141 97.2903Z" fill="white" stroke="#E0E0E0" stroke-width="2" stroke-miterlimit="10"/>
<path d="M28.6251 83.166H18.6427C17.543 83.166 16.6406 82.2677 16.6406 81.1728C16.6406 80.078 17.543 79.1797 18.6427 79.1797H28.6251C29.7249 79.1797 30.6272 80.078 30.6272 81.1728C30.6272 82.2677 29.7249 83.166 28.6251 83.166Z" fill="#E0E0E0"/>
<path d="M33.2216 87.4914H14.0746C13.4824 87.4914 13.0312 87.0142 13.0312 86.4527C13.0312 85.8632 13.5106 85.4141 14.0746 85.4141H33.2216C33.8137 85.4141 34.2649 85.8913 34.2649 86.4527C34.2649 87.0142 33.7855 87.4914 33.2216 87.4914Z" fill="#E0E0E0"/>
<path d="M36.7153 59.7835C36.7153 63.7136 34.967 67.2227 32.2317 69.6088C29.9194 71.602 26.9304 72.8091 23.6311 72.8091C20.3318 72.8091 17.3146 71.602 15.0305 69.6088C12.2952 67.2227 10.5469 63.7136 10.5469 59.7835C10.5469 52.5969 16.4122 46.7578 23.6311 46.7578C30.85 46.7578 36.7153 52.5969 36.7153 59.7835Z" fill="#F2F2F2" stroke="#E0E0E0" stroke-width="2" stroke-miterlimit="10"/>
<path d="M32.2325 69.6083C29.9202 71.6015 26.9311 72.8086 23.6319 72.8086C20.3326 72.8086 17.3154 71.6015 15.0312 69.6083C15.99 69.2434 17.2308 68.7661 18.8945 68.0643C19.2893 67.8959 19.5713 67.6152 19.7404 67.2502C19.825 67.0537 19.8814 66.8291 19.8814 66.5765V63.4604C19.825 63.4043 19.7686 63.3201 19.7404 63.2639C19.4585 62.8709 19.2893 62.3937 19.2329 61.9164L18.9509 61.7761C18.1613 61.9726 18.2177 61.1023 17.9921 59.4741C17.9075 58.8004 18.0203 58.66 18.3023 58.5477L18.5561 58.2109C17.0052 54.7018 17.7947 52.5122 19.3175 51.7542C18.8099 50.6594 18.7817 50.2383 18.7817 50.2383C18.7817 50.2383 22.0527 50.7717 23.1807 50.5752C24.6188 50.2944 26.7901 50.6313 27.6079 52.5122C28.9614 53.0455 29.4972 53.9158 29.61 54.8141C29.7228 55.6843 29.469 56.5827 29.2434 57.3126C29.2152 57.3687 29.2152 57.3968 29.187 57.4529C29.187 57.481 29.1588 57.481 29.1588 57.5091C29.1306 57.5933 29.1024 57.6775 29.0742 57.7617C29.046 57.7898 29.046 57.8459 29.0178 57.874C28.9896 57.9582 28.9614 58.0144 28.9332 58.0986V58.1267C28.905 58.1828 28.8768 58.2389 28.8768 58.2951C28.8486 58.3793 28.8204 58.4355 28.8204 58.4916C28.8486 58.5197 28.8486 58.5477 28.8486 58.5758C29.0742 58.6881 29.1306 58.8565 29.046 59.4461C28.8486 61.0181 28.905 61.9726 28.0873 61.748L27.3823 63.0113C27.3541 63.1516 27.3259 63.2078 27.3259 63.3201C27.2977 63.5447 27.2977 64.0219 27.2977 66.5765C27.2977 66.8853 27.3823 67.166 27.5515 67.4187C27.7207 67.6994 27.9745 67.924 28.2847 68.0363H28.3129C30.0612 68.7661 31.3019 69.2434 32.2325 69.6083Z" fill="white" stroke="#E0E0E0" stroke-width="2" stroke-miterlimit="10"/>
<path d="M28.8754 58.4923C28.9318 58.0993 28.7626 57.6221 28.6216 57.2571C28.5934 57.201 28.5652 57.1448 28.537 57.0887C27.9166 55.8535 26.5067 55.3201 25.1814 55.264C21.7975 55.0956 21.4591 55.7412 20.4158 54.7587C20.7541 55.264 20.7823 56.0219 20.2748 57.0045C19.9082 57.6782 19.2314 57.987 18.6392 58.1835C17.0883 54.6745 17.8779 52.4848 19.4006 51.7269C18.893 50.632 18.8648 50.2109 18.8648 50.2109C18.8648 50.2109 22.1359 50.7443 23.2638 50.5478C24.702 50.2671 26.8733 50.604 27.691 52.4848C29.0446 53.0182 29.5804 53.8884 29.6932 54.7868C29.8623 56.2465 29.0164 57.8467 28.8754 58.4923Z" fill="#E0E0E0"/>
<path d="M27.6331 67.4489V68.0665H19.7656V67.2524C19.8502 67.0559 19.9066 66.8313 19.9066 66.5787V63.4626C19.8502 63.4065 19.7938 63.3222 19.7656 63.2661V63.0977C19.9348 63.3784 20.1604 63.6591 20.4142 63.8556L22.8675 65.568C23.4315 66.0453 24.2774 66.0733 24.8696 65.5961L27.1819 63.5468C27.2665 63.4907 27.3511 63.4065 27.4075 63.3222C27.3793 63.5468 27.3793 64.0241 27.3793 66.5787C27.3793 66.8874 27.4639 67.1962 27.6331 67.4489Z" fill="url(#paint0_linear_325_99493)"/>
<path d="M171.764 97.2903H136.036C133.668 97.2903 131.75 95.3813 131.75 93.0232V43.2787C131.75 40.9207 133.668 39.0117 136.036 39.0117H171.764C174.133 39.0117 176.05 40.9207 176.05 43.2787V93.0513C176.05 95.4094 174.133 97.2903 171.764 97.2903Z" fill="white" stroke="#E0E0E0" stroke-width="2" stroke-miterlimit="10"/>
<path d="M158.875 83.166H148.893C147.793 83.166 146.891 82.2677 146.891 81.1728C146.891 80.078 147.793 79.1797 148.893 79.1797H158.875C159.975 79.1797 160.877 80.078 160.877 81.1728C160.905 82.2677 160.003 83.166 158.875 83.166Z" fill="#E0E0E0"/>
<path d="M163.472 87.4914H144.325C143.732 87.4914 143.281 87.0142 143.281 86.4527C143.281 85.8632 143.761 85.4141 144.325 85.4141H163.472C164.064 85.4141 164.515 85.8913 164.515 86.4527C164.515 87.0142 164.064 87.4914 163.472 87.4914Z" fill="#E0E0E0"/>
<path d="M166.997 59.7835C166.997 63.7136 165.248 67.2227 162.513 69.6088C160.201 71.602 157.212 72.8091 153.912 72.8091C150.613 72.8091 147.596 71.602 145.312 69.6088C142.576 67.2227 140.828 63.7136 140.828 59.7835C140.828 52.5969 146.693 46.7578 153.912 46.7578C161.131 46.7578 166.997 52.5969 166.997 59.7835Z" fill="#F2F2F2" stroke="#E0E0E0" stroke-width="2" stroke-miterlimit="10"/>
<path d="M162.514 69.6083C160.201 71.6015 157.212 72.8086 153.913 72.8086C150.614 72.8086 147.597 71.6015 145.312 69.6083C146.271 69.2434 147.512 68.7661 149.176 68.0643C149.571 67.8959 149.853 67.6152 150.022 67.2502C150.106 67.0537 150.163 66.8291 150.163 66.5765V63.4604C150.106 63.4043 150.05 63.3201 150.022 63.2639C149.74 62.8709 149.571 62.3937 149.514 61.9164L149.232 61.7761C148.443 61.9726 148.499 61.1023 148.273 59.4741C148.189 58.8004 148.302 58.66 148.584 58.5477L148.837 58.2109C147.286 54.7018 148.076 52.5122 149.599 51.7542C149.091 50.6594 149.063 50.2383 149.063 50.2383C149.063 50.2383 152.334 50.7717 153.462 50.5752C154.9 50.2944 157.071 50.6313 157.889 52.5122C159.243 53.0455 159.778 53.9158 159.891 54.8141C160.004 55.6843 159.75 56.5827 159.525 57.3126C159.496 57.3687 159.496 57.3968 159.468 57.4529C159.468 57.481 159.44 57.481 159.44 57.5091C159.412 57.5933 159.384 57.6775 159.355 57.7617C159.327 57.7898 159.327 57.8459 159.299 57.874C159.271 57.9582 159.243 58.0144 159.214 58.0986V58.1267C159.186 58.1828 159.158 58.2389 159.158 58.2951C159.13 58.3793 159.102 58.4355 159.102 58.4916C159.13 58.5197 159.13 58.5477 159.13 58.5758C159.355 58.6881 159.412 58.8565 159.327 59.4461C159.13 61.0181 159.186 61.9726 158.369 61.748L157.664 63.0113C157.635 63.1516 157.607 63.2078 157.607 63.3201C157.579 63.5447 157.579 64.0219 157.579 66.5765C157.579 66.8853 157.664 67.166 157.833 67.4187C158.002 67.6994 158.256 67.924 158.566 68.0363H158.594C160.314 68.7661 161.555 69.2434 162.514 69.6083Z" fill="white" stroke="#E0E0E0" stroke-width="2" stroke-miterlimit="10"/>
<path d="M159.125 58.4923C159.182 58.0993 159.013 57.6221 158.872 57.2571C158.843 57.201 158.815 57.1448 158.787 57.0887C158.167 55.8535 156.757 55.3201 155.431 55.264C152.048 55.0956 151.709 55.7412 150.666 54.7587C151.004 55.264 151.032 56.0219 150.525 57.0045C150.158 57.6782 149.481 57.987 148.889 58.1835C147.338 54.6745 148.128 52.4848 149.651 51.7269C149.143 50.632 149.115 50.2109 149.115 50.2109C149.115 50.2109 152.386 50.7443 153.514 50.5478C154.952 50.2671 157.123 50.604 157.941 52.4848C159.295 53.0182 159.83 53.8884 159.943 54.7868C160.112 56.2465 159.295 57.8467 159.125 58.4923Z" fill="#E0E0E0"/>
<path d="M157.891 67.4489V68.0665H150.023V67.2524C150.108 67.0559 150.164 66.8313 150.164 66.5787V63.4626C150.108 63.4065 150.052 63.3222 150.023 63.2661V63.0977C150.193 63.3784 150.418 63.6591 150.672 63.8556L153.125 65.568C153.689 66.0453 154.535 66.0733 155.127 65.5961L157.44 63.5468C157.524 63.4907 157.609 63.4065 157.665 63.3222C157.637 63.5468 157.637 64.0241 157.637 66.5787C157.637 66.8874 157.722 67.1962 157.891 67.4489Z" fill="url(#paint1_linear_325_99493)"/>
<path d="M165.078 150.824L129.406 115.34L137.584 107.199L173.227 142.711L165.078 150.824Z" fill="#E0E0E0" stroke="#E0E0E0" stroke-width="2" stroke-miterlimit="10"/>
<path d="M182.847 168.65L155.494 141.42C153.21 139.146 153.21 135.44 155.494 133.166C157.778 130.892 161.501 130.892 163.785 133.166L191.138 160.397C193.422 162.671 193.422 166.376 191.138 168.65C188.853 170.924 185.131 170.924 182.847 168.65Z" fill="#E0E0E0" stroke="#E0E0E0" stroke-width="2" stroke-miterlimit="10"/>
<path d="M180.899 170.388L145.707 135.354C144.889 134.54 144.889 133.22 145.707 132.378L154.702 123.423C155.52 122.609 156.846 122.609 157.692 123.423L192.884 158.458C193.701 159.272 193.701 160.591 192.884 161.433L183.888 170.388C183.042 171.203 181.717 171.203 180.899 170.388Z" fill="#F2F2F2" stroke="#E0E0E0" stroke-width="2" stroke-miterlimit="10"/>
<path d="M89.0299 1C51.6948 1 21.4375 31.1218 21.4375 68.2898C21.4375 105.43 51.6948 135.58 89.0017 135.58C126.337 135.58 156.594 105.458 156.594 68.2898C156.594 31.1218 126.337 1 89.0299 1ZM89.0299 123.115C59.0547 123.115 34.7755 98.552 34.7755 68.2617C34.7755 37.9715 59.0547 13.4361 89.0299 13.4361C119.005 13.4361 143.284 37.9996 143.284 68.2898C143.284 98.5801 118.977 123.115 89.0299 123.115Z" fill="#F2F2F2" stroke="#E0E0E0" stroke-width="2" stroke-miterlimit="10"/>
<defs>
<linearGradient id="paint0_linear_325_99493" x1="23.7017" y1="68.0967" x2="23.7017" y2="65.3594" gradientUnits="userSpaceOnUse">
<stop stop-color="white"/>
<stop offset="1" stop-color="#E2E5EC"/>
</linearGradient>
<linearGradient id="paint1_linear_325_99493" x1="153.96" y1="68.0967" x2="153.96" y2="65.3594" gradientUnits="userSpaceOnUse">
<stop stop-color="white"/>
<stop offset="1" stop-color="#E2E5EC"/>
</linearGradient>
</defs>
</svg>
