<svg width="13" height="9" viewBox="0 0 13 9" fill="none" xmlns="http://www.w3.org/2000/svg">
<path fill-rule="evenodd" clip-rule="evenodd" d="M2.02386 4.65845C1.9896 4.60555 1.95894 4.55624 1.93181 4.5112C1.96207 4.46375 1.99639 4.41151 2.0348 4.35529C2.22826 4.07218 2.52172 3.6936 2.9181 3.31609C3.70975 2.56214 4.88673 1.83333 6.5 1.83333C8.11327 1.83333 9.29025 2.56214 10.0819 3.31609C10.4783 3.6936 10.7717 4.07218 10.9652 4.35529C11.0036 4.41151 11.0379 4.46375 11.0682 4.5112C11.0411 4.55624 11.0104 4.60555 10.9761 4.65845C10.7946 4.93875 10.5158 5.31414 10.1305 5.68867C9.36446 6.43345 8.18966 7.16667 6.5 7.16667C4.81034 7.16667 3.63554 6.43345 2.86948 5.68867C2.48425 5.31414 2.20539 4.93875 2.02386 4.65845ZM12.4394 4.77777C12.4395 4.77747 12.4397 4.77717 11.8333 4.5L12.4397 4.77717C12.5235 4.59376 12.5198 4.38224 12.4296 4.20186L11.8333 4.5C12.4296 4.20186 12.4295 4.20159 12.4293 4.20131L12.429 4.20068L12.4283 4.19919L12.4263 4.1953L12.4205 4.18392C12.4157 4.17477 12.4093 4.1625 12.4011 4.14732C12.3849 4.11697 12.3617 4.07494 12.3316 4.02291C12.2714 3.91893 12.1832 3.77447 12.0661 3.60304C11.8324 3.26115 11.4801 2.8064 11.0014 2.35057C10.0431 1.43786 8.5534 0.5 6.5 0.5C4.4466 0.5 2.95691 1.43786 1.99856 2.35057C1.51995 2.8064 1.16757 3.26115 0.933945 3.60304C0.8168 3.77447 0.728557 3.91893 0.668398 4.02291C0.638294 4.07494 0.615146 4.11697 0.598859 4.14732C0.590713 4.1625 0.584276 4.17477 0.579536 4.18392L0.573693 4.1953L0.571722 4.19919L0.570973 4.20068L0.570658 4.20131C0.570517 4.20159 0.570382 4.20186 1.16667 4.5L0.570382 4.20186C0.480191 4.38224 0.476502 4.59376 0.56035 4.77717L1.16667 4.5C0.56035 4.77717 0.560484 4.77747 0.560624 4.77777L0.560935 4.77845L0.561664 4.78003L0.563559 4.78411L0.569104 4.79588C0.573584 4.8053 0.579638 4.81784 0.587292 4.8333C0.602595 4.8642 0.624322 4.90681 0.65268 4.95944C0.709347 5.06462 0.792789 5.21039 0.904715 5.38322C1.12794 5.72791 1.46813 6.18586 1.94004 6.64466C2.88827 7.56655 4.38014 8.5 6.5 8.5C8.61987 8.5 10.1117 7.56655 11.06 6.64466C11.5319 6.18586 11.8721 5.72791 12.0953 5.38322C12.2072 5.21039 12.2907 5.06462 12.3473 4.95944C12.3757 4.90681 12.3974 4.8642 12.4127 4.8333C12.4204 4.81784 12.4264 4.8053 12.4309 4.79588L12.4364 4.78411L12.4383 4.78003L12.4391 4.77845L12.4394 4.77777ZM6.5 3.83333C6.13181 3.83333 5.83333 4.13181 5.83333 4.5C5.83333 4.86819 6.13181 5.16667 6.5 5.16667C6.86819 5.16667 7.16667 4.86819 7.16667 4.5C7.16667 4.13181 6.86819 3.83333 6.5 3.83333ZM8.5 4.5C8.5 5.60457 7.60457 6.5 6.5 6.5C5.39543 6.5 4.5 5.60457 4.5 4.5C4.5 3.39543 5.39543 2.5 6.5 2.5C7.60457 2.5 8.5 3.39543 8.5 4.5Z" fill="white"/>
</svg>
