<svg width="20" height="17" viewBox="0 0 20 17" fill="none" xmlns="http://www.w3.org/2000/svg">
<path fill-rule="evenodd" clip-rule="evenodd" d="M10 8.5C8.34315 8.5 7 9.84315 7 11.5V12.6429V15.5C7 16.0523 6.55228 16.5 6 16.5C5.44772 16.5 5 16.0523 5 15.5V12.6429V11.5L5.00012 11.4645C4.83678 11.4879 4.6698 11.5 4.5 11.5C4.38994 11.5 4.28108 11.4949 4.17361 11.485C4.11723 11.4949 4.05921 11.5 4 11.5H3.57143C2.70355 11.5 2 12.2036 2 13.0714V14.5C2 15.0523 1.55228 15.5 1 15.5C0.447715 15.5 0 15.0523 0 14.5V13.0714C0 11.8004 0.663961 10.6845 1.66396 10.0515C1.24626 9.47507 1 8.76629 1 8C1 6.067 2.567 4.5 4.5 4.5C5.04254 4.5 5.55625 4.62344 6.01457 4.84378C6.00492 4.73047 6 4.61581 6 4.5C6 2.29086 7.79086 0.5 10 0.5C12.2091 0.5 14 2.29086 14 4.5C14 4.61581 13.9951 4.73047 13.9854 4.84378C14.4438 4.62345 14.9575 4.5 15.5 4.5C17.433 4.5 19 6.067 19 8C19 8.76629 18.7537 9.47507 18.336 10.0515C19.336 10.6845 20 11.8004 20 13.0714V14.5C20 15.0523 19.5523 15.5 19 15.5C18.4477 15.5 18 15.0523 18 14.5V13.0714C18 12.2036 17.2964 11.5 16.4286 11.5H16C15.9408 11.5 15.8828 11.4949 15.8264 11.485C15.7189 11.4949 15.6101 11.5 15.5 11.5C15.3302 11.5 15.1632 11.4879 14.9999 11.4645L15 11.5V12.6429V15.5C15 16.0523 14.5523 16.5 14 16.5C13.4477 16.5 13 16.0523 13 15.5V12.6429V11.5C13 9.84315 11.6569 8.5 10 8.5ZM10 6.5C8.89543 6.5 8 5.60457 8 4.5C8 3.39543 8.89543 2.5 10 2.5C11.1046 2.5 12 3.39543 12 4.5C12 5.60457 11.1046 6.5 10 6.5ZM4.5 6.5C3.67157 6.5 3 7.17157 3 8C3 8.82843 3.67157 9.5 4.5 9.5C5.32843 9.5 6 8.82843 6 8C6 7.17157 5.32843 6.5 4.5 6.5ZM15.5 6.5C14.6716 6.5 14 7.17157 14 8C14 8.82843 14.6716 9.5 15.5 9.5C16.3284 9.5 17 8.82843 17 8C17 7.17157 16.3284 6.5 15.5 6.5Z" fill="#9A9A9A"/>
</svg>
