<svg width="52" height="33" viewBox="0 0 52 33" fill="none" xmlns="http://www.w3.org/2000/svg">
<path d="M2 15.5C2 7.21573 8.71573 0.5 17 0.5H37C45.2843 0.5 52 7.21573 52 15.5C52 23.7843 45.2843 30.5 37 30.5H17C8.71573 30.5 2 23.7843 2 15.5Z" fill="#787880" fill-opacity="0.16"/>
<g filter="url(#filter0_dd_752_104117)">
<path fill-rule="evenodd" clip-rule="evenodd" d="M17 29.5C24.732 29.5 31 23.232 31 15.5C31 7.76801 24.732 1.5 17 1.5C9.26801 1.5 3 7.76801 3 15.5C3 23.232 9.26801 29.5 17 29.5Z" fill="white"/>
<path d="M17 29.75C24.8701 29.75 31.25 23.3701 31.25 15.5C31.25 7.62994 24.8701 1.25 17 1.25C9.12994 1.25 2.75 7.62994 2.75 15.5C2.75 23.3701 9.12994 29.75 17 29.75Z" stroke="black" stroke-opacity="0.04" stroke-width="0.5"/>
</g>
<defs>
<filter id="filter0_dd_752_104117" x="0.5" y="0" width="33" height="33" filterUnits="userSpaceOnUse" color-interpolation-filters="sRGB">
<feFlood flood-opacity="0" result="BackgroundImageFix"/>
<feColorMatrix in="SourceAlpha" type="matrix" values="0 0 0 0 0 0 0 0 0 0 0 0 0 0 0 0 0 0 127 0" result="hardAlpha"/>
<feOffset dy="1"/>
<feGaussianBlur stdDeviation="1"/>
<feColorMatrix type="matrix" values="0 0 0 0 0 0 0 0 0 0 0 0 0 0 0 0 0 0 0.2 0"/>
<feBlend mode="normal" in2="BackgroundImageFix" result="effect1_dropShadow_752_104117"/>
<feColorMatrix in="SourceAlpha" type="matrix" values="0 0 0 0 0 0 0 0 0 0 0 0 0 0 0 0 0 0 127 0" result="hardAlpha"/>
<feOffset dy="0.1"/>
<feGaussianBlur stdDeviation="0.15"/>
<feColorMatrix type="matrix" values="0 0 0 0 0 0 0 0 0 0 0 0 0 0 0 0 0 0 0.1 0"/>
<feBlend mode="normal" in2="effect1_dropShadow_752_104117" result="effect2_dropShadow_752_104117"/>
<feBlend mode="normal" in="SourceGraphic" in2="effect2_dropShadow_752_104117" result="shape"/>
</filter>
</defs>
</svg>
