<svg width="51" height="33" viewBox="0 0 51 33" fill="none" xmlns="http://www.w3.org/2000/svg">
<path d="M0 15.5C0 7.21573 6.71573 0.5 15 0.5H35C43.2843 0.5 50 7.21573 50 15.5C50 23.7843 43.2843 30.5 35 30.5H15C6.71573 30.5 0 23.7843 0 15.5Z" fill="#34C759"/>
<g filter="url(#filter0_dd_752_104113)">
<path fill-rule="evenodd" clip-rule="evenodd" d="M35 29.5C42.732 29.5 49 23.232 49 15.5C49 7.76801 42.732 1.5 35 1.5C27.268 1.5 21 7.76801 21 15.5C21 23.232 27.268 29.5 35 29.5Z" fill="white"/>
</g>
<defs>
<filter id="filter0_dd_752_104113" x="19" y="0.5" width="32" height="32" filterUnits="userSpaceOnUse" color-interpolation-filters="sRGB">
<feFlood flood-opacity="0" result="BackgroundImageFix"/>
<feColorMatrix in="SourceAlpha" type="matrix" values="0 0 0 0 0 0 0 0 0 0 0 0 0 0 0 0 0 0 127 0" result="hardAlpha"/>
<feOffset dy="1"/>
<feGaussianBlur stdDeviation="1"/>
<feColorMatrix type="matrix" values="0 0 0 0 0 0 0 0 0 0 0 0 0 0 0 0 0 0 0.2 0"/>
<feBlend mode="normal" in2="BackgroundImageFix" result="effect1_dropShadow_752_104113"/>
<feColorMatrix in="SourceAlpha" type="matrix" values="0 0 0 0 0 0 0 0 0 0 0 0 0 0 0 0 0 0 127 0" result="hardAlpha"/>
<feOffset dy="0.1"/>
<feGaussianBlur stdDeviation="0.15"/>
<feColorMatrix type="matrix" values="0 0 0 0 0 0 0 0 0 0 0 0 0 0 0 0 0 0 0.1 0"/>
<feBlend mode="normal" in2="effect1_dropShadow_752_104113" result="effect2_dropShadow_752_104113"/>
<feBlend mode="normal" in="SourceGraphic" in2="effect2_dropShadow_752_104113" result="shape"/>
</filter>
</defs>
</svg>
