<svg width="20" height="19" viewBox="0 0 20 19" fill="none" xmlns="http://www.w3.org/2000/svg">
<path fill-rule="evenodd" clip-rule="evenodd" d="M4.56 9.62485L1.44 7.51838C1.17022 7.33641 1.00606 7.03472 1 6.70973V4.02422C0.989854 3.85636 1.06505 3.69469 1.20005 3.59411C1.33505 3.49353 1.5117 3.46758 1.67 3.52506L2.3 3.78462C2.57704 3.88331 2.79651 4.09876 2.9 4.37364L3.71 6.52005L8 8.01754V1.02924C7.98985 0.861376 8.06505 0.699699 8.20005 0.599122C8.33505 0.498545 8.5117 0.472589 8.67 0.53007L9.3 0.789636C9.57704 0.888322 9.79651 1.10377 9.9 1.37865L13.06 9.79457L16.8 11.1024C17.5464 11.3744 18.1542 11.9309 18.49 12.6498L18.95 13.6481C19.0079 13.7685 19.0151 13.9069 18.97 14.0326C18.9249 14.1583 18.8313 14.2607 18.71 14.317H18.63C18.1495 14.542 17.5991 14.5672 17.1 14.3869L5.87 10.2837C5.40798 10.1184 4.96803 9.89715 4.56 9.62485ZM20 18.0008V17.0025C20 16.7268 19.7761 16.5033 19.5 16.5033H0.5C0.223858 16.5033 0 16.7268 0 17.0025V18.0008C0 18.2765 0.223858 18.5 0.5 18.5H19.5C19.7761 18.5 20 18.2765 20 18.0008Z" fill="black"/>
</svg>
