<svg width="97" height="38" viewBox="0 0 97 38" fill="none" xmlns="http://www.w3.org/2000/svg">
<path d="M20.7405 12.6026L20.4649 9.92618C20.4649 9.92618 19.7889 9.7629 18.9023 10.3552L19.2903 12.2859L1.22183 7.79106L0.867188 8.00582L19.5659 13.8683L20.0666 17.2779C20.0666 17.2779 19.2393 17.7189 19.0095 18.5311L14.837 21.3448C15.0336 21.7429 15.329 22.084 15.695 22.3354L19.5659 19.3891C19.5659 19.3891 20.4956 19.7926 21.0983 19.8051C21.0983 19.8051 20.4649 20.0199 20.1685 20.5201L20.2403 21.3474C20.2403 21.3474 20.6137 21.9194 21.5965 21.9194C22.5793 21.9194 24.6728 21.5554 24.6728 21.5554L25.4434 22.3406L17.7323 24.0353C16.7735 24.2444 15.8771 24.6756 15.1152 25.2942C14.0019 26.2006 12.407 27.6378 11.4232 29.138C10.0488 31.2336 8.99219 34.2377 8.69111 35.1399C8.62489 35.3381 8.59563 35.5468 8.60479 35.7556C8.61571 36.0119 8.65367 36.3619 8.76755 36.6349C8.90379 36.9619 9.90687 37.198 10.5595 37.3192C10.9228 37.3868 11.2929 37.4102 11.6619 37.3889C13.9218 37.2454 16.1577 36.8416 18.3251 36.1856L49.6635 25.9489C49.6635 25.9489 49.5896 26.4413 49.8002 26.8194L45.8051 30.7506L46.7348 31.7313L50.5651 27.4517L50.6541 27.5079L50.1257 28.2546C50.1257 28.2546 49.8959 29.1048 50.861 29.4802L51.4585 29.5031C51.4585 29.5031 52.0305 29.9321 53.0445 29.7022C53.0445 29.7022 54.5686 29.2992 55.1817 29.0564C55.1817 29.0564 56.1011 29.955 57.3725 30.997C57.3725 30.997 58.1384 30.5452 58.6595 29.3039L57.1338 28.3388L58.6595 27.7871C58.6595 27.7871 61.4784 27.0217 61.5855 25.6119L61.8003 24.7539L93.6518 30.6216L93.7439 30.4224L96.1359 29.84V29.6716L61.9542 22.1669C61.9542 22.1669 61.026 21.063 58.1967 21.2309L61.9672 16.8406C61.9672 16.8406 62.6952 15.6352 61.4716 15.6352C61.4716 15.6352 64.4949 5.31951 64.9442 4.44123L75.2204 6.46351L77.2417 5.91179V5.62579L65.3139 3.50263C65.3139 3.50263 66.0216 2.93064 65.4429 2.23592C64.8641 1.5412 61.9433 2.76735 61.9433 2.76735L52.1584 0.601562L50.3608 1.03056V1.29628L61.2912 3.56295C61.2912 3.56295 61.3026 3.98363 61.6588 4.48179C61.6588 4.48179 60.1264 9.38434 58.5742 12.51C58.5742 12.51 56.4032 14.2463 54.9555 15.0227C54.9555 15.0227 52.5021 16.2634 50.9089 16.6617C49.3156 17.06 45.3168 17.8276 45.3168 17.8276C45.3168 17.8276 42.9555 17.1214 39.0487 17.2306L34.2995 16.0512C34.2995 16.0512 34.468 14.902 31.3272 14.7185C31.3272 14.7185 30.0272 14.6108 29.0595 14.7486L20.7405 12.6026Z" fill="url(#paint0_radial_774_110045)"/>
<defs>
<radialGradient id="paint0_radial_774_110045" cx="0" cy="0" r="1" gradientUnits="userSpaceOnUse" gradientTransform="translate(96.1359 30.0375) rotate(-158.464) scale(88.5425 228.358)">
<stop stop-color="#8F8AD2"/>
<stop offset="1" stop-color="#4267B2"/>
</radialGradient>
</defs>
</svg>
