<svg width="97" height="32" viewBox="0 0 97 32" fill="none" xmlns="http://www.w3.org/2000/svg">
<path d="M64.7601 7.1938V6.97852L67.2353 6.8402L73.9995 7.43976H76.0275V7.59576L79.5942 8.057L79.4709 8.395L76.0124 8.811L76.0889 19.9104L72.1764 21.7548L49.2257 24.1401L55.6737 24.5888L90.4253 23.8281L91.2094 23.0668L94.5067 14.8804L95.6138 13.3126L96.3054 12.8051H96.6746L93.746 23.4589L92.9389 24.243L89.9947 24.75L50.9469 25.879L40.109 25.515C40.109 25.515 34.5055 26.4099 24.0363 30.261C24.0363 30.261 19.4702 32.0134 10.9609 31.509C2.45166 31.0046 3.51298 28.5611 3.51298 28.5611C3.51298 28.5611 8.9319 22.7439 20.2773 20.7726C20.2773 20.7726 4.6523 13.2201 0.900504 7.9166C0.900504 7.9166 -0.199816 6.4866 0.630104 5.91044C0.630104 5.91044 1.92178 0.998517 3.25922 0.398438C3.48998 0.634571 3.62899 0.945234 3.6513 1.27464C3.67418 1.80504 2.31386 6.16264 2.31386 6.16264C2.31386 6.16264 13.9374 15.0749 27.173 20.1423C27.173 20.1423 31.853 19.8678 35.0895 20.4543C37.0362 20.813 39.0065 21.0294 40.9847 21.1017L45.6475 21.2546C46.7253 21.2893 47.8033 21.2797 48.8814 21.226L65.1897 20.3987C65.1897 20.3987 66.031 20.3706 66.3576 19.6462L68.4189 8.25096L64.7601 7.1938Z" fill="url(#paint0_radial_774_110014)"/>
<defs>
<radialGradient id="paint0_radial_774_110014" cx="0" cy="0" r="1" gradientUnits="userSpaceOnUse" gradientTransform="translate(96.6746 25.3598) rotate(-161.692) scale(87.7411 197.641)">
<stop stop-color="#8F8AD2"/>
<stop offset="1" stop-color="#4267B2"/>
</radialGradient>
</defs>
</svg>
