<svg width="99" height="62" viewBox="0 0 99 62" fill="none" xmlns="http://www.w3.org/2000/svg">
<path d="M74.3455 23.7974C75.6273 23.9414 76.7895 24.3569 77.7957 25.2586C77.3085 25.8103 76.6054 25.7068 76.0423 26.0121C77.0552 26.9065 77.6106 28.0733 78.1223 29.2672C78.3001 29.6832 78.6787 29.782 79.0666 29.833C79.5497 29.8964 79.9948 29.7113 80.4456 29.573C80.6354 29.5148 80.8315 29.4784 81.0249 29.4316L81.0187 29.4222C80.4467 29.7711 79.8227 29.9178 79.1623 29.9521C78.9619 29.9552 78.7628 29.9852 78.5705 30.0415C75.1149 31.2091 71.6614 32.3824 68.21 33.5614C67.7363 33.7236 67.4436 34.1095 67.2647 34.5572C67.2179 34.6747 67.3026 34.8858 67.3931 35.0028C67.4514 35.0782 67.6323 35.0876 67.7571 35.0782C67.8694 35.0694 67.976 34.9956 68.0858 34.9514C74.2613 32.4744 80.437 29.998 86.6128 27.5221C86.7954 27.4488 86.9836 27.3885 87.1687 27.3219C85.8167 28.105 84.4606 28.8616 83.0997 29.6099C82.0186 30.2027 80.9292 30.7804 79.8482 31.3727C79.5845 31.5168 79.338 31.691 79.0832 31.8516L78.5851 32.0872L78.6298 32.1725L79.1134 31.8844C79.9834 31.4793 80.8627 31.093 81.7212 30.664C82.99 30.0299 84.25 29.3787 85.5011 28.7103C86.7803 28.0229 88.0418 27.3027 89.307 26.5903C89.4692 26.4993 89.6086 26.3688 89.7583 26.2565C89.2778 26.3605 88.8431 26.5373 88.4006 26.6886C86.2452 27.4265 84.069 28.1082 82.0046 29.0951C81.859 29.1648 81.6869 29.1799 81.5267 29.2204L81.535 29.2308C81.5642 29.1955 81.587 29.1435 81.6245 29.1268C83.926 28.1102 86.2088 27.0468 88.6237 26.3131C89.06 26.1805 89.4988 26.0568 89.9377 25.9341C90.0298 25.9086 90.1286 25.9065 90.2835 25.9725C90.141 26.1197 90.0173 26.2944 89.8519 26.4088C89.3246 26.7728 88.8036 27.1586 88.2399 27.4639C86.7564 28.2704 85.252 29.0395 83.7549 29.8221C83.5922 29.9074 83.4237 29.9833 83.2198 30.0821C83.3006 30.136 83.3846 30.1848 83.4715 30.2282C86.7163 31.5268 89.962 32.8227 93.2085 34.1157C93.5808 34.2639 93.898 34.4683 94.1502 34.7751C94.4716 35.1672 94.7961 35.5551 95.1076 35.957C95.9271 37.0111 96.7461 38.0667 97.5516 39.129C97.8469 39.518 98.1121 39.9303 98.3872 40.3349C98.5432 40.5627 98.4761 40.7676 98.2655 40.9033C98.0258 41.0593 97.7757 41.2153 97.5074 41.2995C96.38 41.6531 95.2454 41.9823 94.1112 42.3135C93.6734 42.4414 93.2335 42.5652 92.7884 42.6603C92.6112 42.7009 92.4263 42.6913 92.2543 42.6328C89.377 41.5013 86.504 40.3621 83.6353 39.2153C82.977 38.9553 82.326 38.673 81.5512 38.3511C81.6801 38.5966 81.7524 38.7546 81.8424 38.9023C83.2001 41.1227 84.5729 43.3348 85.9166 45.564C86.9633 47.3008 87.9518 49.0735 89.0116 50.8025C89.6252 51.804 89.907 52.9126 90.1156 54.0265C90.3241 55.1403 90.3693 56.3046 90.4697 57.447C90.5186 58.0014 90.5284 58.5588 90.5612 59.1147C90.5804 59.4392 90.4499 59.6347 90.1452 59.7844C88.9319 60.38 87.7265 60.9912 86.5291 61.618C86.1838 61.7989 85.9051 61.7942 85.5458 61.618C75.2602 56.6332 64.9687 51.6543 54.6713 46.681C53.3032 46.019 51.9314 45.3643 50.5716 44.6847C50.215 44.4954 49.7981 44.4545 49.4115 44.5708C45.5443 45.6041 41.6682 46.6035 37.8062 47.6544C37.1198 47.8416 36.5488 47.8026 35.8926 47.5171C33.3841 46.4251 30.8486 45.3987 28.3203 44.3451C28.1373 44.2687 27.9563 44.1829 27.7072 44.0701L28.6245 43.0821L28.584 43.0067C28.4321 43.0587 28.2782 43.1034 28.129 43.1595C26.8492 43.6426 25.5867 44.1782 24.2867 44.5989C22.7178 45.1069 21.1183 45.5188 19.5308 45.9691C17.9297 46.4236 16.2787 46.5811 14.635 46.7813C13.142 46.9633 11.6522 47.1693 10.1572 47.3336C8.83071 47.4787 7.49951 47.5879 6.16935 47.6976C5.54535 47.7496 4.92135 47.7709 4.29735 47.8016C3.20535 47.8583 2.14611 47.6061 1.07335 47.4818C0.58351 47.4251 0.38851 47.0658 0.64331 46.6394C0.976162 46.0728 1.35995 45.5378 1.78991 45.0409C2.71499 43.9936 3.84807 43.1902 5.02639 42.4518C5.08683 42.4244 5.15066 42.4052 5.21619 42.3946C5.10595 42.4913 5.00091 42.5943 4.88495 42.6832C4.18815 43.2157 3.44351 43.6957 2.80495 44.2895C2.19031 44.8615 1.67187 45.5375 1.13627 46.1859C0.98027 46.3773 0.80035 46.6066 0.88823 46.9342C4.95931 43.1543 9.76463 40.7462 15.0078 38.9907C14.9246 38.3236 15.3531 37.8171 15.6838 37.2591C15.26 37.4276 14.87 37.6231 14.4826 37.8218C13.2523 38.4541 12.0474 39.142 10.7906 39.7088C8.98827 40.5205 7.20259 41.3614 5.47827 42.326C5.39611 42.3723 5.29419 42.3837 5.20163 42.4118C5.33007 42.3119 5.44707 42.1897 5.58903 42.1154C6.93548 41.4113 8.28471 40.7124 9.63671 40.0188C11.4266 39.1056 13.2192 38.1981 15.0145 37.296C15.18 37.2122 15.3496 37.1367 15.5226 37.0698C16.5355 36.6814 17.4684 36.1437 18.3909 35.579C18.8935 35.2666 19.423 35 19.9733 34.7824C20.8619 34.4397 21.2088 33.7621 21.2088 32.888C21.1996 32.1118 21.1498 31.3367 21.0596 30.5657C20.9883 29.8928 20.9789 29.8548 21.6097 29.5642C22.0699 29.3525 22.5285 29.1331 23.0007 28.9511C25.1155 28.1352 27.1488 27.142 29.1835 26.1493C30.3795 25.5643 31.5994 25.0152 32.8235 24.4853C33.1594 24.3403 33.2962 24.1484 33.2853 23.8093C33.2378 22.3398 33.1913 20.87 33.1459 19.3997C33.1272 18.7757 33.1178 18.1486 33.1038 17.5231C33.0664 15.884 33.0341 14.2471 32.9899 12.6049C32.9379 10.6456 32.8714 8.6862 32.8131 6.72892C32.7715 5.32666 32.7313 3.92422 32.6925 2.52161C32.6862 2.32245 32.6743 2.12381 32.6628 1.88513C33.6612 1.56117 34.6695 1.22681 35.6825 0.907533C36.1978 0.745813 36.7225 0.613214 37.2425 0.464494C37.6017 0.359454 37.9835 0.359454 38.3428 0.464494C39.7225 0.86004 41.1014 1.25732 42.4794 1.65633C42.9661 1.79621 43.4492 1.95273 43.9416 2.06869C44.4663 2.19193 44.899 2.46441 45.3212 2.78369C49.5556 5.98064 53.5934 9.43032 57.6156 12.8998C57.7196 12.9871 57.8236 13.0667 57.9322 13.1514C58.2962 12.5124 62.3803 1.81545 62.3964 1.44209L68.0223 0.246094C68.1549 0.941333 68.2958 1.66257 68.4284 2.38485C68.8096 4.45965 69.1944 6.53392 69.5589 8.61132C69.6083 8.89368 69.8127 9.02732 69.9567 9.22544C69.9754 9.53744 70.2417 9.61856 70.4476 9.75636C71.1075 10.3346 71.7606 10.9217 72.4314 11.4864C72.6467 11.6674 72.7304 11.8566 72.7278 12.1364C72.7148 13.6444 72.7278 15.1477 72.7138 16.6531C72.7113 16.8887 72.6658 17.1218 72.5796 17.3411C72.069 18.6197 71.2723 19.6249 69.8995 20.0601C69.8252 20.0841 69.7669 20.1595 69.7009 20.2104C69.7134 20.2479 69.7253 20.2848 69.7378 20.3217L72.8505 20.0393C72.8755 17.2178 72.9025 14.4499 72.9254 11.6575C72.4293 11.2467 71.9067 10.8177 71.3898 10.3824C71.3101 10.3032 71.2373 10.2175 71.172 10.1261C71.4626 10.3232 71.7616 10.5083 72.0409 10.7194C72.3893 10.9825 72.721 11.2675 73.0627 11.5452C73.0429 13.4868 73.0216 15.4451 73.0029 17.4061C72.9956 18.1663 72.9961 18.9265 72.9883 19.6873C72.9836 20.1376 72.9519 20.1423 72.4974 20.1938C71.8797 20.264 71.2661 20.369 70.5563 20.473C70.7055 20.5848 70.7716 20.6457 70.8475 20.6893C71.7206 21.1901 72.3529 21.8765 72.5635 22.8936C72.6186 23.1536 72.6914 23.4136 72.7585 23.684C73.3019 23.7241 73.8317 23.7631 74.3632 23.8031C74.02 23.8416 73.6602 23.8291 73.3315 23.9237C68.4959 25.3149 63.6626 26.7146 58.8318 28.1227C58.6093 28.1872 58.3909 28.2668 58.1709 28.3396C59.2681 28.1409 60.3549 27.9189 61.4292 27.6449C62.5904 27.3485 63.7386 27.0021 64.8935 26.6792C66.2916 26.2878 67.6906 25.8978 69.0904 25.5092C70.0664 25.2404 71.0435 24.9731 72.0242 24.7209C72.7075 24.5451 73.396 24.5696 74.0845 24.7209C74.6497 24.8441 75.1562 25.0329 75.3236 25.7089C76.0215 25.5311 76.7276 25.5155 77.3828 25.1525C76.6949 24.6075 75.8868 24.2456 74.8109 23.97C74.6526 23.9214 74.4972 23.8637 74.3455 23.7974V23.7974ZM24.1556 28.6973L23.6356 28.8876L23.254 29.0488C23.3808 29.0067 23.6434 29.1487 23.6278 28.8788C23.853 28.9568 24.0303 28.9064 24.1478 28.6874C24.3704 28.7628 24.5352 28.6599 24.6871 28.5148L25.1941 28.311C25.6517 28.1477 26.1145 27.999 26.5664 27.819C28.6895 26.9829 30.7368 25.9824 32.7684 24.9481C32.9556 24.8525 33.1288 24.7287 33.3082 24.6179L33.2562 24.5139C33.0903 24.5789 32.9202 24.6346 32.759 24.71C30.2828 25.8699 27.8076 27.0313 25.3334 28.194C25.2814 28.2184 25.2461 28.2772 25.2029 28.3198L24.6959 28.5231L24.1556 28.6973ZM83.4622 43.029C83.561 43.2006 83.6594 43.3724 83.7575 43.5443C83.8355 43.7097 83.9 43.8834 83.9936 44.0394C85.2267 46.0996 86.4626 48.1581 87.7012 50.2149C88.3252 51.2549 88.7532 52.3703 89.0412 53.5429C89.1541 53.9994 89.2492 54.4716 89.2633 54.9396C89.294 55.9198 89.2524 56.9021 89.2695 57.8828C89.2747 58.1828 89.1577 58.3378 88.9164 58.4834C88.1364 58.955 87.3658 59.448 86.592 59.9326C86.2348 60.1562 85.877 60.3788 85.5167 60.6034C85.3316 60.5166 85.1626 60.4412 84.9967 60.3601C73.522 54.7441 62.0473 49.1246 50.5727 43.5017C50.2487 43.3457 49.9627 43.3077 49.6091 43.4039C45.4522 44.536 41.2891 45.6483 37.1333 46.7782C36.7953 46.878 36.4341 46.8651 36.1042 46.7413C34.449 46.1516 32.7861 45.5853 31.1252 45.0118C30.9692 44.9598 30.8132 44.9161 30.6572 44.8683C30.7449 44.9701 30.8576 45.0474 30.9843 45.0924C32.8152 45.8365 34.6487 46.5733 36.4755 47.3284C36.749 47.4412 36.9908 47.4183 37.2591 47.3471C41.195 46.3071 45.1335 45.2739 49.0673 44.2224C49.4661 44.1184 49.8187 44.0841 50.1692 44.3233C50.2424 44.3651 50.3188 44.4015 50.3974 44.432L66.2574 52.024C72.5366 55.0299 78.8147 58.0374 85.0918 61.0465C85.4127 61.2025 85.6592 61.2155 85.9758 61.034C87.151 60.3648 88.345 59.7288 89.5306 59.0783C89.659 59.0076 89.7796 58.9223 89.8852 58.8552C89.8852 58.759 89.8894 58.7086 89.8852 58.6586C89.7079 56.7055 89.5337 54.7519 89.346 52.7998C89.3194 52.6184 89.2541 52.4448 89.1546 52.2907C88.7469 51.609 88.3226 50.9387 87.9066 50.2591C86.6264 48.1489 85.3472 46.0377 84.069 43.9255C83.9837 43.7846 83.8719 43.6598 83.7726 43.5277L83.4512 43.0342C83.3472 42.8657 83.2446 42.6976 83.1434 42.5298L82.8413 42.0187L82.5386 41.5091L82.2412 40.9943L82.0098 40.5554L81.9152 40.6245C82.027 40.7447 82.1393 40.8653 82.2506 40.9885C82.2402 41.2236 82.3546 41.3869 82.5485 41.5028L82.8517 42.0119C82.9519 42.1825 83.0526 42.3528 83.1538 42.5231C83.255 42.6933 83.3578 42.8619 83.4622 43.029ZM61.9981 22.8889L61.2701 22.9747C61.0871 22.9987 60.903 23.0179 60.721 23.0481C58.8573 23.3569 56.9858 23.6253 55.1331 23.9882C52.4046 24.5228 49.6897 25.1239 46.9691 25.7042C46.8131 25.7375 46.6664 25.8202 46.5156 25.88L45.8116 25.9944L45.8256 26.0698H46.212C46.1542 26.1045 46.0935 26.1339 46.0305 26.1577C40.792 27.5939 35.5504 29.0176 30.3166 30.4736C29.2709 30.7643 28.3136 31.2942 27.3578 31.8256C27.4301 31.8521 27.5072 31.8629 27.584 31.8574C28.429 31.8366 29.2787 31.7534 30.118 31.8126C30.8709 31.8646 31.549 31.6956 32.2458 31.4752C34.9831 30.6088 37.7115 29.7072 40.4732 28.9272C43.9994 27.9277 47.5494 27.0084 51.0989 26.0942C54.8278 25.1338 58.51 23.9815 62.3117 23.3143C62.3782 23.3029 62.436 23.241 62.4973 23.2025C62.2436 23.1354 62.0096 23.1557 61.7808 23.1287C61.606 23.1084 61.4391 23.0278 61.2722 22.9779C61.5265 23.059 61.7756 23.1047 61.9929 22.8869L62.5129 22.9269C62.5129 22.8936 62.5129 22.8603 62.5129 22.8271L61.9981 22.8889ZM63.048 34.3939L61.6164 34.7059L61.6513 34.839C62.1021 34.6425 62.6174 34.683 63.0407 34.3835C63.2524 34.4381 63.4349 34.3835 63.6065 34.2878C63.5961 34.253 63.5857 34.2182 63.5748 34.1838L63.048 34.3939ZM53.3968 10.357L53.7312 10.669L53.8055 10.5754L53.4311 10.3216C53.3542 10.234 53.2723 10.151 53.1857 10.073C50.3205 7.76043 47.4528 5.45094 44.5828 3.14457C44.3967 3.00243 44.1848 2.89788 43.9588 2.83673C42.2875 2.36249 40.6064 1.92205 38.9408 1.42753C38.3745 1.25957 37.8727 1.23045 37.3616 1.55701C37.1655 1.68181 36.9284 1.74213 36.7084 1.82845C36.1276 2.05621 35.5442 2.27825 34.9654 2.51121C34.8198 2.56945 34.6165 2.58089 34.6222 2.81749C34.5969 3.18045 34.5711 3.54324 34.5447 3.90585L34.6128 3.90897V2.80657C34.6763 2.80293 34.748 2.81697 34.8032 2.79305C35.8889 2.31725 37.0137 1.96625 38.1634 1.67921C38.4045 1.61358 38.6595 1.61973 38.8971 1.69689C40.446 2.17321 41.9968 2.64277 43.5496 3.10557C43.8886 3.20261 44.2062 3.363 44.4856 3.57825C47.3112 5.75358 50.1407 7.92354 52.974 10.0881C53.1082 10.189 53.2559 10.2696 53.3968 10.357ZM84.1688 38.9715C83.9608 38.7817 83.7076 38.7208 83.4185 38.7754L84.1777 38.9611C84.2853 39.0281 84.3857 39.1171 84.5016 39.1597C87.072 40.1415 89.6455 41.1154 92.2148 42.1003C92.4331 42.1869 92.6756 42.19 92.896 42.1091C94.4529 41.6011 96.016 41.1045 97.5718 40.6011C97.6925 40.5621 97.8079 40.506 97.9447 40.4503C97.887 40.3651 97.8532 40.3073 97.8121 40.2553C96.3488 38.4166 94.8897 36.5748 93.4144 34.7465C93.2766 34.5759 93.0504 34.449 92.8424 34.3674C91.0321 33.6654 89.2186 32.9721 87.4017 32.2874C87.2429 32.2365 87.0812 32.195 86.9176 32.1631L86.5348 31.951L86.4964 32.055L86.9264 32.1512C87.0642 32.2328 87.1942 32.3326 87.3424 32.394C89.1627 33.1629 90.985 33.9278 92.8092 34.6888C93.0468 34.7881 93.2501 34.9072 93.415 35.1204C94.6697 36.7365 95.9364 38.3444 97.1969 39.9563C97.2621 40.052 97.3215 40.1515 97.3748 40.2543C97.211 40.312 97.0851 40.3583 96.9588 40.4009C95.612 40.8471 94.262 41.2849 92.9204 41.7446C92.6386 41.8508 92.3275 41.8491 92.0468 41.7399C89.6202 40.8532 87.1895 39.9759 84.7549 39.1082C84.5635 39.0469 84.3628 39.0193 84.1688 38.9735V38.9715ZM60.8239 6.57292L60.7532 6.54796C60.6825 6.70708 60.604 6.86308 60.5421 7.02532C60.3116 7.62505 60.0843 8.22566 59.8604 8.82712C59.6363 9.42876 59.4179 10.0325 59.1974 10.6357C58.971 11.2538 58.7457 11.8724 58.5214 12.4916C58.3072 13.0786 58.1142 13.673 57.8849 14.2554C57.5729 15.0416 57.2973 15.8398 57.0072 16.6333C56.5428 17.9032 56.0743 19.1715 55.6188 20.4439C55.3655 21.1516 55.8642 21.8323 56.5839 21.7793C57.8839 21.6836 59.1839 21.5879 60.4792 21.4839C61.1697 21.4283 61.8655 21.3934 62.5478 21.2806C63.6143 21.1048 64.6714 20.8729 65.7317 20.6613C66.2127 20.5656 66.6927 20.4621 67.1726 20.3623C67.168 20.3212 67.1628 20.2801 67.1576 20.239C63.7167 20.6909 60.2592 20.7835 56.8241 20.8147C56.4778 20.2947 56.4118 19.7871 56.6104 19.2027C57.9848 15.1545 59.3362 11.099 60.6939 7.04508C60.7433 6.89012 60.7803 6.73048 60.8239 6.57292ZM22.9373 44.1366L22.879 44.0493C21.9382 44.2444 20.9975 44.4396 20.057 44.6348C19.2141 44.8116 18.3758 45.0133 17.5282 45.1647C16.5485 45.3399 15.5616 45.4741 14.5772 45.6223C13.1067 45.8438 11.6351 46.0575 10.1656 46.2832C9.23319 46.4262 8.27327 46.396 7.37003 46.7309C7.24731 46.7761 7.10379 46.7709 6.96963 46.7829C6.34823 46.8349 5.72787 46.8978 5.10543 46.9243C4.48299 46.9509 3.87251 47.1006 3.23915 46.9914C2.75142 46.903 2.24829 46.9663 1.79771 47.1729C2.71031 47.2821 3.52983 47.4001 4.35351 47.4698C4.68475 47.4979 5.02587 47.4246 5.36179 47.3918C7.12979 47.2171 8.90247 47.097 10.659 46.8515C12.8675 46.5395 15.064 46.1459 17.2594 45.7543C18.1392 45.5983 19.0102 45.3794 19.8729 45.1444C20.6363 44.9364 21.384 44.6691 22.1375 44.4231C22.4064 44.3353 22.6715 44.2323 22.9373 44.1366ZM45.406 35.916C45.3904 35.8842 45.3753 35.853 45.3597 35.8218C45.2471 35.8299 45.1355 35.8472 45.0258 35.8738C44.1938 36.1453 43.3618 36.423 42.5267 36.6986C42.3983 36.7412 42.273 36.7922 42.1424 36.826C41.3775 37.0246 40.6022 37.19 39.8472 37.4214C38.6512 37.7854 37.4723 38.1967 36.2857 38.5862C36.0714 38.6569 35.8551 38.7344 35.6097 38.6714C35.6747 38.3995 36.0049 38.2939 35.931 37.9247C35.7501 38.0771 35.6014 38.1821 35.4771 38.3105C34.5234 39.2923 33.5791 40.2829 32.6218 41.2605C32.3404 41.5475 32.0232 41.7992 31.7274 42.0712C31.661 42.1406 31.5997 42.2146 31.5438 42.2927C31.9494 42.0993 32.2931 41.8569 32.6478 41.6313C33.4735 41.1066 34.2832 40.5523 35.1375 40.0791C36.412 39.3724 37.8176 38.9704 39.1836 38.4853C41.1596 37.7848 43.105 37.0262 45.0149 36.1682C45.1538 36.1047 45.2754 36.0007 45.406 35.916ZM29.5184 32.6192C28.8944 32.6545 28.4696 32.6597 28.0494 32.7055C25.8534 32.9452 23.7334 33.4948 21.6643 34.2655C20.3123 34.7678 19.056 35.4615 17.8002 36.1614C17.1122 36.5446 16.4888 37.0017 15.9833 37.6018C15.7784 37.8472 15.613 38.123 15.493 38.4192C15.3562 38.7583 15.4831 39.1202 15.7478 39.271C15.9653 39.4002 16.1966 39.5048 16.4373 39.583C17.2542 39.8274 18.0966 39.947 18.9431 39.8565C20.0175 39.7442 21.0954 39.6184 22.1531 39.4057C24.7278 38.8935 27.2031 37.9693 29.4836 36.6689C30.3915 36.1489 31.2994 35.6232 31.938 34.7449C32.614 33.8167 32.4247 33.2047 31.3223 32.8604C31.2109 32.8205 31.096 32.7912 30.9791 32.7731C30.4284 32.7112 29.8741 32.6561 29.5184 32.6192V32.6192ZM69.4632 10.357L69.5631 10.3341C69.0327 7.06588 68.5028 3.79821 67.9636 0.474374C66.22 0.807694 64.5253 1.14361 62.8374 1.51073L62.8561 1.61005L67.1258 0.836814C67.3952 1.92881 67.6578 2.98805 67.9168 4.04781C68.1726 5.09717 68.4108 6.15068 68.6806 7.1964C68.9505 8.24212 69.1476 9.31696 69.4632 10.357ZM34.76 23.71H34.8396C34.7862 17.4825 34.7328 11.255 34.6794 5.02749H34.6149C34.6631 11.255 34.7115 17.4825 34.76 23.71ZM9.48799 41.9474L9.54571 42.0977C11.3818 41.1617 13.3542 40.6417 15.3437 40.1493C15.1513 39.7364 15.1503 39.7333 14.7717 39.8341C12.9897 40.312 11.2992 41.0255 9.64919 41.8424C9.5939 41.8741 9.54059 41.9092 9.48955 41.9474H9.48799ZM21.1396 34.1136C21.5044 33.0774 21.6334 31.9727 21.5171 30.8803C21.4417 30.1315 21.4282 30.1325 21.981 29.6676C21.2639 29.8044 21.1563 29.9438 21.2473 30.6208C21.2519 30.6541 21.2598 30.6868 21.2634 30.7206C21.3939 31.8126 21.4537 32.8984 21.1329 33.9706C21.1277 34.0184 21.1305 34.0668 21.1412 34.1136H21.1396ZM55.9172 28.9802C55.9297 29.0244 55.9427 29.0686 55.9557 29.1128L57.2703 28.6895C57.2604 28.6594 57.2505 28.6292 57.2412 28.599L55.9172 28.9802ZM42.3338 26.9756L42.3198 26.8789L41.0244 27.2195L41.0452 27.3022L42.3338 26.9756ZM7.97843 42.7482L8.02367 42.8299L8.59567 42.5038C8.58111 42.4773 8.56603 42.4518 8.55147 42.4237L7.97843 42.7482ZM45.1839 26.2445L45.1652 26.1629L44.5688 26.3012L44.5916 26.3963L45.1839 26.2445ZM60.6305 35.0845L60.6097 35.0028L60.0928 35.1427L60.1136 35.2244L60.6305 35.0845ZM54.2298 11.0361L54.2928 10.9674L53.9886 10.7537L53.9469 10.8114L54.2298 11.0361ZM82.9219 38.5602C82.9409 38.5504 82.9584 38.5379 82.9739 38.5232C82.977 38.5186 82.9666 38.4952 82.9578 38.492C82.8538 38.452 82.7498 38.4145 82.6489 38.3761L82.6317 38.4281L82.9219 38.5602Z" fill="url(#paint0_radial_774_96409)"/>
<defs>
<radialGradient id="paint0_radial_774_96409" cx="0" cy="0" r="1" gradientUnits="userSpaceOnUse" gradientTransform="translate(98.4728 49.4508) rotate(-147.314) scale(100.604 345.381)">
<stop stop-color="#8F8AD2"/>
<stop offset="1" stop-color="#4267B2"/>
</radialGradient>
</defs>
</svg>
