<svg width="101" height="50" viewBox="0 0 101 50" fill="none" xmlns="http://www.w3.org/2000/svg">
<path d="M100.3 23.2949C100.133 23.2652 99.9525 23.2351 99.7726 23.2018C99.0758 23.0708 98.3754 22.9553 97.6832 22.803C97.1013 22.6745 96.5247 22.5814 95.9267 22.6646C95.3287 22.7478 94.7156 22.7952 94.1155 22.8919C91.9131 23.2469 89.7118 23.6109 87.5115 23.9839C86.9457 24.0796 86.3883 24.2257 85.8236 24.3281C85.4289 24.3999 85.0067 24.3734 84.6343 24.5002C82.8596 25.1045 81.0984 25.743 79.3303 26.3785C79.0598 26.4757 78.7997 26.6 78.554 26.7493C78.19 26.9713 78.178 27.2422 78.5452 27.4362C78.8374 27.5922 79.1691 27.6842 79.4905 27.7653C79.7391 27.8277 80.0027 27.8283 80.2861 27.8595L70.4539 37.9756L67.0448 37.5226L66.9882 37.4301C67.0993 37.3588 67.2057 37.2804 67.3069 37.1956C68.3147 36.2439 69.31 35.2783 70.3307 34.3402C70.6229 34.0719 70.6708 33.7973 70.5959 33.4375C70.3358 32.1614 69.9562 30.9126 69.4623 29.7075C67.4083 24.7602 64.4854 20.3834 60.7783 16.5245C60.4637 16.1974 60.2739 15.7965 60.1262 15.3805C60.1524 15.3628 60.1801 15.3475 60.2089 15.3347C60.2569 15.3194 60.3068 15.3112 60.3571 15.3103C61.0565 15.3851 61.6051 15.0809 62.1693 14.6998C67.0226 11.4338 71.8862 8.18157 76.76 4.943C78.8275 3.56292 80.8943 2.18163 82.9605 0.799116C83.0827 0.717476 83.2595 0.669637 83.2953 0.410156C83.1341 0.474636 83.027 0.507395 82.9313 0.558355C75.1996 4.55231 67.4674 8.54713 59.7347 12.5428C59.3707 12.7305 58.9853 12.8741 58.5512 13.0628C58.6406 12.5678 58.6354 12.1481 58.3733 11.7826C57.5933 10.6984 56.6245 9.84661 55.3381 9.43113C54.6948 9.22313 54.0246 9.11913 53.3392 9.26473C52.8847 9.36145 52.58 9.61469 52.4209 10.0447C52.3626 10.2007 52.3013 10.3614 52.2581 10.5242C51.9084 11.8227 51.9387 13.1944 52.3455 14.4762C52.3923 14.6275 52.4406 14.7783 52.4957 14.9535C51.9934 14.9915 51.5561 15.0175 51.1198 15.0575C49.0175 15.2557 46.9177 15.4886 44.8122 15.642C44.09 15.694 43.6048 15.9883 43.2314 16.5614C43.0754 16.8021 42.896 17.0294 42.7458 17.2743C42.4951 17.6836 42.5897 17.8947 43.0578 17.9909C43.141 18.0067 43.2253 18.0161 43.3099 18.019C44.0863 18.0559 44.8627 18.1084 45.6401 18.123C47.5849 18.1614 49.5302 18.1807 51.475 18.2134C51.631 18.2134 51.8073 18.1562 51.9648 18.3226C51.6783 18.6346 51.4131 18.9399 51.1266 19.2254C48.8235 21.5206 46.5105 23.8029 44.2163 26.0998C43.273 27.0456 42.3651 28.0269 41.4478 28.9988C41.1483 29.316 41.1587 29.3248 41.3537 29.7325C41.377 29.7939 41.3954 29.857 41.4088 29.9213C42.1888 29.7008 42.9376 29.4938 43.6818 29.2765C43.7733 29.2494 43.8523 29.1725 43.9298 29.1106C47.6249 26.1206 51.3195 23.1302 55.0136 20.1395C55.1529 20.0267 55.2965 19.9185 55.5123 19.75C55.6735 20.9809 55.8243 22.1129 55.973 23.2668C55.817 23.3141 55.6896 23.3547 55.5622 23.3895C55.0204 23.5362 54.5856 23.8435 54.2346 24.2735C53.8548 24.7336 53.6153 25.2932 53.5446 25.8855C53.5071 26.1975 53.36 26.3384 53.0875 26.4669C50.1062 27.8692 47.1288 29.2811 44.1555 30.7028C42.5497 31.4671 40.8242 31.9489 39.0548 32.1271C37.4745 32.294 35.8828 32.3731 34.3046 32.5369C33.1975 32.6518 32.0982 32.8452 30.9953 33.0007C30.8967 33.0149 30.7967 33.0182 30.6973 33.0106C29.9408 32.9451 29.1862 32.8463 28.4281 32.814C27.5508 32.7771 26.6684 32.762 25.7984 32.9341C25.5566 32.9825 25.3169 33.0407 25.0595 33.0985C24.4532 31.4261 23.5317 29.9722 22.446 28.6223C21.9431 27.9983 21.484 27.315 20.7451 26.9193C20.7052 26.8922 20.6738 26.8543 20.6546 26.8101C20.5111 26.5293 20.3701 26.2469 20.2193 25.9458C20.3904 25.8309 20.4877 25.6011 20.7451 25.7456C21.4772 26.1575 22.0971 25.9313 22.694 25.4336C23.551 24.7192 24.41 24.0036 25.3013 23.3334C26.2732 22.6017 27.3007 21.9434 28.2747 21.2138C30.8622 19.2758 33.5537 17.4943 36.2925 15.7803C36.6643 15.5474 37.0148 15.2796 37.3669 15.017C38.396 14.2495 39.4157 13.4684 40.451 12.7087C40.8316 12.4289 40.8758 12.2651 40.5841 11.8897C40.5118 11.7961 40.452 11.6931 40.4 11.6146L19.2911 24.0109C19.0764 23.6152 18.8892 23.2585 18.6911 22.9075C18.2085 22.0547 17.5361 21.3995 16.6059 21.0688C16.0515 20.8738 15.466 20.7594 14.8899 20.6413C14.3912 20.5373 14.0017 20.7453 13.7152 21.1613C13.3969 21.6189 13.2711 22.1389 13.2009 22.6797C13.0865 23.5637 13.3075 24.391 13.5956 25.2095C13.7667 25.6957 13.9367 26.1819 14.1156 26.6848C13.9424 26.7503 13.8036 26.8038 13.6616 26.8579C12.3393 27.3691 10.9987 27.8376 9.69923 28.4013C7.05035 29.5495 4.42227 30.746 1.78899 31.9305C1.48334 32.0737 1.18796 32.2379 0.90499 32.4219C0.69699 32.5514 0.60651 32.7339 0.80879 33.0017C1.16967 32.8629 1.53315 32.7371 1.88571 32.5857C3.77903 31.7719 5.66455 30.9415 7.56203 30.1381C8.71227 29.6509 9.86927 29.1751 11.0413 28.7435C12.0439 28.3743 13.0881 28.1559 14.1671 28.1782C14.3782 28.1829 14.5888 28.2261 14.8238 28.2547C14.7807 28.3529 14.7718 28.4075 14.7401 28.4403C13.9201 29.2936 13.1172 30.1646 12.2711 30.9914C11.0866 32.15 9.86875 33.2753 8.66807 34.4177C8.58253 34.5105 8.50381 34.6094 8.43251 34.7136C8.60775 34.9008 8.74451 34.79 8.86723 34.7177C9.17143 34.5357 9.47615 34.3511 9.76423 34.1457C11.7811 32.6932 13.797 31.2389 15.8118 29.7829C15.9127 29.7101 16.0235 29.6509 16.1966 29.5437C16.0151 30.7709 16.1311 31.9051 16.4431 33.0589C16.2967 33.0823 16.1492 33.0981 16.0011 33.1063C15.8482 33.1001 15.6961 33.1306 15.5574 33.1951C15.4186 33.2596 15.2973 33.3562 15.2034 33.477C15.0661 33.6481 14.9268 33.8187 14.8046 34.0001C14.6844 34.1654 14.6112 34.3602 14.5929 34.5638C14.5746 34.7673 14.6118 34.972 14.7006 35.1561C14.988 35.8051 15.274 36.4547 15.5586 37.1051C15.6173 37.2392 15.6725 37.3755 15.7531 37.5668C14.9335 37.7228 14.1613 37.8835 13.3855 38.0213C11.9035 38.2813 10.4319 38.5881 9.02115 39.1273C8.26039 39.4175 7.52667 39.7654 6.92555 40.3343C6.40035 40.8314 6.43363 41.4263 7.03683 41.8256C7.64003 42.225 8.27079 42.5791 8.97175 42.8095C10.3757 43.2707 11.8167 43.5526 13.2649 43.8006C15.7297 44.2228 18.2012 44.6113 20.6723 44.9966C20.9655 45.0424 21.1824 45.1557 21.3566 45.3752C21.7554 45.879 22.1543 46.3824 22.5437 46.8925C22.8994 47.3605 22.9785 47.387 23.5203 47.1749C23.5832 47.1504 23.6456 47.1229 23.7075 47.0974C24.526 46.7334 25.3621 46.4079 26.1546 45.9971C26.5046 45.8156 26.8135 45.8302 27.1619 45.8759C28.9049 46.104 30.6483 46.3294 32.392 46.5519L38.2269 47.3044L44.9672 48.1738C46.9453 48.4293 48.9235 48.6855 50.9019 48.9424C52.2253 49.1171 53.5472 49.3064 54.8701 49.4837C56.5299 49.7089 58.1835 49.5492 59.8262 49.3355C61.2302 49.1525 62.6305 48.8945 64.0221 48.6174C65.5956 48.3054 67.1582 47.9341 68.725 47.5846C72.562 46.7298 76.1958 45.3486 79.5981 43.3726C80.4301 42.8875 81.2429 42.368 81.9605 41.7144C82.3245 41.3842 82.5741 40.9947 82.6178 40.496C82.6552 40.0696 82.5252 39.8684 82.1238 39.7269C81.9756 39.6749 81.8196 39.6416 81.6391 39.5922C81.7125 39.4846 81.7577 39.4149 81.8066 39.3484C82.9979 37.7062 84.1986 36.0682 85.3805 34.4208C86.3488 33.0745 87.3248 31.7355 88.4444 30.5078C88.9389 29.9655 89.4917 29.511 90.1651 29.1933C90.4878 29.0455 90.7768 28.8331 91.0142 28.5693C91.5207 27.9811 91.983 27.353 92.4395 26.7243C92.5633 26.5543 92.6709 26.3202 92.6621 26.1211C92.6533 25.9219 92.491 25.7274 92.3964 25.5324C95.0207 24.8315 97.6534 24.1276 100.295 23.4207C100.305 23.4181 100.31 23.3911 100.312 23.375C100.311 23.3479 100.307 23.3211 100.3 23.2949ZM26.7859 19.8426L26.8285 19.826C26.9123 19.7584 26.9929 19.6856 27.0792 19.6221C27.1116 19.5982 27.1453 19.576 27.1801 19.5556C31.3928 17.0897 35.6079 14.6266 39.8254 12.1663C39.9814 12.0743 40.1463 11.9942 40.4182 11.8491C40.3745 12.0535 40.3797 12.1653 40.3278 12.2334C40.2757 12.3015 40.1619 12.3442 40.074 12.3941C35.8273 14.8027 31.5798 17.2102 27.3314 19.6164C27.1754 19.7053 26.9981 19.7594 26.8285 19.8244L26.7947 19.8514L26.7479 19.8712L26.3683 20.1707C26.3475 20.1322 26.3273 20.0938 26.3065 20.0558L26.7479 19.8712L26.7859 19.8426ZM26.0111 20.2633L26.0475 20.3335L25.6539 20.5456L25.618 20.477L26.0111 20.2633ZM22.7647 24.6438C24.0661 23.6478 25.372 22.6579 26.6824 21.674C26.8621 21.5324 27.0704 21.4315 27.2929 21.3782C27.1827 21.4822 27.0802 21.5992 26.9606 21.6902C25.6981 22.6782 24.4376 23.6662 23.1646 24.638C22.7927 24.9279 22.4001 25.1902 21.99 25.4227C21.6608 25.6063 21.2931 25.6406 20.9421 25.3588C21.706 25.5023 22.225 25.0561 22.7642 24.6438H22.7647ZM88.1709 25.4669H88.6909C88.6909 25.483 88.6909 25.4992 88.6909 25.5153H88.1709V25.4669ZM85.99 25.2069C86.0867 25.1549 86.2037 25.1476 86.3113 25.1196C83.8029 26.2116 81.869 27.9728 80.141 30.0019C79.0012 31.3403 77.8572 32.675 76.709 34.0059C76.513 34.2336 76.3086 34.4541 76.0361 34.6267C76.0896 34.5369 76.1481 34.4501 76.2114 34.3667C77.5259 32.8216 78.8422 31.2779 80.1603 29.7356C81.3323 28.3696 82.6142 27.1195 84.1539 26.1689C84.7399 25.8054 85.3738 25.5189 85.99 25.2069ZM78.6013 27.0269C79.7697 26.443 80.959 26.0649 82.1373 25.6557C82.155 25.6916 82.1732 25.728 82.1893 25.7644C82.0692 25.8247 81.9527 25.8959 81.8279 25.9443C81.2159 26.1809 80.5976 26.4019 79.9897 26.6484C79.7458 26.7472 79.5217 26.8974 79.178 27.0857L80.5263 27.5329C79.9939 27.7809 79.009 27.5381 78.6013 27.0269ZM71.1934 37.8336C72.0171 36.9413 72.8293 36.038 73.6738 35.1649C76.2211 32.532 78.7778 29.9083 81.3438 27.2937C82.0307 26.5984 82.8123 25.9973 83.5455 25.3473C83.8118 25.1099 84.138 24.9499 84.4887 24.8845C84.8923 24.807 85.301 24.7582 85.7071 24.6968C85.7175 24.7576 85.7284 24.8185 85.7388 24.8793C85.5698 24.9313 85.4029 24.9953 85.2313 25.039C84.417 25.247 83.677 25.5782 83.0681 26.183C82.0869 27.1611 81.0692 28.1028 80.0958 29.0882C78.2321 30.9753 76.3939 32.8884 74.5318 34.7796C73.5365 35.791 72.5183 36.7801 71.5075 37.7759C71.4191 37.8627 71.3062 37.9241 71.1481 38.0359C71.1741 37.9157 71.1679 37.8591 71.1934 37.832V37.8336ZM75.929 34.8607L75.5213 35.3064L75.4527 35.2461L75.8474 34.7781L75.929 34.8607ZM67.5539 43.9894H68.3339C68.3339 43.9894 68.3859 44.8323 57.9765 44.5354C47.5672 44.2384 32.9999 41.3998 32.9999 41.3998L33.2511 41.4273C33.4991 41.3873 33.5376 41.3831 33.6556 41.472L33.9432 41.5038C34.0505 41.4912 34.1586 41.4857 34.2666 41.4871C34.2952 41.4871 34.3233 41.5157 34.3514 41.549L35.0794 41.6296H35.2427H35.265L35.3238 41.6452C35.4648 41.6478 35.6054 41.661 35.7445 41.6847C35.7666 41.6898 35.7878 41.6982 35.8074 41.7097L36.2754 41.7617C36.3557 41.7467 36.4386 41.7561 36.5135 41.7887C41.0687 42.2994 48.9129 43.1958 53.0137 43.7647C59.0129 44.5983 67.5539 43.9894 67.5539 43.9894ZM37.2899 36.6896C37.5088 36.0656 38.3023 35.8987 38.8395 36.3776C39.2768 36.7691 39.4921 37.2704 39.4827 37.9651C39.4782 38.0826 39.4643 38.1994 39.4412 38.3146C39.2545 39.0832 38.4152 39.3338 37.8234 38.8018C37.3377 38.3629 37.0725 37.3141 37.292 36.6896H37.2899ZM45.4222 37.2616C45.7134 37.0442 46.1861 37.0853 46.5615 37.3354C47.0295 37.6474 47.4216 38.4181 47.4258 39.0343C47.431 39.272 47.354 39.5042 47.2078 39.6917C47.0616 39.8792 46.8552 40.0105 46.6234 40.0634C46.2979 40.1455 46.0197 40.0732 45.8122 39.8034C45.4596 39.3442 45.1882 38.846 45.1045 38.2621C45.0509 37.8783 45.0858 37.5159 45.4243 37.2637L45.4222 37.2616ZM51.93 38.7909C51.9362 38.3843 52.2545 38.1149 52.6689 38.1149C53.218 38.1118 53.6631 38.3302 53.9018 38.8398C54.1618 39.3952 54.2658 39.9604 53.7859 40.4736L53.6231 40.651C53.1551 41.0586 52.5217 40.963 52.2425 40.4138C51.9825 39.91 51.9237 39.351 51.9321 38.793L51.93 38.7909ZM53.3433 29.7642C54.205 30.2873 52.2638 28.5953 45.6078 31.3653L52.5316 28.1637C52.5316 28.1637 52.4843 29.2432 53.3454 29.7663L53.3433 29.7642ZM53.7874 35.4078C53.9648 35.5638 54.1603 35.7109 54.296 35.8997C54.8399 36.6553 55.5741 37.1903 56.324 37.7135C56.3776 37.7536 56.4283 37.7974 56.4758 37.8445C56.4821 37.8497 56.4758 37.8674 56.4758 37.922C56.3981 37.8982 56.3224 37.8682 56.2496 37.832C55.5097 37.3864 54.8009 36.9064 54.284 36.1883C53.9873 35.7607 53.5755 35.4259 53.0963 35.2227C53.5337 35.1909 53.5373 35.1878 53.7895 35.4099L53.7874 35.4078ZM61.5432 37.0536L61.6015 36.9943C61.7055 37.0832 61.8167 37.1664 61.9135 37.2616C62.3955 37.7296 62.8703 38.2054 63.3575 38.6656C63.5081 38.799 63.6712 38.9174 63.8447 39.0192C64.0902 39.1752 64.3283 39.195 64.5951 39.0192C64.917 38.8076 65.2675 38.6391 65.6075 38.4555C65.7027 38.4035 65.8041 38.3661 65.9024 38.3224L65.9601 38.4212C65.5009 38.7202 65.0459 39.0254 64.5811 39.3146C64.4799 39.3777 64.3632 39.4116 64.2439 39.4127C64.1246 39.4137 64.0073 39.3817 63.9051 39.3203C63.6971 39.2085 63.4787 39.1003 63.3143 38.9396C62.7241 38.3629 62.1548 37.7655 61.5807 37.1716C61.5578 37.1508 61.5578 37.0973 61.5453 37.0557L61.5432 37.0536ZM66.0963 24.2449C68.0989 27.5334 69.7119 30.9618 69.9875 32.5275C69.2897 32.9695 68.6017 33.4463 67.7156 33.6559C67.7156 33.3798 67.6834 33.1619 67.7213 32.957C67.8472 32.2779 67.7843 31.6133 67.6371 30.9467C67.3069 29.4449 66.6569 28.0669 65.9435 26.7248C64.7932 24.5616 63.591 22.426 62.3997 20.2846C62.1043 19.7532 61.7606 19.2488 61.4517 18.7246C61.3259 18.5114 61.2328 18.2795 61.1251 18.0559C61.7642 18.4396 65.3195 22.9709 66.0984 24.247L66.0963 24.2449ZM59.6031 12.9276C63.423 10.9298 67.244 8.93488 71.066 6.94293C74.0782 5.37079 77.0909 3.79987 80.1041 2.23016C80.2783 2.13916 80.4567 2.057 80.6335 1.97016L80.6855 2.06532L61.9951 14.5006L61.9197 14.3935C62.5037 13.9687 63.1126 13.5781 63.7075 13.1694C64.3023 12.7607 64.9113 12.3525 65.5134 11.9453L67.3631 10.6947L69.2112 9.44309L71.0176 8.21901C71.6337 7.80301 72.2497 7.3858 72.8657 6.96737C73.4679 6.55899 74.0695 6.15045 74.6706 5.74173C75.2842 5.32572 75.8973 4.90973 76.4766 4.42456C76.3879 4.4496 76.301 4.4807 76.2166 4.51764C73.1288 6.12445 70.0416 7.73298 66.9549 9.34325C66.3408 9.66409 65.7433 10.0193 65.1302 10.3401C64.0995 10.884 63.0596 11.4103 62.0299 11.9563C61.4476 12.2646 60.8859 12.6073 60.302 12.9162C59.8782 13.1419 59.6078 13.496 59.3842 13.9042C59.3384 13.9869 59.2802 14.0602 59.2147 14.16C58.9073 13.4388 58.9583 13.2646 59.6031 12.9276ZM58.6837 31.2759C58.8033 31.4449 58.8917 31.5561 58.9651 31.6763C60.0704 33.5162 61.2886 35.2859 62.6129 36.9751C62.8531 37.2788 63.1329 37.5518 63.4027 37.83C63.8302 38.2694 64.3325 38.3437 64.8894 38.1108C65.0891 38.0276 65.2878 37.9402 65.5904 37.8102C65.1609 38.5507 64.4464 38.7982 63.8198 38.4618C63.5658 38.3276 63.3346 38.1545 63.1344 37.9485C62.68 37.4722 62.2234 36.9922 61.8261 36.4696C60.7112 35.0011 59.7227 33.4474 58.794 31.8551C58.6635 31.6315 58.6671 31.6295 58.6832 31.2759H58.6837ZM58.6546 32.5696L61.4106 36.6683L53.9226 35.0417L53.9086 34.9377L58.6546 32.5696ZM57.2714 28.2125L57.5455 28.563L57.4347 28.6249C57.3803 28.4862 57.3259 28.3488 57.2714 28.2125C57.2616 28.2001 57.2511 28.1876 57.2413 28.1746V28.1626C57.2173 28.1613 57.1939 28.1554 57.1721 28.1455C57.1699 28.1436 57.168 28.1415 57.1664 28.1392C56.7556 27.3845 56.3477 26.6286 55.9428 25.8715C55.9314 25.8507 55.9558 25.8112 55.974 25.7378C56.0311 25.7931 56.0824 25.8539 56.1274 25.9193C56.4893 26.6057 56.848 27.2935 57.2033 27.9827C57.2248 28.0405 57.2376 28.1011 57.2413 28.1626C57.2457 28.1633 57.25 28.1644 57.2543 28.1657L57.2714 28.2125ZM52.4874 10.7519C52.5582 10.4774 52.685 10.2158 52.7994 9.95425C52.8093 9.93094 52.8211 9.90851 52.8348 9.88718C52.8449 9.87234 52.8558 9.8581 52.8675 9.84453C52.9596 9.73794 53.0943 9.70725 53.2539 9.74053C53.2579 9.69532 53.2761 9.65253 53.3059 9.61833C53.3636 9.56113 53.4536 9.57101 53.5347 9.57621C53.56 9.57799 53.5854 9.57799 53.6106 9.57621C54.582 9.50221 55.5485 9.77144 56.3417 10.337C57.0135 10.8097 57.598 11.4103 58.197 11.9797C58.457 12.2282 58.5049 12.6843 58.2922 12.9677C57.8346 13.5766 57.3094 14.1273 56.6734 14.5589C56.6291 14.5839 56.5797 14.5987 56.5289 14.602C56.5013 14.6051 56.4711 14.5843 56.3957 14.5578C56.5694 14.42 56.7343 14.3093 56.8757 14.173C57.2397 13.8231 57.6063 13.4726 57.9495 13.1013C58.2246 12.8044 58.2615 12.4253 58.0083 12.1247C56.8013 10.6958 55.3885 9.63237 53.3922 9.69217C53.3431 9.70091 53.2954 9.71667 53.2508 9.73897C53.166 9.82893 53.0547 9.90485 52.9996 10.0104C52.5836 10.8143 52.5223 11.6885 52.5316 12.5714C52.5452 13.6691 52.8254 14.7034 53.2768 15.6987C53.3412 15.8319 53.3921 15.9713 53.4286 16.1147C53.0646 15.7361 52.8686 15.2619 52.7006 14.783C52.2441 13.4643 52.1354 12.1164 52.4869 10.7509L52.4874 10.7519ZM55.2595 11.5964C54.8706 11.2267 54.5009 10.8362 54.1218 10.4555C54.0542 10.3879 53.9824 10.324 53.8831 10.2309C54.8612 10.3266 57.2272 11.7493 57.5278 12.7233C57.1596 13.1913 56.6604 13.5272 56.1311 13.822C55.96 13.9177 55.8357 13.8085 55.7889 13.64C55.7296 13.4289 55.6698 13.2344 55.5003 13.068C55.4369 13.0067 55.4608 12.808 55.5003 12.6957C55.6459 12.2745 55.5955 11.9162 55.259 11.5964H55.2595ZM43.9027 17.4792C44.767 17.2675 45.6479 17.3092 46.5282 17.3331C45.6614 17.4943 44.793 17.6383 43.9027 17.4792ZM45.3728 16.1069C44.5663 16.2135 43.8783 16.6165 43.35 17.2577C43.2264 17.4231 43.0712 17.5624 42.8934 17.6674C42.9101 17.5853 42.908 17.4932 42.9454 17.423C43.0301 17.2769 43.1227 17.1354 43.2226 16.9992C44.0905 15.7512 44.0577 15.9228 45.3119 15.7887C47.1423 15.5931 48.9733 15.404 50.8047 15.2213C51.3736 15.1647 51.9451 15.1355 52.515 15.0934L52.5306 15.2083C52.4073 15.2349 52.2857 15.2707 52.1614 15.2858C49.901 15.5536 47.6348 15.8037 45.3754 16.1033L45.3728 16.1069ZM47.4377 25.4773C48.9977 23.9584 50.6014 22.491 52.2737 21.0875C52.0959 21.4718 47.9447 25.2152 47.4403 25.4737L47.4377 25.4773ZM48.4174 22.7302C47.5261 23.6532 46.5537 24.4982 45.6375 25.3972C44.4935 26.522 43.3682 27.6676 42.2335 28.8027C42.0973 28.939 41.9553 29.0679 42.1373 29.3352L41.5685 29.29C41.7796 29.0414 41.8961 28.8859 42.0308 28.7487C43.5356 27.2178 45.0421 25.6888 46.5501 24.1617C48.1621 22.5248 49.7917 20.9013 51.3861 19.2456C52.2883 18.3096 53.1301 17.3159 54.0121 16.3596C54.2692 16.0917 54.5448 15.842 54.8368 15.6124C55.0073 15.4725 55.2117 15.3888 55.4088 15.5115C55.1649 15.6675 54.9148 15.7689 54.7437 15.9467C54.1577 16.5546 53.6059 17.1947 53.0303 17.8136C51.5005 19.4536 49.9831 21.1098 48.42 22.7265L48.4174 22.7302ZM54.3168 20.4328C54.1504 20.5805 53.9372 20.6746 53.7448 20.7937L53.66 20.685C53.9023 20.4708 54.1561 20.269 54.3849 20.0412C55.1662 19.2743 55.8006 18.3709 56.2569 17.3757C56.4192 17.0185 56.4779 16.6389 56.3375 16.2062C56.8117 16.2374 57.1342 16.4537 57.2272 16.8099C57.3474 17.2702 57.3312 17.7142 56.9417 18.0658C56.0723 18.8525 55.2018 19.6476 54.3194 20.4292L54.3168 20.4328ZM55.9371 20.0652C55.915 19.9573 55.9222 19.8454 55.9579 19.7413C55.9937 19.6371 56.0567 19.5444 56.1404 19.4729C56.6781 18.9903 57.2199 18.5124 57.7633 18.0294C57.976 18.5244 57.9381 18.6799 57.5475 18.9586C57.4789 19.0075 57.4066 19.0527 57.3395 19.1042C56.52 19.7329 56.117 20.5264 56.3474 21.5794C56.4155 21.8914 56.4633 22.2102 56.5034 22.5279C56.5237 22.6901 56.507 22.8565 56.507 23.0214L56.3723 23.0349C56.2923 22.5638 56.2034 22.0937 56.1352 21.621C56.064 21.0989 56.0151 20.5789 55.9397 20.0615L55.9371 20.0652ZM57.6931 23.2278L57.7873 23.2954C57.7259 23.4348 57.6968 23.6074 57.597 23.7067C57.3739 23.9334 57.1362 24.1581 56.8689 24.3245C56.3016 24.675 55.6854 24.9298 55.0531 25.1357C55.9496 24.5002 57.0645 24.2153 57.6957 23.2242L57.6931 23.2278ZM44.1024 31.3606C44.9913 30.9321 45.8808 30.5054 46.7711 30.0804C46.8896 30.0107 47.0051 29.9353 47.1241 29.8677C47.1642 29.8448 47.2042 29.823 47.2453 29.8027C49.2691 28.7908 51.2942 27.7808 53.3205 26.7726C53.3664 26.758 53.4136 26.7475 53.4614 26.7414C53.5055 26.8757 53.5427 27.0121 53.5727 27.1502C53.7229 28.0649 54.2336 28.7622 54.9054 29.3597C55.4057 29.8043 56.0286 29.8687 56.6609 29.8906C56.7442 29.8906 56.8279 29.8812 56.9116 29.8797C56.9256 29.8797 56.9397 29.8973 56.9755 29.9218C56.9137 30.0949 56.7525 30.0809 56.6188 30.097C55.9064 30.1791 55.1883 29.9998 54.5981 29.5924C54.0079 29.1849 53.5857 28.5771 53.4099 27.8818C53.3423 27.6218 53.3059 27.3519 53.0568 27.1481C52.9227 27.2063 52.7844 27.2604 52.6512 27.3249C50.8583 28.195 49.0653 29.0653 47.2724 29.9358C47.1226 30.0081 46.9604 30.0596 46.8043 30.1209L44.0551 31.5197L44.0172 31.4532C44.0452 31.422 44.0671 31.3778 44.1024 31.3606ZM42.8269 31.643C42.8887 32.0356 43.1602 32.2046 43.4509 32.3481C44.3536 32.7948 45.3031 33.087 46.3109 33.1364C46.8309 33.1619 47.3509 33.1411 47.953 33.1411C47.745 33.4125 47.5178 33.3923 47.3358 33.4073C45.8839 33.5249 44.5112 33.2513 43.247 32.5098C43.0592 32.3973 42.8937 32.2512 42.7588 32.0787C42.6885 31.9872 42.5653 31.8161 42.8269 31.643ZM25.3658 33.1895C26.2176 33.0979 27.0662 33.0012 27.9284 32.9929C28.8805 32.9841 29.8102 33.1031 30.7457 33.229C30.9807 33.2514 31.2177 33.2439 31.4508 33.2066C32.6562 33.0569 33.8569 32.8551 35.0664 32.7495C37.0362 32.5779 39.0121 32.4708 40.9492 32.0351C41.2924 31.9576 41.6329 31.8681 41.9938 31.7792L42.0713 32.0241C42.0396 32.0616 42.024 32.1001 41.9995 32.1058C40.2664 32.553 38.5358 33.0111 36.7969 33.4354C36.6976 33.4599 36.5983 33.4807 36.499 33.4989C36.3856 33.519 36.2721 33.5363 36.1584 33.5509C35.57 33.6128 34.9758 33.5925 34.393 33.4905C34.4907 33.5425 34.5838 33.6153 34.6878 33.6372C35.3976 33.7854 36.1152 33.8972 36.8198 34.0677C38.0332 34.3617 39.2429 34.6737 40.4489 35.0037C41.4577 35.2793 42.4441 35.6537 43.4649 35.8685C45.1669 36.2268 46.8844 36.5138 48.602 36.792C51.0538 37.1888 53.5113 37.5497 55.9662 37.9288C56.1525 37.9522 56.3284 38.0277 56.4737 38.1466C56.2808 38.1534 56.0848 38.1862 55.8965 38.1617C54.4723 37.9782 53.0475 37.7977 51.6279 37.5897C49.5215 37.2732 47.4179 36.9416 45.3172 36.5949C43.6355 36.3091 41.9755 35.9075 40.3491 35.3932C38.5629 34.8358 36.7871 34.2191 34.9317 33.906C34.6488 33.8587 34.3628 33.8213 34.0774 33.7947C31.9453 33.5945 29.8165 33.3106 27.6663 33.2945C26.9201 33.2888 26.1806 33.2898 25.4438 33.4172C25.2694 33.451 25.0889 33.4341 24.9238 33.3683C25.0715 33.307 25.2139 33.2056 25.3658 33.1895ZM24.9498 39.1497C24.9461 39.1435 24.943 39.1372 24.9399 39.131C24.8385 39.0946 24.7283 39.0717 24.6419 39.0135C23.2868 38.1014 21.8017 37.5575 20.1699 37.4197C19.9218 37.3978 19.6773 37.3454 19.4419 37.2637C20.2958 37.1732 21.1278 37.299 21.9473 37.518C23.0206 37.805 23.9821 38.3162 24.8541 38.9979C24.8597 39.0023 24.8649 39.0072 24.8697 39.0124C24.8972 39.0496 24.9199 39.0902 24.9373 39.1331L24.9576 39.1404C24.9584 39.1401 24.9593 39.1401 24.9602 39.1404C25.0785 39.0658 25.1868 38.9765 25.2826 38.8746C25.4122 38.7351 25.5159 38.5737 25.5889 38.3978C25.6081 38.3526 25.6253 38.3063 25.6409 38.2584C25.9945 37.1852 26.3574 36.1155 26.7084 35.0412C26.748 34.8944 26.7678 34.7429 26.7672 34.5909C26.789 34.0823 26.6387 33.9013 26.1187 33.9247C25.4615 33.9549 24.8068 34.0402 24.1516 34.1036C23.9545 34.1223 23.7585 34.1473 23.5349 34.0885C23.5967 34.0573 23.6565 34.0069 23.7215 33.9981C24.4246 33.9055 25.1255 33.8098 25.8327 33.7381C26.0652 33.7141 26.3527 33.6699 26.5306 33.7771C26.9429 34.0261 27.3345 33.8587 27.7365 33.8363C28.3781 33.8005 29.0178 33.763 29.6397 34.0007C30.0416 34.1567 30.3552 34.4 30.494 34.8077C30.6267 35.1714 30.723 35.5472 30.7816 35.9299C30.8809 36.6802 31.0172 37.428 30.8612 38.1971C30.7655 38.6687 30.5564 38.974 30.0869 39.0811C29.7411 39.1591 29.3958 39.2501 29.0469 39.2932C28.2086 39.3972 27.3683 39.4804 26.5275 39.5579C26.1297 39.5943 25.7787 39.5059 25.6409 39.0707C25.4011 39.1315 25.2009 39.3385 24.9617 39.143L24.9482 39.1523L24.9498 39.1497ZM11.8874 39.9334C10.823 40.0514 9.81311 40.4014 8.80223 40.7347C8.63583 40.7898 8.46735 40.8387 8.29991 40.8907L8.26351 40.809C8.29868 40.7739 8.33923 40.7446 8.38363 40.7222C9.19743 40.4664 9.93843 40.0145 10.8047 39.8902C11.8744 39.7342 12.9331 39.5075 14.0007 39.3354C15.7739 39.0494 17.5637 38.9558 19.3567 38.8975C19.9313 38.8788 20.51 38.8975 21.08 38.8315C21.6249 38.7706 21.979 39.001 22.3035 39.4555C22.1745 39.4867 22.0731 39.5304 21.9707 39.5319C21.4798 39.5408 20.9895 39.5423 20.4991 39.5392C17.6225 39.5158 14.7495 39.6156 11.8884 39.9334H11.8874ZM17.7717 43.3825C17.4259 43.526 17.3656 43.5312 16.9179 43.4699C16.2491 43.3778 15.5794 43.2936 14.9127 43.1891C13.8831 43.0268 12.8556 42.8506 11.8276 42.68L11.8432 42.576L17.7717 43.3825ZM24.5894 34.5789C24.4199 35.1171 24.1152 35.479 23.4974 35.5113C23.2525 35.5243 23.0128 35.6272 22.6737 35.7141C22.7461 35.605 22.8242 35.4998 22.9077 35.3989C23.1865 35.1062 23.4839 34.8306 23.7486 34.5259C24.0023 34.2341 24.2935 34.1733 24.6939 34.2783C24.6451 34.4234 24.6154 34.5004 24.5905 34.5789H24.5894ZM24.748 36.2996C24.8905 36.012 25.0226 35.7198 25.1588 35.4296L25.2732 35.4889C24.9213 36.4111 24.4658 37.2903 23.9155 38.1097C23.8926 37.7608 24.1318 37.5211 24.266 37.2397C24.4183 36.922 24.5925 36.6152 24.7491 36.2996H24.748ZM24.0632 35.6792L22.8973 37.6303L21.2333 37.1664C21.8605 36.1145 22.8141 35.7109 24.0642 35.6792H24.0632ZM25.6934 34.2549C25.6043 34.524 25.5155 34.793 25.4271 35.062C25.3465 34.738 25.4511 34.4739 25.6934 34.2549ZM24.825 33.0179H24.8385H24.8349L24.8234 33.0246C24.8026 33.1089 24.8042 33.2326 24.7522 33.2623C24.5833 33.3606 24.39 33.409 24.1947 33.4016L24.8239 33.0236C24.8141 33.0267 24.8047 33.0298 24.7959 33.0319C24.6165 33.0797 24.5754 32.9035 24.5078 32.7953C24.0497 32.0673 23.5822 31.3429 23.1521 30.5978C22.7503 29.8938 22.2561 29.2467 21.6826 28.6738C21.3224 28.3111 20.992 27.92 20.6946 27.5043C22.6483 28.9083 23.8307 30.8926 24.825 33.0179ZM19.9084 25.2366L20.4804 25.5844L20.1226 25.8444L19.846 25.3109L19.9084 25.2366ZM19.0244 24.6646C19.1224 24.792 19.2135 24.9247 19.2974 25.0618C19.4752 25.3874 19.6499 25.715 19.8065 26.0498C20.0228 26.5178 19.8871 26.9822 19.4081 27.3072C19.4601 27.2157 19.5179 27.1268 19.5641 27.0326C19.7311 26.6936 19.7472 26.3603 19.5543 26.0186C19.3463 25.6515 19.158 25.2745 18.9651 24.8996C18.9423 24.8442 18.9249 24.7867 18.9131 24.728L19.0244 24.6646ZM19.9146 30.3846C20.1159 30.1303 20.2297 30.1339 20.4445 30.3477C21.2406 31.1381 21.8927 32.0429 22.5157 32.9705C22.5771 33.08 22.6323 33.1929 22.681 33.3085C22.5011 33.3085 22.3737 33.3361 22.265 33.3044C20.9879 32.9404 19.7805 33.1858 18.638 33.7724C17.5892 34.309 17.1035 35.2492 17.2486 36.3583C17.3125 36.8497 17.4353 36.9428 17.9111 36.8945C18.3156 36.8529 18.6911 36.7525 19.0218 36.4681C19.4114 36.1437 19.8259 35.8504 20.2615 35.5908C21.1533 35.0407 22.0581 34.5123 22.9623 33.9825C23.1924 33.8405 23.4499 33.7489 23.7179 33.7136C23.6051 33.7895 23.4948 33.8696 23.3783 33.9409C22.2952 34.5976 21.2058 35.2445 20.1299 35.9132C19.8179 36.1082 19.5059 36.3292 19.2563 36.5976C18.8205 37.0697 18.2439 37.0983 17.6823 37.1867C17.4602 37.2215 17.3547 37.0307 17.2793 36.8596C16.8861 35.9694 16.9673 35.114 17.5023 34.3059C17.6414 34.0959 17.8004 33.8999 17.9771 33.7204C18.5361 33.1484 19.2251 32.8296 20.0207 32.8587C20.7102 32.8837 21.3966 32.9971 22.0841 33.0714L22.2983 33.0948C22.303 33.0589 22.3082 33.0231 22.3134 32.9872C21.5714 32.7402 20.7976 32.6804 20.0155 32.6882C19.2126 32.696 18.5132 32.9856 17.9173 33.5399L17.8435 33.4697C18.0416 33.086 18.2002 32.6752 18.4451 32.3257C18.9048 31.6549 19.4102 31.0195 19.9131 30.383L19.9146 30.3846ZM16.8825 31.4142C16.9028 31.9425 16.8867 32.4719 16.8867 33.099C16.8133 32.957 16.7556 32.8946 16.7509 32.8286C16.7104 32.2046 16.6641 31.5806 16.6511 30.9566C16.6534 30.7038 16.6921 30.4526 16.766 30.2109C16.8107 30.0502 16.9262 29.9093 17.0104 29.7595L17.1092 29.8303C16.882 30.3367 16.8591 30.8687 16.8809 31.4126L16.8825 31.4142ZM16.6178 25.3109L18.0853 24.2928C18.1154 24.3333 18.1451 24.3739 18.1752 24.4139C17.754 24.87 17.2808 25.2438 16.6178 25.3109ZM14.0048 27.25C12.8707 27.6894 11.7168 28.082 10.5978 28.5552C9.29259 29.1069 8.02067 29.7377 6.72483 30.3139C5.21215 30.9862 3.69011 31.6373 2.17015 32.294C2.02247 32.358 1.86231 32.3944 1.62103 32.4713C2.77387 31.4287 13.165 26.9957 14.399 26.99C14.3465 27.1991 14.1442 27.1938 14.0048 27.2479V27.25ZM15.8675 27.6015C15.3844 28.2255 14.9481 28.9015 14.3964 29.4611C13.165 30.7091 11.8796 31.9051 10.6056 33.1146C10.3674 33.3403 10.0809 33.515 9.81623 33.7131L9.74499 33.6091C11.8011 31.5723 14.061 29.7335 15.7874 27.3764C15.7968 27.3634 15.8487 27.381 15.9252 27.3888C15.9059 27.4616 15.908 27.5469 15.8675 27.5989V27.6015ZM14.8202 21.2149C14.7037 21.1998 14.5576 21.2591 14.4562 21.3288C14.3473 21.4088 14.2583 21.5129 14.1962 21.633C13.5847 22.777 13.607 24.2371 14.6834 25.2106C14.8711 25.3801 15.0802 25.5262 15.2752 25.6879C15.3875 25.7815 15.4915 25.885 15.673 26.0519C15.1592 26.2734 14.7562 26.4679 14.2607 26.4456C13.932 25.5007 13.555 24.5871 13.4261 23.6183C13.3122 22.764 13.5009 21.9335 14.0844 21.2476C14.3402 20.946 14.6195 20.8316 15.0599 20.9606C15.6912 21.1452 16.3453 21.244 16.9142 21.6044C17.4831 21.9647 17.9059 22.4665 18.2532 23.0333C18.3198 23.1415 18.3343 23.2808 18.4092 23.5143C18.0322 23.0874 17.7332 22.7484 17.4347 22.4093C16.7379 21.6241 15.8118 21.3412 14.8202 21.2149ZM15.6855 36.3651C15.7102 36.5131 15.726 36.6624 15.7328 36.8123L15.6199 36.8383C15.3365 36.1451 15.0537 35.452 14.7479 34.7032C15.1733 34.855 15.5076 34.7032 15.8248 34.5279C16.1029 34.3774 16.324 34.14 16.4545 33.8519L15.9262 33.3283C16.22 33.1915 16.3719 33.3283 16.4982 33.4739C16.6516 33.6543 16.6979 33.8821 16.5648 34.0844C16.4317 34.2867 16.2741 34.5149 16.0718 34.6434C15.9946 34.6894 15.9279 34.751 15.8759 34.8244C15.824 34.8977 15.788 34.9812 15.7702 35.0693C15.6569 35.4957 15.5846 35.9231 15.6855 36.3651ZM10.7819 38.8419C12.6362 38.3999 14.5061 38.0208 16.3703 37.6204C16.9641 37.493 17.5621 37.3838 18.1586 37.2673C18.2574 37.2476 18.3666 37.193 18.4545 37.2189C19.1409 37.427 19.8611 37.559 20.5298 38.0988C20.2599 38.157 20.0784 38.2127 19.8928 38.234C18.1315 38.4358 16.363 38.5886 14.6091 38.8398C12.501 39.1419 10.4199 39.5886 8.41795 40.3426C8.18135 40.432 7.94995 40.5293 7.71595 40.6307C7.53603 40.7092 7.36703 40.7581 7.18399 40.5069C8.35191 39.8236 9.49071 39.1497 10.7819 38.8419ZM23.0679 46.7823L22.0019 45.4043C22.954 46.5088 24.0991 46.3647 24.6435 46.2087L24.9612 46.0933C24.8585 46.1401 24.7523 46.1787 24.6435 46.2087L23.0679 46.7823ZM33.5615 46.1224C31.4846 46.0184 29.4202 45.7906 27.3615 45.4984C26.0917 45.3169 24.8135 45.1989 23.5416 45.0247C22.5937 44.8947 21.654 44.707 20.7071 44.5681C20.0243 44.4683 19.3353 44.4121 18.6495 44.3274C17.7967 44.2234 16.9387 44.148 16.0931 44.0003C14.1135 43.6545 12.1411 43.279 10.1651 42.8979C9.90983 42.8459 9.67271 42.6998 9.43143 42.5859C9.06431 42.4148 8.69407 42.2484 8.33943 42.0565C7.95827 41.8485 7.59167 41.6166 7.21883 41.3951C7.23911 41.3488 7.25939 41.3025 7.27915 41.2562C7.43203 41.3129 7.59115 41.3602 7.73675 41.4278C8.07527 41.5838 8.41275 41.7398 8.74451 41.9057C9.83651 42.4554 10.9774 42.8448 12.1973 43.0279C13.4973 43.2229 14.7853 43.5208 16.0853 43.734C17.2184 43.9197 18.3619 44.046 19.4991 44.2062C20.0841 44.2899 20.6634 44.41 21.2484 44.4948C23.2203 44.7794 25.193 45.0585 27.1665 45.332C28.2871 45.488 29.4088 45.6315 30.5309 45.7714C31.0333 45.8338 31.5377 45.8816 32.0421 45.9201C32.7981 45.9778 33.5558 46.0241 34.315 46.125C34.0633 46.1245 33.8111 46.1354 33.5615 46.1224ZM81.8378 41.2157C81.2564 41.7877 80.6376 42.3233 79.892 42.6597C79.4396 42.8646 78.931 42.9426 78.4567 43.1038C77.9154 43.2884 77.3736 43.4798 76.8494 43.7075C71.9344 45.8437 66.8592 47.4619 61.5864 48.4395C59.8886 48.7515 58.1726 48.9705 56.4436 48.8394C54.8253 48.7172 53.2144 48.5056 51.5993 48.3485C50.2369 48.2165 48.8745 48.075 47.5089 47.9944C45.8746 47.8982 44.2584 47.6762 42.6428 47.4266C41.0901 47.1869 39.5301 46.9913 37.9763 46.7594C36.8952 46.5977 35.8183 46.4069 34.7487 46.1396C35.3758 46.1864 36.0039 46.2285 36.6311 46.2805C38.5348 46.4365 40.4395 46.5857 42.3412 46.7688C43.4852 46.879 44.6219 47.0542 45.7633 47.1884C47.1397 47.3507 48.5193 47.5004 49.8957 47.6564C51.2223 47.8077 52.5477 47.9559 53.8753 48.1176C55.0489 48.2612 56.2205 48.4255 57.3941 48.5742C58.378 48.6985 59.3566 48.582 60.3238 48.4307C66.3558 47.49 72.1221 45.6669 77.6856 43.1787C78.8296 42.668 79.9393 42.0929 80.9746 41.3826C81.1238 41.2786 81.2616 41.1616 81.3999 41.054C81.2715 40.5808 80.9273 40.3811 80.5591 40.2625C79.8691 40.0405 79.1723 39.8205 78.4625 39.6827C76.9369 39.3785 75.3912 39.1856 73.8376 39.1055C72.9442 39.0639 72.0545 38.9344 71.1637 38.8393C70.9854 38.8206 70.7815 38.8221 70.7425 38.5793C70.8465 38.3713 71.0363 38.4092 71.1934 38.4233C71.9323 38.4919 72.6717 38.5668 73.4086 38.6578C74.9339 38.8457 76.4593 39.0403 77.9846 39.2418C78.7381 39.3416 79.4926 39.4388 80.2393 39.5865C80.7146 39.6806 81.1789 39.8465 81.6355 40.0145C82.1337 40.1944 82.2366 40.8241 81.8378 41.2157ZM92.2591 26.4934C91.7443 27.2022 91.19 27.8849 90.619 28.5495C90.4516 28.744 90.1827 28.8662 89.9404 28.979C89.1604 29.343 88.5364 29.8916 87.9774 30.539C86.7471 31.9591 85.6587 33.4848 84.5641 35.011C83.9256 35.9002 83.1971 36.727 82.5159 37.5835C82.2761 37.8861 82.0609 38.2075 81.8253 38.5138C81.6922 38.6869 81.5409 38.8455 81.4415 38.9599L79.229 38.3083C79.2523 38.2621 79.2622 38.2044 79.295 38.1836C80.6283 37.3427 81.8534 36.3552 83.0213 35.3064C84.2523 34.2002 85.4459 33.0532 86.602 31.8655C87.2115 31.2415 87.7055 30.5021 88.2483 29.8126C88.3097 29.7341 88.3997 29.6373 88.3945 29.5526C88.3695 29.1475 88.6768 29.057 88.9467 28.9286C89.358 28.733 89.7787 28.5568 90.1827 28.3457C90.697 28.0768 91.06 27.6842 91.2009 27.0914C91.3746 26.3634 91.1359 25.9157 90.3996 25.7238C90.2019 25.6812 90.0013 25.6533 89.7995 25.6406C89.6191 25.6219 89.4355 25.6151 89.1984 25.599C89.2909 25.5631 89.3232 25.5387 89.3544 25.5408C90.2113 25.5964 91.0704 25.6203 91.9227 25.7259C92.3912 25.7815 92.5311 26.1154 92.2591 26.4934ZM92.4915 25.1996C94.3635 24.4316 96.3593 24.0764 98.34 23.4836C97.2688 23.038 96.2459 23.0312 95.1883 23.219C93.9403 23.4405 92.6824 23.5892 91.4281 23.765C91.2879 23.7865 91.1446 23.7552 91.0262 23.6771C91.1022 23.6456 91.1806 23.6203 91.2607 23.6017C92.8145 23.3739 94.3661 23.1285 95.9246 22.9361C96.4025 22.8773 96.9022 22.9361 97.3847 22.9954C97.9864 23.0723 98.5807 23.2065 99.1772 23.3209C99.2869 23.3417 99.3919 23.3859 99.5963 23.4498C97.1726 24.1019 94.8446 24.703 92.489 25.1996H92.4915Z" fill="url(#paint0_radial_774_96588)"/>
<defs>
<radialGradient id="paint0_radial_774_96588" cx="0" cy="0" r="1" gradientUnits="userSpaceOnUse" gradientTransform="translate(100.312 39.7564) rotate(-153.231) scale(96.4579 292.979)">
<stop stop-color="#8F8AD2"/>
<stop offset="1" stop-color="#4267B2"/>
</radialGradient>
</defs>
</svg>
