<svg width="99" height="30" viewBox="0 0 99 30" fill="none" xmlns="http://www.w3.org/2000/svg">
<path d="M98.3406 17.6367C98.2153 17.5575 98.0725 17.51 97.9246 17.4984C97.3734 17.4554 96.8221 17.4181 96.2705 17.3866C95.9705 17.3684 95.6652 17.3257 95.3699 17.359C94.0886 17.5041 92.8105 17.671 91.5313 17.8327C89.9364 18.0324 88.3431 18.2425 86.7473 18.4245C86.3531 18.4692 85.9626 18.3683 85.6079 18.1806L92.448 0.431966C92.3683 0.413818 92.2875 0.400275 92.2062 0.391404C91.1662 0.343044 90.1309 0.306124 89.094 0.245284C88.7191 0.222924 88.4445 0.319646 88.1695 0.600966C84.349 4.50617 80.4937 8.37756 76.6998 12.3088C75.8377 13.2026 74.8694 13.7918 73.7072 14.1288C73.6589 14.1428 73.6105 14.1579 73.5616 14.1683C72.0089 14.5063 70.4582 14.8536 68.9019 15.1745C68.4141 15.2748 67.9092 15.3721 67.4168 15.3544C65.5411 15.2878 63.6681 15.1703 61.7935 15.0778C59.518 14.9649 57.2419 14.8625 54.9659 14.7476C52.5739 14.6269 50.1819 14.4912 47.7899 14.3737C45.5492 14.2634 43.3075 14.1688 41.0663 14.0617C40.9597 14.057 40.8547 14.0164 40.7257 13.9873C41.0263 13.1283 41.279 12.2963 41.7543 11.5537C41.8583 11.3941 42.0101 11.2266 41.8583 10.9916C41.5161 10.8876 41.1745 10.9916 40.8287 11.028C40.4829 11.0644 40.214 11.2017 40.0242 11.4799C39.5042 12.237 38.9988 13.0009 38.4871 13.7616L38.5027 13.7492C38.5025 13.7523 38.5025 13.7554 38.5027 13.7585L38.5547 13.7362L38.5895 13.7211L38.6691 13.6857L38.6764 13.6821C38.9884 13.1512 40.2639 11.0197 40.577 11.2589C40.577 11.2589 39.8453 11.8652 38.8251 13.616C38.8053 13.6488 38.7866 13.6816 38.7669 13.7148C38.6894 13.849 38.6223 13.9639 38.5651 14.0606C38.3316 14.4652 38.1101 14.8484 37.8371 15.2046C37.0571 16.227 36.2917 17.2644 35.4831 18.2654C34.9854 18.873 34.4544 19.4525 33.8924 20.0011C33.3032 20.584 32.5867 20.9829 31.7973 21.2434C31.718 21.2688 31.6368 21.2878 31.5545 21.3001C31.5207 21.2974 31.4878 21.2886 31.4572 21.2741C31.8415 21.0895 32.244 20.9402 32.5976 20.7146C33.0453 20.428 33.5045 20.1285 33.8664 19.7468C34.4971 19.0823 35.0671 18.3584 35.6432 17.6445C36.1788 16.981 36.6926 16.3003 37.21 15.6227C37.626 15.0795 38.035 14.5318 38.4372 13.9795C38.4798 13.9218 38.4835 13.8355 38.5027 13.7606L38.4871 13.7674C38.4872 13.7662 38.4872 13.7649 38.4871 13.7637C38.3082 13.9197 38.1117 13.9561 37.8631 13.939C36.3941 13.835 34.9235 13.7507 33.453 13.668C31.9647 13.5843 30.476 13.512 28.9877 13.4314C27.4158 13.3451 25.8438 13.251 24.2719 13.1636C21.9802 13.0362 19.6891 12.8901 17.3964 12.7934C16.0288 12.7357 14.6669 12.5552 13.291 12.6514C12.2053 12.7274 11.1143 12.7289 10.0254 12.769C8.34737 12.8308 6.76293 13.3113 5.20917 13.8968C4.84153 14.0352 4.50665 14.2858 4.18945 14.5276C3.87342 14.7764 3.57621 15.0483 3.30025 15.3409C2.99397 15.656 2.66741 15.9129 2.25245 16.0907C1.64196 16.3431 1.13585 16.7962 0.817773 17.3751C0.596253 17.7781 0.606133 18.1874 0.899933 18.5508C1.11573 18.8284 1.35759 19.0848 1.62221 19.3163C2.82965 20.3261 4.14993 21.1332 5.70317 21.5003C5.89141 21.5445 6.07653 21.6006 6.27153 21.6563C6.16753 22.0094 6.07185 22.3229 5.95537 22.7134L7.25121 22.9734C7.15813 23.0998 7.08897 23.1866 7.02709 23.2787C6.85601 23.5345 6.89137 23.7061 7.15085 23.8569C7.22496 23.8935 7.30246 23.9228 7.38225 23.9443C7.86637 24.106 7.86637 24.1055 7.79825 24.6723C7.67444 24.712 7.55292 24.7585 7.43425 24.8116C7.05829 25.0035 6.87161 25.3836 6.95793 25.7695C6.99479 25.9522 7.09335 26.1166 7.23707 26.2352C7.3808 26.3539 7.56094 26.4195 7.74729 26.421C8.01483 26.4247 8.28225 26.4073 8.54705 26.369C8.93445 26.3217 9.12581 26.0602 9.20797 25.706C9.29377 25.3384 9.15597 25.0467 8.86217 24.8283C8.7411 24.7459 8.6154 24.6706 8.48569 24.6026C8.48569 24.3213 8.56473 24.0493 8.46853 23.8746C8.29069 23.5486 8.43161 23.3078 8.52417 23.0182C8.62453 23.0239 8.70721 23.0223 8.78781 23.0348C9.28753 23.1123 9.28597 23.1128 9.40817 22.6568C9.43261 22.5652 9.47161 22.4774 9.51217 22.3687L10.2287 22.4623C11.6556 22.6469 13.0783 22.9048 14.5115 23.0005C17.0179 23.1679 19.531 23.2345 22.0411 23.3468C22.1539 23.3589 22.2657 23.3785 22.3759 23.4056C22.4227 23.7992 22.4638 24.1642 22.5096 24.5288C22.5975 25.2235 23.0363 25.7398 23.6359 25.848C24.2932 25.9666 24.9536 26.0685 25.6088 26.1954C26.9951 26.4637 28.3892 26.6145 29.8041 26.5479C30.2066 26.5287 30.5451 26.4356 30.841 26.1319C31.0077 25.9709 31.2213 25.8671 31.451 25.8355C32.231 25.7466 33.0172 25.7086 33.7998 25.6405C34.1493 25.6104 34.4987 25.5656 34.844 25.5048C35.0613 25.4663 35.2132 25.3368 35.3541 25.1439C35.6209 24.7799 35.6261 24.3707 35.6276 23.9261C36.0379 23.9443 36.4185 23.951 36.7976 23.9822C36.9631 23.994 37.1251 24.0352 37.276 24.1039C37.9962 24.444 38.7549 24.6312 39.5417 24.7279C39.6784 24.7515 39.8136 24.7829 39.9467 24.822C40.0341 25.1387 40.1027 25.4143 40.1865 25.6852C40.2489 25.8896 40.3705 26.0841 40.3913 26.2905C40.4236 26.6025 40.4615 26.9447 40.3648 27.2265C40.2681 27.5084 39.8999 27.46 39.6477 27.4777C39.0305 27.5198 38.6478 28.0533 38.6077 28.6394C38.5786 29.0444 38.718 29.3596 39.0726 29.5712C39.4273 29.7828 39.785 29.8406 40.1553 29.5884C40.2546 29.5208 40.4095 29.4443 40.5052 29.4755C41.0133 29.6414 41.3799 29.4292 41.6555 29.1115C41.943 29.1115 42.1843 29.1531 42.4043 29.1022C42.7573 29.02 43.0995 28.8838 43.4411 28.7564C43.9237 28.5764 44.153 28.2364 44.1296 27.7626C44.1062 27.2889 43.8577 26.952 43.3663 26.8266C43.1307 26.7668 42.8702 26.7705 42.6247 26.7892C42.3127 26.8136 42.0007 26.8828 41.644 26.9405V25.9775C42.5561 25.5766 42.5561 25.5766 42.6757 24.9484C42.75 24.9258 42.8269 24.9127 42.9045 24.9094C43.5925 24.9567 44.2747 24.978 44.9361 24.7196C45.0729 24.6676 45.2331 24.665 45.3828 24.6572C46.1358 24.6166 46.8908 24.5771 47.6422 24.549C47.8143 24.5428 47.9885 24.5839 48.1258 24.601V26.2843C48.0353 26.3004 47.9059 26.3555 47.7863 26.3394C47.2143 26.2624 46.8705 26.5895 46.5819 27.0019C46.2762 27.4376 46.2699 27.889 46.5357 28.267C46.8185 28.6706 47.3229 28.8302 47.8305 28.7059C48.0691 28.6472 48.3219 28.6482 48.5637 28.6019C48.8377 28.5499 49.2048 28.5562 49.3551 28.3835C49.6011 28.1001 49.8985 28.031 50.2069 27.9478C50.3951 27.8958 50.601 27.9041 50.7991 27.9015C51.4408 27.8926 51.8568 27.5276 51.9151 26.9135C51.9733 26.2994 51.6395 25.861 50.991 25.7554C50.7456 25.7149 50.4903 25.7372 50.2391 25.7336C50.0717 25.7336 49.9021 25.7513 49.7373 25.7305C49.5038 25.7014 49.4081 25.5282 49.3702 25.3145C49.3281 25.0753 49.4815 24.9827 49.6702 24.926C49.7815 24.8899 49.8967 24.8672 50.0134 24.8584C50.5979 24.8288 51.1834 24.7747 51.7669 24.7914C53.0055 24.8262 54.2441 24.8876 55.4812 24.9598C56.8332 25.0389 58.1852 25.1611 59.5424 25.2308C61.6666 25.34 63.7924 25.4247 65.9176 25.5095C66.2185 25.5129 66.5192 25.4955 66.8177 25.4575C67.2857 25.4112 67.7501 25.3062 68.2145 25.3129C68.5106 25.3239 68.807 25.3025 69.0985 25.249C75.2518 24.0093 81.4051 22.7738 87.5585 21.5424C87.6708 21.52 87.8257 21.4748 87.898 21.5268C88.106 21.6771 88.2833 21.584 88.4653 21.5128C88.6988 21.4212 88.9333 21.323 89.1538 21.2091C89.9338 20.8092 90.0664 20.3818 89.6353 19.6049C92.539 18.9424 95.4526 18.3704 98.3406 17.6367ZM89.5475 0.591603H92.1277L91.1917 2.29044L91.1397 2.26028C91.1917 1.93996 91.2957 1.61704 91.2785 1.3014C91.2661 1.0934 91.0752 0.894244 90.9561 0.677404H89.5469C89.5469 0.648284 89.5469 0.619683 89.5475 0.591603ZM34.0728 19.1384L12.2328 18.153H12.2058C12.2058 18.153 10.6364 18.1224 8.86425 18.061C8.86385 18.0159 8.85791 17.971 8.84657 17.9274C9.64477 17.9544 10.4139 17.9794 11.0306 18.0033H11.3499C11.3473 18.0069 11.3457 18.0106 11.3431 18.0147C11.8517 18.0334 12.2115 18.048 12.3249 18.0553C12.4006 18.0571 12.476 18.0663 12.55 18.0828C13.0497 18.112 13.5495 18.1406 14.0492 18.1645C14.3497 18.179 14.6519 18.1645 14.9524 18.1775C17.2598 18.2725 19.5671 18.3692 21.8741 18.4676C24.5345 18.5782 27.1949 18.6881 29.8556 18.7973C31.1608 18.8524 32.4655 18.918 33.7702 18.9814C33.8742 18.9866 33.9782 19.0105 34.0853 19.0261C34.0796 19.0651 34.0759 19.102 34.0728 19.1384ZM8.85281 18.5664C8.85633 18.5793 8.85911 18.5923 8.86113 18.6054L8.65937 18.5893C8.32085 18.5893 8.00625 18.6013 7.70257 18.5503H7.70725C7.70725 18.5503 7.40513 18.6132 7.24549 18.4744L7.17737 18.4687V18.4416C7.17816 18.4269 7.17816 18.4122 7.17737 18.3974C7.15632 18.3441 7.14727 18.2867 7.15085 18.2295C7.14377 17.8787 7.15957 17.5278 7.19817 17.1791C7.24029 16.4069 7.29437 15.5203 7.29437 15.5203C7.29437 15.5203 7.46233 15.0117 7.99273 14.9779C8.26729 14.9779 8.54757 14.967 8.82473 14.9816C9.03845 14.9925 9.16377 15.1012 9.10033 15.3684C9.09461 15.3565 9.08837 15.345 9.08213 15.3336C9.07641 15.7548 8.82213 16.7698 8.82213 16.7698C8.78833 17.0345 8.74413 17.2992 8.74673 17.5639C8.74673 17.8707 8.80653 18.178 8.85073 18.5316L8.90273 18.5358V18.5456C8.88037 18.5243 8.84345 18.5363 8.85177 18.5638L8.85281 18.5664ZM7.79825 21.8513C7.80449 21.8289 7.81073 21.8071 7.81645 21.7847L8.33125 21.9277C8.22725 22.2766 8.13417 22.5803 8.04265 22.8845L7.94385 22.8564L8.15185 22.0452L7.79825 21.8513ZM9.78101 13.7882L10.1944 13.7689C10.2001 13.7892 10.2064 13.8095 10.2126 13.8292L9.78361 13.8485L9.78101 13.7882ZM10.9905 13.7039H12.562V13.7206H10.9895C10.989 13.7148 10.9885 13.7096 10.9885 13.7039H10.9905ZM16.2425 13.6925H17.1957V13.7289H16.2425V13.6925ZM17.8343 13.7892H19.8815C19.8768 13.8032 19.8727 13.8173 19.8685 13.8313H17.8343V13.7892ZM20.8622 13.9291L20.87 13.8864H21.8133C21.8133 13.9005 21.8133 13.915 21.8133 13.9291H20.8622ZM22.6729 13.9858H23.4102C23.4102 13.9998 23.4102 14.0138 23.4102 14.0279H22.6791L22.6729 13.9858ZM24.1715 14.1329V14.0908H25.4273V14.1329H24.1715ZM26.5874 14.2333C26.5874 14.2187 26.5874 14.2047 26.5874 14.1901H28.0465L28.0263 14.2333H26.5874ZM35.6032 14.5453H33.2226C33.2226 14.5302 33.2226 14.5146 33.2226 14.4995H35.6094C35.6079 14.5136 35.6068 14.5292 35.6053 14.5442L35.6032 14.5453ZM5.65117 14.1584C6.03493 14.0502 6.43117 13.9707 6.79985 13.8235C7.65005 13.484 8.55277 13.4122 9.44093 13.2848C10.9021 13.0768 12.3753 13.0986 13.8469 13.16C13.8831 13.1621 13.919 13.1668 13.9545 13.174C14.0295 13.1574 14.106 13.1491 14.1828 13.1491L15.6347 13.2052C15.6344 13.2004 15.6344 13.1955 15.6347 13.1907H16.7007C16.7007 13.2073 16.7007 13.224 16.7007 13.2427H16.5343L17.9944 13.2994H19.3464H19.3761H19.3813C19.7775 13.3212 20.1737 13.3451 20.57 13.3644C21.714 13.4216 22.8637 13.4824 24.0108 13.5318L25.3628 13.5838C26.121 13.6103 26.8791 13.6358 27.6368 13.6634C29.0408 13.7154 30.4448 13.7804 31.8488 13.8376C33.7714 13.9166 35.694 13.9949 37.6166 14.0726C37.6605 14.071 37.7042 14.0796 37.7442 14.0977C37.7842 14.1157 37.8196 14.1427 37.8475 14.1766C37.7487 14.1991 37.6481 14.2125 37.5469 14.2166C35.0889 14.1069 32.6314 13.9904 30.1733 13.8823C28.3877 13.8032 26.6023 13.7268 24.8173 13.653L24.6983 13.666L14.0315 13.2843C13.8641 13.3025 13.6971 13.3306 13.5292 13.3363C12.5271 13.3784 11.523 13.3883 10.5231 13.4611C9.32237 13.5479 8.13105 13.7003 6.99693 14.1563C6.74733 14.254 6.48432 14.3131 6.21693 14.3316C5.7483 14.367 5.2975 14.5264 4.91069 14.7933C4.84011 14.8328 4.76504 14.8637 4.68709 14.8854C4.67877 14.8885 4.66109 14.8666 4.62261 14.837C4.84309 14.4236 5.23673 14.2723 5.65377 14.1574L5.65117 14.1584ZM7.11289 17.8728C7.11289 17.9133 7.10977 17.9539 7.10717 17.9944C6.03545 17.9424 5.05369 17.8832 4.47285 17.8098C3.9665 17.8711 3.48323 18.0569 3.06625 18.3506C3.05533 18.3579 3.75681 17.762 4.26225 17.7786L4.73025 17.7937C4.78745 17.7937 4.81917 17.7937 4.81917 17.7937L7.11289 17.8728ZM3.83169 15.2171L3.92997 15.3102L3.47133 16.0902L3.06261 15.8728L3.83169 15.2171ZM3.97781 15.4199L3.77449 16.1609L3.64449 16.1089C3.64449 16.1089 3.95025 15.449 3.98041 15.4189L3.97781 15.4199ZM2.88165 15.8879L3.55765 16.4636L3.56441 16.4662C3.56455 16.4674 3.56455 16.4686 3.56441 16.4698C3.57273 16.4698 4.20557 16.5109 4.28981 16.3429C4.37405 16.175 4.35481 15.5047 4.28981 15.2769C4.22481 15.0492 3.81505 14.9457 3.81505 14.9457C4.16605 14.8547 4.40005 15.2171 4.40005 15.2171C4.40005 15.2171 4.43905 15.7059 4.46505 15.8879C4.49105 16.0699 4.43905 16.3757 4.28305 16.5119C4.12705 16.6482 3.49369 16.5577 3.49369 16.5577L2.75425 15.9519L2.88165 15.8879ZM1.96801 17.3533C2.16482 17.0502 2.38327 16.7617 2.62165 16.4901C2.39545 16.7548 2.22073 17.1042 2.10165 17.3933C2.05901 17.3803 2.01481 17.3663 1.97061 17.3522L1.96801 17.3533ZM2.08137 17.4422C2.01615 17.6028 1.95922 17.7666 1.91081 17.9331H1.76625C1.73193 17.814 1.81825 17.6133 1.94461 17.399C1.98985 17.4131 2.03665 17.4282 2.08397 17.4412L2.08137 17.4422ZM2.55873 16.2982C2.13961 16.7298 1.75117 17.1765 1.58061 17.8176L0.963894 17.8785C1.03825 17.306 1.82865 16.515 2.56133 16.3003L2.55873 16.2982ZM5.44005 20.9642C4.54877 20.909 2.96121 20.1088 1.91601 19.2809C1.89313 19.2627 1.86973 19.2445 1.84737 19.2258C1.80213 19.1889 1.75793 19.1525 1.71477 19.1156L1.65133 19.0604C1.58824 19.0053 1.52861 18.9504 1.47245 18.8956C1.43501 18.8592 1.39861 18.8228 1.36429 18.7869C1.32997 18.751 1.29617 18.7152 1.26497 18.6798C1.15204 18.5563 1.05475 18.4194 0.975334 18.2721C1.43241 18.4718 1.62689 18.8868 1.97009 19.1166C2.34397 19.3678 2.71317 19.6288 3.10317 19.8514C3.47965 20.0666 3.87901 20.2419 4.27161 20.428C4.66421 20.6142 5.05161 20.7858 5.44005 20.9642V20.9642ZM6.19821 18.4609V18.4224H6.60797L4.74533 18.2721C4.74533 18.2721 4.77705 18.1858 3.20821 18.6179C3.20821 18.6179 4.12133 18.1842 4.75417 18.2082C5.02509 18.218 5.99437 18.294 7.01461 18.3772C7.01461 18.4032 7.01825 18.4292 7.02085 18.4552L6.61369 18.4224V18.4609H6.19821ZM7.19037 23.7602C6.78425 23.5002 7.35365 23.0962 7.35365 23.0962C7.08741 23.4274 7.17165 23.6224 7.20441 23.6614C7.23717 23.7004 7.79357 24.0691 7.79357 24.0691C7.79357 24.0691 7.59857 24.0197 7.19297 23.7597L7.19037 23.7602ZM7.43997 25.4169L7.86429 25.4876C7.80345 25.5875 7.76913 25.7175 7.70829 25.7336C7.49561 25.7877 7.41605 25.665 7.44257 25.4164L7.43997 25.4169ZM8.99997 25.5594C9.24697 26.2656 8.21113 26.2874 8.21113 26.2874C8.85229 26.2354 8.80913 25.7414 8.92613 25.4512C9.04313 25.1611 8.60997 24.7924 8.60997 24.7924C9.18509 24.9843 9.00309 25.5589 9.00309 25.5589L8.99997 25.5594ZM8.39313 25.8844C8.25013 26.3176 7.53097 26.2354 7.53097 26.2354C7.53097 26.2354 8.36713 26.3176 8.38429 25.4642C8.40041 24.6759 7.70829 24.9073 7.60117 24.9474L7.58713 24.9526L7.60117 24.9474C8.69369 24.5017 8.53873 25.4523 8.39625 25.8839L8.39313 25.8844ZM8.12429 24.51C8.1392 24.3631 8.15393 24.2161 8.16849 24.0691L8.24857 24.0753L8.20645 24.5168L8.12429 24.51ZM7.32089 22.885L6.12489 22.6344L6.35889 21.6594L6.38489 21.5814L7.38589 21.7504L6.44625 21.6589L6.25801 22.5886L8.39001 22.9656L7.32089 22.885ZM22.3291 23.0962V23.093C22.2771 23.0816 21.7077 23.0275 16.8957 22.7883C11.1003 22.4992 8.03485 21.4483 8.03485 21.4483C8.03485 21.4483 9.51425 21.6719 12.4263 22.209C15.3383 22.7462 22.3 22.9266 22.3 22.9266L22.3317 23.0925C22.3427 23.0951 22.3323 23.0956 22.3323 23.0956L22.3291 23.0962ZM10.118 18.7339C9.99674 18.7301 9.87649 18.7107 9.76021 18.6762L9.03221 18.6174C9.03221 18.6018 9.03221 18.5862 9.03221 18.5706V18.5451L9.59745 18.593L10.2157 18.6179H11.3805C11.3805 18.6325 11.3805 18.647 11.3805 18.6611H11.2953L13.1023 18.7339H13.9447H13.9488C14.175 18.7505 14.4007 18.7724 14.6248 18.7812C15.1329 18.8004 15.6409 18.8129 16.1489 18.828H16.1573H16.163C16.3918 18.8452 16.6211 18.866 16.8504 18.88L17.1437 18.8956L33.8243 19.5659C33.822 19.6003 33.8085 19.633 33.7857 19.6588C33.7629 19.6847 33.7322 19.7023 33.6984 19.7089C33.6854 19.7089 33.4062 19.7026 32.9184 19.6844C32.5685 19.6886 32.219 19.6912 31.8701 19.6756C29.8695 19.5876 27.8689 19.4952 25.8683 19.3984C19.0074 19.113 10.1211 18.7334 10.1211 18.7334L10.118 18.7339ZM29.1671 26.2739C28.0387 26.3399 26.9311 26.1756 25.8225 25.99C25.2786 25.8984 24.7232 25.8496 24.1933 25.7066C23.8263 25.6009 23.4812 25.43 23.1747 25.2022C22.6859 24.8449 22.6084 24.2838 22.5782 23.7186C22.5657 23.4934 22.651 23.262 22.495 23.0426C22.443 22.9719 22.5018 22.8143 22.5293 22.7015C22.7431 21.8211 23.235 21.2034 24.1486 20.9688C24.7539 20.8128 25.3446 20.7541 25.9795 20.8539C27.2005 21.0474 28.4339 21.1659 29.6643 21.2985C30.086 21.3443 30.4739 21.4363 30.7823 21.7691L30.5384 21.8918C30.5015 21.5939 30.2737 21.5414 30.0439 21.505C29.3996 21.401 28.7558 21.297 28.1089 21.2101C27.4127 21.1176 26.7107 21.0656 26.0165 20.9621C24.7638 20.7749 23.456 21.6266 23.1284 23.0488C23.0202 23.5168 23.1284 23.99 23.3291 24.417C23.4055 24.5792 23.6063 24.7019 23.7758 24.7981C24.478 25.1915 25.2401 25.467 26.0315 25.6135C27.0643 25.8147 28.1115 25.9452 29.1515 26.1038C29.2956 26.1262 29.4422 26.1345 29.5873 26.1491L29.5904 26.2271C29.4521 26.2432 29.3117 26.2666 29.1703 26.2749L29.1671 26.2739ZM27.9862 24.1824C27.8302 24.2578 27.7876 24.2948 27.7486 24.2932C26.7133 24.2511 25.6743 24.2412 24.6567 24.0093C24.5259 23.9808 24.3983 23.9397 24.2755 23.8866C23.8106 23.6838 23.6801 23.3146 23.9068 22.8637C24.0254 22.6287 24.2303 22.5892 24.4351 22.766C24.4834 22.8123 24.5277 22.8626 24.5677 22.9162C24.9105 23.3341 25.3869 23.621 25.9166 23.7285C26.4543 23.8481 26.9941 23.9614 27.5328 24.0779C27.6482 24.1034 27.76 24.1304 27.9893 24.1835L27.9862 24.1824ZM29.6258 22.7868C29.4032 23.9609 29.2165 25.1148 30.047 26.1668C29.2535 25.9941 29.0392 23.8923 29.6289 22.7878L29.6258 22.7868ZM31.7339 24.4716L30.3725 24.3972C30.1681 24.0192 30.3455 23.6692 30.5358 23.2418C30.749 23.4352 30.8998 23.6448 31.1078 23.742C31.3054 23.8346 31.5576 23.8101 31.8498 23.846C31.8186 24.0363 31.7781 24.2516 31.737 24.4726L31.7339 24.4716ZM32.2424 25.3909C31.867 24.4799 32.0412 23.7269 32.4743 22.9656C32.485 22.8927 32.4919 22.8193 32.4951 22.7457C32.5123 22.4077 31.23 22.2777 30.7823 22.3468C30.3345 22.416 30.1063 23.9443 30.1063 23.9443V24.9489C30.1718 25.1876 30.2961 25.5542 30.4703 25.7102C30.7433 25.9504 30.6263 26.1194 30.6263 26.1194C30.6263 26.1194 30.2831 25.6218 30.1063 25.1595V25.2063C29.9539 24.7529 29.9113 24.3504 30.008 23.9422C30.0423 23.6302 30.3163 22.624 30.49 22.3302C30.6809 22.0088 31.946 22.1742 32.401 22.4004C32.7375 22.5673 32.621 22.8622 32.5378 23.0041C32.557 23.2787 32.3225 23.4487 32.2778 23.6718C32.2258 23.9318 32.166 24.1918 32.1608 24.4518C32.153 24.7305 32.2071 25.0092 32.2455 25.392L32.2424 25.3909ZM34.7701 24.7253L32.5913 24.5345C32.3979 24.3379 32.2455 24.053 32.5154 23.6697L34.8232 24.2136C34.806 24.4123 34.7899 24.5683 34.7733 24.7243L34.7701 24.7253ZM47.8175 28.0143C47.6469 28.2816 47.4373 28.306 46.9766 28.0663C47.1253 28.059 47.2096 28.0419 47.2886 28.0544C47.5044 28.0882 47.6526 28.0024 47.7176 27.8037C47.7497 27.7162 47.752 27.6206 47.7244 27.5317C47.6968 27.4427 47.6407 27.3652 47.5647 27.3113C47.376 27.1657 47.2226 27.2593 47.0837 27.4049C47.0612 27.4288 47.0369 27.4508 47.0109 27.4709C47.0055 27.473 46.9997 27.4736 46.994 27.4728C46.9882 27.472 46.9828 27.4697 46.9782 27.4662C46.9684 27.4528 46.9603 27.4381 46.9543 27.4226C47.1784 27.1059 47.3994 27.0242 47.6422 27.1683C47.8996 27.3196 47.9885 27.7517 47.8206 28.0154L47.8175 28.0143ZM47.3032 27.565L47.5299 27.8167C47.2663 27.9207 47.2663 27.758 47.3063 27.5661L47.3032 27.565ZM95.5072 17.8608C95.5139 17.8993 95.5202 17.9383 95.5264 17.9768L93.5426 18.2997C93.5374 18.2664 93.5317 18.2331 93.526 18.2004L95.5072 17.8608ZM91.9031 17.9788C90.8339 18.3272 89.7029 18.3824 88.5579 18.5612C88.7139 19.0516 89.171 19.0677 89.4175 19.347C89.1783 19.373 87.7373 18.8452 87.1596 18.5238L91.9031 17.9788ZM79.4881 13.056H79.0721C79.0721 13.056 87.6521 1.95712 88.3551 1.44024C88.4175 1.39552 79.4891 13.057 79.4891 13.057L79.4881 13.056ZM88.5964 0.746565L88.3941 0.970164L88.3551 0.934805L88.5574 0.711723L88.5964 0.746565ZM73.9423 15.3809C74.6396 14.9176 75.3228 14.4293 76.0456 14.0092C76.9692 13.4725 77.6311 12.6748 78.2926 11.8772C78.789 11.2774 79.2917 10.6829 79.8006 10.0936L79.8172 10.0754C81.1521 8.52628 82.5259 7.01256 83.9543 5.54772C83.9835 5.51927 84.0149 5.49335 84.0485 5.47024L84.4405 5.04333L84.882 4.5046L84.9116 4.5306L85.0833 4.34392L85.0661 4.32833L85.7941 3.527L85.8144 3.54988L86.5049 2.79797L86.4945 2.78809L86.7774 2.50156L88.5324 0.591603C88.3893 0.833938 88.2291 1.06575 88.053 1.28528L88.0769 1.30921L87.8975 1.48497C85.8503 4.06521 80.1043 10.0936 80.1043 10.0936H80.0143C79.1521 11.1263 78.3241 12.188 77.5303 13.2786C77.0903 13.8849 76.548 14.4194 76.0337 14.9691C75.652 15.3768 75.1793 15.5931 74.6006 15.5796C74.3031 15.5728 74.0041 15.6388 73.6089 15.6836C73.7623 15.5421 73.8424 15.447 73.9423 15.3809ZM69.7339 20.8336C69.6689 20.8726 68.1292 20.7868 68.1968 20.6927C68.1968 20.6927 68.3699 18.725 68.5868 18.491C68.8036 18.257 70.1556 18.491 70.1556 18.491C70.1639 18.6183 70.1431 18.7458 70.0948 18.8639C70.0215 19.0199 69.7963 20.5726 69.7682 20.7676C69.77 20.7809 69.7676 20.7943 69.7613 20.8062C69.7551 20.818 69.7453 20.8276 69.7334 20.8336H69.7339ZM69.8296 20.9033C70.1109 20.9148 70.3927 20.9033 70.6772 20.9699C70.1182 21.0006 69.5576 21.0796 69.0017 21.0526C65.8563 20.9012 62.7097 20.7244 59.5679 20.556L50.1855 20.0536C49.7175 20.0287 49.2495 20.0193 48.7815 19.9798C48.5907 19.9637 40.6695 19.57 40.4813 19.5206L48.2101 19.8436L49.0597 19.8878C51.6337 20.0188 54.2079 20.1497 56.7823 20.2804C59.6762 20.4249 62.5709 20.5679 65.4663 20.7094C66.9195 20.7797 68.3737 20.8444 69.8291 20.9033H69.8296ZM36.0473 18.8899L35.5533 19.0459C35.5533 19.0459 39.9436 12.3249 40.0689 12.4809C40.1069 12.5282 36.0473 18.8899 36.0473 18.8899ZM37.0186 18.4016C37.0186 18.3761 37.0145 18.3496 37.0119 18.3252L37.5615 18.2851C37.5615 18.3148 37.5662 18.3439 37.5688 18.3735L37.0186 18.4016ZM39.3586 28.5806C39.3883 28.4917 39.563 28.4506 39.7273 28.356C39.6753 28.6342 39.6405 28.8151 39.6041 29.007C39.4039 28.9243 39.2978 28.7683 39.3623 28.5806H39.3586ZM40.1293 28.9259C40.0279 29.2088 39.824 29.2966 39.5011 29.2192C39.6571 29.1479 39.8303 29.1214 39.8979 29.0226C39.9791 28.8821 40.0154 28.72 40.0019 28.5582C39.9863 28.28 39.8391 28.2109 39.3259 28.1391C39.5723 27.9805 39.8225 27.9727 40.0362 28.1828C40.2499 28.3929 40.226 28.6633 40.1313 28.9259H40.1293ZM40.3373 29.4318C40.3081 29.4356 40.2785 29.4315 40.2515 29.4199C40.2795 29.4272 40.3083 29.4312 40.3373 29.4318C40.4491 29.4178 40.6217 29.2758 40.5375 28.475C40.4423 27.5812 39.6597 27.7798 39.3347 27.903C39.2889 27.9223 39.2427 27.9426 39.1938 27.9644C39.2395 27.9412 39.2865 27.9207 39.3347 27.903C40.3861 27.4574 40.552 27.708 40.6935 28.631C40.8084 29.359 40.4985 29.437 40.3409 29.4318H40.3373ZM40.7169 27.227C40.6649 27.5047 40.5718 27.4007 40.5718 27.4007V25.7799C40.5718 25.7799 40.7704 26.9499 40.7205 27.227H40.7169ZM40.1558 24.783H41.4527C41.4527 24.783 41.5078 25.5027 41.5296 25.5459C41.5515 25.589 41.3736 25.7799 41.3736 25.7799V24.9479L40.1558 24.783ZM43.3756 27.9654C43.4146 28.2327 43.0184 28.9716 43.2196 28.1012C43.4209 27.2307 42.3424 27.0929 42.3424 27.0929C43.347 26.9499 43.3403 27.6976 43.3793 27.9654H43.3756ZM41.7023 28.4288C41.89 28.5255 42.0761 28.5198 42.1734 28.3201C42.2613 28.1391 42.2873 27.9348 42.0371 27.8334L42.0444 27.8453L42.0205 27.8495C41.9909 27.9535 42.0491 28.1095 41.852 28.1006C41.8373 28.0967 41.8238 28.089 41.8128 28.0784C41.8019 28.0677 41.7939 28.0544 41.7896 28.0398C41.7867 28.0188 41.7867 27.9974 41.7896 27.9764C41.8078 27.8599 41.9217 27.8646 42.0195 27.8495C42.0215 27.8426 42.0239 27.8358 42.0267 27.8292L42.0356 27.8328L41.8895 27.5936C42.3055 27.6976 42.4126 27.8016 42.4162 28.0845C42.4193 28.3206 42.3278 28.5078 42.1094 28.6102C41.891 28.7127 41.7158 28.6305 41.5015 28.3575L41.3773 27.8807L41.4781 27.8588C41.4965 28.0162 41.5138 28.1738 41.5301 28.3315C41.5587 28.3476 41.5863 28.3648 41.6144 28.3835C41.6425 28.4022 41.6742 28.4163 41.7023 28.4288ZM46.0344 23.8008C44.5784 23.2324 42.8052 22.1856 41.6825 21.4972L41.0533 21.3412L41.3502 21.2892C41.0023 21.0739 40.7496 20.9153 40.6373 20.8518C40.1761 20.5918 38.8173 18.4598 38.8173 17.8878C38.8173 17.75 38.9535 17.3273 39.1579 16.7657C39.1983 16.6024 39.2487 16.4418 39.3087 16.2847C39.8162 14.994 40.3513 13.7138 40.8807 12.4315C40.8866 12.4175 40.8941 12.4042 40.903 12.392L41.0325 12.08C41.0505 11.9618 41.1034 11.8517 41.1843 11.7638C41.2176 11.7118 41.2634 11.6478 41.3206 11.5771C41.3331 11.4372 41.4246 11.3457 41.5946 11.3062C41.5946 11.3062 40.4236 13.9145 39.6654 15.8515C39.4704 16.384 39.2947 16.9232 39.1054 17.4578C39.0934 17.4916 39.083 17.5254 39.0742 17.5587C39.0596 17.6206 39.0487 17.6752 39.0419 17.7214C38.8911 18.7874 41.6419 21.2398 41.6419 21.2398C41.6419 21.2398 44.1281 22.8346 44.8041 23.0124C45.4801 23.1903 47.0744 24.0259 47.0744 24.0259C47.0744 24.0259 48.1674 24.6354 46.0354 23.8034L46.0344 23.8008ZM48.8341 27.0814L48.7758 27.0716L48.8725 26.5547L48.9568 26.5744C48.9166 26.7453 48.876 26.9152 48.8351 27.084L48.8341 27.0814ZM49.3208 25.8402C48.9292 25.6925 48.8647 25.6634 48.8621 25.4533C48.8585 25.1788 48.6838 24.8428 49.1362 24.6213C48.8653 25.094 48.9095 25.4772 49.3218 25.8428L49.3208 25.8402ZM49.4976 27.4111C49.5293 27.4398 49.5642 27.4647 49.6016 27.4855C49.6152 27.4932 49.6293 27.5002 49.6437 27.5063C49.6675 27.5166 49.6922 27.5246 49.7175 27.5302C49.7965 27.5469 49.8784 27.5435 49.9557 27.5203V27.5203C49.9683 27.4898 49.9826 27.4599 49.9983 27.4309C50.3493 26.8589 50.2261 26.5942 49.5636 26.4907C49.8756 26.3987 50.0046 26.4122 50.1554 26.5755C50.3155 26.7497 50.3769 26.9618 50.2739 27.1771C50.2069 27.316 50.08 27.4262 49.9801 27.5494C49.5548 27.7231 49.4362 27.668 49.2703 27.1277C49.3332 27.2329 49.41 27.3291 49.4986 27.4137L49.4976 27.4111ZM51.5776 23.4815C51.4699 23.8273 51.1527 23.8855 50.8496 23.9058C50.5012 23.9297 50.1502 23.9115 49.7628 23.9115C49.846 23.6838 50.0124 23.743 50.1377 23.7207C50.3322 23.6864 50.5417 23.6916 50.7211 23.6203C50.9931 23.5122 51.056 23.2984 50.8881 23.0582C50.734 22.8408 50.5566 22.6408 50.3592 22.4618C49.7638 21.9168 49.0769 21.505 48.3583 21.1446C48.2173 21.0744 48.0801 20.9964 47.909 20.9049C48.221 20.6927 48.416 20.8659 48.611 20.9948C48.8148 21.13 49.0025 21.2886 49.2038 21.4285C49.8624 21.8851 50.5211 22.3399 51.1798 22.793C51.1938 22.8019 51.207 22.812 51.2193 22.8232C51.4091 23.0083 51.6764 23.1643 51.576 23.4841L51.5776 23.4815ZM51.0243 22.403L51.0841 22.3234L51.3327 22.5356C51.3233 22.5512 51.3139 22.5663 51.3051 22.5819L51.0243 22.403ZM41.2207 20.4358C41.1829 20.4307 41.1481 20.4126 41.1222 20.3846C41.0963 20.3566 41.081 20.3205 41.0788 20.2824L49.7383 20.6246H50.0722C50.0719 20.6291 50.0719 20.6336 50.0722 20.6381L52.2302 20.7234H52.381L52.3773 20.7291L70.009 21.4264L71.5497 21.1945L71.5711 21.1794L71.6168 21.1685L71.9423 20.9834C71.9553 21.0167 71.9689 21.0494 71.9819 21.0822L71.6179 21.169L71.5825 21.1898L71.5539 21.194C71.4592 21.2611 71.3693 21.3604 71.2679 21.3734C71.0271 21.4036 70.7853 21.4285 70.543 21.4467L70.647 21.4509C70.4112 21.5221 70.1651 21.5528 69.919 21.5419L68.8691 21.5029C68.9265 21.5195 68.9829 21.5393 69.0381 21.5622C68.9544 21.5622 68.8712 21.5653 68.788 21.5622C66.7361 21.4712 64.6842 21.3833 62.6333 21.2829C62.5714 21.2794 62.5098 21.2723 62.4487 21.2616C53.9769 20.9444 41.3159 20.4629 41.2192 20.4384L41.2207 20.4358ZM89.6671 20.3043L89.0592 19.8196C89.0945 20.1472 89.1205 20.3916 89.1507 20.6761C89.2729 20.6199 89.3993 20.5617 89.5241 20.5034C89.5293 20.5232 89.5521 20.5643 89.5417 20.5762C89.5194 20.6033 89.4965 20.6282 89.4731 20.6548C89.1299 21.0338 88.7311 21.285 88.1778 21.1748L88.1653 21.1805L88.1133 21.1898C87.9516 21.2632 87.7951 21.3609 87.6261 21.3932C84.4203 22.0036 81.2124 22.6022 78.0061 23.2095C77.2333 23.3562 76.4674 23.5376 75.6936 23.6775C75.4055 23.7295 75.1045 23.703 74.8096 23.7222C74.694 23.7369 74.5793 23.7588 74.4664 23.7878C72.2824 24.2142 70.1036 24.6624 67.9144 25.056C66.9399 25.2283 65.9464 25.2675 64.9613 25.1725C64.0456 25.0883 63.1195 25.1205 62.1991 25.0768C61.1461 25.0248 60.0946 24.9484 59.0422 24.8896C58.1582 24.8376 57.2742 24.8002 56.3798 24.7336L56.8311 24.7014L56.7121 24.5579C56.8082 24.5404 56.9056 24.5302 57.0033 24.5272C59.1119 24.6234 61.2205 24.7149 63.328 24.8262C64.0638 24.8652 64.796 24.9619 65.5307 25.0191C66.7304 25.1127 67.9025 24.8818 69.0704 24.666C71.128 24.2854 73.1669 23.782 75.2365 23.4966C77.394 23.2007 79.4673 22.5262 81.6237 22.2486C83.1998 22.0442 84.7661 21.7577 86.3359 21.5024C86.9267 21.4062 87.5158 21.2944 88.1039 21.1904L88.1507 21.1685L88.1746 21.1727C88.2594 21.1332 88.3478 21.0978 88.4279 21.0505C88.7009 20.8888 88.9214 20.6771 88.885 20.3324C88.8475 19.9777 88.7643 19.6189 88.3775 19.4754C87.5455 19.1676 86.7244 18.8394 85.8783 18.5872C83.6423 17.9201 81.3112 17.7448 79.0325 17.2945C76.6369 16.8218 74.2262 16.4261 71.8212 16.0049C70.615 15.7984 69.3859 15.76 68.1692 15.891C67.9513 15.9134 67.7309 15.9092 67.5099 15.9134L67.4006 15.9285C67.4006 15.9243 67.4007 15.9202 67.3965 15.916C66.9878 15.8739 66.5791 15.8167 66.1693 15.7938C64.1299 15.6784 62.0894 15.5759 60.0499 15.4615C57.2912 15.3076 54.5329 15.1502 51.7752 14.9894C49.0174 14.8285 46.259 14.6711 43.4999 14.5172C42.5837 14.4652 41.6679 14.4002 40.7522 14.2744C41.0736 14.2744 41.396 14.2608 41.7163 14.2744C43.521 14.3624 45.3258 14.4539 47.1305 14.5489C48.702 14.63 50.2734 14.7122 51.8449 14.7954C53.5827 14.8866 55.3205 14.9784 57.0584 15.071C58.4624 15.1459 59.8664 15.2244 61.2667 15.2977C62.6354 15.3695 64.004 15.4355 65.3747 15.5057C65.8947 15.5322 66.409 15.5676 66.9264 15.5988L66.968 15.6019C67.1687 15.6217 67.332 15.6945 67.4001 15.9092H67.4204H67.5104C68.1344 15.8266 68.7584 15.7174 69.3876 15.6758C70.4983 15.6024 71.5908 15.7943 72.6807 15.9836C75.3518 16.4474 78.0234 16.9108 80.6955 17.3736C82.0314 17.6034 83.3714 17.8098 84.7047 18.0496C85.0261 18.1078 85.3287 18.2747 85.6407 18.3777C85.8783 18.4552 86.1212 18.5191 86.3651 18.5742C87.3121 18.7927 88.2257 19.1369 89.0815 19.5976C89.3343 19.7411 89.6109 19.8831 89.6655 20.3069L89.6671 20.3043ZM72.0614 20.5331L72.3672 20.4052C72.375 20.4239 72.3828 20.4426 72.3901 20.4618L72.0853 20.5918C72.076 20.5747 72.0703 20.5549 72.0599 20.5357L72.0614 20.5331ZM76.1205 20.389C77.0565 20.571 78.0055 20.6943 78.9348 20.9038C79.8458 21.1087 80.7158 20.9782 81.6128 20.8118C82.9773 20.5596 84.3589 20.3958 85.7333 20.1956C85.7707 20.1924 85.807 20.1805 85.8392 20.1611C85.8713 20.1416 85.8986 20.115 85.9189 20.0833C85.4935 20.0219 85.0697 19.9387 84.6418 19.9044C83.2061 19.7884 81.7683 19.7011 80.3331 19.5789C79.7143 19.5269 79.1438 19.7411 78.551 19.8269C78.4226 19.8456 78.2957 19.8732 78.1683 19.8966C78.1615 19.8649 78.1548 19.8337 78.1475 19.802C78.7164 19.6751 79.2801 19.4998 79.8562 19.438C80.3154 19.386 80.7922 19.4686 81.2566 19.5045C82.4588 19.5971 83.6616 19.6891 84.8623 19.7983C85.2949 19.8378 85.7234 19.921 86.1524 19.9923C86.2252 20.0048 86.2912 20.0594 86.3604 20.1935C86.2117 20.2304 86.0655 20.2804 85.9147 20.3022C84.7551 20.4686 83.5924 20.6199 82.4339 20.7972C81.7896 20.8955 81.1521 21.0422 80.5099 21.1514C80.2966 21.1946 80.0779 21.2032 79.8619 21.1768C78.6722 20.986 77.485 20.7796 76.2989 20.5679C76.0843 20.5274 75.875 20.4628 75.6749 20.3755C75.496 20.3001 75.2677 20.2278 75.2969 19.9704C75.3249 19.7208 75.5662 19.7052 75.7482 19.634C75.7793 19.6211 75.812 19.6127 75.8455 19.609L78.993 19.387L79.0039 19.491C78.5781 19.5232 78.1527 19.5581 77.7273 19.5872C77.1756 19.6257 76.6229 19.6475 76.0732 19.7C75.8345 19.7229 75.5714 19.7385 75.3905 19.9928C75.5652 20.2762 75.8533 20.3402 76.119 20.3916L76.1205 20.389ZM79.3471 20.5679V20.5268H79.6201V20.5679H79.3471Z" fill="url(#paint0_radial_774_110604)"/>
<defs>
<radialGradient id="paint0_radial_774_110604" cx="0" cy="0" r="1" gradientUnits="userSpaceOnUse" gradientTransform="translate(98.3407 23.8523) rotate(-162.843) scale(88.3756 188.147)">
<stop stop-color="#8F8AD2"/>
<stop offset="1" stop-color="#4267B2"/>
</radialGradient>
</defs>
</svg>
