<svg width="221" height="170" viewBox="0 0 221 170" fill="none" xmlns="http://www.w3.org/2000/svg">
<path d="M28.2231 8.64493C30.6633 8.64493 32.6415 6.67341 32.6415 4.24141C32.6415 1.80941 30.6633 -0.162109 28.2231 -0.162109C25.7829 -0.162109 23.8047 1.80941 23.8047 4.24141C23.8047 6.67341 25.7829 8.64493 28.2231 8.64493Z" fill="#E0E0E0"/>
<path d="M89.0097 112.07V43.8429C89.0097 35.3239 76.8606 29.8086 66.61 33.6764C61.4086 35.6397 58.1492 39.6097 58.1958 43.9327L58.2611 50.058L58.4817 70.5489" stroke="black" stroke-width="2" stroke-linecap="round" stroke-linejoin="round"/>
<path d="M125.741 27.5508L70.9766 32.4157" stroke="black" stroke-width="2" stroke-linecap="round" stroke-linejoin="round"/>
<path d="M89.2109 112.069L171.809 91.4943V41.1543C171.809 31.9973 164.389 24.4878 153.632 25.0731L133.106 26.897" stroke="black" stroke-width="2" stroke-linecap="round" stroke-linejoin="round"/>
<path d="M135.613 28.6214V14.9805L146.488 13.8966V6H128L128.239 29.247L129.243 81.4048L137.203 80.3179L135.613 28.6214Z" fill="#908BCE"/>
<path d="M133.113 26.9242V13.2832L143.988 12.1993V4.30273H125.5L125.739 27.5497L126.743 79.7076L134.703 78.6206L133.113 26.9242Z" stroke="black" stroke-width="2" stroke-linecap="round" stroke-linejoin="round"/>
<path d="M121.703 104.43V168.588" stroke="black" stroke-width="2" stroke-linecap="round" stroke-linejoin="round"/>
<path d="M127.867 103.064V168.588" stroke="black" stroke-width="2" stroke-linecap="round" stroke-linejoin="round"/>
<path d="M138.82 100.334V168.588" stroke="black" stroke-width="2" stroke-linecap="round" stroke-linejoin="round"/>
<path d="M220.27 61.6663C223.272 61.6663 225.705 59.2414 225.705 56.2501C225.705 53.2589 223.272 50.834 220.27 50.834C217.269 50.834 214.836 53.2589 214.836 56.2501C214.836 59.2414 217.269 61.6663 220.27 61.6663Z" fill="#E0E0E0"/>
<path d="M13.4467 105.981L4.96094 104.43" stroke="black" stroke-width="2" stroke-linecap="round" stroke-linejoin="round"/>
<path d="M21.9527 118.268L18.8828 125.449" stroke="black" stroke-width="2" stroke-linecap="round" stroke-linejoin="round"/>
<path d="M9.20005 115.635L1.85156 121.856" stroke="black" stroke-width="2" stroke-linecap="round" stroke-linejoin="round"/>
<path d="M70.0703 22.3979L73.6001 13.8262" stroke="black" stroke-width="2" stroke-linecap="round" stroke-linejoin="round"/>
<path d="M60.8872 22.3972L59.4766 18.1113" stroke="black" stroke-width="2" stroke-linecap="round" stroke-linejoin="round"/>
<path d="M79.5391 24.343L84.6597 20.6641" stroke="black" stroke-width="2" stroke-linecap="round" stroke-linejoin="round"/>
<path d="M86.2602 74H33V109.386H86.2602V74Z" fill="#FCE036"/>
<path d="M82.643 70.707H29.3828V106.657H82.643V70.707Z" stroke="black" stroke-width="2" stroke-linecap="round" stroke-linejoin="round"/>
<path d="M29.3828 70.707L55.0512 96.4438L82.643 70.707" stroke="black" stroke-width="2" stroke-linecap="round" stroke-linejoin="round"/>
<path d="M82.6393 106.655L64.9688 87.1895" stroke="black" stroke-width="2" stroke-linecap="round" stroke-linejoin="round"/>
<path d="M29.3828 106.655L46.2797 87.6445" stroke="black" stroke-width="2" stroke-linecap="round" stroke-linejoin="round"/>
<path d="M88.453 106.717H19.2281C18.9209 106.717 18.6719 106.965 18.6719 107.271V111.82C18.6719 112.126 18.9209 112.374 19.2281 112.374H88.453C88.7602 112.374 89.0092 112.126 89.0092 111.82V107.271C89.0092 106.965 88.7602 106.717 88.453 106.717Z" stroke="black" stroke-width="2" stroke-linecap="round" stroke-linejoin="round"/>
</svg>
