<svg width="12" height="14" viewBox="0 0 12 14" fill="none" xmlns="http://www.w3.org/2000/svg">
<path fill-rule="evenodd" clip-rule="evenodd" d="M3.33333 0.333984C2.96514 0.333984 2.66667 0.632461 2.66667 1.00065V1.66732H2C0.89543 1.66732 0 2.56275 0 3.66732V5.00065V11.6673C0 12.7719 0.895431 13.6673 2 13.6673H10C11.1046 13.6673 12 12.7719 12 11.6673V5.00065V3.66732C12 2.56275 11.1046 1.66732 10 1.66732H9.33333V1.00065C9.33333 0.632461 9.03486 0.333984 8.66667 0.333984C8.29848 0.333984 8 0.632461 8 1.00065V1.66732H4V1.00065C4 0.632461 3.70152 0.333984 3.33333 0.333984ZM8.66667 3.00065H3.33333H2C1.63181 3.00065 1.33333 3.29913 1.33333 3.66732V4.33398H10.6667V3.66732C10.6667 3.29913 10.3682 3.00065 10 3.00065H8.66667ZM1.33333 11.6673V5.66732H10.6667V11.6673C10.6667 12.0355 10.3682 12.334 10 12.334H2C1.63181 12.334 1.33333 12.0355 1.33333 11.6673Z" fill="white"/>
</svg>
