<svg width="103" height="35" viewBox="0 0 103 35" fill="none" xmlns="http://www.w3.org/2000/svg">
<path d="M12.8329 17.6106C13.7493 17.4399 14.6938 17.4994 15.5816 17.7837C16.2882 17.6961 16.9753 17.4915 17.6148 17.1785C18.0781 17.7681 17.996 18.3453 17.8145 18.9246L17.7953 18.9319C17.9117 19.0172 18.0235 19.1035 18.1296 19.1888L18.1431 19.1701C18.1572 19.1929 18.1723 19.2148 18.1873 19.2356C18.7198 19.666 19.2027 20.1544 19.6272 20.6916L19.1109 21.898C19.4119 21.6473 19.7265 21.4133 20.0469 21.1851C22.8003 19.2273 25.8059 17.8139 29.0949 17.0183C29.7662 16.8561 30.4328 16.6741 31.1015 16.5014C30.9336 16.5184 30.7648 16.5255 30.5961 16.5227C30.4401 16.5118 30.2529 16.5087 30.1281 16.4271C29.021 15.6923 27.8063 15.1723 26.5645 14.7209C25.9925 14.5129 25.3997 14.3699 24.8069 14.2378C24.3415 14.1338 23.8907 14.1858 23.5761 14.6294C21.7379 14.2254 20.0749 13.3814 18.335 12.7642L18.2799 13.1256L18.0313 13.3278C18.0414 13.3658 18.0439 13.4054 18.0386 13.4443C17.8712 14.372 17.6978 15.2988 17.5186 16.2248C17.499 16.2849 17.4718 16.3422 17.4375 16.3953C17.0839 16.3829 17.0839 16.3829 16.5889 16.0636C16.7246 16.0313 16.865 16.0371 16.944 15.97C17.0397 15.8883 17.1 15.7521 17.1484 15.6289C17.4224 14.943 17.8083 14.2966 17.8837 13.5395C17.8887 13.498 17.8999 13.4575 17.9169 13.4194L17.7901 13.5234L17.0621 9.21359L18.8431 9.43459L18.5269 11.5255L18.9746 9.36491L17.0033 9.16471C16.9289 10.1574 16.8577 11.11 16.7828 12.1048C16.6076 12.0408 16.4812 12.0008 16.359 11.9488C15.1334 11.4496 13.9067 10.9546 12.6842 10.4491C10.3795 9.49699 8.07958 8.53446 5.77234 7.5891C5.5295 7.48926 5.25234 7.45494 4.98974 7.42582C4.3829 7.35926 3.77397 7.28334 3.16453 7.26982C2.48792 7.25592 1.81104 7.27657 1.13653 7.3317C0.713775 7.3655 0.371095 7.60938 0.127215 7.9557C-0.109385 8.2937 -0.00226537 8.7097 0.335215 8.86258C1.02941 9.17459 1.73089 9.47463 2.41521 9.80743C6.30586 11.6982 10.1942 13.5943 14.0804 15.4957C14.2281 15.5675 14.3669 15.6569 14.5099 15.738C14.3929 16.0901 14.2088 16.3168 13.9025 16.4853C13.5323 16.6934 13.1828 16.9365 12.8589 17.2112C12.589 17.4364 12.4429 17.6231 12.4018 17.8305C12.4075 17.8227 12.4143 17.816 12.42 17.8082C12.5525 17.732 12.6905 17.666 12.8329 17.6106ZM29.93 16.5555C29.9404 16.5924 29.9513 16.6293 29.9617 16.6663L29.6544 16.7183L29.6372 16.6564L29.93 16.5555ZM22.7587 18.2991C21.7774 18.4779 20.7951 18.6532 19.8108 18.8128C19.5931 18.8448 19.3718 18.8432 19.1545 18.8081C18.8774 18.7655 18.7682 18.6277 18.8077 18.3469C18.8665 17.9309 18.8275 17.5399 18.53 17.0656C18.842 17.1223 19.024 17.1353 19.1941 17.1909C20.3209 17.5586 21.4477 17.9189 22.6448 17.9808C22.7696 17.9876 22.8923 18.0391 23.1279 18.0978C22.9407 18.2023 22.8554 18.2814 22.7587 18.2991ZM18.2024 14.399C19.0344 14.3907 19.8664 14.3548 20.6927 14.4048C21.5018 14.4531 22.3047 14.5868 23.1112 14.6954C23.274 14.7178 23.4877 14.6923 23.5881 15.0137C21.6942 14.6268 19.8363 14.4776 17.9585 14.619L17.9367 14.502C18.0251 14.4635 18.1135 14.397 18.2024 14.3964V14.399ZM16.8255 13.5832C16.8645 13.1968 16.9029 12.8104 16.9518 12.4251C16.9581 12.3773 17.0085 12.3357 17.0459 12.291L17.0491 12.2561C17.0517 12.2416 17.0548 12.2265 17.0574 12.2119C17.0355 11.9816 16.9466 11.7398 17.1401 11.5432C17.1542 11.5291 17.1692 11.5157 17.1848 11.5032V11.4974V11.4938L17.1328 11.018L17.1848 11.0149V11.5011C17.1421 11.7382 17.0995 11.9748 17.0579 12.213C17.0579 12.2327 17.061 12.252 17.0621 12.2717L17.048 12.2884C16.9787 12.9987 16.9078 13.7093 16.8353 14.4204L16.748 14.4146C16.774 14.1349 16.7974 13.8577 16.8255 13.5806V13.5832ZM16.5717 14.749C16.2373 14.853 15.8957 14.9341 15.5707 15.061C15.2691 15.1806 14.9873 15.3486 14.6383 15.5248C15.0133 14.971 15.8505 14.6164 16.5717 14.7464V14.749ZM14.2021 13.9882C12.3701 13.3679 10.5558 12.7085 8.79406 11.8989C6.63606 10.9078 4.43646 10.0076 2.25505 9.06695C2.05277 8.97959 1.84997 8.89118 1.65341 8.79134C1.21141 8.5667 0.769415 8.35818 0.253055 8.51834C0.131895 8.25314 0.234335 8.08882 0.392935 7.94634C0.665935 7.69882 0.986255 7.5397 1.35545 7.53034C1.99817 7.51682 2.64193 7.5267 3.28517 7.5267C2.71317 7.74874 2.10841 7.7659 1.56917 8.1923C5.44682 10.1803 9.32862 11.9883 13.3789 13.4235C10.6889 12.2374 7.94022 11.1844 5.33866 9.79183C5.52326 9.86255 5.71046 9.92599 5.8909 10.004C7.1363 10.5448 8.37754 11.096 9.62502 11.6295C10.8096 12.1381 12.0014 12.6295 13.1865 13.1375C13.5604 13.2977 13.9275 13.4755 14.2884 13.6632C14.4589 13.7522 14.6077 13.8842 14.7668 13.9966L14.72 14.1006C14.5454 14.0716 14.3725 14.0333 14.2021 13.9856V13.9882ZM16.0309 15.7646C16.2561 15.7562 16.9461 15.9726 16.1609 15.9642C15.3757 15.9559 14.3232 16.2586 14.3232 16.2586C14.7938 16.0043 15.8052 15.7734 16.0309 15.7646ZM16.2956 16.4723L14.2109 16.7526C14.8661 16.4271 15.5712 16.399 16.2956 16.4723Z" fill="url(#paint0_radial_1_8)"/>
<path d="M96.5263 32.6835C96.0016 32.6466 95.4727 32.6351 94.9522 32.5649C93.9601 32.4313 92.9731 32.2618 91.983 32.1099C88.125 31.5182 84.2669 30.9271 80.4089 30.3367C75.8811 29.6399 71.3538 28.9423 66.827 28.2437C66.4235 28.1824 66.0158 28.1714 65.7449 27.7991C65.7251 27.7721 65.6575 27.7794 65.6117 27.771C65.2446 27.7315 64.8697 27.7279 64.5125 27.6468C63.226 27.3561 61.979 27.4284 60.7898 28.0186C60.4414 28.1929 60.1145 28.4074 59.8158 28.6576C59.2215 29.1537 59.4341 29.6909 59.8496 30.0991C59.9536 30.2031 60.0904 30.278 60.2968 30.4282C59.898 30.5203 59.5808 30.6191 59.2568 30.6638C57.5065 30.903 55.7453 31.0361 53.9799 30.9586C52.3749 30.8848 50.7766 30.7036 49.1959 30.4163C48.5126 30.2936 47.8283 30.1781 47.1476 30.0445C46.8423 29.9842 46.5236 29.9327 46.3088 29.6332C50.5936 30.6149 54.901 30.7962 59.2308 30.1771C59.2397 30.0762 59.2568 30.0362 59.2433 30.0128C58.8632 29.3466 59.067 28.5568 59.7867 28.0617C60.3405 27.6811 60.9401 27.4237 61.601 27.2146C61.1678 27.1356 60.7331 27.0628 60.301 26.9765C59.001 26.7165 57.7077 26.4492 56.4109 26.1861C54.5019 25.7997 52.5681 25.7472 50.63 25.7633C49.7809 25.7706 48.9317 25.7893 48.082 25.8075C47.8673 25.8122 47.6593 25.8263 47.6613 25.5215C50.1469 25.1773 52.6331 25.2241 55.1254 25.4695C57.585 25.7093 60.0103 26.1388 62.4236 26.6822C61.9728 26.2552 61.4122 26.0707 60.8569 25.8741C60.4029 25.7134 60.4034 25.7124 60.042 25.2589C60.1918 25.2953 60.3077 25.3109 60.4117 25.351C61.5252 25.8079 62.6373 26.2679 63.7481 26.731C63.8105 26.757 63.8879 26.7747 63.9285 26.822C64.3497 27.316 65.0397 27.3478 65.5135 27.7497C65.5363 27.769 65.5774 27.7664 65.6112 27.7736L63.8905 26.5449C64.6003 26.2812 65.2873 26.0379 65.9653 25.7722C69.9603 24.208 73.9543 22.6407 77.9472 21.0703C79.164 20.5919 80.3751 20.1026 81.4 19.2665C83.5585 19.7901 85.7014 20.3065 87.8433 20.8301C90.1656 21.3974 92.5103 21.88 94.7713 22.6797C94.8844 22.7151 95.0017 22.7353 95.1202 22.7401C95.6443 22.7796 96.1701 22.8019 96.6932 22.8508C98.3322 23.0068 99.9692 23.1675 101.61 23.3245C101.86 23.3485 102.112 23.3573 102.363 23.3729C101.96 23.1937 101.545 23.0428 101.12 22.9215C97.7259 21.9008 94.3355 20.867 90.9342 19.8691C88.4444 19.1411 85.9422 18.4594 83.4431 17.7522C83.2039 17.6841 82.9751 17.5812 82.7811 17.5099C83.4571 15.5256 84.1191 13.5876 84.7769 11.648C85.431 9.71981 86.0824 7.79097 86.731 5.86143C87.3795 3.92547 88.0555 1.99835 88.6805 0C88.4767 0 88.3597 0 88.2427 0C86.5449 0.0228799 84.8471 0.0520009 83.1467 0.0660408C82.9049 0.0660408 82.8071 0.195521 82.688 0.3848C81.0516 2.98479 79.4323 5.59675 77.7444 8.16294C76.8182 9.56707 75.7744 10.89 74.6244 12.1175C74.0252 12.7742 73.2196 13.2064 72.3411 13.3426C71.7056 13.4466 71.0712 13.561 70.4316 13.6338C69.4811 13.742 68.5419 13.8938 67.5773 13.5818C66.958 13.3796 66.2706 13.3946 65.618 13.287C63.2915 12.9022 60.9739 12.4581 58.6214 12.2517C58.182 12.2132 57.7348 12.1664 57.2267 12.403L62.0487 13.6874C61.9015 13.7279 61.7469 13.7343 61.5968 13.7061C60.3384 13.5184 59.0826 13.3078 57.8211 13.1424C56.0531 12.9105 54.2851 12.7129 52.5171 12.4976C50.5291 12.2558 48.5453 11.9776 46.5532 11.7774C45.0166 11.6214 43.4675 11.5528 41.9325 11.8294C41.2165 11.9579 40.4807 12.0634 39.8047 12.3156C37.6976 13.1008 35.8464 14.3218 34.1887 15.8308C33.9661 16.0331 33.7368 16.096 33.4555 16.1085C33.2079 16.1194 32.962 16.1761 32.715 16.2125C32.8845 16.2016 33.0577 16.1964 33.235 16.1959C33.2937 16.1959 33.3525 16.1959 33.4118 16.1959C33.6484 16.1995 33.8886 16.2115 34.1299 16.2307C34.5527 16.2645 34.9791 16.3202 35.3961 16.3919C35.5157 16.4127 35.6337 16.4346 35.7513 16.4574C36.5427 16.6089 37.32 16.827 38.0746 17.1095C37.7626 17.1584 37.5676 17.2083 37.369 17.2172C36.42 17.2608 35.4663 17.2525 34.5215 17.3368C30.1633 17.7257 26.0065 18.8224 22.1772 20.9908C21.3244 21.4733 20.5251 22.0583 19.7332 22.6402C19.0052 23.1753 18.3744 23.8185 17.9335 24.623C17.6584 24.6011 17.5398 24.415 17.5887 24.2117C17.6927 23.7858 17.7119 23.3448 18.0286 22.9637C18.3561 22.5764 18.7183 22.2199 19.1107 21.8987C19.1107 21.8987 19.0197 21.8425 18.8622 21.7474C18.8377 21.7744 18.8117 21.7999 18.7842 21.8238C18.4243 22.1355 18.0927 22.4783 17.7931 22.8482C16.8893 23.9844 17.1732 25.5428 18.4436 26.2584C19.105 26.6307 19.8211 26.9115 20.5262 27.2001C21.1689 27.4632 21.8298 27.6837 22.4845 27.9172C22.8038 28.031 23.1231 28.1475 23.4491 28.237C25.038 28.6716 26.6658 28.9488 28.309 29.0648C30.5611 29.2276 32.8117 29.4288 35.069 29.5203C37.5286 29.6181 39.9924 29.6025 42.453 29.6436C42.8079 29.6569 43.1617 29.5978 43.493 29.4699C43.7348 29.3737 43.9969 29.2707 44.2891 29.3706C44.2995 29.4319 44.311 29.4886 44.3203 29.5442C44.2824 29.1917 44.2595 28.9774 44.2595 28.9722L45.5366 28.447C45.5366 28.447 45.729 29.2161 45.9828 30.267C45.9583 30.1459 45.9308 30.0232 45.9063 29.8963C46.1221 29.9524 46.2651 29.9831 46.4045 30.0263C47.6556 30.404 48.9332 30.6881 50.2265 30.876C51.9425 31.136 53.6736 31.2124 55.4062 31.2296C56.9182 31.2475 58.4287 31.1288 59.9193 30.8749C60.223 30.8229 60.5173 30.7579 60.6915 30.4797C63.4225 30.8084 66.1343 31.138 68.8472 31.461C72.8755 31.94 76.9044 32.4167 80.9341 32.8909C84.6593 33.3319 88.3836 33.7802 92.1099 34.2133C92.8213 34.296 93.5139 34.3693 94.2596 34.2435C95.9298 33.9564 97.6261 33.8165 99.3124 33.6252C100.004 33.5472 100.698 33.4921 101.392 33.4234C101.54 33.4083 101.714 33.4156 101.704 33.1218C101.546 33.0865 101.375 33.0251 101.201 33.0126C99.6411 32.8993 98.0842 32.7927 96.5263 32.6835ZM52.7012 23.9709C52.6343 23.98 52.5669 23.9837 52.4994 23.9818C51.1313 24 49.7632 24.0203 48.3951 24.0338C48.1907 24.0338 47.9853 24.0047 47.7783 23.9875L47.7393 23.9927C47.5963 24.1602 47.4648 24.3302 47.3181 24.4857C47.1491 24.6651 46.9656 24.8315 46.755 25.0358L45.923 24.1576C45.9523 24.156 45.9816 24.156 46.0109 24.1576L45.845 24.1103C45.845 24.1103 49.004 19.3913 49.121 19.2873L49.3331 19.0793C49.5714 18.7 49.8402 18.3409 50.1371 18.0055L52.0091 19.0564L48.9 22.4884L48.8313 22.4452C49.0492 22.0864 49.2588 21.7219 49.4876 21.3699C49.7476 20.9721 50.0476 20.6008 50.2816 20.19C50.5546 19.709 50.6742 19.19 50.538 18.6227C50.4797 18.3825 50.3659 18.2785 50.1038 18.2306L49.8895 18.539L46.2589 24.2288H46.2558C46.4705 24.3443 46.5849 24.5741 46.7883 24.7332C46.9484 24.5549 47.1216 24.3801 47.2745 24.1888C47.5589 23.8326 47.8199 23.4577 48.1132 23.1093C48.2666 22.9372 48.457 22.8023 48.6701 22.7146L47.7305 23.9948L47.7404 23.9881L47.7789 23.9912C49.4196 23.7651 51.0796 23.7128 52.7313 23.8352C52.7599 23.8352 52.7865 23.8659 52.8587 23.909C52.8083 23.9345 52.7555 23.9553 52.7012 23.9709ZM44.4857 18.188C44.5928 17.866 44.7219 17.5517 44.8721 17.2473C45.3562 16.2203 45.8491 15.198 46.3416 14.1684C47.3296 14.1684 48.2614 14.1544 49.1938 14.1767C49.4751 14.184 49.7632 14.2677 50.0331 14.3608C50.4574 14.5074 50.7304 14.807 50.8703 15.2495C51.1615 16.172 51.1724 17.0991 51.0086 18.0819C50.7543 17.9218 50.8739 17.7231 50.8708 17.5583C50.8614 17.0513 50.8952 16.5412 50.851 16.0378C50.747 14.8579 49.8812 14.3005 48.8573 14.2589C48.1455 14.2298 47.4315 14.2558 46.7181 14.2589C46.6443 14.2648 46.5711 14.2752 46.4986 14.2901C46.1117 15.1164 45.7217 15.9442 45.3359 16.7746C45.1643 17.1438 44.9989 17.5156 44.8341 17.888C44.7678 18.0255 44.7128 18.1683 44.6698 18.3149C44.546 18.7969 44.7613 19.1349 45.2657 19.1547C46.1299 19.1879 46.9963 19.1708 47.8615 19.1739C48.1975 19.1739 48.5339 19.1739 48.9894 19.1739C48.8147 19.2633 48.7388 19.3346 48.6623 19.3356C47.5417 19.3491 46.4211 19.371 45.3005 19.3528C44.5653 19.3382 44.2652 18.8931 44.4857 18.188ZM44.8773 24.584L42.8493 25.1763C43.0604 24.8679 44.0609 24.5569 44.8773 24.584ZM45.0457 12.715C45.0499 12.6796 45.0535 12.6438 45.0577 12.6079L48.0571 12.936C48.0493 12.9729 48.042 13.0098 48.0342 13.0468L45.0457 12.715ZM47.1861 15.8906C47.4097 15.4091 47.6334 14.9274 47.8574 14.4456L47.9822 14.5095C47.847 14.7388 47.7399 14.9827 47.6182 15.2204C47.588 15.2796 47.5579 15.3384 47.5256 15.3966C47.4313 15.5741 47.3165 15.7399 47.1835 15.8906V15.8906C47.1835 15.9068 47.1897 15.9244 47.1923 15.9426C47.1968 15.9581 47.1968 15.9745 47.1923 15.99C46.7763 16.8963 46.3603 17.8016 45.9297 18.7361C45.9011 18.4521 45.9006 18.4521 46.1102 17.9987C46.2235 17.7528 46.3364 17.5058 46.4513 17.2603C46.5595 17.03 46.6593 16.7965 46.781 16.5729C46.8746 16.3982 46.9796 16.2297 47.0836 16.0607L47.1876 15.8917L47.1861 15.8906ZM46.5355 18.4152C47.0961 17.2178 47.6613 16.0218 48.2313 14.8272C48.2854 14.7039 48.3595 14.5904 48.4507 14.4913C48.4965 14.445 48.6171 14.4362 48.6863 14.4606C48.7554 14.4851 48.7871 14.5724 48.8339 14.6296C48.7908 14.7856 48.7653 14.9193 48.7159 15.0456C48.2396 16.2416 47.7581 17.4376 47.2817 18.6367C47.1897 18.8681 47.0623 19.0117 46.7841 18.9368C46.4794 18.8562 46.3967 18.7127 46.5355 18.4168V18.4152ZM51.9607 14.4632C51.8707 14.4632 51.7792 14.4632 51.6856 14.4632C51.8281 14.3301 51.8884 14.2272 51.9425 14.2303C52.8884 14.2854 53.8389 14.3114 54.7505 14.6187C54.9297 14.6734 55.0923 14.7721 55.2234 14.906C55.3545 15.0398 55.4499 15.2044 55.5009 15.3847C55.7983 16.317 55.9231 17.2692 55.8186 18.2447C55.7463 18.9175 55.4598 19.3502 54.6975 19.3762C54.1743 19.3944 53.6465 19.4282 53.1286 19.3762C52.4349 19.3055 52.2004 19.0122 52.164 18.3019C52.1276 17.6072 52.1058 16.9119 52.0735 16.2172C52.0683 16.1007 52.0439 15.9853 52.0283 15.8693L51.9971 15.3779H52.0195L51.9607 14.4632ZM59.379 24.6843C59.248 24.5508 59.0978 24.4376 58.9334 24.3484C56.9605 23.245 54.8561 22.7005 52.5857 22.8846C52.4526 22.8955 52.3216 22.9252 52.1323 22.9553C52.1453 23.1691 52.1552 23.3323 52.1671 23.5372C51.7714 23.4499 51.8718 23.0765 51.7023 22.8883C51.8349 22.5955 52.1053 22.5477 52.3465 22.5347C52.8525 22.5081 53.3657 22.4894 53.8681 22.544C55.3879 22.7046 56.8775 23.0782 58.2933 23.6537C59.0397 23.9467 59.7011 24.4216 60.2173 25.0353C59.8611 25.0125 59.6011 24.9173 59.379 24.6848V24.6843ZM59.8517 18.7719C59.7903 18.8239 59.69 18.8515 59.5309 18.8759C59.2709 18.9477 58.8902 19.0278 58.5293 19.0106H58.5039H58.4519C58.273 19.0179 58.0582 19.0106 57.8949 18.8239C57.7939 18.7442 57.7156 18.6393 57.6677 18.5197C57.6089 18.4274 57.5708 18.3235 57.5559 18.215C57.2408 17.1527 57.2533 15.1751 57.2392 15.0997C57.9152 15.0477 58.5455 15.1517 59.1632 15.3181C59.4055 15.3831 59.5667 15.5667 59.626 15.8173C59.6802 16.0305 59.722 16.2467 59.7513 16.4647C59.821 17.0705 59.8938 17.6768 59.9339 18.2847C59.9515 18.5546 59.9453 18.6903 59.8553 18.7688L59.8517 18.7719ZM61.5552 18.5536C61.4767 18.1896 61.4159 17.8256 61.3727 17.4543C61.3207 17.0185 61.2978 16.5802 61.2625 16.1428C61.2479 15.9645 61.2333 15.7866 61.2167 15.5849C61.7689 15.5724 62.2484 15.6187 62.7101 15.796L62.8661 15.8875C63.1558 15.8932 63.2379 16.1137 63.2639 16.3306C63.3466 17.0196 63.4069 17.7117 63.4678 18.4028C63.487 18.6206 63.3815 18.759 63.1558 18.7839C62.7855 18.825 62.4158 18.8697 62.0445 18.9035C61.7851 18.9274 61.6077 18.7974 61.5552 18.552V18.5536ZM77.9227 20.8041C76.993 21.1749 76.0648 21.5482 75.1329 21.9133C74.9301 21.9928 74.7169 22.0417 74.5089 22.1088C74.2193 22.2013 73.9224 22.2783 73.6437 22.3969C72.6624 22.8129 71.6952 23.2673 70.7077 23.6688C68.5404 24.5502 66.359 25.3978 64.1937 26.2854C63.7611 26.4632 63.3903 26.4762 63.0039 26.222C62.906 26.1644 62.805 26.1123 62.7013 26.066C62.6649 25.768 62.8911 25.7571 63.0544 25.7077C63.7522 25.4955 64.4584 25.312 65.1515 25.0863C66.2149 24.7405 67.27 24.3692 68.3282 24.0073C69.5632 23.5851 70.8076 23.1873 72.0306 22.7317C74.0794 21.9679 76.1147 21.1671 78.1562 20.3824C78.306 20.3252 78.4724 20.1978 78.5982 20.5332C78.3564 20.632 78.1396 20.7178 77.9227 20.8046V20.8041ZM64.7205 17.0898C64.7257 16.8209 64.9087 16.8188 65.1188 16.8625C65.7651 16.9956 66.4115 17.134 67.062 17.2463C68.7635 17.539 70.4675 17.8183 72.17 18.1064C72.1981 18.1116 72.222 18.1412 72.3114 18.2046C69.7634 18.4064 67.2414 18.2369 64.7194 18.7719C64.7173 18.1968 64.7095 17.6436 64.7205 17.0903V17.0898ZM93.6325 21.5097C95.0365 21.8217 96.4685 22.0063 97.8803 22.2897C98.5886 22.4307 99.2797 22.6579 99.9785 22.8461C99.9785 22.8706 99.9822 22.8945 99.9837 22.9189C99.7991 22.9189 99.6125 22.9371 99.4305 22.9163C98.0868 22.7629 96.7473 22.5627 95.4005 22.4577C94.5165 22.3891 93.7365 22.0188 92.8972 21.8176C90.6716 21.282 88.4455 20.749 86.2287 20.177C82.8487 19.3055 79.4801 18.4022 76.1069 17.5094C75.8989 17.4574 75.7013 17.3773 75.499 17.3108L75.5229 17.1917C75.6893 17.2198 75.8589 17.2374 76.0227 17.277C79.7001 18.1596 83.3772 19.0436 87.0539 19.9289C89.2478 20.4536 91.4323 21.0194 93.6335 21.5087L93.6325 21.5097ZM87.459 19.3777L87.4174 19.4817L80.7131 17.72L80.7443 17.5999C82.9865 18.1766 85.2225 18.7787 87.4601 19.3757L87.459 19.3777ZM84.391 1.93699L83.3807 2.96347C83.22 3.20579 83.051 3.44291 82.8939 3.68679C82.8419 3.76791 82.7899 3.85007 82.7379 3.93327C81.9184 5.31716 81.1038 6.70382 80.2939 8.09326C79.2415 9.90181 77.9415 11.5289 76.6077 13.1315C76.5349 13.2194 76.4335 13.2839 76.3451 13.3593L75.9956 13.793L75.9155 13.7196L76.3217 13.3374C76.3919 13.2334 76.4563 13.1258 76.5297 13.0254C76.5536 12.9916 76.5785 12.9584 76.6051 12.9266C78.4599 10.68 80.1025 8.26623 81.5118 5.71634C81.9798 4.87395 82.5258 4.07783 83.0442 3.26507C83.0643 3.23405 83.0865 3.20451 83.1108 3.17667C83.1831 3.09243 83.2709 3.01755 83.3474 2.93591C83.4328 2.79884 83.5271 2.66752 83.6297 2.54279C83.8352 2.2875 84.0871 2.07346 84.3723 1.91204V1.91204C84.6953 1.57481 85.115 1.34608 85.5735 1.25736C85.6432 1.24436 85.7139 1.235 85.7862 1.22876C85.8221 1.22564 85.8585 1.22304 85.8949 1.22148L84.391 1.93699ZM68.3558 14.2818C68.7952 14.2568 69.2398 14.2048 69.675 14.2365C70.9147 14.3265 72.1102 14.1206 73.2843 13.756C73.7757 13.6032 74.2001 13.3218 74.5843 12.976C75.2988 12.3364 75.862 11.572 76.4043 10.7921C77.4239 9.33294 78.4341 7.86758 79.4349 6.39598C79.9897 5.58374 80.5326 4.76319 81.0708 3.93951C81.2741 3.62751 81.4468 3.29575 81.6366 2.97491C82.1115 2.17377 82.5868 1.3728 83.0624 0.571998C83.1784 0.375439 83.3489 0.30732 83.5715 0.30264C84.9963 0.2704 86.4211 0.22932 87.8464 0.19864C87.9629 0.19864 88.0804 0.241281 88.1979 0.264681C88.1938 0.316681 88.1891 0.365041 88.1849 0.414961C88.1151 0.449163 88.0414 0.474994 87.9655 0.49192C87.2235 0.57044 86.4793 0.63284 85.7383 0.7202C84.8824 0.8242 84.0853 1.09928 83.3859 1.61148C83.2141 1.74748 83.069 1.91409 82.9579 2.10287C82.4109 2.98063 81.9179 3.89323 81.3324 4.74603C80.1837 6.42666 78.9924 8.07818 77.8141 9.73801C77.2842 10.4847 76.7741 11.246 76.1979 11.9594C75.7631 12.5016 75.2753 12.9991 74.7419 13.4446C74.3631 13.7584 73.9241 13.9913 73.4518 14.1289C72.5069 14.3925 71.5434 14.6083 70.5434 14.5376C69.7671 14.4856 68.9891 14.4575 68.1551 14.4164C68.2461 14.353 68.2996 14.2828 68.3568 14.2797L68.3558 14.2818ZM63.0559 13.1804C63.6903 13.351 64.3195 13.5444 64.9591 13.6931C65.1671 13.741 65.3954 13.6864 65.6143 13.677C65.9149 13.664 66.2155 13.6494 66.516 13.6354L66.5332 13.769C66.4099 13.795 66.2872 13.8403 66.1635 13.8429C65.6393 13.8548 65.1115 13.8236 64.591 13.8704C64.331 13.8944 64.3773 13.613 64.1583 13.5813C63.7101 13.5158 63.2743 13.3629 62.8344 13.2438C62.6784 13.2007 62.5193 13.1508 62.3799 13.0244C62.6061 13.0738 62.8334 13.1185 63.057 13.1783L63.0559 13.1804ZM41.9783 12.0884C42.8581 12.0364 43.7416 11.9189 44.6178 11.96C46.0582 12.027 47.4949 12.1789 48.9296 12.3318C49.8911 12.4358 50.8443 12.6084 51.8031 12.7348C53.1494 12.9116 54.4993 13.0577 55.8441 13.2464C57.5746 13.4893 59.3005 13.7664 61.03 14.0192C62.7762 14.275 64.5255 14.5111 66.2711 14.7711C67.6808 14.9791 69.0869 15.2152 70.4956 15.4351C71.7025 15.6234 72.9105 15.8038 74.1174 15.9931C74.3363 16.0238 74.5478 16.0943 74.7414 16.2011C74.3093 16.1678 73.8761 16.1423 73.445 16.1002C71.4051 15.8964 69.3516 15.744 67.3491 15.276C66.2649 15.0238 65.1651 15.003 64.0694 14.8777C62.5692 14.7061 61.0628 14.5823 59.5657 14.3894C57.9537 14.1814 56.3464 13.8996 54.7328 13.6843C53.7578 13.5543 52.7745 13.4898 51.7948 13.3952C51.6809 13.3837 51.5681 13.3686 51.4542 13.262C51.6206 13.262 51.7881 13.2527 51.9539 13.262C52.1198 13.2714 52.2899 13.314 52.4583 13.3322C54.1572 13.5439 55.8571 13.7519 57.5543 13.9661C59.287 14.185 61.0191 14.4118 62.7517 14.6296C62.9686 14.6567 63.1891 14.652 63.408 14.6619L63.4173 14.5932C59.4523 14.0483 55.4894 13.4856 51.5213 12.9656C49.7715 12.7363 48.0113 12.5855 46.2542 12.416C45.3083 12.325 44.3604 12.2454 43.4119 12.208C42.8919 12.1877 42.3672 12.2704 41.8441 12.298C41.7786 12.3008 41.7131 12.2906 41.6516 12.2678C41.5901 12.2451 41.5337 12.2102 41.4858 12.1654C41.6489 12.1306 41.8136 12.1042 41.9793 12.0863L41.9783 12.0884ZM37.6716 16.784C36.6737 16.524 35.6545 16.343 34.6447 16.1267C34.5355 16.1033 34.4263 16.0825 34.2485 16.0472C34.3764 15.9052 34.4507 15.7976 34.5485 15.718C36.0279 14.5126 37.5967 13.456 39.3731 12.728C40.0491 12.4508 40.7219 12.4425 41.4187 12.5273C42.245 12.6197 43.0571 12.8118 43.8373 13.0993C43.9324 13.1352 44.0255 13.1762 44.1175 13.2189C44.8065 13.5392 44.8975 13.7654 44.5965 14.4528C44.4737 14.7321 44.3157 14.9952 44.1888 15.2724C43.8508 16.0108 43.5195 16.7523 43.1878 17.4938C43.077 17.7408 42.9938 18.0039 42.8576 18.2358C42.6569 18.5759 42.5154 18.6071 42.1473 18.4386C40.697 17.772 39.2171 17.1854 37.6716 16.784ZM35.2796 26.4944C36.8074 26.5355 38.3357 26.5662 39.8629 26.6187C40.1614 26.6291 40.3668 26.5433 40.5743 26.3291C40.8615 26.0399 41.1856 25.7898 41.5383 25.5855C41.3823 25.9744 41.2211 26.3655 41.0282 26.8392L34.9047 26.5969C34.8288 25.8949 35.1273 25.3239 35.2255 24.6729C36.6701 24.7015 38.0725 24.8809 39.4729 25.1606C39.3174 25.177 39.1612 25.1851 39.0049 25.1851C38.3102 25.1508 37.616 25.0957 36.9207 25.0728C36.6322 25.0701 36.344 25.0949 36.0601 25.1466C35.3841 25.2537 35.159 25.495 35.0685 26.1684C35.0576 26.2516 35.0534 26.3358 35.0435 26.4502C35.1212 26.4702 35.2003 26.4843 35.2801 26.4924L35.2796 26.4944ZM40.0922 25.2267C40.0922 25.2158 40.0922 25.2049 40.0922 25.1939H40.892L40.8733 25.2693L40.0922 25.2267ZM41.3922 25.3307L41.3953 25.3068H41.7281L41.7094 25.3874L41.3922 25.3307ZM19.5886 23.7187C20.9179 22.5796 22.3955 21.6261 23.9811 20.8842C26.5337 19.6975 29.2138 18.9326 31.9573 18.3419C34.0133 17.8934 36.1057 17.6323 38.2088 17.5619C38.4688 17.5541 38.7428 17.4881 39.0579 17.6987C38.8453 17.7782 38.6971 17.863 38.5379 17.8869C37.9347 17.98 37.3315 18.0949 36.7242 18.1287C32.2111 18.3887 27.8644 19.3476 23.7387 21.2185C22.0502 21.9829 20.5015 23.0243 19.1565 24.2995C19.1187 24.3333 19.0788 24.3646 19.0369 24.3931C19.0317 24.3968 19.014 24.3822 18.9407 24.3463C19.1664 24.1264 19.3666 23.908 19.5907 23.7171L19.5886 23.7187ZM39.8889 29.1444C39.1287 29.1511 38.3684 29.1641 37.6092 29.1402C36.4262 29.1033 35.2437 29.0398 34.0613 28.9842C31.9953 28.888 29.9397 28.6821 27.8935 28.3878C26.3994 28.1725 24.9068 27.9492 23.4158 27.718C21.848 27.4752 20.4482 26.796 19.0915 26.0155C18.8507 25.8767 18.6121 25.7212 18.4472 25.3686C18.6313 25.4446 18.7395 25.481 18.8403 25.5319C21.1179 26.6787 23.5776 27.4205 26.1094 27.7242C27.7079 27.9224 29.2991 28.1855 30.8997 28.3711C33.3608 28.6566 35.8298 28.8594 38.3107 28.8802C39.02 28.8859 39.7287 28.9192 40.438 28.94C40.4443 28.9852 40.4505 29.031 40.4562 29.0768C40.2669 29.1007 40.0782 29.1423 39.8889 29.1444ZM42.479 28.4481C42.44 28.4262 42.4021 28.4034 42.3641 28.3805C42.2507 28.3108 42.1415 28.2375 42.037 28.1584C41.5998 27.8314 41.2485 27.4031 41.0131 26.9104L42.5211 28.4013L43.4899 28.9733C43.0947 28.9603 42.9059 28.8526 42.479 28.4481ZM43.207 28.0997C43.7145 28.2068 44.0879 28.3259 44.4685 28.3545C44.8325 28.382 45.2033 28.316 45.5403 28.2931C45.0749 28.6826 43.9797 28.6327 43.2049 28.0997H43.207ZM45.8902 27.0966C44.7187 27.1964 43.5617 27.081 42.4135 26.8506C42.0708 26.782 41.7297 26.704 41.3309 26.6182C41.4156 26.4102 41.4915 26.2168 41.5966 25.9557C42.0188 26.4757 42.5326 26.5225 43.0729 26.4903C43.6449 26.456 44.2231 26.4352 44.7967 26.3863C45.4175 26.3343 45.9053 26.0977 46.067 25.4206C46.0993 25.2828 46.2204 25.1669 46.327 24.9989C46.6031 25.5371 46.7316 26.0571 46.7009 26.6213C46.6879 26.8673 46.5714 26.9952 46.3421 27.0373C46.1908 27.0623 46.0395 27.0836 45.8881 27.0966H45.8902ZM46.5454 28.2323C46.7191 27.9232 46.8529 27.5933 46.9437 27.2505C47.0347 26.9182 47.0535 26.5662 47.1195 26.1195C47.3899 27.1782 46.9874 28.4444 45.9235 29.0227C46.1331 28.7611 46.3769 28.5198 46.5433 28.2323H46.5454ZM90.7855 32.7963C90.5925 32.7963 90.397 32.8145 90.2062 32.7963C88.0976 32.5654 85.9869 32.347 83.8819 32.0855C82.8565 31.9581 81.8446 31.7215 80.8197 31.5795C79.2222 31.3622 77.618 31.1963 76.0195 30.9893C74.5219 30.7952 73.0264 30.5872 71.533 30.3653C69.8045 30.1084 68.0781 29.8391 66.3538 29.5572C64.8302 29.3097 63.3118 29.031 61.7877 28.7866C61.3717 28.7206 60.9603 28.6826 60.5885 28.4621C61.5089 27.6156 64.0252 27.4122 65.4386 28.0981C65.1484 28.0981 64.9186 28.0981 64.6893 28.0981C64.5707 28.0981 64.4407 28.0773 64.3357 28.1174C64.2306 28.1574 64.0959 28.2468 64.0491 28.3482C64.0237 28.4049 64.1271 28.5786 64.2103 28.6176C64.5755 28.793 64.952 28.944 65.3372 29.0695C65.6263 29.1589 65.9362 29.1844 66.2389 29.2255C68.205 29.5006 70.1695 29.7881 72.1383 30.0414C74.4263 30.3362 76.7226 30.5842 79.0111 30.8838C80.5914 31.0918 82.1639 31.358 83.7431 31.5837C85.4731 31.8312 87.2068 32.0553 88.9369 32.3049C89.4569 32.3798 89.9691 32.5036 90.4833 32.6117C90.5914 32.6417 90.697 32.6796 90.7995 32.7251C90.7922 32.748 90.7881 32.7724 90.7834 32.7963H90.7855Z" fill="url(#paint1_radial_1_8)"/>
<defs>
<radialGradient id="paint0_radial_1_8" cx="0" cy="0" r="1" gradientUnits="userSpaceOnUse" gradientTransform="translate(31.1015 18.9715) rotate(-154.326) scale(29.8331 87.9888)">
<stop stop-color="#8F8AD2"/>
<stop offset="1" stop-color="#4267B2"/>
</radialGradient>
<radialGradient id="paint1_radial_1_8" cx="0" cy="0" r="1" gradientUnits="userSpaceOnUse" gradientTransform="translate(102.363 27.4489) rotate(-157.61) scale(79.5668 211.665)">
<stop stop-color="#8F8AD2"/>
<stop offset="1" stop-color="#4267B2"/>
</radialGradient>
</defs>
</svg>
