<svg width="99" height="32" viewBox="0 0 99 32" fill="none" xmlns="http://www.w3.org/2000/svg">
<path d="M97.7077 4.6623C97.6386 4.43648 97.537 4.2219 97.4061 4.0253C96.8399 3.11426 95.973 2.7773 94.9465 2.81682C93.463 2.86882 91.9825 2.95722 90.4964 3.02482C90.1428 3.04042 89.7881 3.03313 89.434 3.03625C88.7019 3.16209 87.9614 3.13506 87.2235 3.15274C86.8683 3.30874 86.4898 3.21462 86.1237 3.25154C85.6937 3.2947 85.2615 3.22293 84.8315 3.29625C85.0769 3.11321 85.8783 3.0321 86.9115 3.05862C87.7581 3.05446 88.5984 2.9151 89.4465 2.94474C90.3856 2.87922 91.3242 2.80433 92.2639 2.75025C93.3559 2.68785 94.4479 2.67225 95.5321 2.53289C95.6974 2.51209 95.8685 2.53289 96.0365 2.53289L96.1285 2.45074C95.2882 2.26302 94.4479 2.42369 93.6112 2.47153C91.3055 2.60258 89.0014 2.76534 86.6952 2.92082C86.5967 2.92953 86.4974 2.91862 86.4032 2.88872C86.3089 2.85882 86.2215 2.81052 86.1461 2.74662C85.7264 2.42162 85.2267 2.33581 84.7088 2.41954C84.3879 2.47153 84.0921 2.59269 83.9491 2.92654C84.0011 3.11321 83.7931 3.13453 83.7379 3.25413C83.6683 3.44445 83.4925 3.40337 83.3552 3.41013C82.0131 3.49749 80.671 3.5755 79.3289 3.65974C78.9602 3.68314 78.592 3.72162 78.2228 3.7445C78.0389 3.75682 77.8541 3.74528 77.6732 3.71018C78.1266 3.52558 78.6092 3.57185 79.0798 3.51777L79.1718 3.35813C79.0273 3.15273 78.8385 3.02846 78.5785 3.03365L78.5665 3.13766C78.6066 3.30925 78.5052 3.33994 78.3689 3.33474C78.149 3.32538 77.9347 3.33473 77.7319 3.44237C77.2896 3.68504 77.2059 4.01594 77.4808 4.43506C77.5692 4.57078 77.7252 4.6675 77.7408 4.90306C77.3295 4.79906 77.1308 4.51722 77.0076 4.17506C76.8895 3.84694 76.9909 3.54326 77.2676 3.31862C77.3837 3.22075 77.5209 3.15115 77.6685 3.1153L77.5463 3.03262C77.2993 3.05966 77.1069 3.1933 76.941 3.36334C76.8318 3.47514 76.7299 3.5807 76.5573 3.56146C76.5245 3.6613 76.6093 3.80742 76.4403 3.85318C74.5405 3.99184 72.641 4.13051 70.7416 4.26918C69.0942 4.3919 67.4479 4.52086 65.8016 4.64358C65.5333 4.66386 65.2629 4.6675 64.9935 4.67842C64.4069 4.82818 63.8006 4.77514 63.2057 4.84742C62.6431 4.91554 62.0737 4.92282 61.5074 4.95662L60.8283 4.98054C60.1773 5.09962 59.5174 5.09805 58.8585 5.12301C58.8263 5.13082 58.7946 5.13914 58.7629 5.1485C58.7603 5.15266 58.7566 5.15474 58.7519 5.15162L58.7629 5.1485C58.7675 5.14226 58.7707 5.13082 58.7774 5.12613L58.6297 5.13289C59.3115 4.93581 60.0187 4.95869 60.7139 4.8859L61.4024 4.84586C62.0503 4.71326 62.7123 4.73042 63.3659 4.6571C63.7673 4.61238 64.1735 4.6051 64.577 4.57858C66.674 4.40975 68.7713 4.24127 70.869 4.07313C71.0645 4.05701 71.26 4.04661 71.4561 4.03413L71.4457 4.01489C71.2579 3.90258 71.0349 4.02738 70.8435 3.93846C70.4493 3.91818 70.0521 4.01958 69.6355 3.93534C69.7364 3.37738 69.8243 2.8475 69.9319 2.32334C69.9787 2.09558 69.9226 1.94686 69.7323 1.80906C69.3506 1.53242 68.9689 1.25577 68.5409 1.05713C68.1884 0.892814 67.8192 0.791936 67.4209 0.809096C67.1567 0.820536 66.9783 0.902176 66.892 1.1731C66.7714 1.55686 66.6227 1.93178 66.4859 2.31034C66.5202 2.38522 66.4859 2.49494 66.5987 2.53082C66.7241 2.25574 66.8535 1.98274 66.9731 1.7061C67.2207 1.1341 67.3819 1.05869 67.9741 1.20325C68.4182 1.31141 68.8316 1.49393 69.2429 1.68477C69.3937 1.75497 69.5393 1.82569 69.6033 2.04877C69.2783 2.07061 69.0022 1.94945 68.7235 1.88913C67.7781 1.68529 67.1806 1.99314 66.7995 2.89274C66.6097 3.34046 66.4089 3.78454 66.0949 4.16466C65.9909 4.34562 65.8869 4.22445 65.7891 4.15737C65.6799 4.30869 65.5135 4.25774 65.3695 4.26918C63.3825 4.42518 61.3951 4.57858 59.4087 4.73718C59.1809 4.7559 58.9875 4.73354 58.7925 4.5947C58.5876 4.4491 58.3531 4.34145 58.0869 4.34925L58.0754 4.34458L58.0869 4.34925L57.9709 4.43713L58.3869 4.57962C58.3427 4.76214 58.2309 4.68362 58.142 4.67842C57.506 4.6311 56.8737 4.60458 56.258 4.83442C55.9299 4.95714 55.659 5.12666 55.5337 5.47142C55.5368 5.5541 55.5259 5.63313 55.4219 5.63625C55.3699 5.63625 55.348 5.59362 55.3522 5.54162V5.29098C55.3433 5.21142 55.335 5.13498 55.3262 5.05282C53.4188 5.15162 51.5104 5.22909 49.6062 5.35702C48.5475 5.42826 47.5262 5.36222 46.5195 4.99301C46.0463 4.81933 45.5486 4.70962 45.0593 4.58118C44.8648 4.52918 44.6719 4.47718 44.4639 4.47146C42.5035 4.43159 40.5433 4.38722 38.5832 4.33834C38.3974 4.3318 38.2116 4.3507 38.031 4.3945C37.3435 4.5661 36.6556 4.73821 35.965 4.89578C35.6593 4.96546 35.3743 5.08974 35.1746 5.31594C34.9822 5.53382 34.7794 5.60714 34.5111 5.56606C34.2657 5.5281 34.0093 5.59622 33.7743 5.44854C32.9459 4.92854 32.0146 4.80374 31.0614 4.76058C30.7905 4.74862 30.5414 4.9041 30.2294 4.8443C30.4197 4.36174 30.6454 3.91453 30.7661 3.42989C30.7557 3.36281 30.7572 3.29157 30.6959 3.24425C30.5768 3.40857 30.5549 3.63321 30.3771 3.76113L30.3724 3.75698L30.3776 3.76166C30.3875 3.88542 30.3329 3.99254 30.2851 4.09966C29.8862 4.99406 29.5851 5.92486 29.2451 6.8411C29.1629 7.06248 29.0677 7.27883 28.9601 7.48902C28.6549 8.08442 28.6512 8.08286 27.9378 7.95962C27.9934 7.93258 28.0418 7.88474 28.0797 7.8941C28.5831 8.02566 28.7209 7.65438 28.8722 7.31586C29.1842 6.62166 29.387 5.88898 29.6455 5.17606C29.8285 4.6727 29.9933 4.1579 30.3521 3.74034L30.361 3.74813L30.3521 3.74034C30.3688 3.43666 30.4925 3.16834 30.6428 2.91458C30.7468 2.24846 30.8623 1.58389 30.7115 0.907374C30.6652 0.699374 30.8399 0.712895 30.9715 0.693655C30.9715 0.665055 30.9715 0.636454 30.9715 0.608374L30.9819 0.600576C30.9838 0.6027 30.9855 0.60496 30.9871 0.607336C30.9945 0.61619 31.0008 0.625979 31.0058 0.636456C31.0084 0.658218 31.0084 0.680215 31.0058 0.701977L31.584 0.851737C31.532 1.2537 31.2684 1.57089 31.1379 1.93801L30.7525 3.02586C30.7369 3.09138 30.7213 3.15689 30.7052 3.22189C30.8181 3.25309 30.8493 3.31913 30.7697 3.42989C30.7939 3.42612 30.8166 3.4155 30.835 3.39929C30.8535 3.38308 30.8669 3.36194 30.8737 3.33837C31.2044 2.55387 31.5357 1.76936 31.8674 0.984857C31.9064 0.892817 31.9454 0.798176 31.8856 0.698336C31.7686 0.549616 31.6111 0.599014 31.4613 0.612014L31.2777 0.591737C31.1217 0.435737 30.9319 0.499174 30.7499 0.511134L30.8077 0.535576C30.7872 0.530789 30.7676 0.522521 30.7499 0.511134C30.4723 0.451334 30.4177 0.644775 30.3443 0.846535C29.8243 2.2748 29.3017 3.70168 28.7765 5.12718C28.5685 5.69346 28.6668 5.59517 28.1047 5.57801C25.2502 5.5021 22.396 5.42046 19.5419 5.3331C17.8025 5.2811 16.0636 5.21402 14.3247 5.15422C13.9239 5.18573 13.5208 5.17423 13.1225 5.11989C12.1953 4.97638 11.7023 5.4839 11.901 6.39078C11.9155 6.4384 11.9329 6.48512 11.953 6.53066C11.4273 6.29146 11.3238 5.92226 11.589 5.26342C11.5261 5.13394 11.355 5.18958 11.277 5.08194C10.5193 5.03566 9.7617 4.98626 9.00406 4.94362C8.76902 4.93062 8.54022 4.90722 8.33898 4.7715C8.22874 4.94206 8.04986 4.88018 7.89854 4.88174C7.69657 4.8782 7.49593 4.91497 7.30834 4.98989C6.85854 5.18282 6.6937 5.55566 6.81486 6.07462C6.41082 5.82502 6.32658 5.57958 6.5429 5.23586C6.6131 5.12458 6.71866 5.03566 6.80862 4.93634L6.7041 4.86874C5.28502 4.86146 3.8649 4.88174 2.44686 4.83442C1.8577 4.81466 1.41154 5.07465 0.944061 5.34037C0.788061 5.42981 0.781301 5.54162 0.913901 5.66122C1.05512 5.78268 1.22817 5.86117 1.41258 5.88742C2.22586 6.0351 3.03654 6.19942 3.84982 6.34554C5.0115 6.55822 6.17006 6.79638 7.33954 6.9581C7.91882 7.03818 8.46794 7.13802 8.95154 7.4781C9.24118 7.68038 9.5589 7.72354 9.90782 7.72562C15.4507 7.75855 20.9932 7.79738 26.5353 7.8421C26.6705 7.8421 26.8057 7.8421 26.9404 7.8473C27.1817 7.85874 26.9924 8.0189 27.0257 8.1021L27.0179 8.21026L27.0928 8.22898L27.1385 8.24042C27.2098 8.33922 27.3367 8.27006 27.4199 8.33298C27.6372 8.32518 27.8546 8.3153 28.0719 8.3101C28.7011 8.29398 28.9991 8.57582 29.0506 9.23258C29.4713 10.1207 29.0251 11.3547 28.1432 11.7C27.748 11.856 27.3575 11.8492 27.0143 11.5497C26.8442 11.5071 26.7413 11.3604 26.5983 11.2777C26.5927 11.2848 26.5864 11.2912 26.5795 11.297C26.5463 11.5206 26.4022 11.4067 26.2847 11.375L26.2764 11.3828C26.3539 11.5305 26.4615 11.6703 26.3908 11.8549L26.5255 11.9886C26.7855 12.0973 26.8515 12.3755 27.0247 12.5606C27.1749 12.3661 26.8167 12.2839 26.956 12.0406C27.1718 12.2975 27.332 12.5913 27.6169 12.7509C27.8936 12.9069 28.2134 12.9345 28.5935 13.0338C28.0979 13.2366 27.7615 12.9334 27.3897 12.8866C27.4464 12.9454 27.4937 13.0187 27.5613 13.0608C27.7173 13.157 27.9445 13.2017 28.0205 13.3364C28.1068 13.4888 28.0621 13.716 28.1375 13.9001C28.2238 13.8533 28.2139 13.7607 28.2415 13.6848C28.2555 13.6328 28.2274 13.5231 28.3273 13.5642C28.4406 13.611 28.4718 13.742 28.5212 13.8486C28.6122 14.0467 28.6933 14.2506 28.7984 14.4414C28.997 14.8018 29.2487 15.1086 29.6694 15.2329C29.815 15.276 29.9559 15.3514 29.9367 15.5766C29.7734 15.6582 29.6319 15.5043 29.4765 15.5048L29.3579 15.5995C29.6028 15.7924 29.9013 15.8563 30.1899 15.938C30.6979 16.081 30.6985 16.0794 30.6579 16.6332C30.9439 16.7939 30.9449 16.7991 30.7858 17.1574C30.7515 17.2614 30.7926 17.3919 30.6699 17.459C30.6699 17.667 30.6844 17.8828 30.5471 18.0653C30.5745 18.1653 30.5707 18.2712 30.5362 18.369C30.3105 19.513 30.0852 20.6582 29.8602 21.8046C29.8441 21.8873 29.842 21.9715 29.7697 22.0303C29.7739 22.3423 29.7011 22.634 29.568 23.0235C29.4827 22.7547 29.568 22.594 29.5519 22.4354C29.5253 22.3314 29.5732 22.2076 29.4598 22.1312L29.2336 23.1249L29.3465 23.3277L30.9278 23.5284C30.7011 23.699 30.4764 23.6324 30.2585 23.6111C28.4983 23.4234 26.7314 23.2793 24.9811 23.024C22.7971 22.7053 20.6047 22.7989 18.4135 22.8087C18.3292 22.8035 18.2446 22.8056 18.1607 22.815C17.765 22.8888 17.6896 23.1031 17.9439 23.4125C17.9822 23.4638 18.0169 23.5176 18.0479 23.5737C17.9288 23.7026 17.8659 23.5581 17.7817 23.544L17.6777 23.6366C17.6919 23.6676 17.7094 23.697 17.7297 23.7245C17.843 23.8586 17.9377 23.9876 17.8175 24.1748C17.6808 24.3906 17.5534 24.2075 17.4275 24.1748C17.0713 24.0848 16.7422 24.1493 16.4806 24.3942C16.0402 24.8061 15.7989 25.3198 15.8644 25.9355C15.9367 26.6177 16.4697 27.0873 17.1301 27.0795C17.8061 27.0691 18.2668 26.6032 18.3115 25.8793C18.3205 25.7445 18.3156 25.6091 18.297 25.4753C18.2507 25.1581 18.3401 24.8794 18.5383 24.5393C18.7983 25.0073 19.1753 25.3058 19.5133 25.6417C19.922 26.0483 20.4149 26.3479 20.8039 26.7753C21.0378 27.0197 21.31 27.2241 21.6099 27.3806C22.8636 28.0639 24.0763 28.8366 25.4725 29.2203C26.2348 29.4283 26.9805 29.7081 27.7672 29.8157C29.0053 29.9842 30.2419 30.1631 31.4785 30.3415C32.5481 30.4975 33.6177 30.6566 34.6874 30.8131C34.8309 30.8339 34.99 30.9077 35.0701 30.6971C35.3265 30.0211 35.9598 29.8906 36.5438 29.7341C36.9993 29.6114 37.4772 29.6057 37.941 29.7819C38.2832 29.9125 38.6238 29.8859 38.981 29.7679C39.9893 29.432 41.009 29.1267 42.0215 28.8064C42.1816 28.7544 42.3137 28.7102 42.4988 28.7965C43.3241 29.1819 44.1628 29.537 44.9948 29.9026C45.1643 29.9774 45.3422 30.0315 45.5247 30.0638C48.1694 30.5297 50.8128 31.0024 53.4547 31.4818C53.7735 31.5399 54.1014 31.5221 54.412 31.4298C54.2883 31.2509 54.0449 31.2905 53.9466 31.1178C54.0558 30.9692 54.1831 30.8348 54.3257 30.7179C54.5108 30.5775 54.6434 30.3675 54.9159 30.3633C55.2024 30.3581 55.4931 30.2921 55.7744 30.3233C56.3599 30.3883 56.9184 30.2837 57.4722 30.1293C57.4681 30.1049 57.4644 30.0809 57.4618 30.057C57.3817 30.044 57.2944 30.0809 57.168 29.9759C57.6298 29.7773 58.104 29.7507 58.5481 29.6348C58.9922 29.5188 59.4628 29.4476 59.9209 29.3571L60.1996 29.3217C60.899 29.0857 61.6265 28.9739 62.3483 28.835L66.7059 27.8829C66.7828 27.7789 66.8889 27.7888 66.9976 27.8096C67.1905 27.5381 67.4229 27.4315 67.7256 27.6442C67.7433 27.6571 67.7619 27.6688 67.7812 27.6791C67.8347 27.6767 67.888 27.6711 67.9409 27.6624L67.9481 27.6562C68.217 27.3749 68.6418 27.1882 68.5493 26.6827C68.5451 26.6614 68.5794 26.6339 68.6059 26.5938C68.8306 26.7566 68.7209 26.9906 68.7453 27.1903C68.8701 27.1507 68.8436 27.0415 68.8462 26.9485C68.8633 26.3307 68.5461 25.8169 68.3262 25.2725C68.3048 25.2816 68.286 25.2959 68.2715 25.314C68.2569 25.3322 68.2472 25.3536 68.243 25.3765C68.2373 25.3973 68.2336 25.4191 68.2289 25.441C68.2254 25.4624 68.2193 25.4834 68.2107 25.5034C68.2483 25.6145 68.278 25.7282 68.2997 25.8435C68.3184 26.0036 68.5077 26.1638 68.3704 26.3115C68.2331 26.4591 68.0584 26.2797 67.9024 26.2636C67.8561 26.2589 67.8504 26.2205 67.8941 26.1929C67.9747 26.1118 68.1192 26.2449 68.2003 26.1165C68.1088 25.7878 67.9086 25.5127 67.7323 25.2262C67.6876 25.1524 67.6403 25.0146 67.5119 25.1087C67.4079 25.1862 67.203 25.1503 67.2181 25.3864C67.2285 25.5424 67.2815 25.7176 67.1801 25.8658C66.2618 25.6625 65.3263 25.6687 64.4184 25.4722C63.6743 25.311 62.9047 25.3422 62.1564 25.2377C60.9177 25.064 59.6729 24.9777 58.4285 24.8737C58.2879 24.868 58.1498 24.8341 58.0224 24.7742C57.8951 24.7143 57.781 24.6295 57.687 24.5247C56.3246 23.0937 54.9497 21.6751 53.5821 20.2488C53.4947 20.1578 53.3549 20.0928 53.3616 19.9259L53.9087 19.8697C53.9009 19.8498 53.9009 19.8277 53.9087 19.8078C53.6648 19.7257 53.3684 19.8775 53.1541 19.6518C53.2061 19.5145 53.3055 19.5156 53.4095 19.5208C55.6013 19.6248 57.7915 19.5353 59.9817 19.4631C60.1497 19.4579 60.3182 19.4631 60.4867 19.4631C60.5657 19.4511 60.6427 19.4443 60.7238 19.4386C61.3489 19.3826 61.9768 19.3637 62.6041 19.3819C63.4495 19.398 64.2949 19.3577 65.1349 19.2613C65.3703 19.2343 65.6008 19.1748 65.8198 19.0845C65.9407 19.0412 66.0542 18.9794 66.1562 18.9015C66.1396 18.8885 66.1677 18.8765 66.1812 18.8801C66.2661 18.802 66.3253 18.6999 66.3507 18.5874C66.4719 18.9176 66.2363 19.0429 66.0283 19.1594C65.6539 19.3726 65.2275 19.4194 64.8105 19.4677C63.854 19.5856 62.8889 19.6187 61.9265 19.5665C60.0337 19.6425 58.142 19.7381 56.2476 19.7584C56.0448 19.7584 55.8431 19.7797 55.6408 19.7907C55.6439 19.8181 55.6439 19.8459 55.6408 19.8733C56.8992 20.0184 58.1597 20.1474 59.4155 20.3143C60.183 20.4183 60.9578 20.4485 61.7149 20.6544C62.7752 20.9419 63.7991 21.3304 64.8229 21.7162C65.0725 21.8109 65.3227 22.023 65.5681 21.9762C65.8135 21.9294 65.9529 21.6179 66.1365 21.4224C66.541 20.9908 66.9757 20.579 67.3195 20.1021C67.5389 19.7979 67.7979 19.6565 68.1208 19.5187C68.7781 19.2379 69.2892 18.7813 69.5336 18.0814C69.6667 17.7003 69.6631 17.6961 70.0853 17.693C72.8753 17.675 75.6648 17.6576 78.4537 17.641C78.8978 17.641 78.8983 17.641 78.9737 18.0507C79.0169 18.2832 79.0527 18.5187 79.098 18.7486C79.1562 19.0465 79.1401 19.4043 79.306 19.6243C79.4797 19.8546 79.8738 19.7652 80.1645 19.8468C80.2579 19.8665 80.3526 19.879 80.4479 19.8843C80.5264 19.8021 80.5103 19.7147 80.5087 19.6321C80.4978 19.0231 80.4942 18.4147 80.4697 17.8063C80.4599 17.5656 80.5379 17.4709 80.7817 17.4808C81.1421 17.4954 81.5035 17.4845 81.8644 17.4845C81.8644 17.4449 81.8644 17.4049 81.8644 17.3654C81.1187 17.1387 80.3434 17.2562 79.5764 17.2021C79.9066 17.2234 80.2004 16.9816 80.5405 17.0981C80.4994 16.9037 80.4994 16.7028 80.5405 16.5084C80.6306 16.0439 80.7115 15.578 80.7833 15.1107C80.7994 15.0067 80.879 14.8751 80.7183 14.8033C80.6237 14.8491 80.6081 14.9942 80.4781 14.9957C80.3791 15.0123 80.2793 15.0238 80.1791 15.0301C79.9066 15.0342 79.7511 15.1673 79.6757 15.4284C79.5644 15.8127 79.4329 16.1917 79.3179 16.5724C79.2659 16.7507 79.1989 16.8917 78.9732 16.8199C78.397 16.8859 77.8328 16.7383 77.2572 16.7289C74.5053 16.6837 71.7535 16.6213 69.0017 16.563C68.6793 16.5563 68.3215 16.6384 68.1369 16.251C67.8727 16.251 67.8961 16.0768 67.932 15.9005C68.1135 15.0067 68.1957 14.0987 68.3225 13.1965C68.5201 11.7925 68.7193 10.3885 68.8945 8.98454C68.9299 8.7027 69.0407 8.63406 69.3007 8.6117C70.0911 8.54306 70.8778 8.4401 71.6667 8.3595C72.8746 8.23522 74.0836 8.1177 75.2926 7.9955C75.2999 7.97158 75.3067 7.94662 75.3124 7.92218H75.303L75.315 7.91282L74.5064 7.8967L73.8059 7.92425C73.746 7.95293 73.6825 7.97373 73.6172 7.98614C72.9287 8.02774 72.2397 8.06362 71.5512 8.10106L70.6766 8.13382C70.5575 8.21598 70.4166 8.20402 70.2861 8.20766C69.0901 8.2399 67.9112 8.45414 66.7241 8.57686C66.4402 8.61035 66.1542 8.62078 65.8687 8.60806C64.9763 8.6533 64.0783 8.57634 63.1901 8.71882L63.1652 8.73494L63.1543 8.72558L63.1647 8.73494H63.1381C63.0258 8.82854 62.9036 8.82542 62.7778 8.79786L62.771 8.80098L62.7611 8.80513C62.7533 8.81709 62.745 8.82802 62.7372 8.83894C62.7491 8.86427 62.763 8.88861 62.7788 8.91174C62.8278 8.94153 62.8852 8.95432 62.9421 8.94814C63.1771 8.93254 63.4101 8.92266 63.6472 8.91018C63.9525 8.80618 63.8292 9.05214 63.8646 9.17018L63.8698 9.17278L63.9519 9.10725C64.0627 8.98505 64.1189 9.06358 64.1475 9.17018C64.163 9.21724 64.1634 9.26801 64.1486 9.31532C64.1338 9.36262 64.1044 9.40407 64.0648 9.43382C63.8828 10.3116 63.9878 11.1862 64.0986 12.0588C64.1377 12.3771 64.159 12.6974 64.1625 13.0182C63.6826 12.897 63.2432 12.8013 62.8152 12.6698C62.6343 12.6141 62.718 12.4483 62.7663 12.3245C62.9223 11.9314 63.082 11.5445 63.2291 11.1467C63.3233 10.8945 63.4371 10.647 63.4621 10.3729C63.4288 10.2975 63.446 10.1982 63.3581 10.1488L62.4153 12.5699C62.2864 12.9027 62.2869 12.9001 61.9993 12.8903C61.6811 12.8799 61.3233 12.9636 61.055 12.8414C60.795 12.7239 60.5454 12.5247 60.3005 12.3479C59.8247 12.0042 59.2953 11.7296 58.9043 11.2751C58.8783 11.1925 58.8819 11.0926 58.7785 11.0536L56.6621 12.4883C56.5861 12.5528 56.5149 12.6245 56.4333 12.6812C53.9667 14.4042 51.4992 16.1255 49.0305 17.8453C48.9465 17.8991 48.8597 17.9486 48.7705 17.9935C48.5105 18.2301 48.2225 18.4189 47.8153 18.6565C47.8611 18.5229 47.9533 18.4101 48.0753 18.3388C48.185 18.2603 48.2927 18.1792 48.4055 18.1053C48.5027 18.0409 48.6057 17.9847 48.7061 17.9249C49.3576 17.3898 50.0679 16.9369 50.7543 16.4491C52.5847 15.1505 54.4191 13.858 56.2575 12.5715C56.3527 12.5049 56.4561 12.4498 56.5565 12.3895C58.1962 11.2271 59.8367 10.0646 61.4778 8.90186C62.5126 8.16935 63.5479 7.43736 64.5837 6.7059C64.6877 6.63362 64.8157 6.46514 64.9217 6.61958C65.0278 6.77402 64.8177 6.82758 64.7205 6.89882C63.8615 7.49942 62.9983 8.09482 62.1413 8.69698C61.9983 8.79786 61.8069 8.8561 61.7503 9.0537C61.8719 8.98766 62.0103 9.0017 62.1335 9.01522C62.3685 9.03602 62.5391 8.94606 62.6826 8.77706V8.7729H62.6857H62.692C62.8369 8.75938 62.9834 8.7469 63.1314 8.73546C63.1651 8.72225 63.1957 8.70225 63.2213 8.6767L63.2733 8.66682L63.2936 8.66318C63.5349 8.54306 63.8063 8.53578 64.0653 8.52225C64.6373 8.49158 65.2093 8.50718 65.7813 8.50354C66.2529 8.36938 66.7438 8.42502 67.2243 8.35482C68.2336 8.20662 69.245 8.0579 70.2679 8.02825L71.2559 7.98822C71.9396 7.88738 72.6292 7.83162 73.3203 7.8213L74.1985 7.79114C74.64 7.65073 75.1039 7.7225 75.5537 7.64554C76.7668 7.43754 77.9847 7.25242 79.1978 7.04286C79.5627 6.97913 79.9335 6.95645 80.3033 6.97526C80.6387 6.82809 81.0012 6.88321 81.3501 6.83902C83.6267 6.5492 85.9046 6.26961 88.1839 6.00025C89.5583 5.83905 90.9399 5.71738 92.3127 5.5593C93.3184 5.44334 94.3179 5.27434 95.3287 5.20986C95.6132 5.19218 95.8961 5.11782 96.2273 5.18646C96.0671 5.33206 95.8903 5.34246 95.7302 5.35546C94.0142 5.4683 92.3174 5.77718 90.6014 5.91342C89.0934 6.03354 87.5901 6.27169 86.0852 6.45526C85.1818 6.5648 84.2781 6.67158 83.3739 6.77558C82.4379 6.88235 81.5004 6.98635 80.5613 7.08758C80.4771 7.092 80.3927 7.092 80.3085 7.08758C78.8853 7.21862 77.4855 7.50358 76.0846 7.77086C75.8371 7.8187 75.562 7.74018 75.3373 7.90554C75.3483 7.91178 75.3597 7.91646 75.3706 7.92166H75.8464C77.2234 7.77398 78.6005 7.62612 79.9778 7.4781C82.6652 7.1869 85.3519 6.89535 88.0378 6.60346C90.7238 6.31156 93.4108 6.02972 96.0989 5.75794C96.5856 5.70594 97.0733 5.65394 97.558 5.58686C98.014 5.5229 98.0957 5.43086 98.1586 5.00186C97.9163 5.01018 97.7764 4.91814 97.7077 4.6623ZM6.15394 5.67578C6.11078 5.8739 6.0099 5.91446 5.8305 5.80474C5.25278 5.45218 4.61422 5.34142 3.9481 5.3487C3.22478 5.37522 2.5077 5.30086 1.79062 5.20674C2.52538 5.17918 3.25962 5.13758 3.99074 5.24886C4.01154 5.23638 4.04274 5.23846 4.08434 5.26342C4.77334 5.19374 5.4587 5.32166 6.13106 5.26706C6.24546 5.4241 6.18098 5.54994 6.15394 5.67578ZM30.4161 1.53189C30.5295 2.04513 28.8956 6.1235 28.3252 7.36578C28.3631 7.01062 30.1873 1.99261 30.4161 1.53189ZM10.9457 5.51458C10.6145 5.6841 8.21158 5.68462 7.56834 5.51458C8.68894 5.47246 9.81734 5.4761 10.9457 5.51458ZM26.1817 7.58002C25.0669 7.58002 23.952 7.57274 22.8366 7.5665C19.2049 7.54674 15.573 7.52663 11.941 7.50618C11.7554 7.50618 11.5697 7.49578 11.3841 7.49058C10.9125 7.49058 10.4393 7.5223 9.9697 7.49058C9.43306 7.4547 9.05086 7.08966 8.6411 6.78962C8.8855 6.78962 9.0727 6.92066 9.25782 7.03974C9.61142 7.26854 9.99154 7.34705 10.4091 7.34601C13.1096 7.34082 15.8102 7.3422 18.5107 7.35018C18.6776 7.35018 18.8482 7.3221 19.012 7.3845C20.1435 7.38138 21.2745 7.37566 22.406 7.37566C23.6395 7.37566 24.8727 7.37964 26.1058 7.38762C26.2545 7.38762 26.4085 7.35798 26.5556 7.4339C26.4995 7.66478 26.3143 7.57794 26.1838 7.57794L26.1817 7.58002ZM20.5278 5.93837C20.4445 5.93089 20.3619 5.91698 20.2808 5.89678L17.3995 5.86766C16.5675 5.86766 15.7329 5.94513 14.9035 5.79225C14.5155 5.79225 14.1281 5.7829 13.7402 5.78654C13.3164 5.79018 12.9165 5.86766 12.6144 6.2301C12.5739 5.7283 12.6113 5.6711 13.0226 5.67318C13.9331 5.67786 14.8426 5.69137 15.7542 5.70125C16.5545 5.70385 17.3563 5.66589 18.1545 5.75637L21.4232 5.80578C22.3348 5.81878 23.2463 5.83386 24.1579 5.84478C25.3234 5.85934 26.4891 5.87216 27.6549 5.88326C27.7729 5.88326 27.8915 5.88326 28.0095 5.88794C28.0823 5.89158 28.1364 5.92798 28.1286 6.0117C28.1229 6.0715 28.0704 6.0871 28.0246 6.09178C27.9571 6.09568 27.8894 6.09568 27.8218 6.09178C25.3913 6.04255 22.96 5.99141 20.5278 5.93837ZM27.6112 7.82025C27.4838 7.78697 27.4552 7.67882 27.5072 7.5873C27.8582 7.0101 28.1312 6.3913 28.4318 5.7855L28.5238 5.8271C28.2968 6.4511 28.0695 7.07354 27.8421 7.69442C27.8026 7.80882 27.7241 7.85041 27.6112 7.82025ZM16.5966 26.5013C16.1806 26.1846 16.0839 25.9178 16.2159 25.4727C16.3948 24.8695 16.8748 24.5117 17.5159 24.5076C17.4837 24.6636 17.3506 24.6449 17.2455 24.6636C16.9855 24.7156 16.7848 24.8643 16.6158 25.0567C16.1785 25.5569 16.2357 26.0359 16.7781 26.4753C17.2305 26.6047 17.6059 26.5018 17.9023 26.0208C17.7801 26.6973 17.231 26.8632 16.5966 26.5013ZM17.4681 25.6739H17.4738C17.5622 25.6583 17.6579 25.6927 17.7577 25.5699C17.6428 26.0161 17.5575 26.104 17.2897 26.0988C17.0672 26.0946 16.8893 26.0026 16.8394 25.7785C16.7827 25.5237 16.8535 25.3136 17.1462 25.246C17.1594 25.239 17.1739 25.2346 17.1889 25.2333C17.2038 25.232 17.2188 25.2336 17.2331 25.2382C17.5284 25.1945 17.6491 24.9641 17.7489 24.6984C17.8227 24.4993 17.8893 24.2928 18.0885 24.0609C17.999 24.7031 17.6381 25.1539 17.4681 25.6739ZM18.1389 25.5595C18.0349 25.3515 18.0593 25.1711 18.1191 24.947C18.2533 25.1675 18.2387 25.3453 18.1389 25.5601V25.5595ZM18.1072 24.8778C18.0401 24.6631 18.1436 24.5944 18.2471 24.4941C18.3251 24.6859 18.2003 24.7624 18.1072 24.8783V24.8778ZM79.4578 18.3508C79.5733 18.7959 79.7147 19.2171 80.1016 19.5088C80.1151 19.5187 80.1016 19.5676 80.0927 19.644C79.7386 19.5286 79.4635 19.3726 79.3959 18.9717C79.3377 18.6285 79.2623 18.2884 79.1879 17.9072C79.4126 18.0091 79.4193 18.2036 79.4578 18.3513V18.3508ZM66.0907 20.9731C66.0132 21.0927 65.8827 21.0693 65.7725 21.0043C64.7517 20.3928 63.6285 20.3372 62.4861 20.4053C62.1283 20.4266 61.8017 20.3086 61.458 20.2316C63.257 19.9524 65.0695 19.7679 66.8879 19.6789C66.6674 20.2363 66.3439 20.5852 66.0907 20.9737V20.9731ZM67.3538 19.5281C67.411 19.1479 67.5951 18.8567 67.5249 18.5156C67.4625 18.214 67.1406 18.0013 67.2274 17.6238C67.5394 17.746 67.8363 17.8615 68.1515 17.8953C68.4666 17.9291 68.7796 17.9577 69.1915 17.9993C68.7089 18.7205 68.1551 19.2135 67.3538 19.5286V19.5281ZM67.996 16.7429C68.9746 16.7528 69.9533 16.7715 70.9319 16.7887C71.0317 16.7887 71.1357 16.7773 71.2257 16.8407C71.3349 16.7736 71.4561 16.8007 71.572 16.8033C73.6635 16.8438 75.7551 16.887 77.8469 16.9327C77.9613 16.9353 78.1713 16.8542 78.1677 17.0529C78.1641 17.2515 77.9545 17.1621 77.8437 17.1569C75.8532 17.1094 73.863 17.0574 71.8731 17.0009C70.9628 16.9752 70.0524 16.9476 69.1421 16.9182C68.9247 16.9109 68.7021 16.9437 68.4926 16.8547C68.1447 16.8495 67.7937 16.8833 67.4037 16.8027C67.6268 16.6998 67.815 16.7414 67.996 16.7435V16.7429ZM66.2087 9.94913C66.5873 10.0531 66.7573 10.3282 66.7807 10.6605C66.8816 11.9392 66.9612 13.2194 66.9024 14.5033C66.9024 14.5127 66.8832 14.5215 66.8504 14.5496C66.7464 14.3457 66.7235 14.1372 66.7033 13.9214C66.6181 13.0302 66.582 12.135 66.5951 11.2398C66.6003 10.8368 66.5519 10.4645 66.2259 10.18C66.1942 10.1519 66.19 10.0906 66.177 10.0438C66.1781 10.0313 66.1921 10.0136 66.2087 9.94966V9.94913ZM66.6123 15.8491C67.0283 15.6078 67.1889 15.2511 67.2415 14.7701C67.386 13.4404 67.4775 12.1181 67.2357 10.7895C67.1401 10.2622 67.0241 9.76662 66.6117 9.38858C66.5811 9.3605 66.58 9.29966 66.5597 9.23258C67.1369 9.1421 67.7141 9.1421 68.2653 8.98298C68.4437 8.93098 68.5342 9.01002 68.5321 9.17382C68.5319 9.39279 68.5126 9.61132 68.4744 9.82694C68.0989 11.7977 67.8171 13.7836 67.5004 15.7638C67.4411 16.1356 67.4287 16.1507 67.0485 16.1054C66.8645 16.0831 66.6814 16.0534 66.4979 16.0264C66.159 15.9997 65.8324 15.8883 65.5478 15.7024C65.9737 15.6697 66.281 15.8459 66.6123 15.8496V15.8491ZM46.9573 6.12194C47.3364 5.92486 47.7467 5.84374 48.1632 5.78602C48.2138 5.77566 48.2664 5.78355 48.3117 5.8083C48.357 5.83306 48.3921 5.87306 48.4107 5.92122C48.4502 6.03406 48.3525 6.09438 48.2729 6.16146C47.9167 6.45994 47.9183 6.58994 48.2427 6.9217C48.3849 7.06573 48.554 7.1804 48.7404 7.25918C49.2645 7.48382 49.7949 7.69338 50.3238 7.90762C50.3727 7.91858 50.4207 7.93336 50.4673 7.95182C50.5713 8.01422 50.758 8.04386 50.6956 8.20766C50.6243 8.3959 50.472 8.26642 50.3513 8.2347C49.6701 8.05408 48.9888 7.87399 48.3072 7.69442C47.9172 7.59042 47.535 7.47238 47.2043 7.22642C46.9443 7.03142 46.807 6.78026 46.7883 6.5135C46.7857 6.31642 46.8122 6.19786 46.9573 6.12194ZM46.1107 8.18374C46.0431 8.82594 45.974 9.5477 45.8892 10.2679C45.8565 10.5456 45.7852 10.5799 45.5252 10.5102C45.1035 10.3943 44.6859 10.2591 44.2601 10.1629C43.9954 10.1031 43.9449 9.98969 44.0053 9.73438C44.1881 8.98013 44.4104 8.23602 44.6714 7.50514C44.7806 7.19313 44.8274 7.18429 45.1581 7.27737C45.3209 7.32365 45.4831 7.36838 45.6438 7.4209C46.1201 7.57794 46.1232 7.58261 46.1107 8.18426V8.18374ZM42.0709 9.07866C42.1593 8.79006 42.2575 8.50666 42.3517 8.21702C42.3933 7.80102 42.5342 7.4417 42.9185 7.21862C42.9454 7.19972 42.9767 7.18786 43.0093 7.18414C43.042 7.18041 43.0752 7.18494 43.1057 7.1973C43.1857 7.10786 43.2663 7.01894 43.3464 6.93002C43.3594 6.7709 43.4421 6.68353 43.6064 6.69237C43.6562 6.70071 43.7054 6.71252 43.7536 6.72774C44.389 6.86242 44.4213 6.91442 44.2367 7.53634C44.0411 8.19726 43.8487 8.8587 43.6428 9.5165C43.518 9.9143 43.4551 9.93978 43.0635 9.81342C42.8409 9.7388 42.6138 9.67871 42.3834 9.6335C41.9871 9.56278 41.9471 9.48374 42.0709 9.07918V9.07866ZM41.8041 9.36986C41.7881 9.40955 41.7581 9.44203 41.7198 9.46117C41.6815 9.48032 41.6375 9.48483 41.5961 9.47386C41.3033 9.4099 40.9882 9.46554 40.6726 9.3137C40.8717 8.99546 41.1026 8.75782 41.4287 8.61846C41.5561 8.3101 41.8587 8.18426 42.1447 7.8785C42.1395 8.48066 41.9752 8.92682 41.8041 9.36986ZM44.4748 5.80994C45.0234 5.13706 45.1165 5.14434 45.5148 5.9233C45.6188 6.12558 45.7748 6.3133 45.78 6.57694C45.3931 6.67002 45.0442 6.50778 44.6911 6.44746C44.0573 6.33618 44.0609 6.3159 44.4748 5.80994ZM43.9579 4.69194C44.0619 4.72366 44.0895 4.79594 44.0349 4.88018C43.9555 5.00771 43.8671 5.12935 43.7702 5.24418C43.4333 5.63522 43.4364 5.62066 42.9419 5.41422C42.4692 5.21714 41.9835 5.05022 41.5035 4.87134C41.385 4.87758 41.2638 4.89058 41.1915 4.76422C41.4635 4.63838 42.8795 4.60197 43.9579 4.69037V4.69194ZM38.4917 4.9951C39.2249 5.0991 39.9581 5.1979 40.6903 5.30346C41.0231 5.35182 41.3543 5.41266 41.6866 5.46466C42.0914 5.52331 42.4597 5.73101 42.7193 6.04706C42.9533 6.32474 42.9559 6.3861 42.6715 6.61334C42.5747 6.69082 42.4978 6.82134 42.3423 6.80106C42.3522 6.92014 42.2487 6.96278 42.1801 7.0231C41.9133 7.25658 41.62 7.46354 41.3761 7.71834C40.9679 8.14526 40.6159 8.2867 40.0028 7.96325C39.2675 7.57585 38.3945 7.4989 37.5734 7.3195C37.2941 7.25814 37.0149 7.19522 36.7414 7.11774C36.4996 7.05014 36.4762 6.97214 36.6197 6.76934C36.6821 6.68988 36.7486 6.61369 36.8189 6.54106C37.2104 6.09906 37.6228 5.67266 37.9837 5.20674C38.1339 5.0107 38.2801 4.96546 38.4917 4.9951ZM31.1358 14.4419C30.6714 13.7139 30.1998 12.9943 29.7469 12.2637C29.4135 11.7286 29.4271 11.7005 30.0069 11.2283C30.1192 11.4363 30.0791 11.6282 30.0916 11.8055C30.1374 12.4576 30.4634 12.9854 30.7889 13.5215C31.0037 13.8746 31.2751 14.1975 31.4187 14.6577C31.2372 14.6359 31.1919 14.5277 31.1358 14.4419ZM31.3932 15.3634L31.2918 15.4455C30.868 14.8954 30.5232 14.2922 30.1795 13.6817C30.3813 13.7826 30.4749 13.9812 30.5955 14.1539C30.7385 14.3619 30.8763 14.5725 31.0151 14.7825C31.141 14.9739 31.2668 15.1699 31.3932 15.3618V15.3634ZM30.1041 10.556C29.9481 10.5123 29.9564 10.4301 29.9725 10.3761C30.1665 9.73074 30.0724 9.14418 29.6309 8.62366C29.5789 8.56126 29.5082 8.49417 29.5747 8.40525C29.6413 8.31634 29.7224 8.34078 29.7978 8.3907C30.5133 8.86338 31.3214 9.09166 32.1441 9.28406C32.1893 9.29498 32.2278 9.33606 32.3755 9.43382C31.5143 9.77078 30.7442 10.088 30.1041 10.556ZM31.6272 14.847C31.7015 14.7851 31.8092 14.7643 31.9017 14.7243C32.4867 14.4721 32.9683 14.132 33.0208 13.4212C33.0239 13.3751 33.0403 13.331 33.068 13.2941C33.0957 13.2572 33.1335 13.2291 33.1768 13.2132C33.1639 13.8233 32.9905 14.4193 32.6739 14.9411C32.5049 15.2308 31.8877 15.3218 31.6376 15.1096C31.5419 15.029 31.5409 14.9198 31.6277 14.847H31.6272ZM31.7603 8.07714C31.3901 8.0839 31.0203 8.12914 30.6683 8.2789C30.4239 8.3829 30.1733 8.36002 29.9283 8.25966C29.6538 8.14682 29.6226 7.9617 29.8587 7.78386C30.0123 7.67777 30.1922 7.61622 30.3787 7.60602C30.7645 7.56702 31.1503 7.51606 31.5372 7.4989C33.0057 7.43286 34.4742 7.37722 35.9432 7.32158C36.1049 7.31534 36.2713 7.29142 36.4351 7.4027C35.9832 7.6107 35.4929 7.5977 35.0223 7.6887C33.9469 7.89774 32.8627 8.05737 31.7608 8.07714H31.7603ZM35.1148 8.2191C35.6265 8.1151 36.1475 8.0631 36.6577 7.9591C37.6311 7.75838 38.5297 8.1203 39.4823 8.23937C39.3918 8.44737 39.2852 8.3829 39.1947 8.37094C38.8614 8.32518 38.5271 8.28462 38.1958 8.22637C37.2468 8.06049 36.3202 8.2633 35.3878 8.37822C34.7883 8.45154 34.197 8.5961 33.4773 8.60026C34.0691 8.35221 34.6016 8.32102 35.1153 8.2191H35.1148ZM35.0243 5.78342C35.0176 5.59258 35.1668 5.51926 35.3025 5.47818C36.0571 5.2499 36.8168 5.0367 37.5755 4.8209C37.5999 4.81414 37.6342 4.83961 37.6639 4.85002C37.7335 4.97221 37.6363 5.03514 37.5682 5.10222C37.0607 5.59647 36.5949 6.13181 36.1756 6.70278C36.1252 6.78001 36.0596 6.84621 35.9828 6.89734C35.906 6.94847 35.8197 6.98347 35.7289 7.00022C35.2481 7.08404 34.761 7.12753 34.2729 7.13022C34.0681 7.13022 33.9771 7.00697 34.0925 6.86137C34.3884 6.48957 34.6104 6.05174 35.0249 5.78342H35.0243ZM33.8211 5.8193C33.9656 5.8193 34.1518 5.74182 34.2246 5.91758C34.2802 6.05174 34.131 6.15418 34.0545 6.26078C34.0258 6.28986 33.9938 6.31568 33.9594 6.33774C33.6027 6.02574 33.1721 5.95242 32.7036 5.97374C32.1669 5.99714 31.6282 5.9857 31.0916 5.9857C30.9969 5.9857 30.8909 6.01897 30.8113 5.92225C30.999 5.81357 31.2049 5.8531 31.4025 5.84946C32.208 5.83438 33.0161 5.82814 33.8216 5.8193H33.8211ZM30.5752 5.12094C30.8274 5.0549 31.0786 5.0653 31.3308 5.06894C31.862 5.08099 32.3882 5.17483 32.8908 5.34714C31.9673 5.56658 30.9787 5.21194 30.0401 5.80786C30.1202 5.40278 30.2601 5.20414 30.5757 5.12094H30.5752ZM29.6507 6.2743C29.6507 6.27898 29.6507 6.28314 29.6507 6.28782L29.6413 6.28054L29.6507 6.28782C29.6482 6.29101 29.6454 6.29397 29.6423 6.29666C29.6423 6.29146 29.6423 6.28574 29.6423 6.28054L29.6507 6.2743ZM29.4479 6.7813C29.4479 6.78702 29.4479 6.79222 29.4505 6.79794L29.4421 6.8021C29.4419 6.79777 29.4419 6.79343 29.4421 6.7891L29.4479 6.7813ZM29.8602 7.22382C30.9803 7.07822 33.4061 7.01582 33.6869 7.11982C33.625 7.1479 33.7316 7.11254 33.6942 7.1687C33.6844 7.18228 33.67 7.19174 33.6536 7.19522C32.5341 7.34654 31.4077 7.30598 30.283 7.31534C30.2535 7.33169 30.2225 7.3451 30.1904 7.35537C29.4458 7.51137 29.4458 7.51138 28.9845 7.9695C29.126 7.38086 29.1853 7.33042 29.8607 7.22382H29.8602ZM29.0506 8.34806C29.9257 9.0381 30.0417 10.4156 29.2835 11.2294C29.2721 10.8539 29.5066 10.5939 29.5747 10.2819C29.6553 9.91794 29.5909 9.5789 29.5227 9.2331C29.4546 8.8873 29.2128 8.64706 29.0511 8.34806H29.0506ZM28.8623 13.3754C29.291 13.8579 29.6489 14.3989 29.9252 14.9822C29.4837 14.5033 29.1499 13.9547 28.8629 13.3754H28.8623ZM21.8361 23.5581C22.0363 23.5362 22.2407 23.5513 22.4424 23.5393C23.2963 23.4873 24.1303 23.5118 24.9743 23.7432C26.4823 24.1592 28.009 24.5138 29.4822 25.0515C29.7422 25.1461 30.0266 25.2075 30.2481 25.4431C29.9985 25.6225 29.7697 25.4815 29.5597 25.4347C28.7048 25.2434 27.8509 25.0479 26.9841 24.9147C25.8843 24.7433 24.7723 24.6614 23.6592 24.6698C23.4066 24.6799 23.1553 24.711 22.9078 24.7629C22.6879 24.8035 22.5131 24.7546 22.3608 24.5903C22.1429 24.3552 21.9068 24.1363 21.6978 23.894C21.5407 23.7146 21.5974 23.5835 21.8361 23.5581ZM26.0081 28.8621C26.3388 28.8283 26.6196 28.9967 27.0309 29.0799C26.5754 29.1964 26.2951 29.017 26.007 28.8621H26.0081ZM33.4961 29.4595C30.9184 29.2503 28.3906 28.6312 26.0081 27.6255C26.4173 27.5361 26.7652 27.7009 27.1001 27.8335C28.2935 28.3069 29.5324 28.6562 30.7973 28.8761C31.7613 29.0498 32.7322 29.1881 33.6999 29.3415L34.5319 29.4502C34.2002 29.5858 33.8291 29.5892 33.495 29.4595H33.4961ZM34.4471 28.6213C33.0806 28.4019 31.7078 28.2183 30.3563 27.9125C30.223 27.8903 30.092 27.8555 29.9653 27.8085C29.7053 27.6941 29.465 27.6676 29.2081 27.8465C29.0194 27.9781 28.7859 27.9417 28.5685 27.8891C28.5031 27.8718 28.4402 27.8461 28.3813 27.8127C26.3585 26.7082 24.1314 26.0931 22.0373 25.1576C21.573 25.0619 21.1377 24.882 20.7077 24.6896C20.6151 24.6487 20.5258 24.6009 20.4404 24.5466C20.1929 24.3906 20.0275 24.1488 19.8549 23.9226C19.6823 23.6964 19.3843 23.6309 19.1534 23.3027C19.5517 23.4333 19.8201 23.5752 19.9906 23.8227C20.351 24.3427 20.8746 24.5814 21.4466 24.7707C21.716 24.8596 22.0077 24.8955 22.2474 25.0661C22.4065 25.1181 22.5693 25.1623 22.7248 25.2252C23.7726 25.6485 24.823 26.0634 25.8937 26.4274C26.6778 26.6942 27.4225 27.0571 28.1577 27.4341C28.5685 27.6453 28.9575 27.8028 29.3745 27.4643C29.4739 27.3842 29.594 27.3915 29.712 27.4347C30.7837 27.8252 31.9163 27.9235 33.0275 28.1247C33.8247 28.2693 34.6255 28.3951 35.4076 28.614C35.5199 28.6452 35.64 28.6567 35.7289 28.8049C35.2745 28.8147 34.8626 28.6899 34.4461 28.6213H34.4471ZM36.1361 23.6719C34.5527 23.5518 32.9683 23.4561 31.3838 23.3521C31.3162 23.3534 31.2486 23.3499 31.1815 23.3417C30.9923 23.3012 30.9267 23.1109 31.0557 22.9616C31.1277 22.8902 31.2064 22.826 31.2907 22.7697C33.1919 21.2791 35.0919 19.7884 36.991 18.2977C37.2099 18.1246 37.407 18.0268 37.6701 18.1719C37.8261 18.1547 37.9779 18.149 38.1111 18.2515L38.2785 18.2702C38.4434 18.2496 38.6107 18.2729 38.7637 18.3378C38.7782 18.343 38.7923 18.3494 38.8058 18.357C39.0736 18.3664 39.3429 18.3685 39.592 18.4761C39.6003 18.6409 39.4953 18.7387 39.4287 18.8505C38.5447 20.3465 37.6483 21.8369 36.7767 23.3407C36.6166 23.6158 36.4481 23.6979 36.1361 23.6719ZM36.6525 24.1597C34.9183 24.0417 33.1815 23.947 31.4525 23.7323C31.4191 23.7276 31.388 23.7127 31.3635 23.6894C31.3391 23.6662 31.3225 23.6359 31.3162 23.6028C31.7457 23.5581 36.3394 23.9891 36.6525 24.1597ZM37.7096 26.1679C37.6734 26.1131 37.656 26.0479 37.66 25.9823C37.6639 25.9167 37.689 25.8541 37.7315 25.8039C37.8214 25.9339 37.7835 26.0463 37.7096 26.1679ZM37.7096 25.3578C37.5375 25.8726 37.4397 26.4129 37.1491 26.8881C36.8038 27.4523 36.0264 27.4783 35.717 26.8933C35.3894 26.2725 35.3727 25.6365 35.8054 25.0369C36.0721 24.5877 36.4892 24.4608 36.9816 24.4935C36.5531 24.5897 36.1574 24.7447 35.8652 25.091C35.6634 25.5673 35.5433 26.0473 35.7445 26.5595C35.9702 27.1315 36.3165 27.2615 36.8885 26.9656C36.3857 26.6921 36.1756 26.3343 36.2552 25.8877C36.3368 25.4311 36.5953 25.1565 37.0872 25.0811C36.6759 25.3172 36.4174 25.5824 36.4231 26.0171C36.4169 26.1527 36.4416 26.2878 36.4954 26.4123C36.5828 26.5839 36.7128 26.7477 36.9208 26.7082C37.1028 26.6729 37.2037 26.5351 37.2536 26.3229C37.4007 25.6989 37.5905 25.0889 37.7642 24.4733C37.7793 24.4213 37.8162 24.3921 37.9051 24.3927C37.914 24.7296 37.8147 25.0499 37.7107 25.3578H37.7096ZM36.3181 25.1285C36.1985 25.5273 36.0316 25.9012 36.0061 26.3161C35.8605 25.8533 36.0019 25.4628 36.3191 25.1285H36.3181ZM37.3581 24.4057C37.3935 24.3095 37.4101 24.2096 37.5749 24.1259C37.4683 24.6714 37.3747 25.1472 37.2822 25.6225C37.2386 25.8371 37.1546 26.0414 37.0347 26.2246C36.9827 26.3057 36.9478 26.3661 36.8485 26.3C36.7492 26.234 36.6956 26.0868 36.7591 26.04C37.3493 25.6334 37.16 24.9491 37.3597 24.4057H37.3581ZM45.3011 29.7247C44.3318 29.3555 43.4811 28.7419 42.529 28.3332C42.3688 28.3233 42.2497 28.2214 42.1213 28.1445C40.9527 27.4411 39.7849 26.7358 38.6181 26.0286C38.5749 26.0026 38.5328 25.9766 38.4912 25.9454C37.9618 25.5772 37.901 25.246 38.2634 24.7177C38.3019 24.6615 38.3399 24.6017 38.4194 24.6199C38.4358 24.6235 38.4512 24.6307 38.4646 24.6409C38.478 24.651 38.489 24.664 38.4969 24.6788C38.5048 24.6936 38.5094 24.7099 38.5104 24.7267C38.5114 24.7435 38.5087 24.7603 38.5026 24.7759C38.3555 25.2595 38.6867 25.4867 39.0013 25.7218C40.15 26.5793 41.3735 27.3249 42.5721 28.1075C42.6288 28.1445 42.6834 28.1835 42.7385 28.2214L45.3531 29.6207L45.3011 29.7247ZM42.7479 27.3499C43.2648 27.3545 43.7783 27.4336 44.2725 27.5849C45.1196 27.8449 45.9683 28.1101 46.7165 28.6135C47.847 29.2713 49.1018 29.5225 50.3706 29.7294C51.2832 29.8781 52.1942 30.0341 53.1879 30.1974C52.6908 30.3071 52.2821 30.2094 51.8765 30.1491C50.6763 29.9697 49.4705 29.8215 48.2984 29.484C47.6981 29.312 47.1273 29.0502 46.6053 28.7076C45.3954 28.063 44.0948 27.6052 42.7479 27.3499ZM46.2797 29.8506C48.6972 30.2349 51.1074 30.6711 53.5005 31.2026C53.0361 31.2899 47.0691 30.1813 46.2797 29.8506ZM53.5431 31.0778C53.6206 30.7694 53.6206 30.7694 53.9211 30.6795C53.8232 30.8363 53.6946 30.9718 53.5431 31.0778ZM54.2649 30.1667C54.0901 30.1543 53.8967 30.226 53.7043 30.0378C54.1026 29.9983 54.4125 30.0378 54.7651 30.0731C54.6075 30.3103 54.4214 30.1777 54.2649 30.1667ZM62.2401 28.3311C60.8486 28.5865 59.4493 28.7991 58.0713 29.1288C57.5461 29.2537 57.0392 29.446 56.5633 29.7008L56.1296 30.0128C56.1519 29.7346 56.3641 29.6551 56.5539 29.5537C57.3505 29.0732 58.2465 28.8901 59.1404 28.7217C60.8325 28.4097 62.5297 28.1231 64.2244 27.8236C64.3792 27.7874 64.5418 27.8081 64.6825 27.8819L62.2401 28.3311ZM64.0643 26.9578C61.4606 27.2261 58.8767 27.6489 56.2814 27.9801C55.7954 28.0465 55.3038 28.0626 54.8145 28.028C54.7043 28.0191 54.5545 28.0399 54.5301 27.8813C54.5067 27.7363 54.6403 27.6848 54.7339 27.6213C54.9444 27.4779 55.1926 27.3999 55.4473 27.3972C57.8815 27.3213 60.2995 27.0426 62.7216 26.8252C63.2603 26.7763 63.7996 26.7415 64.3388 26.7051C64.5019 26.6821 64.6682 26.7072 64.8172 26.7774C64.5281 26.9401 64.2863 26.9349 64.0637 26.9578H64.0643ZM57.8113 24.9719C60.2105 25.3729 62.6509 25.3968 65.0523 25.7785C65.7683 25.8923 66.4994 25.9038 67.204 26.0951C67.2955 26.1201 67.4073 26.1019 67.4885 26.247C67.32 26.3473 67.1453 26.3281 66.9752 26.2896C65.8359 26.0343 64.6706 25.9636 63.5193 25.793C61.8158 25.5413 60.0935 25.4581 58.3859 25.2491C57.18 25.1014 55.9798 24.9095 54.7781 24.7333C53.4427 24.5377 52.1081 24.34 50.7741 24.1399C49.744 23.9959 48.7118 23.8623 47.6843 23.7005C47.4607 23.6652 47.21 23.7213 47.0083 23.5601C46.0369 23.4364 45.0676 23.3001 44.0963 23.193C42.9039 23.0651 41.7089 22.9424 40.5083 23.0438C40.3398 23.0583 40.1703 23.0698 40.0044 23.0999C39.527 23.1868 39.3773 23.4317 39.5265 23.8971C39.5665 24.0214 39.5905 24.1623 39.7007 24.2569C40.1219 24.3173 40.5062 24.492 40.9014 24.6355C42.7905 25.3235 44.5934 26.2127 46.4305 27.0213C47.1585 27.3405 47.8824 27.6598 48.6145 27.963C49.432 28.3015 50.3051 28.431 51.1625 28.6041C51.9732 28.7669 52.7818 28.9458 53.6065 29.0368C53.7365 29.0513 53.8613 29.1137 54.0985 29.1891C53.4542 29.2089 52.9363 29.1189 52.4178 29.0363C51.434 28.8803 50.4507 28.7144 49.4835 28.4747C48.3956 28.2043 47.4076 27.6733 46.3879 27.2308C44.5601 26.4378 42.7864 25.5283 40.9201 24.8305C40.5119 24.6781 40.1068 24.5185 39.7007 24.3625L37.4018 23.8519C37.3687 23.8462 37.3361 23.8384 37.304 23.8285C36.9099 23.6782 36.888 23.5263 37.2057 23.2445C37.3553 23.1098 37.547 23.0311 37.7481 23.0219L37.7777 22.933H37.7715L37.7757 22.9257C37.6883 22.9434 37.6488 22.8925 37.6763 22.8217C37.7249 22.6966 37.7848 22.5762 37.8552 22.4619C38.5905 21.2555 39.4709 20.1432 40.1562 18.8999C40.2155 19.2067 40.0002 19.4059 39.878 19.6367C39.7459 19.89 39.5858 20.1287 39.4334 20.371C39.2811 20.6133 39.1214 20.8525 38.9685 21.0927C38.9291 21.2025 38.8824 21.3095 38.8287 21.4131C38.7559 21.5551 38.6623 21.6855 38.551 21.7999C38.5238 21.8774 38.5063 21.9579 38.499 22.0397C38.6888 21.8972 38.786 21.6829 38.9113 21.4926C39.0153 21.3366 39.1375 21.2935 39.3247 21.3044C39.5889 21.32 39.8395 21.4344 40.1084 21.3975L41.9055 21.6788C41.7162 21.9986 41.5597 22.2679 41.3985 22.5347C41.2971 22.7037 41.1323 22.6501 40.9893 22.6309C40.4069 22.5529 39.8265 22.465 39.2452 22.3813C39.0294 22.3501 38.8131 22.3215 38.5973 22.2898C38.4215 22.2638 38.4298 22.1629 38.499 22.0397C38.4641 22.0053 38.4288 21.9715 38.395 21.9357L37.7757 22.9237H37.7803C37.7802 22.9264 37.7802 22.9292 37.7803 22.932L38.1797 22.9517L41.8353 22.7177C41.8395 22.6423 41.8421 22.5654 41.931 22.5342L43.4541 20.1807C43.4291 20.0174 43.6064 19.995 43.6621 19.8863L43.3547 19.5853C43.2908 19.6539 43.2273 19.7225 43.1634 19.7933H43.1348C42.9429 19.9799 42.7063 20.0122 42.4546 19.9898C41.7698 19.929 41.0855 19.8671 40.4027 19.7579C40.5998 19.6586 40.7989 19.7309 40.9945 19.7428C41.2773 19.76 41.5613 19.8437 41.8369 19.708C41.3356 19.708 40.8489 19.5858 40.306 19.5411C40.4448 19.1843 40.658 18.9171 40.8816 18.6602C40.8988 18.6399 40.9737 18.6695 41.022 18.6758C41.0938 18.6435 41.1843 18.7231 41.2753 18.6108L36.5672 17.7502C36.4699 17.8022 36.3368 17.7341 36.2552 17.8443C36.4377 17.8573 36.4351 17.9431 36.3425 18.0648C36.5734 18.0918 36.6467 18.1584 36.4164 18.3248C35.6504 18.8718 34.8917 19.4287 34.1211 19.968C33.8939 20.1271 33.7051 20.3554 33.4108 20.4089C33.1053 20.7605 32.7237 21.0378 32.2949 21.2196C32.1247 21.4664 31.8736 21.6459 31.5851 21.7271C31.5143 21.9149 31.3615 21.9934 31.1784 22.0319C31.0526 22.2705 30.8144 22.3522 30.6116 22.4999C30.517 22.3153 30.6901 22.3163 30.7198 22.2341C30.4775 22.1343 30.5217 21.9845 30.648 21.8181C30.9117 20.5109 31.1888 19.2067 31.3942 17.8885C31.3806 17.84 31.3743 17.7897 31.3755 17.7393C31.3763 17.7066 31.3825 17.6743 31.3937 17.6436C31.4254 17.5552 31.5003 17.4876 31.6199 17.4444C31.0999 16.5901 30.5716 15.7414 30.141 14.8366C29.6089 13.9793 29.0766 13.1224 28.5441 12.2657C28.4645 12.1373 28.4255 12.0401 28.593 11.9371C28.7266 11.8549 28.8317 11.7291 28.983 11.5892C28.9871 11.8794 28.775 11.9745 28.659 12.1612C29.1889 13.0057 29.7879 13.8205 30.2637 14.7092C30.5237 15.1003 30.7999 15.4825 31.0437 15.8839C31.4717 16.588 32.0073 17.1756 32.7436 17.5645C32.8606 17.6264 32.9963 17.6753 32.9922 17.8453L33.0858 17.9535C33.2979 17.6769 33.2979 17.6769 33.0203 17.1735C33.4779 17.2135 33.8829 17.4065 34.3156 17.4678C34.378 17.4257 34.4716 17.4465 34.5158 17.3638C34.0218 17.1953 33.5278 17.0258 33.0333 16.8594C32.9417 16.8287 32.8799 16.7762 32.9116 16.6785C32.9345 16.6051 33.0125 16.5994 33.0801 16.6103C33.1804 16.6238 33.2796 16.6445 33.377 16.6722C35.3124 17.2791 37.3077 17.6082 39.2998 17.9535C39.9139 18.0575 40.5192 18.2135 41.1395 18.2884C41.4729 18.3305 41.7953 18.4511 42.0438 18.72C42.0438 18.8344 41.8389 18.72 41.8478 18.8666L42.4198 18.8952L42.5316 18.7912C41.6337 17.9207 40.7364 17.0497 39.8395 16.1782C39.7558 16.0961 39.553 16.0019 39.6752 15.8777C39.7974 15.7534 39.8999 15.9525 39.9872 16.0337C42.2513 18.2381 44.5121 20.4462 46.7696 22.6579C46.8476 22.7344 47.1383 22.7869 46.9162 23.0115C46.9162 23.0526 46.9115 23.0932 46.9089 23.1343C46.9048 23.2429 46.7691 23.3074 46.8086 23.4307L46.9984 23.4587C48.0826 23.6033 49.1678 23.7406 50.2499 23.8976C50.4969 23.9335 50.7601 23.8976 50.9904 24.0302C52.1441 24.1862 53.2978 24.3422 54.4515 24.4982C55.5716 24.6532 56.6959 24.7858 57.8107 24.9719H57.8113ZM52.7875 26.2199C52.7803 26.3562 52.6627 26.364 52.5676 26.3759C52.2987 26.4014 52.0289 26.4129 51.7595 26.4357C50.6675 26.5273 49.5755 26.6209 48.3603 26.7243C48.1673 26.7623 47.873 26.6869 47.5912 26.5683C45.637 25.7363 43.6428 25.0083 41.6226 24.3526C41.2066 24.2179 41.0506 23.9366 41.1941 23.6407C41.256 23.5165 41.3377 23.4286 41.5061 23.4847C42.3179 23.7713 43.1701 23.8742 44.0089 24.0567C46.5782 24.6168 49.1642 25.1014 51.708 25.7727C52.0169 25.8544 52.3206 25.9563 52.6248 26.0556C52.6981 26.0785 52.7922 26.1107 52.787 26.2179L52.7875 26.2199ZM40.2961 21.0215L39.3414 20.8504C39.5411 20.5608 39.7111 20.3164 39.8785 20.0704C39.9022 20.0355 39.9354 20.0082 39.9743 19.9919C40.0132 19.9755 40.056 19.9708 40.0975 19.9784C40.9815 20.0673 41.8655 20.1573 42.7947 20.2514C42.6616 20.6268 42.4635 20.8977 42.3111 21.1905C42.2014 21.4021 42.0137 21.2758 41.8582 21.2945C41.3474 21.1538 40.8243 21.0624 40.2961 21.0215ZM39.2478 22.6101C38.9675 22.7661 38.7907 22.7687 38.5063 22.6252C38.7912 22.5019 38.967 22.5134 39.2452 22.6101H39.2478ZM39.2998 15.5303C39.5296 15.3083 39.5457 15.2932 39.8021 15.3946C39.8237 15.3988 39.8443 15.4069 39.8629 15.4185C40.0522 15.4211 40.1645 15.5563 40.2789 15.6738C40.8229 16.2285 41.3631 16.7883 41.8998 17.3534C41.9154 17.3695 41.9081 17.4054 41.9159 17.4746C41.7516 17.4169 41.6559 17.303 41.5561 17.2021C41.1869 16.8298 40.8187 16.4564 40.4563 16.0773C40.2217 15.8319 39.9784 15.6005 39.6809 15.432L39.2998 15.5303ZM46.429 20.6741L44.9979 20.4313C44.9504 20.4154 44.9009 20.4061 44.8508 20.4037C44.6989 20.4245 44.7359 20.2893 44.6828 20.2254C44.4181 19.904 44.1384 19.5957 43.8638 19.2826C43.8248 19.2713 43.7911 19.2464 43.7688 19.2125C43.7465 19.1786 43.7371 19.1378 43.7421 19.0975C43.4754 19.0179 43.3012 18.8333 43.127 18.6233C43.231 18.5609 43.2981 18.5359 43.3615 18.5676C44.0307 18.9009 44.7691 18.9555 45.4841 19.1069C45.6495 19.1417 45.8559 19.1001 45.9807 19.2717C45.9966 19.3061 46.0027 19.3443 45.9984 19.3819C45.9939 19.4188 45.9866 19.4553 45.9766 19.4911L46.429 20.6741ZM46.741 21.4791C46.8112 21.7667 46.9947 22.022 47.0379 22.4432L45.1264 20.6861L45.1784 20.6164C45.4243 20.6684 45.6698 20.7573 45.9173 20.7641C46.4045 20.7771 46.6307 21.0381 46.7384 21.4791H46.741ZM56.7031 23.8357C56.7832 23.9179 56.881 23.9891 56.9169 24.1373C56.687 24.1893 56.6433 23.9236 56.4801 23.8888C56.4697 23.8888 56.4509 23.8997 56.4437 23.9106C56.4366 23.9261 56.432 23.9426 56.4301 23.9595L57.0229 24.5684C57.0099 24.5944 56.9969 24.6204 56.9834 24.6464C56.2416 24.5591 55.4992 24.4714 54.7563 24.3833C54.6712 24.3817 54.5897 24.3487 54.5275 24.2907C54.1515 23.8903 53.775 23.4905 53.3486 23.0375C53.9726 22.9954 54.4978 23.1051 55.0272 23.1561C55.2435 23.1317 55.4629 23.1998 55.7032 23.1161C55.5565 22.7755 55.2721 22.6631 54.9232 22.6481L54.4307 22.6184C54.4141 22.6574 54.3075 22.6569 54.3585 22.7068C54.4094 22.7567 54.5186 22.6876 54.5701 22.8514C54.1416 22.8093 53.7287 22.919 53.3185 22.7427C53.3855 22.5311 53.6138 22.6907 53.6908 22.5472C53.0741 22.5846 52.5759 22.374 52.2176 21.8556C52.1261 21.723 52.0039 21.6112 51.8411 21.4287C52.6986 21.4053 53.4495 21.6273 54.216 21.6367L54.2238 21.5077C54.204 21.4817 54.1869 21.4557 54.165 21.4292C53.8759 21.1078 53.8759 21.1078 53.5031 21.1224L53.0002 21.0922L52.7673 21.1645C52.9753 21.2311 53.1599 21.1468 53.4089 21.2763C52.7184 21.4219 52.1427 21.1312 51.552 21.2014C51.8406 20.9898 52.1921 21.2045 52.4787 21.0251C52.379 21.0145 52.2788 21.0103 52.1786 21.0127C51.3466 21.0834 50.902 20.541 50.4351 19.9051H51.3721C51.7527 19.9004 52.1386 19.8182 52.5093 19.9747C52.8525 20.1401 52.9805 20.5311 53.2961 20.7256C53.3564 20.7064 53.4521 20.6887 53.3788 20.6034C53.0059 20.1661 52.6217 19.7381 52.2483 19.3034C52.0736 19.0985 51.8219 19.2816 51.6118 19.1604C51.6638 18.8957 51.8339 18.8484 52.0517 18.9061C52.1978 18.9516 52.3254 19.0427 52.4157 19.1661C53.7667 20.7901 55.2201 22.3236 56.7005 23.8357H56.7031ZM49.9951 19.6924C50.0241 19.6311 50.0702 19.5797 50.1279 19.5442C50.1857 19.5087 50.2524 19.4908 50.3201 19.4927C50.8266 19.4807 51.3331 19.4849 51.8396 19.4865C51.9035 19.4865 51.9795 19.4865 51.9914 19.5769C51.9959 19.5975 51.9961 19.6187 51.9922 19.6393C51.9883 19.6599 51.9802 19.6795 51.9685 19.6969C51.9568 19.7144 51.9417 19.7293 51.9241 19.7407C51.9065 19.7522 51.8868 19.76 51.8661 19.7636C51.8175 19.7774 51.7667 19.7821 51.7163 19.7777C51.1495 19.7355 50.5874 19.67 49.9925 19.6939L49.9951 19.6924ZM64.2998 16.8126C61.1013 16.1678 58.0156 15.5189 54.8821 15.1741C55.9918 15.0223 63.2536 16.2895 64.2972 16.8126H64.2998ZM56.3438 13.0946C56.6116 12.8065 56.9522 12.623 57.3381 12.3765C57.3934 12.7017 57.3946 13.0337 57.3417 13.3593C57.3183 13.5226 57.2086 13.6469 57.0229 13.5876C56.785 13.5112 56.5528 13.4179 56.3282 13.3083C56.2284 13.26 56.1972 13.157 56.3417 13.0946H56.3438ZM49.4075 18.1386C49.5189 18.0017 49.6636 17.8957 49.8277 17.8308C49.9355 17.6953 50.0765 17.59 50.2369 17.525C50.5745 17.2171 50.9425 16.9443 51.3352 16.7107C51.4481 16.5775 51.5906 16.4725 51.7512 16.4039C51.8591 16.27 52 16.1665 52.1599 16.1033C52.268 15.968 52.4094 15.863 52.5702 15.7986C53.0441 15.389 53.5482 15.0157 54.0782 14.6817C54.1906 14.5482 54.3332 14.4434 54.4942 14.3759C54.6039 14.2423 54.7445 14.1375 54.9039 14.0707C55.2159 13.7628 55.5945 13.5366 55.9439 13.2725C55.9501 13.2665 55.9576 13.2621 55.9657 13.2595C55.9739 13.257 55.9825 13.2563 55.991 13.2576C55.9994 13.2589 56.0074 13.2622 56.0144 13.2671C56.0214 13.272 56.0272 13.2785 56.0313 13.286C56.0313 13.3161 56.0495 13.365 56.0365 13.3744C55.6829 13.6344 55.3511 13.9209 54.9669 14.1346C54.8569 14.2686 54.7151 14.373 54.5545 14.4383C54.4434 14.5728 54.3019 14.6789 54.1416 14.7477C53.6671 15.1551 53.163 15.5269 52.6336 15.86C52.5232 15.9949 52.3799 16.0991 52.2176 16.1626C52.1117 16.2988 51.9702 16.4031 51.8089 16.4642C51.7005 16.6012 51.5592 16.7085 51.3981 16.7762C51.0605 17.0854 50.6905 17.3574 50.2947 17.5874C50.1865 17.7233 50.0439 17.8278 49.8818 17.8901C49.7729 18.0266 49.6317 18.1338 49.471 18.2021C49.3853 18.3248 49.258 18.4124 49.1127 18.4485C49.1137 18.2405 49.2708 18.2005 49.4055 18.1397L49.4075 18.1386ZM48.6634 19.7751L49.1444 19.7969L49.2354 19.6929C49.0571 19.514 48.8818 19.3289 48.6983 19.1568C48.5995 19.0627 48.4674 18.9795 48.5589 18.8235C48.6504 18.6675 48.8012 18.6607 48.9588 18.7247C49.0181 18.7486 49.0841 18.7626 49.1148 18.8318C49.081 18.955 48.9151 18.8547 48.8709 18.9914C48.8907 19.1214 49.0212 19.188 49.1106 19.2779C50.4786 20.657 51.8479 22.0345 53.2186 23.4104C53.3486 23.5409 53.4656 23.6844 53.5889 23.8217C53.5093 23.9215 53.6211 24.1498 53.3762 24.1373H53.3304C53.2046 24.1826 53.0881 24.1805 52.9924 24.0713C51.5047 23.8581 50.017 23.6407 48.5277 23.4364C48.2947 23.4047 48.1679 23.3142 48.1013 23.0849C48.0264 22.8249 47.9105 22.5805 47.8127 22.3293C47.7274 22.3709 47.7404 22.4588 47.7181 22.53C47.7113 22.7281 47.8678 22.9039 47.7383 23.1337C47.5605 22.6413 47.3712 22.152 47.2069 21.6549C46.832 20.5192 46.4581 19.3825 46.2043 18.2109C46.184 18.112 46.1562 18.0149 46.1211 17.9202C46.0088 17.6217 45.9974 17.6197 45.6823 17.733C45.6261 17.7533 45.5783 17.8282 45.5049 17.7621C45.8169 17.382 46.1217 17.3945 46.2631 17.8167C46.4014 18.2327 46.4877 18.6628 46.598 19.0871C46.6401 19.2499 46.6859 19.4116 46.7301 19.5738L47.0031 19.4038C46.8991 19.3284 46.9308 19.2478 47.0327 19.2478C47.5527 19.2478 48.0691 19.3289 48.5792 19.4313C48.8246 19.4802 48.7321 19.6393 48.6624 19.7761L48.6634 19.7751ZM36.1881 12.3619C37.1101 12.0369 50.187 13.8575 51.2619 14.158C46.2439 13.5496 41.2435 12.7374 36.1881 12.3619ZM52.1271 12.9688C51.369 12.8065 50.5604 12.7233 49.7767 12.5138C49.1881 12.3578 48.9213 11.9132 49.069 11.3292C49.1091 11.1655 49.1713 11.008 49.2541 10.8612C49.5339 10.3797 49.8469 9.91638 50.0523 9.39482C50.1199 9.22322 50.2427 9.17278 50.4163 9.2201C50.8063 9.3241 51.1963 9.4281 51.5874 9.5321C51.8474 9.60178 51.8994 9.82694 51.9514 10.0386C52.0315 10.4026 52.0897 10.7666 52.1505 11.1306C52.2285 11.5986 52.3825 12.0453 52.5203 12.4966C52.6414 12.8981 52.5587 13.0005 52.1292 12.9693L52.1271 12.9688ZM55.0303 12.4379C54.9877 12.6152 54.8514 12.6063 54.7079 12.5679C53.9726 12.3713 53.7854 12.1035 53.8192 11.2902C53.8192 11.1093 53.7464 10.9179 53.8915 10.7562C53.8993 10.6584 53.9076 10.5612 53.9154 10.4634C53.9087 10.349 53.8858 10.231 53.9908 10.1431C54.4391 10.179 54.7464 10.4598 55.0423 10.7557C55.0892 10.8042 55.1187 10.8669 55.126 10.934C55.1634 11.4395 55.1499 11.9459 55.0324 12.4384L55.0303 12.4379ZM56.5711 11.8971C56.492 12.0011 56.4041 12.0837 56.2169 12.0629C56.3095 11.9366 56.3958 11.8633 56.5243 11.843C56.5903 11.7099 56.4535 11.6714 56.4067 11.5908C56.2575 11.5908 56.1535 11.44 55.9907 11.4691L55.8446 11.869C55.8847 11.9574 55.8129 12.064 55.8914 12.1482C55.9294 12.1893 56.0875 12.1321 56.0027 12.2673C55.9817 12.3032 55.9502 12.3319 55.9125 12.3495C55.8748 12.367 55.8326 12.3726 55.7916 12.3656C55.7115 12.3484 55.7094 12.2735 55.7141 12.2096C55.7219 12.0952 55.7401 11.9818 55.7536 11.8679C55.7521 11.8515 55.7521 11.835 55.7536 11.8185C55.8987 11.155 55.8987 11.155 56.4738 11.5305C56.5908 11.5523 56.7151 11.5996 56.7489 11.7088C56.7827 11.818 56.6761 11.8737 56.5721 11.8976L56.5711 11.8971ZM58.844 9.14106C59.2314 9.14522 59.6188 9.13638 60.0062 9.13222C60.0883 9.10934 60.17 9.09062 60.2594 9.14054C60.288 9.24454 60.184 9.2669 60.1315 9.30538C59.5862 9.70404 59.0383 10.0994 58.4878 10.4915C58.0229 10.8212 57.961 10.8207 57.5102 10.5159C57.3427 10.4026 57.1935 10.2476 57.0115 10.1727C56.7827 10.0786 57.1769 10.0219 57.0037 9.93978C56.8711 9.87686 56.7583 9.77182 56.6397 9.67978C56.5357 9.60022 56.3969 9.56382 56.3277 9.43694C55.8644 9.25858 55.3797 9.28094 54.8998 9.30538C54.5966 9.32098 54.2971 9.35738 53.9971 9.24922C54.5233 9.32566 55.0256 9.03498 55.5602 9.1785C55.6819 9.21126 55.8259 9.16186 55.9601 9.15042L58.6812 8.92058C59.3848 8.7677 60.0967 8.7703 60.8132 8.7859C60.4898 9.00274 60.1242 8.89926 59.7795 8.9419C59.4155 8.98662 59.0421 9.00014 58.6729 9.0277C58.6292 9.21906 58.7837 9.14262 58.8461 9.14314L58.844 9.14106ZM74.0711 5.63886C73.2641 5.68774 72.4591 5.72934 71.6505 5.78394C70.4426 5.86558 69.2351 5.96074 68.0267 6.04394C67.1863 6.10062 66.345 6.1365 65.5041 6.19266C64.279 6.27378 63.0549 6.36946 61.8293 6.45006C60.9723 6.50674 60.1133 6.52909 59.2569 6.60137C57.6334 6.73917 55.9897 6.69238 54.3949 7.10578C53.9705 7.21602 53.5473 7.32938 53.1775 7.58054C52.7444 7.87486 52.7012 8.11717 53.0007 8.55137C53.1599 8.78173 53.398 8.95386 53.4687 9.27366C52.1937 8.64238 50.9301 8.00746 49.7705 7.16402C50.3207 7.01374 50.8625 7.00022 51.4023 6.96018C52.5431 6.87594 53.6835 6.78442 54.8249 6.70486C55.6481 6.64714 56.4728 6.61022 57.2959 6.55354C58.454 6.47346 59.611 6.37934 60.769 6.29874C61.5755 6.24258 62.381 6.20358 63.1891 6.14742C64.3638 6.0663 65.5379 5.97218 66.7126 5.89158C67.5358 5.8349 68.3605 5.7985 69.1837 5.7413C70.3245 5.66122 71.4639 5.56034 72.6047 5.48858C73.092 5.4579 73.5808 5.45478 74.0649 5.38042C74.1497 5.36742 74.2531 5.3851 74.2672 5.48442C74.2895 5.62014 74.1725 5.6347 74.0732 5.64094L74.0711 5.63886ZM82.3173 4.44286C81.2726 4.48914 80.2373 4.62538 79.1973 4.74134C78.9331 4.77098 78.6648 4.81726 78.2826 4.74134C78.9373 4.51046 79.5223 4.54581 80.0865 4.46678C80.6507 4.38774 81.2305 4.3737 81.8025 4.33054C82.1561 4.1969 82.517 4.2723 82.9189 4.27854C82.7427 4.53334 82.5201 4.45794 82.3194 4.44234L82.3173 4.44286ZM85.1555 4.7793C84.7727 4.60458 84.4446 4.40854 84.2023 4.09498C83.9283 3.74034 83.9023 3.39506 84.1123 3.06434C84.3146 2.74662 84.819 2.53134 85.1726 2.61558C85.2168 2.62598 85.2709 2.63066 85.2808 2.69722C85.2872 2.73037 85.2803 2.76472 85.2615 2.79278C85.2427 2.82084 85.2135 2.84032 85.1804 2.84698C85.0847 2.87922 84.9839 2.8943 84.8871 2.92394C84.3344 3.0971 84.1872 3.5755 84.559 4.02322C84.6875 4.17922 84.8528 4.30038 84.9969 4.43922C85.0764 4.51722 85.2179 4.55518 85.1575 4.77878L85.1555 4.7793ZM93.5342 3.8433C92.3705 3.8849 91.2161 4.0357 90.0528 4.08718C88.9431 4.13918 87.8371 4.27178 86.729 4.3659C86.5465 4.38149 86.3613 4.40906 86.1788 4.30818C88.9499 4.00606 91.7303 3.82094 94.5092 3.62282C94.5134 3.65558 94.5181 3.68886 94.5222 3.72162C94.1951 3.76426 93.8665 3.83394 93.5363 3.84382L93.5342 3.8433Z" fill="url(#paint0_linear_774_96099)"/>
<defs>
<linearGradient id="paint0_linear_774_96099" x1="49.4894" y1="0.488281" x2="49.4894" y2="31.5152" gradientUnits="userSpaceOnUse">
<stop stop-color="#4551A8"/>
<stop offset="1" stop-color="#3E88C5"/>
</linearGradient>
</defs>
</svg>
