<svg width="103" height="40" viewBox="0 0 103 40" fill="none" xmlns="http://www.w3.org/2000/svg">
<path d="M102.102 13.0983L95.9097 11.3027L78.1642 9.74847L78.783 5.01648C78.783 5.01648 77.4258 3.17828 75.7337 2.98432C74.0416 2.79036 73.5097 5.50008 73.5097 5.50008L71.9616 9.31115L52.6176 7.55303L6.01887 0.03125L0.890625 0.32141L16.5171 3.8054L47.3531 8.88527L71.0178 11.1348L70.5587 12.7546L69.4292 14.3146C69.4292 14.3146 65.5318 13.7155 63.9729 13.6386L59.544 11.2986C59.544 11.2986 58.6891 11.1036 58.4312 12.0406V13.7228L57.6892 11.1343L55.5275 10.8992L52.8755 12.8409L51.4965 12.6906C51.4965 12.6906 50.9645 11.2388 48.9163 11.1343C46.868 11.0297 46.2554 13.0983 46.2554 13.0983L37.3993 12.7509L38.094 10.3423C38.094 10.3423 37.4336 9.57999 34.6277 9.74847L34.2731 13.1961C34.2731 13.1961 30.3731 13.7842 29.6607 19.4948L19.9845 17.7486L16.0013 17.9088L17.9367 19.2712L27.2255 21.1994C27.2255 21.1994 27.4335 22.4224 29.1126 24.6282L30.4511 23.5721C30.4511 23.5721 31.3704 25.7041 33.999 26.5928L34.0151 27.9255C34.0151 27.9255 32.8639 27.4435 31.6169 27.6229C30.3699 27.8023 29.5005 28.6182 29.5005 28.6182C29.5005 28.6182 28.2426 29.7669 27.8719 31.2837C27.5011 32.8005 28.7725 34.0912 28.7725 34.0912C28.7725 34.0912 29.6799 35.0641 31.2238 35.3054C31.2238 35.3054 31.9773 36.3672 33.6407 35.7853C33.6407 35.7853 34.7639 35.2201 34.9293 34.1213L35.6235 34.3896L39.965 30.5255L39.6259 30.0737L35.6989 28.2594C35.7767 27.8608 35.8185 27.456 35.8237 27.0499C35.8237 27.0499 38.1185 27.0738 39.485 26.8559C39.7428 27.1798 40.025 27.4834 40.329 27.7643L41.5047 27.2787L42.3367 26.4113L42.7303 26.3484L50.9765 25.7712L50.7763 31.4319L50.1523 32.1989C50.1523 32.1989 48.8143 33.2945 48.1493 34.5997C47.4842 35.9049 48.2335 37.7681 48.2335 37.7681C48.2335 37.7681 49.1045 39.1253 50.3005 39.2392C50.3005 39.2392 50.9417 40.211 52.3446 39.9089C53.7476 39.6068 53.9535 38.1186 53.9535 38.1186L54.7153 38.1929L59.2996 34.3917C59.2996 34.3917 57.3039 31.8775 55.1022 31.5271C52.9005 31.1766 51.7336 31.2728 51.7336 31.2728L51.2427 25.6152L51.4149 25.8336H52.7669L77.7315 28.6749L82.5571 29.2313L89.2459 28.9047L84.2872 27.7087L73.1233 26.2085L58.9356 24.4306L73.4015 19.9316L73.8003 20.1734L73.7884 21.165L74.0775 21.4313C74.0775 21.4313 73.6313 22.0844 73.9335 22.6647C74.2356 23.245 75.1549 23.0641 75.1549 23.0641C75.1549 23.0641 75.9386 22.7521 75.7342 21.6731C75.7342 21.6731 75.7145 21.02 74.7551 20.8146L74.6365 20.3632L74.8653 19.9992L74.7556 19.5042L75.1435 18.5609C75.1435 18.5609 77.4091 17.6056 77.7336 14.3395L78.0103 11.6501L91.2183 13.0458L102.102 13.0983Z" fill="url(#paint0_linear_774_110226)"/>
<defs>
<linearGradient id="paint0_linear_774_110226" x1="51.4965" y1="0.03125" x2="51.4965" y2="39.9671" gradientUnits="userSpaceOnUse">
<stop stop-color="#4551A8"/>
<stop offset="1" stop-color="#3E88C5"/>
</linearGradient>
</defs>
</svg>
