<svg width="101" height="52" viewBox="0 0 101 52" fill="none" xmlns="http://www.w3.org/2000/svg">
<path d="M65.8323 15.041L61.9089 10.1208L62.4595 9.81971H64.3768L68.4104 12.7655L73.5319 7.33203C73.5319 7.33203 72.9875 7.13235 73.2012 6.59259C73.4149 6.05283 74.9692 6.06531 74.9692 6.06531C74.9692 6.06531 76.1371 6.10327 76.9587 6.20363L77.2535 6.37939L71.9937 14.3354L71.9688 14.5866L72.6344 14.6495L72.8034 14.781L72.3354 15.6536L84.9126 23.4645C84.9126 23.4645 83.9397 23.8722 83.1743 23.8805C82.4088 23.8888 82.0193 23.5482 82.0193 23.5482L74.8517 20.0018L70.7473 17.9811L70.245 18.8532C70.245 18.8532 71.6381 18.7278 71.6131 20.0772C71.6131 20.0772 71.676 20.512 70.7291 21.0886C69.7822 21.6653 67.516 23.2279 67.516 23.2279C67.516 23.2279 68.9403 23.3096 68.5264 24.973C68.5264 24.973 67.0953 26.2782 65.2249 26.975C64.4356 27.3299 63.6014 27.5749 62.7455 27.703C62.4063 27.7511 62.0613 27.7413 61.7253 27.6739C61.4133 27.6105 61.0493 27.5008 60.8819 27.3203C60.8819 27.3203 57.7832 30.2994 53.7059 31.446C53.7059 31.446 60.0322 35.931 69.6979 39.5715C69.6979 39.5715 89.3805 48.1073 93.4723 49.2622C93.4723 49.2622 95.8326 49.9382 97.0375 49.5633L100.075 46.9025L100.427 46.8505C100.427 46.8505 97.6401 49.6372 96.5102 50.3901C95.3802 51.1431 94.5269 51.1701 94.5269 51.1701C94.5269 51.1701 89.2801 50.3667 87.5729 49.5633L67.4885 42.8605L56.4676 38.8934L39.8728 34.0736L39.6482 34.2992C39.6482 34.2992 35.8059 33.722 33.17 33.7719C30.5341 33.8219 30.1067 33.824 30.1067 33.824C30.1067 33.824 16.7016 37.1592 8.69103 37.0589C0.680426 36.9585 0.584226 35.7667 0.584226 35.7667C0.584226 35.7667 0.308106 34.9752 2.21599 33.4438C2.21599 33.4438 10.8558 26.9667 13.4147 25.7868C15.9736 24.607 33.7176 22.1988 33.7176 22.1988L34.2407 19.0606L33.0203 5.16675L33.3744 3.87715L36.133 0.832031L37.2629 0.95735L35.9323 3.41799L36.1834 5.75331L39.5504 14.2886L42.4104 19.8604L43.115 20.9415L51.4501 20.0512C51.4501 20.0512 50.5463 18.6472 51.6009 17.4471C52.6555 16.2469 55.959 16.6988 55.959 16.6988C55.959 16.6988 56.3438 16.0961 58.2522 15.9453C60.1606 15.7945 64.955 15.4773 64.955 15.4773L65.8323 15.041Z" fill="url(#paint0_radial_774_96301)"/>
<defs>
<radialGradient id="paint0_radial_774_96301" cx="0" cy="0" r="1" gradientUnits="userSpaceOnUse" gradientTransform="translate(100.427 41.1025) rotate(-152.748) scale(97.1062 298.577)">
<stop stop-color="#8F8AD2"/>
<stop offset="1" stop-color="#4267B2"/>
</radialGradient>
</defs>
</svg>
