<svg width="100" height="31" viewBox="0 0 100 31" fill="none" xmlns="http://www.w3.org/2000/svg">
<path d="M32.8664 13.5376C32.9407 13.4778 33.0063 13.3878 33.091 13.3624C35.1549 12.7462 37.2417 12.3978 39.383 12.924C40.267 13.1419 41.1583 13.0894 42.0511 13.0322C43.5872 12.9344 45.1233 12.8365 46.6594 12.7384C46.9129 12.7239 47.1645 12.6856 47.4108 12.624C46.3708 12.4482 45.4202 12.0379 44.5024 11.5564C43.5144 11.0364 42.5405 10.4914 41.6804 9.77384C41.453 9.57514 41.2621 9.33827 41.1162 9.07392C40.93 8.7484 40.9701 8.4208 41.1599 8.06928C41.5899 7.27472 42.3257 7.02044 43.126 6.89408C43.8414 6.77968 44.5625 6.70383 45.2861 6.66684C46.9272 6.58572 48.5699 6.61952 50.1933 6.88056C51.6067 7.10832 53.0195 7.36364 54.3777 7.84412C54.4388 7.85809 54.5009 7.86713 54.5634 7.87116C54.4427 7.59504 54.3304 7.3574 54.2342 7.11352C53.6678 5.68456 53.1036 4.25456 52.5416 2.82352C52.4319 2.54376 52.2239 2.24684 52.2587 1.98372C52.2894 1.75284 52.5707 1.52508 52.7871 1.35452C53.2353 1.00092 53.7116 0.682159 54.1833 0.359239C54.2602 0.307239 54.3715 0.307238 54.4953 0.273438C54.7433 1.29316 54.9929 2.29052 55.2279 3.28944C55.6328 5.01618 56.0327 6.74432 56.4276 8.47384C56.4813 8.72012 56.5211 8.96925 56.5467 9.22004C56.607 9.76084 57.049 10.0073 57.5206 9.74004C58.5606 9.14568 59.6006 8.53884 60.6375 7.9372C61.6175 7.36936 62.5979 6.80187 63.5786 6.23472C63.706 6.1614 63.8386 6.09796 64.0217 6.0028C64.4793 7.2664 64.4954 8.4988 64.2489 9.76448C61.8803 10.2845 59.5315 10.7005 57.2107 11.2402C57.2154 11.2787 57.2206 11.3172 57.2253 11.3552C57.3318 11.3611 57.4385 11.3611 57.5451 11.3552C59.276 11.1662 61.007 10.9756 62.7383 10.7832C64.4023 10.5977 66.0663 10.4098 67.7303 10.2195L73.6781 9.54972C75.5428 9.33964 77.4075 9.12748 79.2722 8.91324C79.4898 8.89159 79.7033 8.83907 79.9061 8.75724C80.3091 8.58219 80.7423 8.48701 81.1817 8.47696C81.6533 8.46656 82.1244 8.42496 82.595 8.38908C83.3121 8.33708 83.999 8.45044 84.687 8.66572C85.4753 8.91272 86.2771 9.1228 87.0847 9.29596C87.5241 9.39008 87.9869 9.3802 88.4398 9.40828C88.977 9.44208 89.5147 9.48264 90.0518 9.4894C90.4061 9.48695 90.7598 9.46263 91.1111 9.4166C91.8983 9.32924 92.6825 9.22004 93.4703 9.13684C94.2914 9.04948 95.1099 8.98968 95.9335 9.17168C96.6033 9.31988 97.2855 9.40984 98.0421 9.5388C97.9054 9.76552 97.8295 9.9548 97.701 10.0947C96.8955 10.9787 95.9263 11.6027 94.7479 11.859C93.4266 12.1461 92.1292 12.5127 90.8318 12.8944C89.8958 13.1689 88.913 13.2719 87.9505 13.4497C87.8033 13.4768 87.6541 13.495 87.4528 13.5251C87.3759 14.3732 87.2969 15.2078 87.2199 16.0809C87.3578 16.0997 87.4967 16.111 87.6359 16.1147C89.1923 16.0742 90.7476 16.0154 92.3034 15.9972C92.67 15.9925 92.8115 15.7809 92.9612 15.538C93.5296 14.6156 94.3969 14.1122 95.4193 13.926C96.0433 13.8142 96.6995 13.874 97.3433 13.8824C97.8113 13.8876 98.2792 13.9312 98.7888 13.9598C98.7176 14.901 98.6505 15.7887 98.5808 16.7314L99.6073 16.8916C99.5969 17.0393 99.5881 17.1667 99.5761 17.3346L98.4009 17.4662C98.4285 18.2753 98.4566 19.0782 98.4847 19.891C98.0983 20.1603 97.6833 20.1057 97.297 20.0277C95.7619 19.7157 94.3642 19.1146 93.2446 17.9779C93.1785 17.9029 93.0965 17.8436 93.0045 17.8045C92.9126 17.7654 92.813 17.7473 92.7132 17.7517C90.5484 17.7969 88.3837 17.8312 86.2225 17.8687C86.1705 19.0418 85.9105 20.1842 85.7353 21.3381C85.559 22.5055 85.3713 23.6714 85.1841 24.8559C84.2668 25.1227 83.3677 25.3562 82.4879 25.6463C81.2248 26.0623 79.917 26.2183 78.6082 26.3618C75.8875 26.6655 73.1662 26.9602 70.4442 27.2458C68.983 27.4018 67.5171 27.5183 66.0569 27.6837C65.4371 27.7539 64.8287 27.9182 64.2109 28.0118C63.4777 28.1231 62.7414 28.2198 62.0041 28.2952C60.9791 28.3992 59.9527 28.486 58.9257 28.5656C58.2866 28.6176 57.6449 28.6353 57.0043 28.6727C56.5825 28.6977 56.1608 28.7247 55.7396 28.7596C54.8322 28.8334 53.9238 28.8979 53.0185 28.9925C52.435 29.0534 51.8869 29.2478 51.5011 29.7138C51.1969 30.0778 50.8495 30.1656 50.3888 30.1235C48.4523 29.9457 46.5127 29.8006 44.5742 29.6436C43.647 29.5682 42.7162 29.5224 41.7937 29.4101C40.8713 29.2978 39.9472 29.1943 39.0143 29.2322C38.9128 29.2397 38.8108 29.2258 38.7148 29.1917C38.2515 29.0029 37.7591 29.004 37.2749 28.9317C36.3239 28.7954 35.378 28.6166 34.4326 28.4424C33.3063 28.2344 32.1841 27.9998 31.0329 27.978C30.9651 27.9815 30.8972 27.9757 30.8311 27.9608C29.6871 27.6192 28.4958 27.47 27.3591 27.056C26.5463 26.7602 25.8412 26.2438 25.0014 26.0327C24.1449 25.3749 23.0737 25.0447 22.2974 24.2647C22.2188 24.1963 22.1338 24.1355 22.0436 24.0832C21.6843 24.1721 21.3609 24.2558 21.0353 24.3312C20.3885 24.482 19.9626 24.1425 19.6282 23.6552C19.4769 23.4358 19.375 23.1784 19.2751 22.9272C19.1384 22.5866 19.1191 22.2512 19.3022 21.9028C19.4197 21.6829 19.4785 21.4317 19.5539 21.2201C19.5444 21.1762 19.5292 21.1337 19.5086 21.0937C19.0188 20.491 19.0339 20.4234 19.4878 19.7875C19.9418 19.1515 20.6219 18.8364 21.2927 18.5254C21.95 18.2207 22.6359 17.9794 23.3083 17.7075C23.4718 17.6487 23.6203 17.5544 23.743 17.4314C23.601 17.4314 23.4591 17.4314 23.3176 17.4314C21.7613 17.4652 20.2054 17.5354 18.6496 17.5244C17.2638 17.5166 15.878 17.4407 14.4943 17.3658C12.5349 17.2618 10.5776 17.1256 8.61826 17.0055C8.4867 16.9977 8.35462 17.0055 8.18406 17.0055C8.08006 17.8895 7.95994 18.7392 7.89806 19.594C7.8835 19.7974 8.02806 20.0485 8.17158 20.218C8.32758 20.4042 8.55846 20.542 8.77738 20.6642C9.73626 21.1998 10.704 21.7203 11.6655 22.2523C11.8155 22.3279 11.9525 22.4271 12.0711 22.5461C12.2853 22.7822 12.1803 23.0921 11.8672 23.1638C11.7337 23.1846 11.5981 23.1884 11.4637 23.1753C10.0441 23.128 8.6219 23.117 7.20646 23.0136C6.45558 22.9584 5.70366 22.7884 4.97618 22.5835C4.45618 22.4374 4.11818 21.9933 3.88418 21.5134C3.70946 21.153 3.83686 20.7854 4.1603 20.5196C4.51442 20.2264 4.94446 20.1276 5.38178 20.073C5.70086 20.0385 6.02196 20.0263 6.34274 20.0366C6.88302 20.0444 6.88926 20.0511 6.98806 19.503C7.05358 19.139 7.10402 18.7719 7.24806 18.411C7.21998 18.6534 7.20282 18.8972 7.16174 19.139C7.09154 19.555 7.13106 19.9346 7.50078 20.2269C7.13054 19.5509 7.44878 18.8686 7.44566 18.1906C7.44566 18.0314 7.44566 17.8723 7.36402 17.7023L7.28914 17.9467H7.25586C7.29018 17.6264 7.32502 17.3055 7.36662 16.9223C7.11286 16.8864 6.87158 16.8412 6.62822 16.8183C5.14726 16.6867 3.67202 16.5312 2.21602 16.2047C1.7397 16.0981 1.41678 15.7944 1.0429 15.5505C0.880657 15.4465 0.945137 15.3009 1.05954 15.1626C1.50986 14.6176 2.0829 14.2744 2.77554 14.1694C3.22222 14.1018 3.68086 14.1101 4.1343 14.0909C4.31994 14.0831 4.5061 14.0976 4.69226 14.0945C11.3399 13.9805 17.9876 13.8657 24.6353 13.7503C26.9694 13.709 29.3037 13.6641 31.6381 13.6156C31.959 13.6094 32.2798 13.5875 32.6012 13.573C31.024 14.2157 29.4432 14.848 27.8723 15.5037C27.0621 15.8417 26.2686 16.2187 25.4694 16.5812C25.3248 16.6467 25.134 16.6852 25.1761 16.9077C25.2052 16.9296 25.2177 16.9462 25.2328 16.9488C25.2813 16.9591 25.3308 16.9644 25.3805 16.9644C26.9124 16.9004 28.3673 17.2187 29.763 17.8385C31.2388 18.4942 32.7717 18.9742 34.3796 19.1302C36.7653 19.3616 39.1563 19.5342 41.5457 19.7251C41.6639 19.7266 41.7808 19.7014 41.8879 19.6512C42.3845 19.45 42.6237 18.9752 42.4957 18.3481C42.1983 16.8968 41.6778 15.5297 40.8837 14.2718C40.5239 13.6998 40.0242 13.2922 39.369 13.1663C38.6103 13.0202 37.8339 12.8933 37.0643 12.886C35.6312 12.872 34.2418 13.1793 32.8664 13.5376ZM56.2789 9.39216C56.2045 9.1488 56.0709 8.97616 55.7589 8.91012L56.2466 9.42128C56.2633 9.74108 56.4151 9.94492 56.7219 10.0666C56.9382 10.1524 57.128 10.3042 57.3298 10.427C57.2518 10.2569 57.1452 10.0796 56.997 10.0333C56.6486 9.92464 56.4416 9.69168 56.2789 9.39216V9.39216ZM46.5179 17.02C46.6308 17.1152 46.7488 17.2041 46.8549 17.3066C47.0717 17.5146 47.3172 17.709 47.4888 17.9529C47.8949 18.5317 47.716 18.9841 47.0385 19.163C46.875 19.2039 46.7092 19.2345 46.5419 19.2545C46.1779 19.3065 45.8139 19.3465 45.4467 19.3912C46.0757 19.4856 46.7181 19.4257 47.3187 19.2165C47.7743 19.0605 47.9479 18.6336 47.7576 18.1906C47.5169 17.63 47.1206 17.2114 46.5247 17.0122C45.9444 16.5442 45.2471 16.3628 44.544 16.2031C44.2877 16.1449 44.0188 16.1402 43.7734 16.1132C43.5815 16.5812 43.5597 16.5879 43.646 16.9452C43.802 17.6009 43.9777 18.254 44.1712 18.9004C44.284 19.2758 44.699 19.5103 45.1545 19.5015C44.972 19.3912 44.7863 19.3044 44.6345 19.178C44.5092 19.074 44.3745 18.942 44.3267 18.7948C44.1447 18.2332 43.9902 17.6622 43.8384 17.0913C43.7697 16.8313 43.7203 16.565 43.8836 16.2848C44.2929 16.2218 44.686 16.3217 45.0661 16.4553C45.5544 16.6264 46.0338 16.8297 46.5179 17.02ZM53.0398 21.5518C53.2478 21.6907 53.384 21.7869 53.5249 21.8727C54.4495 22.4348 55.3819 22.9844 56.2971 23.5611C56.5805 23.7421 56.9141 23.8282 57.2497 23.8071C60.8835 23.676 64.5177 23.5547 68.1525 23.4431C68.9575 23.4197 69.6767 23.142 70.3636 22.7915C70.9626 22.4858 71.5076 22.0729 72.0718 21.6995C72.1888 21.6226 72.2871 21.5175 72.4841 21.3485C71.6553 21.2102 70.9481 21.0786 70.2362 20.9772C69.6096 20.8959 69.0309 20.5992 68.5992 20.138C67.93 19.4245 67.2737 18.7059 66.4246 18.1958C66.3445 18.1479 66.2972 18.046 66.2363 17.9716C66.3403 17.733 66.5073 17.6342 66.7449 17.5853C66.9041 17.5466 67.0475 17.4598 67.1557 17.3367C67.3538 17.1084 67.5197 16.8495 67.6892 16.5983C67.7839 16.4595 67.8863 16.3118 67.7282 16.1501C67.6942 16.1412 67.6593 16.1363 67.6242 16.1355C65.6437 16.3685 63.6629 16.6016 61.6817 16.8349C61.3138 16.8795 60.9594 17.0011 60.6417 17.1916C58.7567 18.2894 56.8628 19.372 54.9711 20.4578C54.3512 20.8108 53.734 21.1582 53.0398 21.5518ZM2.10474 15.1252C2.47862 15.1252 2.82858 15.1252 3.17906 15.1252C11.1611 15.1442 19.1432 15.1605 27.1256 15.174C27.4865 15.174 27.8593 15.082 28.2067 14.9702C28.9596 14.7268 29.7001 14.444 30.4427 14.1736C30.5914 14.1216 30.7339 14.0493 30.8795 13.9864C29.5717 13.9552 28.2909 13.9734 27.0107 14.0077C22.6496 14.1259 18.2885 14.2472 13.9275 14.3717C10.1748 14.4757 6.42195 14.5797 2.66894 14.6837C2.3819 14.6878 2.20302 14.782 2.10474 15.1252ZM49.0992 17.3903C47.8169 16.6103 46.3583 15.941 44.7999 15.5276C43.8982 15.2884 43.2919 14.667 42.6465 14.0826C42.5607 14.0051 42.4942 13.8257 42.5243 13.7253C42.5477 13.6468 42.7323 13.5849 42.8509 13.5693C45.3212 13.2968 47.7923 13.0296 50.264 12.7675C52.9711 12.4799 55.6783 12.2007 58.3849 11.9126C61.8169 11.5486 65.2442 11.1893 68.671 10.8003C69.4973 10.7067 70.3568 10.7712 71.1379 10.3885C71.2012 10.3639 71.2681 10.35 71.336 10.3474C73.6053 10.0999 75.8744 9.85375 78.1433 9.609C78.4901 9.57156 78.8391 9.557 79.1833 9.5336C79.2441 10.3136 79.4256 10.5632 80.1536 10.7296C80.5421 10.8185 80.956 10.8086 81.3585 10.8201C81.5249 10.8248 81.6985 10.7759 81.7474 10.5648C81.672 10.325 81.4619 10.3724 81.2862 10.3484C80.9695 10.3048 80.645 10.2897 80.3372 10.2112C80.0163 10.129 79.9337 9.96884 79.9087 9.66516C79.8837 9.36148 80.0335 9.19456 80.2925 9.0838C80.6813 8.91075 81.1126 8.85648 81.5321 8.9278C81.62 8.94236 81.71 8.94704 81.8925 8.96576C81.3028 8.63868 80.4578 8.70004 79.9498 9.0838C79.7791 9.21976 79.5714 9.30113 79.3539 9.31728C78.2587 9.40741 77.164 9.50361 76.0695 9.60588C74.807 9.72652 73.5439 9.84404 72.2845 9.99172C71.2133 10.117 70.1493 10.3011 69.0781 10.429C67.1812 10.6558 65.2821 10.8606 63.3826 11.0733L57.4343 11.7384C55.485 11.9565 53.5359 12.1749 51.5869 12.3936C49.604 12.6162 47.6212 12.8387 45.6386 13.0613C44.6808 13.1689 43.7224 13.2693 42.7651 13.3811C42.36 13.4284 42.2191 13.6931 42.4011 14.0571C42.4429 14.1502 42.5047 14.2329 42.5821 14.2994C43.1412 14.7341 43.7044 15.1636 44.2715 15.588C44.3256 15.6283 44.3896 15.6535 44.4567 15.6608C45.1389 15.7258 45.7639 15.9811 46.3864 16.2406C47.9557 16.8958 49.4778 17.6264 50.5719 19.0028C50.5824 19.0161 50.5943 19.0283 50.6072 19.0392C50.8116 19.2181 50.9483 19.2134 51.122 19.0116C51.187 18.9338 51.2438 18.8494 51.2915 18.76C51.6384 18.1308 52.1038 17.642 52.8136 17.4225C52.8999 17.396 52.9618 17.2925 53.0346 17.2244C52.8627 17.1252 52.6653 17.0792 52.4673 17.0923C52.0466 17.1277 51.629 17.1994 51.2083 17.2317C50.7559 17.2665 50.3015 17.2676 49.8485 17.2946C49.6275 17.3092 49.4112 17.3502 49.0992 17.3903ZM58.4072 17.4054L58.3776 17.3331C58.2159 17.3331 58.0531 17.3201 57.8924 17.3331C56.7668 17.4371 55.6412 17.5452 54.5155 17.6576C54.164 17.6919 53.7875 17.6628 53.4657 17.7782C51.875 18.345 51.7611 19.4942 52.1329 20.9388C52.1553 21.0261 52.2333 21.0994 52.3045 21.2081L58.4072 17.4054ZM79.4901 25.2054C79.6981 25.5033 79.9108 25.4284 80.1032 25.404C80.5046 25.352 80.9029 25.2808 81.3044 25.2298C82.1733 25.1196 83.0443 25.0218 83.9137 24.9116C84.4857 24.8403 84.7395 24.5892 84.8341 24.0187C84.9527 23.3039 85.0697 22.5884 85.1851 21.8722C85.3068 21.1228 85.4233 20.3735 85.5491 19.6247C85.5788 19.4448 85.5939 19.2888 85.402 19.2566C85.1108 19.9253 84.83 20.5732 84.5461 21.2185C84.1373 22.142 83.4754 22.8508 82.6377 23.3947C82.2284 23.6604 81.7958 23.8913 81.3652 24.1227C80.9055 24.3702 80.4292 24.5907 79.9727 24.8419C79.8016 24.935 79.6601 25.0748 79.488 25.2069L79.4901 25.2054ZM26.0981 22.4748L26.0897 22.61C26.1636 22.6366 26.2359 22.6693 26.3113 22.6891C27.3242 22.9527 28.3502 23.1753 29.3491 23.4852C31.4291 24.1321 33.5122 24.781 35.5662 25.5075C39.8016 27.0046 44.1655 27.86 48.6291 28.2531C48.9318 28.2801 49.2391 28.2567 49.5443 28.2567C49.443 28.1638 49.3163 28.1031 49.1803 28.0825C48.1117 27.9114 47.0405 27.7575 45.9745 27.575C44.1426 27.263 42.2981 26.9983 40.4875 26.587C37.2874 25.8642 34.1981 24.7452 31.0661 23.7816C29.6283 23.3391 28.1942 22.8924 26.7288 22.5528C26.525 22.505 26.3092 22.4982 26.0981 22.4748ZM53.1661 28.1662C53.1661 28.226 53.1661 28.2858 53.1661 28.3456C53.3539 28.3618 53.5416 28.3893 53.7298 28.3919C55.8296 28.4195 57.9163 28.2557 60 28.004C62.2479 27.732 64.5011 27.5064 66.7501 27.2474C69.2513 26.9593 71.7509 26.6582 74.2506 26.3587C74.4404 26.3358 74.6265 26.2823 74.8143 26.2433C74.8075 26.2032 74.8013 26.1632 74.795 26.1237C73.547 26.2199 72.299 26.2911 71.0593 26.419C69.5638 26.575 68.073 26.7784 66.5801 26.9578C64.3961 27.2178 62.2188 27.4928 60.0353 27.7346C58.5237 27.9016 57.0095 28.0466 55.4931 28.1564C54.7215 28.2099 53.9425 28.1642 53.1661 28.1642V28.1662ZM77.1215 15.3222C75.2672 15.2182 73.7789 15.2734 73.1549 15.4652C73.1102 15.978 73.0645 16.5052 73.0145 17.0814C73.9745 16.9977 74.8626 16.9254 75.7487 16.837C75.8634 16.8254 75.9703 16.7734 76.0503 16.6904C76.3992 16.2614 76.7305 15.822 77.1215 15.3191V15.3222ZM49.3145 11.1664L49.3592 11.0348C49.0228 10.9002 48.6915 10.7509 48.3494 10.6329C47.2678 10.2595 46.3183 9.72236 45.7338 8.67872C45.5866 8.41872 45.3698 8.19096 45.1758 7.958C45.0875 7.86596 44.9921 7.78111 44.8903 7.70424C44.6823 7.86856 44.6241 8.03964 44.6667 8.26376C44.7598 8.7484 44.5861 9.15764 44.2814 9.52684C44.1915 9.63604 44.1254 9.765 44.0105 9.94284C45.7853 10.5507 47.5044 11.053 49.3145 11.1664ZM83.8316 17.969L83.8264 17.8437C83.2429 17.7709 82.6616 17.6815 82.0771 17.6284C81.0158 17.531 79.9703 17.3052 78.9633 16.9561C78.7098 16.8644 78.4649 16.7503 78.2317 16.615C78.0502 16.511 77.9197 16.355 78.0086 16.0513C78.3409 15.9717 78.694 15.8662 79.0549 15.8048C79.9196 15.6566 80.7085 15.9525 81.4947 16.277C81.2186 15.7856 80.6856 15.718 80.2587 15.4845C80.5826 15.1865 80.4147 14.8184 80.4375 14.4892C80.4604 14.16 80.4443 13.8132 80.4438 13.4747C80.4438 13.1195 80.4568 12.7633 80.436 12.4092C80.4167 12.0811 80.5228 11.7332 80.3216 11.4212C80.265 11.5393 80.2338 11.6679 80.2301 11.7987C80.1954 12.7794 80.1623 13.76 80.1307 14.7404C80.1235 14.9926 80.124 15.2432 79.9295 15.4382C79.6669 15.4559 79.4137 15.4637 79.1625 15.4902C78.5717 15.5501 78.001 15.7374 77.4897 16.0393C77.2198 16.2016 77.043 16.5458 77.108 16.7455C77.2276 17.1142 78.0071 17.5406 78.4418 17.4735C78.1163 17.2774 77.7138 17.1989 77.4018 16.7933C77.9821 16.9415 78.4823 17.032 78.9566 17.1979C80.3117 17.6706 81.7126 17.8645 83.1353 17.9332L83.8316 17.969ZM79.3471 14.4949C79.0668 14.4949 78.7845 14.4778 78.5052 14.498C77.2921 14.5854 76.0758 14.6462 74.8683 14.7851C71.8003 15.1392 68.7323 15.5287 65.6643 15.9078C65.4959 15.9286 65.3102 15.941 65.1735 16.1251C65.2556 16.1527 65.3019 16.1849 65.3435 16.1771C66.4667 16.044 67.5915 15.9171 68.7121 15.7679C71.4244 15.4008 74.1466 15.1356 76.8761 14.9536C77.4153 14.9177 77.9571 14.9192 78.4959 14.8792C78.8058 14.8589 79.1391 14.8756 79.3471 14.4949V14.4949ZM86.8959 9.7676L86.9251 9.66672C86.8398 9.62564 86.7587 9.56272 86.6687 9.5466C85.4628 9.297 84.2574 9.03856 83.0458 8.8186C82.7094 8.75672 82.3522 8.80924 81.9778 8.80924C81.997 9.32612 81.8015 9.63292 81.3205 9.72808C81.255 9.74108 81.2087 9.8534 81.1172 9.9626C81.2565 9.99952 81.3335 10.0401 81.4084 10.0364C83.2377 9.94943 85.0669 9.85981 86.8959 9.7676ZM26.3191 17.5484C26.3191 17.4964 26.3232 17.4444 26.3248 17.3924C26.0757 17.1844 25.7356 17.2234 25.4475 17.1204C24.9275 16.9358 24.5443 17.1594 24.1527 17.4584C23.8699 17.6666 23.5696 17.85 23.2552 18.0065C22.9869 18.1453 22.6889 18.2264 22.4144 18.3559C21.6827 18.7017 20.9501 19.0465 20.233 19.4209C19.9971 19.5523 19.7868 19.7251 19.6121 19.931C19.3791 20.1952 19.4171 20.3902 19.739 20.6928C19.583 20.1946 19.8393 19.997 20.2028 19.8551C21.2234 19.4557 22.2416 19.0501 23.2573 18.6383C23.5693 18.5124 23.9208 18.4199 24.1631 18.2077C24.6452 17.787 25.1969 17.6685 25.798 17.6357C25.9731 17.6158 26.147 17.5866 26.3191 17.5484ZM71.4987 22.9428L71.649 23.0302C71.9496 22.792 72.273 22.5799 72.545 22.311C73.4883 21.3683 74.4232 20.4162 75.3379 19.4453C75.6593 19.1037 75.9172 18.7007 76.1943 18.3185C76.2718 18.2114 76.3769 18.0684 76.3597 17.9592C76.3077 17.6186 76.5157 17.3872 76.6431 17.1214C76.7408 16.9181 76.8511 16.7138 76.6691 16.4709C76.5204 16.7226 76.393 16.9769 76.2302 17.2067C74.8434 19.163 73.4529 21.1171 71.597 22.6771C71.5341 22.7317 71.5299 22.8539 71.4987 22.9428ZM38.7621 28.5765L38.8292 28.497C38.5302 28.393 38.2364 28.2692 37.9312 28.1886C35.729 27.6062 33.5325 26.9999 31.3178 26.4684C30.0001 26.1523 28.775 25.6884 27.6955 24.8564C27.214 24.4862 26.7132 24.1404 26.213 23.7946C26.0851 23.7062 25.9681 23.5585 25.7091 23.611C25.8063 23.7254 25.8625 23.8216 25.9447 23.882C26.5167 24.3021 27.1011 24.7041 27.6664 25.13C28.6639 25.8905 29.8207 26.4151 31.05 26.6645C31.6943 26.7976 32.3318 26.9624 32.9704 27.1216C34.9017 27.6055 36.8322 28.0905 38.7621 28.5765ZM45.0588 14.4034L45.0526 14.5178C45.1082 14.537 45.167 14.5802 45.2195 14.5734C50.6109 13.8701 56.0015 13.1641 61.3915 12.4555L61.3821 12.3484C61.2682 12.3413 61.1539 12.3413 61.04 12.3484C55.7141 13.0327 50.3871 13.7177 45.0588 14.4034ZM72.6266 21.1374C73.001 20.8857 73.1737 20.4921 73.4399 20.1842C73.7061 19.8764 73.9646 19.5649 74.21 19.242C74.4555 18.9191 74.7992 18.6523 74.9588 18.1744C74.2386 18.3029 73.5793 18.4251 72.9178 18.5348C72.7031 18.5707 72.6323 18.7121 72.6303 18.8894C72.6219 19.6237 72.6266 20.3579 72.6266 21.1374V21.1374ZM52.7018 1.91508C52.7876 1.87868 52.8729 1.83968 52.9618 1.80588C53.5463 1.5802 54.2951 1.96968 54.4407 2.5786C54.5499 3.03776 54.6487 3.49952 54.7527 3.95972C55.0137 5.09436 55.2753 6.22883 55.5373 7.36312C55.5821 7.55604 55.6174 7.7526 55.8941 7.906C55.7833 7.01784 55.5665 6.22432 55.386 5.4256C55.2077 4.63572 54.9997 3.85208 54.8078 3.06532C54.6159 2.27856 54.6107 1.445 54.2878 0.621318C53.6347 0.963478 53.1032 1.3462 52.7018 1.91508ZM58.1207 9.68596C58.1353 9.72236 58.1493 9.75824 58.1633 9.79464C58.2673 9.75712 58.3692 9.71407 58.4686 9.66568C59.4134 9.14568 60.3557 8.61632 61.3015 8.0958C61.5667 7.94968 61.8319 7.79472 62.1143 7.68812C63.1023 7.3132 63.3249 7.58412 63.4783 8.27728C63.5303 8.517 63.6738 8.61372 63.9593 8.543C64.0575 7.867 64.1153 7.20192 63.7341 6.49004L58.1207 9.68596ZM54.3465 9.63396C54.3211 9.77176 54.2945 9.83572 54.3013 9.89396C54.3273 10.1113 54.3627 10.3276 54.3991 10.544C54.515 11.2309 54.3881 11.4103 53.6872 11.5377C53.5213 11.5678 53.3549 11.5954 53.1875 11.6152C51.9655 11.7597 50.7435 11.8991 49.5215 12.0468C49.2469 12.08 48.976 12.1383 48.703 12.1851C51.3066 11.9771 53.8957 11.69 56.4843 11.3988C56.5363 11.3926 56.5883 11.3245 56.6777 11.2522C56.5524 11.2002 56.4697 11.1435 56.3829 11.1362C56.1988 11.1206 56.0121 11.1295 55.8265 11.13C55.3673 11.13 55.282 11.1414 55.1416 10.6537C55.0854 10.4385 54.9859 10.2371 54.8492 10.0616C54.7125 9.88622 54.5415 9.74052 54.3465 9.63344V9.63396ZM13.9015 16.4127L13.89 16.3154C13.4028 16.2822 12.9161 16.2328 12.4283 16.2172C10.0108 16.1402 7.5923 16.0783 5.17586 15.9962C4.29966 15.9665 3.41566 15.9774 2.56286 15.7143C2.5405 15.7076 2.50566 15.7398 2.43026 15.7762C2.53946 15.8516 2.61954 15.9416 2.7173 15.967C2.96112 16.0358 3.21072 16.0821 3.46298 16.1054C4.55914 16.1828 5.65634 16.278 6.75458 16.3061C8.96926 16.3622 11.1855 16.3794 13.4012 16.4127C13.5681 16.4148 13.7345 16.4127 13.9015 16.4127ZM92.6544 16.264C92.6544 16.2317 92.6544 16.199 92.6544 16.1667C92.5356 16.145 92.4153 16.1321 92.2946 16.1282C89.7487 16.2263 87.2031 16.3274 84.6578 16.4314C84.4977 16.4382 84.2642 16.394 84.271 16.6358C84.2777 16.8776 84.5112 16.8068 84.6672 16.8068C84.8232 16.8068 84.9704 16.7876 85.1217 16.7777C85.8793 16.7257 86.6365 16.6737 87.3936 16.628C89.06 16.524 90.7268 16.42 92.3939 16.316C92.4818 16.3042 92.5688 16.2869 92.6544 16.264V16.264ZM68.6985 17.6721C68.8681 17.735 68.9585 17.8021 69.0438 17.7954C71.3583 17.6113 73.6952 17.7101 75.9915 17.2369C75.7954 17.166 75.5875 17.133 75.379 17.1396C72.2481 17.1989 69.1863 17.4256 68.6985 17.6721V17.6721ZM32.2959 27.588C32.3027 27.5558 32.3095 27.5235 32.3157 27.4913C32.1791 27.4444 32.0403 27.4045 31.8997 27.3717C31.3194 27.2651 30.7401 27.1444 30.1551 27.069C28.9997 26.9198 27.9279 26.5589 26.9389 25.9349C26.512 25.6656 26.0429 25.4669 25.6041 25.2137C25.0206 24.8788 24.4481 24.5236 23.8693 24.1804C23.7804 24.1284 23.6821 24.09 23.5885 24.0452C23.5922 24.0984 23.6075 24.1501 23.6332 24.1968C23.6588 24.2435 23.6944 24.284 23.7373 24.3156C24.1247 24.585 24.5037 24.8694 24.9104 25.1066C25.7263 25.5813 26.564 26.0192 27.3809 26.4918C28.0199 26.8727 28.726 27.1274 29.4609 27.2422C29.9611 27.316 30.4614 27.3982 30.9632 27.457C31.4057 27.5116 31.8513 27.5454 32.2959 27.588ZM68.7095 16.0742L68.7037 15.9946C68.5753 16.0518 68.4271 16.0856 68.3231 16.1719C68.1827 16.2889 68.0803 16.4496 67.9549 16.5879C67.5629 17.0143 67.3179 17.5894 66.695 17.7839C66.526 17.8359 66.539 18.0288 66.7033 18.1391C66.9399 18.2977 67.2035 18.422 67.4214 18.6019C67.9799 19.0631 68.5072 19.5618 69.0719 20.0147C69.3147 20.2087 69.6044 20.3917 69.9003 20.4614C70.2882 20.5524 70.7037 20.5316 71.1082 20.5456C71.1873 20.5482 71.2689 20.4895 71.3495 20.4588C71.0406 20.351 70.7186 20.2849 70.3922 20.2622C69.881 20.2196 69.4687 20.0126 69.1005 19.6481C68.6949 19.2462 68.2409 18.8931 67.8036 18.5234C67.5795 18.3341 67.346 18.1552 67.1349 17.9862L68.7095 16.0742ZM27.6492 18.294L27.6196 18.4157C27.7537 18.4558 27.8853 18.514 28.0221 18.5327C28.8095 18.6413 29.5719 18.8862 30.2752 19.2566C31.6912 20.0017 33.2174 20.3423 34.7919 20.4661C36.3405 20.5878 37.8943 20.6439 39.4459 20.7261C39.6961 20.7391 39.9477 20.7261 40.1984 20.7261C39.9826 20.6153 39.7678 20.593 39.552 20.5794C37.8833 20.4754 36.2121 20.4026 34.547 20.2602C33.0759 20.1343 31.6553 19.7838 30.3288 19.0954C29.9069 18.8829 29.4659 18.7107 29.0116 18.5811C28.5696 18.4495 28.1047 18.3871 27.6492 18.294ZM51.5827 28.8599C51.5666 28.823 51.551 28.7861 51.5354 28.7492C51.3888 28.822 51.2432 28.8974 51.095 28.9665C50.471 29.2567 49.8387 29.4231 49.1351 29.2858C48.5574 29.173 47.9661 29.1199 47.3785 29.069C46.2865 28.9738 45.1945 28.8708 44.0958 28.824C43.035 28.7788 41.9711 28.798 40.9087 28.7954C40.8297 28.7954 40.7527 28.8474 40.5905 28.8994C41.1209 28.8994 41.5556 28.8797 41.9877 28.9026C44.4489 29.0331 46.9131 29.1371 49.3509 29.5297C50.2271 29.6711 50.914 29.317 51.5827 28.8599ZM87.7576 9.78008L87.7399 9.9054C87.81 9.93315 87.8828 9.9532 87.9573 9.9652C89.5932 10.0505 91.2296 10.0895 92.8645 9.9652C94.1931 9.8612 95.5201 9.70832 96.8529 9.90436C96.8727 9.90436 96.8971 9.87524 96.9475 9.83988C96.7161 9.64956 96.4457 9.61628 96.1857 9.61368C95.4281 9.6064 94.6647 9.56844 93.9138 9.64436C92.0488 9.82437 90.1732 9.87042 88.3015 9.78216C88.1205 9.77332 87.9391 9.78008 87.7576 9.78008V9.78008ZM61.4456 15.8932L61.3468 15.7741C57.6825 18.1332 54.0182 20.4926 50.354 22.8524C50.2856 22.9 50.2204 22.9521 50.159 23.0084C50.1533 23.0133 50.149 23.0195 50.1462 23.0265C50.1435 23.0334 50.1425 23.041 50.1434 23.0484C50.1491 23.0619 50.1678 23.0702 50.212 23.1056L61.4456 15.8932ZM55.6335 10.2314L55.7022 10.2117C55.7113 10.1366 55.7113 10.0606 55.7022 9.98548C55.503 9.20548 55.073 8.5872 54.3174 8.27936C53.6482 8.00636 52.9607 7.74948 52.2577 7.59192C49.9531 7.07452 47.6063 6.96792 45.2528 6.97468C45.2091 6.97468 45.1659 7.00276 45.0567 7.03968C45.9605 7.08336 46.7863 7.11092 47.6105 7.16604C48.4347 7.22116 49.2615 7.29136 50.0846 7.37872C51.2789 7.50342 52.4537 7.77249 53.5832 8.18004C54.5093 8.51492 55.1905 9.09212 55.5379 10.0312C55.566 10.0997 55.5979 10.1665 55.6335 10.2314V10.2314ZM46.4857 18.6788C46.0011 17.967 45.4457 17.3846 44.8966 16.8022C44.8165 16.7174 44.6927 16.6742 44.5887 16.6124L44.4847 16.6919C44.6205 17.019 44.7827 17.3383 44.8851 17.6758C44.9959 18.0434 45.0515 18.4277 45.1363 18.8296C45.5793 18.877 46.0005 18.8624 46.4857 18.6788ZM89.3893 12.6858C90.433 12.6463 94.6652 11.313 95.2726 10.8341C95.1026 10.8679 94.9923 10.8814 94.8873 10.9116C93.2188 11.3917 91.5506 11.8733 89.8828 12.3562C89.7689 12.3871 89.658 12.4284 89.5516 12.4794C89.5032 12.5023 89.4762 12.5699 89.3893 12.6843V12.6858ZM4.53522 21.5867C4.50402 21.6865 4.48062 21.7208 4.48738 21.7474C4.50132 21.7956 4.52425 21.8408 4.55498 21.8805C4.86386 22.2923 5.26946 22.5695 5.78426 22.6048C7.31826 22.7088 8.85226 22.79 10.3889 22.8773C10.4102 22.8773 10.4336 22.8472 10.5568 22.7582C10.0514 22.6828 9.6463 22.6246 9.2329 22.6022C8.1695 22.5388 7.10662 22.4665 6.04374 22.3942C5.53518 22.3594 5.08902 22.1862 4.75102 21.7853C4.68322 21.7147 4.61115 21.6484 4.53522 21.5867V21.5867ZM52.6165 21.8378C52.6425 21.9112 52.6441 21.9554 52.6643 21.9668C52.7819 22.0308 52.9035 22.088 53.0247 22.1462C53.8603 22.5523 54.7059 22.9683 55.3413 23.6542C55.8826 24.2382 56.4978 24.493 57.27 24.4425C57.4717 24.4295 57.6751 24.4389 57.8768 24.4259C57.9569 24.4121 58.0352 24.3896 58.1103 24.3588L58.1009 24.2486C57.8883 24.2392 57.6761 24.2283 57.4639 24.22C56.7021 24.1914 56.0511 23.9875 55.4729 23.4093C54.7449 22.6813 53.8021 22.2252 52.8422 21.841C52.7819 21.8165 52.7028 21.8378 52.617 21.8378H52.6165ZM41.6336 7.73336L41.6986 7.86128C42.2186 7.64392 42.7511 7.52016 43.3106 7.5394C43.7141 7.55344 43.8826 7.6954 43.9933 8.08384C44.0446 8.2454 44.0537 8.41738 44.0198 8.58346C43.986 8.74954 43.9103 8.90422 43.7999 9.03284C43.4057 9.52216 42.853 9.66932 42.2077 9.47536C42.0371 9.42336 41.8816 9.26164 41.5883 9.36772C41.7787 9.48576 41.8962 9.57572 42.0277 9.63604C42.7765 9.97404 43.5877 9.76084 44.0474 9.10252C44.3594 8.65688 44.3542 8.18888 44.0994 7.71932C43.8644 7.28564 43.4572 7.26224 43.0428 7.31632C42.7092 7.36379 42.3792 7.43327 42.0548 7.52432C41.9061 7.56488 41.7735 7.66212 41.6336 7.73336ZM59.1649 24.2772C59.1649 24.3255 59.1612 24.3734 59.1591 24.4217L68.1354 23.9158L68.1302 23.8175C65.1345 23.8341 62.1512 24.0993 59.1649 24.2772V24.2772ZM6.8877 20.2908C5.8997 20.3626 4.97462 20.2721 4.32462 21.1546C4.72658 21.3792 5.06562 21.6096 5.48942 21.7208C5.47174 20.9679 5.62098 20.775 6.32662 20.5727C6.43998 20.5399 6.55646 20.515 6.66618 20.4723C6.71922 20.45 6.75978 20.3948 6.8877 20.2908ZM88.5381 13.0368C88.524 13.0056 88.51 12.9739 88.4965 12.9422C88.367 12.9677 88.2365 12.9895 88.1081 13.0192C87.0556 13.262 86.0213 13.5735 84.9361 13.691C83.7775 13.8163 82.6262 14.0077 81.4728 14.1756C81.3688 14.1907 81.2727 14.2448 81.1733 14.2796C81.2011 14.3096 81.2357 14.3325 81.2741 14.3462C81.3126 14.36 81.3539 14.3643 81.3943 14.3587C82.6673 14.1918 83.9392 14.0139 85.2132 13.8584C86.3598 13.7191 87.4497 13.3826 88.5381 13.0353V13.0368ZM93.1755 15.8204L93.2519 15.9104C93.5119 15.6727 93.7761 15.4424 94.0215 15.1959C94.5488 14.6603 95.2003 14.4242 95.932 14.3862C96.4884 14.3576 97.0458 14.3561 97.6027 14.3342C97.831 14.3254 98.0582 14.2942 98.3401 14.2677C98.2569 14.1964 98.2361 14.1637 98.2132 14.1637C97.3693 14.1704 96.5243 14.159 95.6813 14.1938C94.5275 14.2365 93.7724 14.9161 93.1755 15.8188V15.8204ZM98.6089 17.0882L98.6152 16.981C97.518 16.669 93.9352 16.3924 93.3632 16.6212L98.6089 17.0882ZM97.8232 19.1869C97.0391 19.436 96.3256 19.2014 95.6392 18.8603C95.0828 18.5832 94.5472 18.2654 94.0023 17.9654C93.8634 17.8884 93.7267 17.8094 93.5863 17.7298L93.5161 17.8172C93.5998 17.8988 93.6721 18.0018 93.7693 18.0585C94.4245 18.4355 95.0755 18.8224 95.7489 19.1645C96.0739 19.3294 96.439 19.4328 96.7973 19.5134C97.1665 19.5956 97.5268 19.5363 97.8232 19.1869ZM20.8689 20.0662C20.883 20.1057 20.8965 20.1447 20.91 20.1842C21.2381 20.0714 21.5709 19.9684 21.8944 19.8431C22.4903 19.6117 23.1112 19.4224 23.665 19.1151C24.3498 18.735 24.9957 18.2868 25.759 18.047C25.5949 18.0305 25.4293 18.0513 25.2744 18.1079C24.8735 18.279 24.4523 18.4287 24.0929 18.6679C23.5158 19.0468 22.891 19.3477 22.235 19.5628C21.7753 19.7188 21.3239 19.8982 20.8689 20.0662ZM87.1169 13.9942L86.9698 13.9583C86.7321 14.6306 86.494 15.303 86.2532 15.9863C86.7108 15.991 86.8871 15.9275 86.9225 15.6852C87.0072 15.122 87.0551 14.5573 87.118 13.9942H87.1169ZM20.3323 21.5102L20.2501 21.4582C20.1903 21.5076 20.0905 21.5482 20.078 21.6075C19.9901 22.0313 19.8529 22.4608 19.8617 22.8856C19.8716 23.3677 20.4425 23.7894 21.0197 23.7925C20.8414 23.6365 20.7129 23.5107 20.5699 23.403C20.2059 23.1306 20.0785 22.779 20.1737 22.336C20.2325 22.0588 20.2798 21.7848 20.3323 21.5102ZM23.2537 24.0062L23.3353 23.9282C23.1273 23.5819 22.9437 23.2216 22.7113 22.894C22.4991 22.595 22.2397 22.3298 21.9947 22.0552C21.9053 21.9554 21.781 21.8841 21.702 21.778C21.3702 21.3329 20.9022 21.1166 20.3895 20.9741C20.3151 20.9533 20.2299 20.971 20.1498 20.971C20.3645 21.1079 20.595 21.2184 20.8362 21.3002C21.235 21.4499 21.4487 21.8202 21.7602 22.0687C22.1679 22.3948 22.4627 22.7848 22.7071 23.2372C22.8548 23.5148 23.0691 23.753 23.2552 24.0083L23.2537 24.0062ZM63.056 8.92624C63.1564 9.31052 62.939 9.37448 62.652 9.43376C61.8096 9.60796 60.9724 9.8066 60.1347 10.0021C59.9833 10.0446 59.8342 10.0948 59.688 10.1524C59.7863 10.232 59.8658 10.246 59.9386 10.2299C60.911 10.0177 61.8839 9.8066 62.8537 9.58404C63.2729 9.492 63.3051 9.3932 63.056 8.9304V8.92624ZM53.5546 3.28008L53.4079 3.34196C53.6903 4.38077 54.0416 5.39963 54.4594 6.39176L54.5582 6.359C54.2233 5.33252 53.8888 4.30621 53.5546 3.28008ZM69.2024 23.7L69.2336 23.831C70.0032 23.8497 70.661 23.505 71.3245 23.195C71.2918 22.896 71.1488 22.973 71.0006 23.0359C70.5846 23.2117 70.1686 23.3895 69.7526 23.5523C69.5747 23.6188 69.3855 23.6516 69.2024 23.7V23.7ZM8.4477 21.0064C8.94004 21.3472 9.49008 21.5959 10.0711 21.7406C9.58702 21.4702 9.08314 21.2372 8.5829 21.009C8.53841 20.9994 8.49251 20.9985 8.4477 21.0064V21.0064ZM46.546 18.2145L46.6391 18.1474C46.5309 17.9914 46.4373 17.8193 46.3099 17.6794C46.1924 17.5515 46.1165 17.3284 45.7728 17.3882L46.546 18.2145ZM81.0116 11.7171L80.9669 11.7249V13.535H81.0116V11.7171ZM64.4278 13.2474C64.46 13.6718 64.4122 14.0649 64.0061 14.3322C64.5807 14.0467 64.6207 13.9468 64.4278 13.2474V13.2474ZM72.5731 15.9722L72.4425 15.9296C72.2585 16.2208 72.2746 16.5536 72.3495 16.8999C72.424 16.5903 72.4985 16.282 72.5731 15.9748V15.9722ZM21.7472 22.6064C21.5949 22.103 21.3993 22.0167 21.0639 22.2585L21.7472 22.6064ZM18.6626 16.8588C18.1977 16.8557 17.7469 16.6997 17.3158 16.9296L18.6626 16.8588ZM41.7833 9.02556L41.7573 9.1254L42.3959 9.29336L42.4193 9.20548L41.7833 9.02556ZM42.0085 8.04952L41.9414 7.99076L41.6461 8.31368L41.7209 8.38232C41.8192 8.27104 41.9128 8.16028 42.0085 8.04952Z" fill="url(#paint0_radial_774_96487)"/>
<defs>
<radialGradient id="paint0_radial_774_96487" cx="0" cy="0" r="1" gradientUnits="userSpaceOnUse" gradientTransform="translate(99.6073 24.1613) rotate(-162.817) scale(89.28 190.332)">
<stop stop-color="#8F8AD2"/>
<stop offset="1" stop-color="#4267B2"/>
</radialGradient>
</defs>
</svg>
