<svg width="102" height="33" viewBox="0 0 102 33" fill="none" xmlns="http://www.w3.org/2000/svg">
<path d="M58.4194 19.2929L58.7413 19.0631L58.7288 18.9851C57.5666 19.0891 56.4055 19.2201 55.2412 19.2898C54.0925 19.3584 52.9319 19.2612 51.7957 19.491L51.7894 19.6127C51.9501 19.6429 52.1103 19.6845 52.2725 19.7022C53.7862 19.8675 55.302 20.0168 56.8142 20.1936C60.396 20.6127 63.9768 21.0393 67.5569 21.4733C70.6971 21.857 73.8343 22.2658 76.9736 22.6578C80.418 23.0884 83.8629 23.516 87.308 23.9407C90.158 24.2974 93.0074 24.6576 95.8563 25.0212C96.2297 25.0686 96.6228 25.2095 96.9696 25.1362C97.3165 25.0629 97.5988 24.7561 97.9259 24.5813C98.4677 24.2917 99.0148 24.0093 99.5748 23.7545C100.1 23.5164 100.674 23.5143 101.239 23.508C101.447 23.508 101.565 23.612 101.546 23.8273C101.506 24.286 101.48 24.7483 101.4 25.2007C101.348 25.4945 101.151 25.7207 100.869 25.8559C100.245 26.1554 99.6008 26.3415 98.8994 26.3587C98.4943 26.3686 98.0918 26.4809 97.6888 26.549C96.3555 26.7747 95.017 26.9728 93.6624 26.9681C93.0295 26.9683 92.3978 26.9135 91.7743 26.8043C90.6303 26.5989 89.4707 26.5688 88.3184 26.4632C85.6972 26.223 83.0761 25.9813 80.4549 25.7383C77.766 25.4856 75.0782 25.2183 72.3892 24.9682C70.3295 24.7748 68.2688 24.5959 66.209 24.4056C63.2641 24.1341 60.3195 23.8599 57.3753 23.5829C55.0098 23.3609 52.6433 23.1326 50.2793 22.9111C50.1005 22.8939 49.9185 22.9111 49.6319 22.9111L53.3526 27.0867C53.5179 27.0123 53.6718 26.9473 53.8206 26.874C54.4815 26.5397 55.2235 26.3991 55.9609 26.4684C56.8641 26.5558 57.7596 26.679 58.629 26.9666C59.5224 27.2625 60.4329 27.5079 61.3262 27.8033C61.593 27.8917 61.8722 28.0305 62.0672 28.2245C62.3922 28.5489 62.2924 28.9337 61.8655 29.1085C60.6617 29.5988 59.4589 30.0965 58.1922 30.4053C57.9894 30.4573 57.8376 30.5093 57.8053 30.7376C57.6119 32.1203 55.8953 32.7823 54.4799 31.6216C54.0613 31.2779 53.9953 31.1256 53.8824 30.5489C53.4592 30.4022 53.066 30.1802 52.8008 29.7689C52.4587 29.2426 52.3505 28.7055 52.6386 28.1205C52.7358 27.9229 52.8185 27.718 52.9116 27.5084C52.4394 27.0103 51.986 26.5204 51.5206 26.0441C50.5159 25.0129 49.5014 23.9911 48.4989 22.9579C48.3491 22.7971 48.1418 22.7022 47.9222 22.6937C46.2363 22.546 44.5526 22.3744 42.8678 22.2138C42.0171 22.1326 41.1658 22.0559 40.3141 21.9834C40.2017 21.974 40.0582 21.9699 39.9776 22.0292C39.5944 22.311 39.2283 22.6152 38.7925 22.9652C39.2397 23.1357 39.6157 23.2772 39.9885 23.4222C40.2116 23.5086 40.4409 23.5834 40.6547 23.69C40.9495 23.8377 41.002 24.0665 40.7842 24.3062C40.6637 24.4254 40.5177 24.5156 40.3572 24.5699C39.3963 24.9292 38.4306 25.2771 37.4665 25.6281C37.3886 25.6639 37.3063 25.6891 37.2216 25.703C36.7209 25.7373 36.3896 26.0108 36.1541 26.444C36.1905 26.4705 36.2274 26.5007 36.2674 26.5256C36.8238 26.8699 36.8394 27.367 36.2955 27.7263C36.1083 27.8474 35.9093 27.9493 35.7017 28.0305C34.7327 28.4177 33.7621 28.7991 32.7897 29.1745C32.5817 29.2546 32.4283 29.3305 32.3066 29.5635C32.1409 29.8627 31.9059 30.1179 31.6212 30.3076C30.784 30.8749 29.9661 30.6716 29.2136 29.9436C28.99 29.7273 28.7799 29.538 28.4976 29.3991C27.8684 29.0903 27.5127 28.1423 27.6802 27.3415C27.7617 26.9164 27.9931 26.5346 28.3322 26.2656C28.9042 25.8096 29.5438 25.4747 30.2952 25.482C30.6015 25.4851 30.7773 25.3676 30.9052 25.1242C31.0258 24.8954 31.2942 24.7363 31.2578 24.3962L29.3956 25.3109C29.053 24.5767 28.7295 23.884 28.4076 23.1914C27.9651 22.246 27.5184 21.3022 27.0827 20.3537C26.9774 20.1203 26.8058 19.923 26.5892 19.7864C25.7239 19.217 24.9616 18.5384 24.3886 17.6123C24.2736 17.6726 24.152 17.7236 24.0433 17.7938C22.2891 18.9277 20.5348 20.0617 18.7804 21.1956C18.5947 21.3171 18.3965 21.4182 18.1891 21.4972C17.6514 21.6953 17.4055 21.5768 17.1372 21.0245C17.2305 21.0926 17.3199 21.1658 17.405 21.244C17.613 21.4582 17.8527 21.4754 18.1111 21.3563C18.2033 21.3113 18.2925 21.2606 18.3784 21.2044C20.2615 20.015 22.1439 18.8251 24.0256 17.6346C24.1242 17.5642 24.2188 17.4884 24.309 17.4074C24.2081 17.06 23.893 17.0605 23.6574 16.9607C23.4219 16.8609 23.1952 16.7267 22.8858 16.7527L23.4697 17.4609C21.749 18.5207 20.0897 19.5472 18.4257 20.5643C18.0634 20.7974 17.6289 20.8914 17.2027 20.829L17.1543 21.037C17.1009 20.9979 17.0527 20.9521 17.0108 20.9008C16.5584 20.1644 16.5043 20.1629 17.2484 19.7568C18.9754 18.8145 20.6804 17.8286 22.3912 16.8593C22.5051 16.7948 22.6117 16.7173 22.762 16.6196C22.1749 16.1797 21.358 15.9737 21.4745 15.0076C20.8214 14.7762 20.1812 14.5463 19.5396 14.3212L5.49955 9.39832C3.9347 8.8492 2.37002 8.29939 0.805512 7.74888C0.757152 7.73172 0.711912 7.70624 0.664072 7.68752C-0.0254477 7.41712 -0.152848 6.81235 0.360912 6.27987C0.497463 6.13641 0.662404 6.02297 0.845224 5.94678C1.02804 5.87059 1.22473 5.83332 1.42275 5.83735C2.06443 5.84359 2.63435 5.65275 3.18087 5.34959C3.92836 4.93031 4.7648 4.69469 5.62123 4.66215C5.88695 4.65227 6.15423 4.69387 6.45323 4.71415C6.45323 4.92839 6.45011 5.07815 6.45323 5.22687C6.47923 6.22787 6.83959 7.06092 7.69135 7.63292C7.86179 7.74529 8.04836 7.83103 8.24463 7.8872C13.6485 9.45622 19.053 11.0218 24.4582 12.5839C24.5238 12.6026 24.5919 12.614 24.6584 12.6286C25.0282 12.7097 25.1264 12.6624 25.1998 12.3041C25.3038 11.8033 25.3937 11.2989 25.4852 10.7961C25.7811 9.1664 26.0801 7.53724 26.3661 5.90807C26.4753 5.28407 26.5492 4.66007 26.6443 4.03607C26.6701 3.91678 26.7028 3.79906 26.7421 3.68351C27.3603 3.78751 27.9469 3.88319 28.5314 3.98823C28.782 4.03295 28.7914 4.19623 28.7358 4.41099C28.5579 5.08699 28.3983 5.76819 28.2288 6.44627C27.7888 8.20215 27.3486 9.95785 26.9079 11.7134C26.884 11.8085 26.8721 11.9068 26.8487 12.0384C26.9217 12.0442 26.9951 12.0442 27.0681 12.0384C29.1034 11.6458 31.1662 11.4955 33.2285 11.341C34.762 11.2266 36.2966 11.1128 37.8269 10.9656C38.2242 10.9271 38.6095 10.7633 39.0005 10.6572C39.1045 10.6952 39.2049 10.7612 39.3094 10.7664C40.8746 10.8346 42.3421 11.2563 43.7222 11.9848C44.8422 12.5755 45.9581 13.1808 47.0694 13.7835C47.9705 14.2723 48.9507 14.5042 49.9486 14.6789C51.2372 14.9051 52.5424 14.8921 53.8429 14.9135C54.3565 14.923 54.8695 14.8759 55.3728 14.7731C56.4804 14.5432 57.3363 13.9738 57.6738 12.8215C57.9083 12.0233 57.9972 11.2095 57.8625 10.3827C57.7731 9.832 57.6592 9.28548 57.5505 8.69892C57.6639 8.70695 57.7767 8.72118 57.8885 8.74156C60.1458 9.30628 62.3959 9.90533 64.6922 10.2984C66.2272 10.5616 67.7524 10.8959 69.3202 10.8954C70.1413 10.8954 70.9665 10.8866 71.7834 10.9552C73.2555 11.079 74.5795 10.5626 75.919 10.0904C75.9606 10.0759 75.9913 10.0301 76.0266 9.99893C75.4817 10.0691 74.9388 10.1643 74.4443 10.3738C74.1052 10.5174 73.7683 10.6266 73.4147 10.6484C72.4407 10.7077 71.4621 10.8018 70.4907 10.7602C68.183 10.6619 65.8877 10.4388 63.6387 9.858C62.646 9.60164 61.632 9.42797 60.6279 9.21736C58.6857 8.80968 56.7669 8.32764 54.9224 7.57572C54.4625 7.39209 53.9861 7.25279 53.4997 7.15972C51.7556 6.81548 49.9965 6.77543 48.23 6.95952C45.7262 7.21952 43.3602 7.89136 41.2272 9.27144C40.6666 9.63544 40.1014 9.98957 39.5387 10.3484C39.6495 10.2267 39.7467 10.0847 39.8736 9.98437C42.1928 8.20336 44.8105 7.14516 47.7074 6.78063C49.4734 6.55979 51.2606 6.56836 53.0244 6.80612C53.924 6.92572 54.7482 7.2034 55.5683 7.53412C57.1283 8.16436 58.7335 8.62612 60.372 8.98336C61.8754 9.31304 63.3714 9.68172 64.8841 9.9594C66.1082 10.184 67.3484 10.3369 68.588 10.4518C70.0503 10.587 71.3134 10.1289 72.3071 9.00572C72.5629 8.71712 72.8557 8.4618 73.1318 8.19088C73.123 8.2382 73.1318 8.30008 73.1021 8.33128C72.3221 9.22204 71.5593 10.1372 70.3461 10.4716C70.3243 10.4778 70.3113 10.5158 70.2463 10.6052C70.5583 10.6052 70.8282 10.6432 71.0846 10.5985C72.2218 10.3993 73.241 9.95472 74.0829 9.13416C74.8629 8.37184 75.4598 7.47692 75.9959 6.53415C76.3859 5.84983 76.7359 5.13795 77.1764 4.48743C78.5757 2.42042 80.4711 1.16514 83.0456 1.01538C82.9728 0.819337 82.8106 0.715339 82.5968 0.695578C81.9318 0.635258 81.2662 0.578577 80.6 0.531777C79.976 0.487577 79.4264 0.692457 78.9267 1.06738C78.3547 1.49586 77.8955 2.02366 77.5055 2.61074C76.271 4.47027 74.8592 6.19304 73.4412 7.91112C73.3486 8.02344 73.2238 8.10872 73.1136 8.20648C73.1833 8.0744 73.2342 7.92776 73.3252 7.81232C74.761 5.98139 76.2372 4.18063 77.5471 2.25402C77.9274 1.70305 78.4062 1.22707 78.9594 0.850017C79.4372 0.508302 80.0193 0.343904 80.6052 0.385136C81.3031 0.431936 81.9999 0.501096 82.6951 0.582736C83.2557 0.648256 83.472 0.99874 83.3113 1.55722C82.7965 3.34915 82.2781 5.13968 81.756 6.92884C81.2246 8.75058 80.6903 10.5714 80.1534 12.3915C80.1408 12.4601 80.1333 12.5297 80.131 12.5995L82.731 13.108C83.6212 13.2813 84.5113 13.4562 85.4012 13.6327C86.2743 13.8033 87.1468 13.9754 88.0204 14.1428C88.8789 14.3071 89.7421 14.4501 90.6849 14.6691C90.5372 14.7918 90.493 14.8578 90.4369 14.8703C89.6569 15.0461 88.8727 15.2197 88.0875 15.3794C87.9783 15.4012 87.8535 15.3482 87.7365 15.3274C85.1989 14.8445 82.6613 14.3616 80.1237 13.8787C80.0259 13.8667 79.9274 13.8605 79.8289 13.8599C79.6916 14.2869 79.5361 14.7008 79.4295 15.1272C79.3624 15.3955 79.2345 15.5458 78.9672 15.6035C77.7473 15.8682 76.5347 16.1755 75.3064 16.3944C74.4224 16.5504 73.5338 16.4017 72.6628 16.1864C71.8 15.966 70.8962 15.9621 70.0316 16.175C68.8075 16.4683 67.5465 16.604 66.3084 16.8458C63.7318 17.3486 61.2233 18.0772 58.838 19.1952C58.708 19.2565 58.551 19.2591 58.407 19.2893L58.4194 19.2929ZM32.187 23.7207C32.2931 23.5866 32.399 23.4526 32.5047 23.3188C32.6357 23.169 32.7762 23.026 32.8958 22.8674C33.2114 22.4488 33.395 21.9314 33.8286 21.5814C33.6898 21.5965 33.5385 21.6246 33.4802 21.714C33.1391 22.2372 32.8188 22.7743 32.4922 23.3068L32.1974 23.7306L31.8854 24.0379L31.9785 24.1076L32.187 23.7207ZM75.1099 9.64844L75.6221 9.31096L75.5409 9.20332L75.0875 9.62556L74.6398 9.87673L74.7141 9.98073L75.1099 9.64844ZM38.6771 22.3916C38.2751 22.5616 38.2752 22.5616 38.3854 22.8175L38.6677 22.3812L39.1675 22.1212L38.8737 22.0728C38.8997 22.0151 38.9257 21.9574 38.9693 21.8612C38.766 21.8295 38.5871 21.7868 38.4062 21.7759C37.0979 21.6943 35.789 21.6241 34.4812 21.5378C34.1973 21.519 34.0834 21.6282 34.0689 21.9246C34.9825 21.9371 35.8629 22.0125 36.7167 22.2736C37.0417 22.3734 37.3657 22.4743 37.687 22.5856C37.7742 22.6193 37.8688 22.629 37.9609 22.6135C38.0531 22.598 38.1393 22.558 38.2107 22.4977C38.427 22.3365 38.6631 22.2023 38.8903 22.0572L38.6771 22.3916ZM60.1531 12.1757L59.3081 12.6301C59.5528 12.5873 59.7874 12.4991 59.9997 12.3701C60.0658 12.3327 60.097 12.2344 60.1458 12.1663C60.5483 12.1143 60.7178 11.9843 60.892 11.5792C61.1141 11.3421 61.0298 11.0722 60.944 10.8257C60.6435 9.98281 59.4386 9.31408 58.5042 9.49192C58.6877 9.55343 58.8763 9.59833 59.0679 9.62608C60.1983 9.80913 60.8879 10.5423 60.9045 11.588L60.1531 12.1757ZM43.3108 18.3876C43.1314 18.4266 42.9437 18.4438 42.7737 18.5077C42.0223 18.7906 41.2745 19.0839 40.5283 19.3798C39.7259 19.698 38.8913 19.9081 38.0323 19.9091C36.4432 19.9091 34.8536 19.8571 33.2639 19.827C33.1277 19.8244 32.9914 19.827 32.8552 19.827C33.3209 19.9429 33.7981 20.0066 34.2779 20.0168C35.1671 20.0428 36.0573 20.0344 36.9465 20.061C38.3661 20.1031 39.74 19.9216 41.0483 19.3293C41.6546 19.0553 42.2859 18.8353 42.9032 18.5847C43.0394 18.5225 43.1721 18.453 43.3009 18.3767L43.731 18.256L43.6821 18.1484L43.3108 18.3876ZM76.1473 8.62352C76.3828 8.23196 76.6434 7.85288 76.8488 7.44624C77.1951 6.76088 77.5039 6.05627 77.8336 5.36207C78.157 4.659 78.659 4.05298 79.2896 3.60447C79.8855 3.18431 80.4856 2.77246 81.0883 2.35646C81.0483 2.35646 80.9921 2.33982 80.9541 2.35646C79.5663 3.06419 78.2824 3.87799 77.609 5.38599C77.1301 6.45979 76.6049 7.51332 76.101 8.5762L75.6923 9.0442L75.7963 9.12272C75.9121 8.9591 76.0291 8.79304 76.1473 8.62456V8.62352ZM28.2189 14.6238C28.0868 14.6425 27.9542 14.6607 27.8221 14.68C27.6219 14.7091 27.4914 14.811 27.4134 15.1048C27.4828 15.0477 27.5553 14.9946 27.6308 14.9457C27.9298 14.7897 28.0057 14.824 28.1065 15.1386C28.223 15.5026 28.1336 15.8567 28.0239 16.1953C27.9318 16.4787 27.7363 16.4854 27.5325 16.2447C27.4727 16.1734 27.4233 16.0933 27.3198 15.9472C27.4758 16.5619 27.6125 16.67 28.2641 16.5988C29.2677 16.4901 30.2682 16.3455 31.2692 16.2129C31.3133 16.1991 31.3549 16.1784 31.3924 16.1516C31.1491 16.1131 30.9146 16.1516 30.68 16.1516C30.2209 16.1516 29.7523 16.1838 29.3036 16.1069C28.4867 15.9675 28.2116 15.643 28.2158 14.6197L28.7628 14.6555C28.7628 14.6264 28.7628 14.5973 28.7628 14.5682L28.2189 14.6238ZM32.2665 22.4462C32.4553 22.3131 32.6337 22.1607 32.8354 22.0515C33.0715 21.9236 33.2473 21.7686 33.2972 21.4795L30.3009 21.0448C30.4294 21.2528 30.5089 21.3828 30.588 21.5128C30.6759 21.6584 30.7627 21.8045 30.848 21.9501C30.4174 21.6979 30.2011 21.2512 29.9375 20.868C28.9786 19.4718 28.0655 18.0428 27.1347 16.6279C27.0374 16.4802 26.9267 16.3414 26.8414 16.2259C26.5294 16.6861 26.2408 17.1047 25.9278 17.5639L27.7862 21.5159C27.81 21.4679 27.8223 21.415 27.8223 21.3615C27.8223 21.3079 27.81 21.2551 27.7862 21.207C27.4888 20.4967 27.1896 19.7873 26.8887 19.0787C26.7556 18.7636 26.6032 18.4547 26.492 18.1323C26.3146 17.617 26.5226 17.1297 27.0249 16.8843C27.4331 17.5083 27.8466 18.1359 28.2553 18.7667C29.1861 20.2034 30.12 21.6386 31.0414 23.0827C31.3825 23.6172 31.3534 23.7514 30.8724 24.1638C30.6473 24.3567 30.4044 24.5278 30.1658 24.7056C30.4305 24.6467 30.6806 24.5345 30.9007 24.3759C31.1208 24.2174 31.3063 24.0157 31.446 23.7831C31.5292 23.6495 31.525 23.4113 31.4694 23.2527C31.369 22.9662 31.1995 22.7036 31.0591 22.4311C31.2671 22.6225 31.4715 22.8133 31.6436 22.9724L32.1007 22.6376L31.3701 24.2636C31.7179 24.0291 32.7397 22.492 32.8229 22.1597L32.2665 22.4462ZM31.5453 20.2622H30.9052L30.913 20.3433L31.5557 20.2513C31.629 20.3095 31.6982 20.4114 31.7772 20.4203C32.8484 20.5352 33.9196 20.6574 34.9945 20.7375C35.9825 20.8113 36.9793 20.8378 37.972 20.8836C39.22 20.9418 40.468 21.0032 41.716 21.0536C42.3743 21.0796 42.9484 20.8602 43.484 20.4712C44.108 20.0188 44.7486 19.5872 45.4132 19.1972C46.8281 18.3715 48.3418 17.8588 50.0063 17.9732C50.6709 18.0189 51.3308 18.138 51.9912 18.2332C53.0405 18.3892 54.0847 18.5873 55.1382 18.7012C56.1481 18.8114 57.146 18.6788 58.1464 18.4672C59.6846 18.1416 61.189 17.6695 62.7573 17.4615C63.6678 17.3403 64.5497 17.0184 65.4545 16.8328C67.3827 16.4365 69.3165 16.0647 71.2499 15.694C72.0554 15.538 72.8692 15.4262 73.6736 15.2671C73.9591 15.2104 74.2732 15.1729 74.4843 14.8885C74.1706 14.8634 73.8549 14.8773 73.5447 14.9301C70.8074 15.474 68.0691 16.0127 65.3386 16.5894C64.1524 16.8406 62.9876 17.189 61.8072 17.4734C60.6112 17.7594 59.395 17.9794 58.2068 18.2982C56.99 18.6247 55.7674 18.6679 54.5381 18.4994C53.3853 18.3434 52.2444 18.1031 51.0947 17.918C49.945 17.7329 48.7781 17.6471 47.6289 17.97C47.2025 18.0907 46.7803 18.2253 46.358 18.36C45.6898 18.5727 45.0206 18.7833 44.3565 19.0085C42.9957 19.4697 41.6453 19.9648 40.2761 20.399C39.4554 20.6536 38.5963 20.7622 37.738 20.7198C36.608 20.6725 35.4755 20.6678 34.3476 20.5877C33.4126 20.5243 32.4834 20.3719 31.5453 20.2622V20.2622ZM79.3536 24.6427L79.3645 24.5319C79.2429 24.4979 79.1192 24.4717 78.9943 24.4534C78.1072 24.3739 77.219 24.3052 76.3319 24.2241C74.8306 24.0868 73.3304 23.9396 71.8297 23.8034C70.6337 23.6952 69.4377 23.6058 68.2448 23.4914C66.1825 23.2959 64.1212 23.0842 62.0568 22.8866C60.6632 22.7535 59.2681 22.637 57.8745 22.5055C56.3732 22.364 54.8741 22.1987 53.3718 22.0723C51.9376 21.9512 50.5009 21.8643 49.0646 21.766C48.4801 21.7255 47.9014 21.6418 47.3788 21.3604C46.9077 21.1062 46.8562 20.6766 47.2462 20.31C47.592 19.985 48.0262 19.8051 48.4843 19.7297C49.1244 19.6257 49.7713 19.5628 50.4135 19.4697C50.5092 19.4557 50.595 19.373 50.7843 19.2664C50.5118 19.191 50.3532 19.1182 50.1904 19.1104C49.5581 19.0698 48.9221 18.9991 48.2924 19.0319C47.2212 19.087 46.202 19.3803 45.2972 19.9908C44.979 20.205 44.6696 20.4348 44.6982 20.8789C44.7268 21.323 45.0622 21.5216 45.4231 21.6589C45.8541 21.8227 46.2909 21.9891 46.7407 22.0806C48.5087 22.4389 50.3053 22.5393 52.0967 22.701C53.3931 22.8185 54.6879 22.9537 55.9822 23.0894C57.6004 23.259 59.215 23.4701 60.8359 23.6027C62.6631 23.7524 64.4972 23.8185 66.326 23.9516C67.8122 24.0603 69.2937 24.2412 70.7804 24.34C72.6955 24.4674 74.6133 24.56 76.531 24.637C77.4696 24.6739 78.4119 24.6427 79.3536 24.6427ZM27.014 14.0352C27.3078 13.9535 27.534 13.8792 27.7659 13.8272C28.5023 13.6712 29.2407 13.5277 29.9785 13.3805C33.1812 12.7435 36.4115 12.4331 39.676 12.5116C40.6339 12.5345 41.5901 12.6083 42.548 12.653C42.7903 12.6645 43.0337 12.653 43.276 12.653C43.224 12.5282 43.172 12.483 43.1117 12.4601C41.9859 12.0405 40.8341 11.7004 39.6344 11.6036C36.3319 11.3369 33.0679 11.56 29.8662 12.4658C28.9302 12.73 27.9942 12.9858 27.0634 13.2557C26.9594 13.2859 26.8679 13.3665 26.7587 13.4304L27.014 14.0352ZM4.11635 8.64484C4.12675 8.60896 4.13663 8.57256 4.14703 8.53616C4.06279 8.48416 3.97647 8.43996 3.89535 8.3864C3.62547 8.20856 3.32959 8.05828 3.09507 7.84196C2.64943 7.43116 2.63331 6.9616 3.07947 6.55132C3.37225 6.29174 3.70614 6.08263 4.06747 5.93251C4.48763 5.75103 4.94471 5.65483 5.38515 5.52015C5.59679 5.45515 5.81103 5.39431 6.01799 5.31579C6.17399 5.25547 6.20519 5.13379 6.09963 4.95179C5.38671 4.97311 4.65403 4.95179 3.96347 5.25963C3.68319 5.38547 3.40135 5.50923 3.12679 5.64651C2.65391 5.88605 2.13659 6.02521 1.60735 6.05523C1.26869 6.08612 0.942375 6.19775 0.655752 6.38075C0.187752 6.67039 0.215312 7.09784 0.678632 7.39736C0.865034 7.51786 1.06463 7.61661 1.27351 7.69168C2.14087 8.00368 3.01239 8.30372 3.88391 8.6048C3.9602 8.62431 4.03793 8.63771 4.11635 8.64484V8.64484ZM56.9484 26.9302V26.8501C56.7513 26.8236 56.5526 26.8069 56.3576 26.7685C55.4071 26.5802 54.5163 26.7685 53.6755 27.212C53.0244 27.5563 52.7041 28.1641 52.7124 28.8557C52.7207 29.5598 53.1508 30.0673 53.832 30.3065C54.173 30.4215 54.5202 30.517 54.872 30.5925C55.028 30.6274 55.2121 30.6914 55.3488 30.461C55.2662 30.3674 55.1757 30.2712 55.0925 30.1693C54.9188 29.9613 54.7238 29.76 54.5818 29.5291C54.1658 28.8531 54.2241 28.3851 54.7576 27.8131C55.249 27.2853 55.8714 27.0331 56.5776 26.9687L56.9484 26.9302ZM24.4827 12.9884L24.4546 12.8844C24.3938 12.8621 24.3334 12.8366 24.271 12.8179C22.8946 12.406 21.5202 11.9859 20.1407 11.5849C17.5308 10.8236 14.9157 10.0769 12.3069 9.31304C11.1629 8.9766 10.0236 8.60792 8.88267 8.25328C8.75423 8.21324 8.62267 8.14928 8.50359 8.3838C8.69547 8.45868 8.87331 8.54344 9.05999 8.5996C12.0583 9.49712 15.057 10.3931 18.056 11.2875C19.3997 11.691 20.7366 12.1143 22.0772 12.5272C22.3632 12.6151 22.6128 12.7508 22.7776 13.0129C22.9617 13.3051 22.9372 13.4445 22.6658 13.6597C22.3569 13.9041 22.0454 14.1454 21.7444 14.3981C21.6487 14.4793 21.5088 14.5739 21.708 14.8063C22.5181 14.0336 23.4052 13.3587 24.4827 12.9884ZM30.0914 25.7285L30.0643 25.6546C29.9198 25.6796 29.7731 25.6967 29.6312 25.7316C29.0706 25.8683 28.676 26.2422 28.3135 26.6629C27.8481 27.2032 27.8538 27.8038 28.0473 28.4481C28.2298 29.0539 28.7061 29.2327 29.2459 29.3388C29.3638 29.3597 29.483 29.3731 29.6026 29.3789C30.3715 29.4343 31.1443 29.3641 31.8906 29.1709C32.8649 28.9142 33.8069 28.5479 34.6986 28.0789C34.5369 28.09 34.3784 28.1298 34.2306 28.1964C33.1708 28.6373 32.0986 29.0211 30.9442 29.1511C30.3483 29.2182 29.7825 29.1932 29.262 28.8661C28.8876 28.6311 28.6942 28.2941 28.6718 27.8469C28.6312 27.0217 29.0462 26.4518 29.6764 25.9968C29.8085 25.9011 29.9526 25.8195 30.0914 25.7305V25.7285ZM38.3511 23.4841L38.3932 23.391C38.3786 23.3635 38.3708 23.3255 38.3474 23.3094C38.2784 23.259 38.2055 23.214 38.1295 23.1747C37.2071 22.7124 36.243 22.3635 35.2264 22.181C34.8557 22.1199 34.4805 22.0902 34.1047 22.0921C33.9753 22.0921 33.7927 22.1696 33.7236 22.272C33.1835 23.0832 32.6585 23.9046 32.1485 24.7363C32.1007 24.8138 32.1532 24.9963 32.2166 25.0873C32.2801 25.1783 32.4116 25.2189 32.5182 25.2724C33.4194 25.7285 34.4453 25.8808 35.5405 25.7279C35.1765 25.7123 34.8026 25.6988 34.4272 25.6759C34.3263 25.6702 34.1947 25.6707 34.1333 25.6109C33.7558 25.2423 33.3757 24.8736 33.0351 24.4721C32.8448 24.2475 32.864 23.9521 33.0309 23.701C33.2103 23.4306 33.4215 23.181 33.5957 22.9069C33.8723 22.4722 34.2566 22.3926 34.7454 22.4342C35.8374 22.5263 36.8613 22.8253 37.8513 23.272C38.0172 23.3489 38.1847 23.416 38.3511 23.4862V23.4841ZM28.3972 4.26747C28.3665 4.42659 28.352 4.52747 28.3281 4.62315C27.9495 6.16651 27.6089 7.71976 27.1321 9.23764C26.9069 9.95576 26.687 10.676 26.4426 11.3879C26.2434 11.9692 25.972 12.5105 25.3755 12.769L26.3287 13.2547C27.1035 10.2516 27.8835 7.23044 28.6733 4.16919C28.0717 4.04439 27.5392 3.89359 26.9646 3.87903L26.7493 4.98559C27.2127 4.49835 27.6313 4.03555 28.3972 4.26747ZM101.301 23.7389C99.2592 23.8528 97.7538 24.8861 96.2052 26.0987C96.7294 26.0004 97.1209 25.9281 97.5052 25.6827C98.1521 25.2714 98.8515 24.9375 99.5488 24.613C100.095 24.3582 100.643 24.3307 101.077 24.8689C101.083 24.8762 101.108 24.8689 101.193 24.8632C101.227 24.5325 101.26 24.1882 101.301 23.7389ZM5.99303 8.95268C6.13863 9.01092 6.28267 9.07332 6.42983 9.12584C8.00682 9.69265 9.58415 10.2584 11.1618 10.8231C13.9161 11.8059 16.6707 12.7868 19.4257 13.7658C19.5734 13.8178 19.7205 13.9405 19.8978 13.8079C19.6092 13.5672 6.61547 8.9792 5.99303 8.95268ZM74.2056 16.1677C74.4474 16.3757 74.7204 16.3081 74.9508 16.2623C76.2407 16.0048 77.527 15.7295 78.8097 15.4366C78.9563 15.4033 79.1357 15.2738 79.1945 15.1423C79.3619 14.7694 79.4805 14.3742 79.6006 13.9821C79.6188 13.9223 79.5418 13.8329 79.4763 13.6826C79.3994 13.8573 79.3401 13.9452 79.3203 14.0409C79.233 14.5146 78.921 14.7835 78.5013 14.9504C78.1868 15.0841 77.8649 15.1998 77.5372 15.2967C76.44 15.5941 75.3356 15.8739 74.2056 16.1677ZM61.1016 28.8625C61.0824 28.8219 61.0626 28.7814 61.0434 28.7403C59.2426 29.4106 57.4085 29.9415 55.4351 30.0741C55.6509 30.4178 55.9297 30.3778 56.1673 30.371C57.7606 30.3278 59.3211 29.908 60.721 29.1459C60.8562 29.0715 60.9726 28.9582 61.099 28.8625H61.1016ZM88.2861 14.4096C88.3943 14.7247 88.309 14.8776 88.0469 14.8849C87.7927 14.8895 87.5327 14.9015 87.2846 14.8573C84.5376 14.3682 81.7912 13.8733 79.0452 13.3727C78.9178 13.3498 78.7852 13.3493 78.6563 13.3384C78.842 13.437 79.0432 13.5031 79.2511 13.5339C81.9432 14.0362 84.6368 14.5307 87.3273 15.0419C88.2196 15.2119 89.0719 15.0819 89.9273 14.746L88.2861 14.4096ZM34.3699 27.3805C33.2301 27.4008 32.1719 27.4148 31.1132 27.4403C30.7809 27.4481 30.1356 27.7736 29.8043 28.0861C31.3732 28.121 32.8541 27.8313 34.3699 27.3805ZM26.7119 13.1153C27.9849 12.3826 29.3374 12.1273 30.7331 11.8273C30.6369 11.7753 30.6078 11.7435 30.5828 11.7472C29.4638 11.9001 28.3426 12.041 27.2272 12.2183C26.7852 12.289 26.713 12.4435 26.7119 13.1153ZM21.8832 14.8869L21.9841 14.9842C22.1266 14.863 22.2659 14.7372 22.4126 14.6202C22.9918 14.1626 23.582 13.7206 24.3054 13.5115C24.985 13.315 25.6267 13.3337 26.1654 13.8755C26.2458 13.9439 26.3313 14.006 26.4212 14.0612C26.2314 13.2453 25.7972 12.9172 25.0781 13.0134C24.9431 13.0325 24.8099 13.0625 24.6798 13.1028C23.8226 13.3563 23.0361 13.8057 22.3824 14.4153C22.2155 14.5713 22.0501 14.7299 21.8832 14.8869V14.8869ZM32.0892 29.4366C31.6145 29.4969 31.1787 29.5749 30.7372 29.6019C30.2807 29.6295 29.821 29.6082 29.341 29.6082C29.9572 30.6222 31.4158 30.5296 32.0892 29.4366ZM34.3975 24.4264C35.2077 25.1393 38.3235 24.963 38.8919 24.3224C38.1935 24.4149 37.4359 24.5824 36.6772 24.5985C35.9185 24.6146 35.1572 24.4909 34.3959 24.4264H34.3975ZM26.0141 14.9369L25.881 14.9119C25.8451 15.0539 25.8134 15.1969 25.7723 15.3373C25.5762 16.0029 25.0932 16.3123 24.4083 16.1693C24.0443 16.0944 23.6944 15.954 23.3361 15.85C23.2258 15.8239 23.1142 15.8041 23.0017 15.7907C23.5852 16.2691 24.2575 16.4339 24.9491 16.5151C25.1354 16.5271 25.3194 16.4691 25.465 16.3523C25.9012 15.9815 26.1092 15.5063 26.0141 14.9369ZM81.0244 4.86183L80.886 4.83011C80.4912 6.54508 80.0963 8.25987 79.7015 9.97449C80.2194 8.28829 80.6604 6.58408 81.0244 4.86183ZM36.3725 25.9027C35.3325 26.0321 34.3871 26.0524 33.4412 25.86C33.5087 25.941 33.5995 25.9993 33.7012 26.0269C34.319 26.1528 34.9383 26.2755 35.5587 26.3883C35.9086 26.4523 36.1286 26.2594 36.3725 25.9027ZM59.9009 11.8512C59.8817 11.6619 59.8661 11.5069 59.8489 11.3187C59.6024 11.3993 59.4158 11.4846 59.2202 11.5189C58.8802 11.5792 58.797 11.7919 58.8042 12.1211C59.188 12.1595 59.4932 11.9687 59.9009 11.8512ZM59.7376 11.0852C59.5691 10.7025 59.4444 10.391 59.1027 10.1362C59.0772 10.5777 59.0554 10.9583 59.0294 11.4081L59.7376 11.0852ZM28.4856 19.8212L28.3504 19.8956L29.9422 22.8861L30.0555 22.8268L28.4856 19.8212ZM31.8786 25.1772L31.6431 25.6333L33.1152 25.8585L33.1355 25.7721L31.8786 25.1772ZM7.90247 8.21532C7.43447 7.8482 5.88175 7.3724 5.47511 7.41816L7.90247 8.21532ZM26.3042 9.50025L26.4015 9.52208C26.52 9.04195 26.6388 8.56234 26.7577 8.08324L26.6448 8.05672L26.3042 9.50025ZM58.4959 9.94745H58.4709V12.6322C58.4792 12.6322 58.5661 12.6759 58.5749 12.6754C58.5744 12.1715 58.4959 10.4513 58.4959 9.94745V9.94745ZM56.2916 30.8562H55.2688C55.5152 30.7636 55.8772 31.2264 56.2916 30.8562ZM55.7258 31.7402L54.9209 31.3663C55.1221 31.5868 55.3452 31.7558 55.7258 31.7402ZM31.3982 14.6436V14.5916H30.6738V14.6436H31.3982ZM27.6297 15.3716H27.5985V15.8344H27.6297V15.3716ZM32.0497 19.723C32.0565 19.6949 32.0627 19.6663 32.0689 19.6382H31.5968C31.5968 19.6554 31.5968 19.6725 31.5926 19.6902L32.0497 19.723ZM24.1197 14.6399L24.0875 14.5593L23.7308 14.7023C23.7422 14.7304 23.7531 14.758 23.764 14.7861L24.1197 14.6399ZM39.3006 21.896L39.2975 21.948H39.6755V21.896H39.3006Z" fill="url(#paint0_linear_774_95269)"/>
<defs>
<linearGradient id="paint0_linear_774_95269" x1="50.7975" y1="0.378906" x2="50.7975" y2="32.2179" gradientUnits="userSpaceOnUse">
<stop stop-color="#4551A8"/>
<stop offset="1" stop-color="#3E88C5"/>
</linearGradient>
</defs>
</svg>
