<svg width="95" height="52" viewBox="0 0 95 52" fill="none" xmlns="http://www.w3.org/2000/svg">
<path d="M93.1593 22.2298C90.5265 20.5713 87.807 19.0545 85.0125 17.686C84.5221 17.4473 84.4649 17.3542 84.5835 16.9205C85.1227 14.9477 85.5959 12.9535 86.2277 11.0113C87.289 7.7493 88.4533 4.52062 89.5739 1.27789C89.6228 1.13645 89.6654 0.992413 89.707 0.861893C89.5479 0.601893 89.3119 0.660135 89.1007 0.659095C87.6624 0.651295 86.2246 0.644532 84.7847 0.646612C84.3474 0.646612 83.8435 0.542613 83.491 0.725653C83.1176 0.917533 82.8628 1.37201 82.5997 1.74277C81.2898 3.5919 79.97 5.43478 78.8749 7.42586C78.5244 8.06286 78.1428 8.68218 77.7762 9.31034C77.0811 10.4934 76.2386 11.5834 75.2687 12.5541C74.4305 13.3975 74.6702 13.2909 73.6744 12.9009C72.5429 12.4579 71.4488 11.9192 70.3355 11.4283C70.1868 11.3633 70.0183 11.2952 69.8623 11.3019C69.2554 11.3285 68.6496 11.3867 68.0423 11.4293C66.6575 11.5261 65.2832 11.6987 63.9343 12.0263C63.7821 12.0718 63.6325 12.1254 63.486 12.187L63.4502 12.3243C64.1085 12.8292 64.8219 13.2603 65.4891 13.7553C66.1562 14.2503 66.865 14.7038 67.6528 15.242C67.2368 15.2087 66.9383 15.1796 66.6393 15.1614C65.5993 15.099 64.5723 14.8125 63.5152 14.9648C63.3592 14.9877 63.1803 14.9243 63.0238 14.8681C62.2958 14.6081 61.5314 14.6393 60.7727 14.5405L60.6276 14.8036C63.1179 15.1999 64.538 15.4957 63.3051 15.2893C62.6114 15.1733 61.4331 15.0293 60.0291 14.879L60.001 14.9664H59.169L59.2335 14.7948C54.3361 14.2847 47.4066 13.7116 47.4066 13.7116C47.6021 13.9409 47.8226 14.1531 47.9885 14.4032C49.1548 16.178 49.6473 18.0952 49.1039 20.1934C48.9619 20.74 48.6936 21.2657 48.4154 21.7623C48.0992 22.3254 47.5917 22.6905 46.9651 22.8844C45.9298 23.2053 44.8851 23.4414 43.7931 23.524C41.7703 23.68 39.7517 23.888 37.7294 24.044C37.0934 24.0929 36.4497 24.0404 35.8096 24.0342C35.6936 24.0304 35.5776 24.0369 35.4627 24.0534C37.7377 24.7086 40.0268 24.2463 42.3408 24.0711C42.2966 24.3274 42.1504 24.317 42.0241 24.3311C41.2363 24.4294 40.4433 24.5001 39.6612 24.6322C38.8601 24.7623 38.0501 24.829 37.2385 24.8318C32.739 24.8786 28.2384 24.9015 23.7393 25.004C21.2553 25.0606 18.7744 25.2572 16.2919 25.3882C16.0943 25.407 15.8951 25.3771 15.7116 25.3014C15.7984 25.2791 15.8867 25.2626 15.9757 25.252C17.9673 25.1345 19.961 25.0409 21.951 24.8948C23.0264 24.8162 24.0945 24.6348 25.1683 24.525C25.9914 24.4398 26.8234 24.4278 27.6419 24.317C28.307 24.2255 28.9612 24.0446 29.6132 23.8766C29.803 23.8277 29.9856 23.7092 30.1436 23.5864C30.5971 23.2339 30.516 22.6042 30.0017 22.352C28.788 21.7571 27.5577 21.1898 26.3695 20.5501C25.6568 20.1615 24.9783 19.7131 24.3415 19.2096C24.0295 18.9668 23.7492 18.8768 23.379 18.8976C21.1773 19.0328 19.011 19.3708 16.9018 20.0296C15.854 20.3567 14.7865 20.6255 13.7517 20.9885C12.4579 21.4354 11.2137 22.0146 10.0389 22.717C9.87509 22.8158 9.68633 22.873 9.50901 22.951L9.43881 22.8345C9.56413 22.7524 9.68789 22.6676 9.81529 22.5886C12.5869 20.859 15.6247 19.8019 18.7806 19.0484C20.3442 18.6755 21.924 18.3921 23.5324 18.2923C23.6879 18.2752 23.8423 18.2498 23.9952 18.2164C24.8329 19.1103 25.8672 19.7493 26.942 20.3125C28.3496 21.0478 29.7765 21.7477 31.193 22.4669C31.493 22.6192 31.7842 22.7898 32.0806 22.9494C32.9574 23.4226 33.9261 23.5469 34.8886 23.7164C36.2547 23.9572 37.6088 23.9099 38.9779 23.743C40.4542 23.5625 41.9419 23.483 43.4198 23.3082C44.4244 23.1876 45.4212 22.9905 46.4144 22.7924C47.3588 22.6042 48.0093 22.041 48.405 21.1544C48.9172 20.0073 49.0524 18.8263 48.873 17.5877C48.6946 16.3595 48.3218 15.2217 47.5278 14.2446C47.4191 14.111 47.3629 13.9326 47.2823 13.7766L47.4045 13.7106C47.7997 13.6674 48.2428 13.6425 48.7232 13.6336V13.5993H49.5261L49.5178 13.6315C49.99 13.6378 50.4886 13.6555 51.0055 13.6835L51.4829 13.7043L51.5266 13.6997L51.5422 13.7054C51.7429 13.7225 51.9441 13.7381 52.1443 13.7574L52.3747 13.7751C52.4418 13.7668 52.5099 13.7723 52.5749 13.7912C53.76 13.8884 54.9918 14.0221 56.1868 14.1703L57.4821 14.3013C57.4821 14.3133 57.4821 14.3257 57.4821 14.3377C58.1165 14.4235 58.7301 14.5114 59.3099 14.5977L59.3879 14.3897V14.3835C58.493 14.2836 57.5882 14.1791 56.6839 14.0824C53.4058 13.7316 50.1276 13.3811 46.8492 13.0309C46.3645 12.9789 45.8565 12.9644 45.4056 12.8032C43.2294 12.0268 40.982 11.7034 38.6862 11.6592C37.0357 11.629 35.4128 11.8791 33.82 12.2801C32.4805 12.617 31.0921 12.8084 29.8462 13.4589C29.2773 13.7558 28.7188 14.0735 28.1687 14.4027C27.7646 14.6445 27.3814 14.9227 26.9727 15.19C26.8104 15.0797 26.656 14.982 26.5047 14.8728C23.7532 12.9318 21.0038 10.9906 18.2564 9.0493C16.8202 8.03374 15.3881 7.01194 13.9446 6.0073C13.642 5.7967 13.4631 5.54346 13.435 5.18102C13.3861 4.54038 13.3393 3.89974 13.2899 3.25701C13.2748 3.06045 13.2556 2.86389 13.2379 2.64913C13.0185 2.66993 12.8552 2.68761 12.6909 2.70113C11.3425 2.80201 9.98689 2.84725 8.64685 3.01573C6.92097 3.23205 5.20497 3.5321 3.49001 3.82694C2.77241 3.9507 2.07873 4.18626 1.46513 4.59862C0.646127 5.1493 0.510927 5.53982 0.720487 6.49402C0.76963 6.75951 0.896288 7.0045 1.08449 7.1981C1.45473 7.56886 1.82133 7.9443 2.21133 8.29374C4.39186 10.2458 6.57413 12.1939 8.75813 14.138C10.095 15.3299 11.4262 16.53 12.7767 17.7047C13.4891 18.3256 14.2363 18.9064 15.0324 19.5585C12.9301 20.2402 10.9432 21.0634 9.00565 22.1065C9.00565 21.8907 8.98849 21.7394 9.00877 21.5933C9.23029 19.987 9.45077 18.3807 9.68945 16.777C9.73573 16.465 9.70297 16.2315 9.44193 16.0168C9.01137 15.6627 8.60993 15.2711 8.19393 14.9003C8.10389 14.8315 8.0092 14.7689 7.91053 14.7131C7.91053 16.0324 7.91729 17.3001 7.91053 18.5669C7.90377 19.8336 8.02025 21.0878 7.95577 22.3629C6.81541 22.3811 5.79257 22.6468 4.81133 23.0909C4.14375 23.3848 3.53999 23.8063 3.03397 24.3316C2.73757 24.6436 2.73289 24.863 3.03865 25.1636C3.37457 25.4948 3.73701 25.7876 4.23049 25.8874C4.47489 25.9363 4.69849 26.0793 5.02557 26.2182L3.54669 26.6123C3.04229 27.5114 3.04853 28.9133 3.55293 29.3236C3.88053 29.0875 4.20085 28.8478 4.53053 28.6211C5.36253 28.048 6.19817 27.4795 7.03745 26.9155C7.08945 26.8812 7.21477 26.8635 7.22309 26.8786C7.35673 27.136 7.56629 26.9498 7.73633 26.9748C7.85229 26.9919 7.97189 26.9883 8.08681 27.0101C8.67909 27.1219 8.84861 27.019 9.00877 26.4537C9.09717 26.1417 9.19545 25.8328 9.29009 25.5229C9.29269 25.4948 9.29529 25.4668 9.29841 25.4387L9.31245 25.4319C9.31245 24.9145 9.30829 24.3971 9.31245 23.8797C9.31505 23.5287 9.53033 23.3207 9.85481 23.4164C10.5662 23.6244 11.2588 23.5204 11.9592 23.3795C13.6638 23.0328 15.3689 22.6903 17.0745 22.352C17.244 22.3182 17.4192 22.3135 17.5914 22.2953C17.5997 22.3343 17.6085 22.3733 17.6168 22.4123C17.505 22.458 17.3958 22.5137 17.2804 22.549C16.0386 22.9307 14.7953 23.3072 13.553 23.6889C12.746 23.9369 11.9369 24.1787 11.1371 24.4486C10.796 24.564 10.4611 24.6769 10.1814 24.9686C9.96505 25.1938 9.60937 25.2858 9.31245 25.434V25.4522C9.30517 25.4766 9.29737 25.5011 9.29009 25.525C9.26617 25.7814 9.25681 26.0414 9.19597 26.2889C9.13357 26.5447 9.05765 26.8375 8.88397 27.0143C8.73265 27.1703 8.43989 27.1848 8.15597 27.281C8.49397 29.4042 8.83769 31.5617 9.17621 33.689C10.2032 33.689 11.1319 33.506 11.9213 32.9241L12.1953 33.1924C12.1189 32.7878 11.9691 32.4342 11.8178 32.0806C11.6665 31.727 11.5089 31.3672 11.3586 31.0089C11.2136 30.6621 11.0747 30.3132 10.9328 29.9653C12.6488 30.7562 14.4048 31.2606 16.1972 31.7463C16.0657 31.9543 15.9721 32.0952 15.8852 32.2403C15.0688 33.6443 15.3455 35.367 16.5685 36.4351C17.3917 37.1548 18.3651 37.4309 19.441 37.3217C21.4648 37.1168 23.0852 35.339 22.6915 33.17C22.6744 33.0775 22.6582 32.9849 22.6395 32.8939L30.6049 33.2678C31.8565 34.7368 33.2881 38.7949 33.1529 40.5728C33.0754 40.6196 32.988 40.6695 32.9038 40.7236C31.337 41.7376 30.4738 43.154 30.5378 45.0432C30.6054 47.0322 32.1857 48.3712 34.1684 48.2105C36.42 48.028 38.4631 45.6625 38.2026 43.1977C38.03 41.567 37.0004 40.4537 35.4934 40.1984C35.2474 40.1568 34.9952 40.1521 34.7472 40.1308C34.6739 39.4548 34.6219 38.8027 34.5288 38.1548C34.3312 36.7788 33.9537 35.4445 33.558 34.1149C33.506 33.9459 33.4779 33.7701 33.4425 33.6131C33.7758 33.4399 33.987 33.6282 34.2074 33.7342C46.1466 39.4848 58.0853 45.2368 70.0235 50.9905C70.4691 51.2052 70.8851 51.4548 71.4379 51.3711C72.001 51.2853 72.5897 51.3711 73.1539 51.3009C76.5687 50.8594 79.9035 50.0872 83.1056 48.794C83.3084 48.7123 83.5216 48.6598 83.7296 48.5891C84.8958 48.1887 86.0615 47.7871 87.2266 47.3843C87.3733 47.3323 87.5553 47.3083 87.5906 47.0156C87.3566 47.0395 87.1627 47.0535 86.9708 47.0806C86.1674 47.1945 85.3635 47.3037 84.5622 47.4316C84.1623 47.4955 83.7983 47.4524 83.4384 47.2537C81.8852 46.3952 80.3252 45.5487 78.7688 44.6953C75.4044 42.8498 72.0452 40.994 68.6746 39.1594C65.7626 37.5739 62.7424 36.21 59.7259 34.8392C57.0011 33.6006 54.243 32.4472 51.396 31.5154C51.3409 31.486 51.2892 31.4504 51.2421 31.4093C51.7398 30.427 52.8177 29.3548 53.9248 28.8468C54.9367 28.3824 55.959 27.9201 57.0162 27.5795C59.9747 26.6272 62.9449 25.7113 65.9269 24.8318C70.466 23.4996 75.0191 22.2168 79.5655 20.909C79.8531 20.8258 80.1162 20.8195 80.3975 20.9531C80.748 21.1201 81.1172 21.2464 81.4744 21.3988C81.5623 21.4362 81.7131 21.5272 81.7048 21.5548C81.6236 21.8398 81.9871 21.8242 82.0126 22.0264C81.9284 22.2121 81.828 22.3904 81.7651 22.5792C81.5155 23.3311 81.9731 24.1569 82.7458 24.3727C83.5185 24.5885 84.3432 24.1174 84.5284 23.3602C84.5668 23.2042 84.6048 23.0482 84.6506 22.8574C84.8648 22.9572 85.0322 23.0342 85.1986 23.1138C86.0358 23.5173 86.8704 23.9276 87.7128 24.3207C87.8606 24.3936 88.0258 24.4233 88.1897 24.4065C88.5381 24.3503 88.8802 24.2505 89.2229 24.161C90.5812 23.8048 91.9488 23.5012 93.3517 23.3779C93.6814 23.3488 94.0085 23.2947 94.3678 23.2484C94.0636 22.731 93.5914 22.5007 93.1593 22.2298ZM46.7368 13.2426L47.143 13.4776L47.0988 13.5639L46.6661 13.3294L46.7368 13.2426ZM31.2492 13.1802L33.5179 12.603C35.497 12.1007 37.5084 11.8604 39.5499 11.9462C41.813 12.0409 44.0105 12.4662 46.1056 13.3611C46.572 13.5589 46.976 13.8795 47.2745 14.2888C48.3717 15.7381 48.7305 17.3917 48.6832 19.1586C48.6614 19.9651 48.3639 20.7082 47.9932 21.4196C47.6416 22.0956 47.0374 22.4144 46.3323 22.5438C45.2018 22.7518 44.0687 22.951 42.9294 23.095C41.3871 23.2895 39.838 23.4351 38.2905 23.5875C37.7861 23.6395 37.2775 23.6473 36.7705 23.6655C36.6842 23.6686 36.5958 23.6208 36.3992 23.5667L36.8735 23.3379C37.0945 21.9718 37.0508 20.6079 36.6832 19.272C36.3813 18.1801 35.9134 17.1412 35.2958 16.1915C35.1398 15.9528 34.9287 15.7516 34.741 15.5347C34.6583 15.4391 34.5751 15.3444 34.4914 15.2498L34.2381 14.9664L34.0863 14.8385C33.9823 14.7683 33.8741 14.7027 33.7717 14.6305C33.7374 14.606 33.7041 14.5816 33.6713 14.5556C33.1685 14.1557 32.6391 13.8047 32.0297 13.5847C31.9762 13.5609 31.9268 13.529 31.883 13.4901L31.8518 13.4667C31.8518 13.4667 31.8518 13.4724 31.8487 13.4745L31.2419 13.2795C31.2445 13.2467 31.2471 13.2135 31.2492 13.1802ZM36.3379 22.9614C36.3062 22.6806 36.2536 22.4003 36.2464 22.119C36.2167 20.962 35.9344 19.8476 35.6562 18.739C35.535 18.2585 35.2854 17.803 35.042 17.3625C34.574 16.5212 34.0348 15.7277 33.3063 15.0777C33.3307 15.0532 33.3546 15.0283 33.3791 15.0033C33.5018 15.1104 33.6297 15.2113 33.7462 15.3257C34.4362 15.9994 35.0153 16.7779 35.4622 17.6324C35.586 17.8654 35.6504 18.1342 35.7186 18.3921C36.0727 19.7301 36.3847 21.0759 36.4138 22.4695C36.4159 22.6317 36.4128 22.7945 36.3379 22.9614ZM30.4099 13.5317C28.3002 14.8223 26.4059 16.3693 24.7289 18.2668L25.5697 18.7946L31.662 13.9108L32.338 14.2623L27.3112 19.702C27.5972 20.0068 27.9758 20.0988 28.3268 20.3162C29.0974 19.3224 29.8446 18.3641 30.5862 17.401C31.3142 16.4541 31.9964 15.4677 32.817 14.5904C31.4873 16.5732 30.0313 18.4613 28.5847 20.4243C29.2347 20.7436 29.8488 21.0514 30.4681 21.3473C31.0874 21.6432 31.7161 21.9531 32.3547 22.2204C32.9932 22.4877 33.6495 22.7071 34.2969 22.9484C34.9287 23.186 35.6281 23.1944 36.2568 23.4408C36.2412 23.5038 36.2261 23.5667 36.211 23.6296C35.9328 23.5937 35.6562 23.548 35.379 23.5256C34.1482 23.4216 32.9974 23.0477 31.8986 22.4976C30.3423 21.7176 28.7948 20.9199 27.2264 20.1643C26.3211 19.7285 25.5073 19.1638 24.7185 18.5523C24.5781 18.4436 24.4585 18.31 24.3228 18.1841C26.1121 16.2622 28.0501 14.6227 30.4078 13.5317H30.4099ZM14.2259 17.7437C13.0928 16.8077 11.9686 15.8603 10.8412 14.917C9.53241 13.8224 8.20745 12.746 6.92097 11.6259C6.06817 10.8833 5.26633 10.082 4.44941 9.29942C4.02301 8.8907 3.59921 8.4773 3.20141 8.0431C2.83741 7.64634 2.50929 7.21422 2.15569 6.80602C1.88945 6.49818 1.87853 6.12326 1.87385 5.7551C1.87021 5.43634 2.29505 5.1181 2.79269 5.05674C2.79893 5.1857 2.83377 5.31674 2.80621 5.43426C2.68713 5.94594 2.82649 6.40458 3.07245 6.8419C3.45621 7.52466 3.96165 8.11122 4.50973 8.66762C6.65837 10.8516 8.95105 12.8713 11.2999 14.8322C12.2208 15.6013 13.1199 16.3964 14.0346 17.1722C14.3304 17.4229 14.6419 17.6574 14.9596 17.8799C15.137 18.0037 15.2654 18.1368 15.2654 18.5112C14.8655 18.218 14.5301 17.9964 14.2238 17.7427L14.2259 17.7437ZM8.81793 20.1305C8.94689 19.1253 9.07013 18.1197 9.21885 17.1145C9.32805 16.3797 9.34417 16.3823 8.85901 15.8748C9.32337 16.0454 9.47885 16.2149 9.42529 16.6361C9.25993 17.9361 9.06805 19.2361 8.88657 20.532L8.81533 20.5257C8.80638 20.3938 8.80568 20.2615 8.81325 20.1295L8.81793 20.1305ZM8.44197 15.8774C8.44197 15.8774 8.58081 16.7983 8.57093 17.18C8.57093 17.2133 8.57093 17.6532 8.57093 18.2429L8.58341 18.363H8.57093C8.57093 19.6677 8.57093 21.5818 8.57093 21.5818L8.54701 22.2953H8.19133L8.44197 15.8774ZM3.51497 28.9294C3.44113 28.7277 3.38185 28.5654 3.32985 28.4256L6.27565 27.1843L6.30633 27.2363L3.51497 28.9294ZM8.60213 24.746C8.45029 24.8464 8.29013 24.954 8.11593 24.9982C6.57309 25.4064 5.03909 25.3196 3.51497 24.8885C3.47077 24.876 3.43541 24.8313 3.33089 24.7533C4.18837 24.5256 4.99905 24.5032 5.80453 24.4413C6.00629 24.4252 6.21429 24.4309 6.40773 24.3805C6.88405 24.2562 6.98285 23.9172 6.64225 23.562C6.49197 23.406 6.29125 23.2968 6.11341 23.1668L6.19713 23.0077C6.29333 22.9879 6.40045 22.9297 6.48313 22.9557C6.75249 23.0363 6.98493 23.2042 7.06709 23.4757C7.26469 24.1309 7.69421 24.3384 8.33329 24.2037C8.52049 24.1642 8.70873 24.1283 8.93961 24.082C8.95677 24.1683 8.98381 24.3066 9.00305 24.4065C8.84705 24.5391 8.73525 24.6587 8.60213 24.746ZM15.9794 34.1461L15.9222 34.1539C15.8948 33.9487 15.867 33.7431 15.839 33.5372L15.9794 33.533V34.1461ZM82.9512 47.5621C82.9512 47.5621 81.3205 49.4341 74.8725 49.3821L82.9512 47.5621ZM65.2868 13.2894C64.9639 13.0491 64.6212 12.8354 64.2879 12.6097L63.9171 12.3596C64.2759 12.1131 64.668 12.1204 65.0304 12.0539C66.5941 11.7658 68.1749 11.6379 69.7625 11.5817C69.929 11.572 70.0956 11.5988 70.2507 11.6602C71.5611 12.2395 72.8663 12.8313 74.196 13.4282C74.107 13.5842 73.9651 13.565 73.8034 13.4974C73.3988 13.3284 72.987 13.176 72.5881 12.9951C71.8508 12.6602 71.1248 12.2998 70.3844 11.9722C70.192 11.8869 69.9564 11.8266 69.7526 11.8516C68.2113 12.0377 66.6726 12.2473 65.1334 12.4522C65.0755 12.4694 65.0199 12.4933 64.9675 12.5234C64.9249 12.772 65.033 12.8874 65.2104 12.9951C66.3164 13.6768 67.4162 14.3689 68.516 15.06C68.5815 15.1011 68.634 15.164 68.6554 15.3033C68.5399 15.2747 68.4172 15.2628 68.3106 15.2149C67.2061 14.7267 66.2488 14.007 65.2868 13.2915V13.2894ZM67.4666 15.5254H67.7464V15.5774L67.4666 15.5633V15.5254ZM67.0345 15.4214V15.463H66.7615L66.7574 15.4214H67.0345ZM73.5865 17.8779C73.1575 17.8779 72.6916 17.9054 72.2304 17.8737C69.4291 17.6803 66.6248 17.6969 63.8199 17.7177C62.9244 17.7234 62.0274 17.7151 61.1346 17.7697C60.4768 17.8092 60.0603 17.5222 59.7561 16.9861C60.9396 16.5659 70.5991 17.1946 73.586 17.8784L73.5865 17.8779ZM50.5594 20.4592C50.5848 19.9911 50.694 19.5231 50.7949 19.0645C50.9457 18.3786 51.1314 18.1753 51.773 18.0994C52.4763 18.0251 53.1844 18.0077 53.8905 18.0474C54.4204 18.0708 54.7256 18.4556 54.7667 19.0499C54.7932 19.4358 54.7714 19.8258 54.7714 20.2137H54.7849C54.7849 20.5678 54.7849 20.9225 54.7849 21.2766C54.7849 21.6125 54.6471 21.8585 54.3169 21.9833C53.3861 22.3379 52.4386 22.6338 51.4444 22.7446C50.8875 22.8064 50.6894 22.6868 50.6124 22.1206C50.5433 21.5698 50.5254 21.0138 50.5588 20.4597L50.5594 20.4592ZM15.9274 28.0626C16.7115 28.1812 17.4988 28.2815 18.2856 28.3819C19.0895 28.4859 19.8929 28.5946 20.6999 28.6679C21.507 28.7412 22.3119 28.7719 23.1325 28.9014C23.0186 28.9232 22.9026 28.9716 22.7908 28.9627C21.461 28.8608 20.1319 28.7528 18.8035 28.6388C18.3667 28.6008 17.9325 28.5311 17.4972 28.4765C17.1525 28.4334 16.8857 28.5852 16.6164 28.7885C16.7141 29.1525 16.957 29.2518 17.1951 29.3267C17.6449 29.4676 18.1041 29.5794 18.5591 29.7042C18.7276 29.7505 18.9184 29.7531 19.1046 29.9954C18.8825 29.9954 18.7406 30.0142 18.6069 29.9923C17.0417 29.7323 15.475 29.4832 13.9139 29.2019C13.1677 29.0672 12.4304 28.8821 11.6935 28.7006C11.1512 28.567 11.1132 28.4926 11.135 27.9342C11.1402 27.8005 11.1132 27.6658 11.1127 27.5312C11.1127 27.4194 11.1293 27.3076 11.1449 27.1152C11.9681 27.3039 12.7455 27.5015 13.5312 27.657C14.3247 27.8161 15.126 27.9414 15.9268 28.0631L15.9274 28.0626ZM9.13409 31.1686C9.02645 30.7697 8.99005 30.3516 8.92297 29.9419L9.02697 29.8977C9.15073 30.7158 9.27431 31.5336 9.39773 32.351C9.12681 31.9954 9.23913 31.5617 9.13357 31.1691L9.13409 31.1686ZM11.5583 32.2725L11.4351 32.3245C11.3696 32.1555 11.3066 31.9855 11.237 31.8175C10.8631 30.9132 10.498 30.0048 10.1049 29.1088C9.97623 28.8133 9.80642 28.5374 9.60053 28.2893C9.32649 27.9628 9.00201 27.6783 8.72849 27.4053L9.60469 27.0465C10.2575 28.7927 10.9085 30.5349 11.5578 32.273L11.5583 32.2725ZM10.6353 29.2903L10.6972 29.2347L10.8938 29.4494L10.8256 29.5113L10.6353 29.2903ZM10.3504 25.942L10.4024 25.838C10.6473 25.967 10.8906 26.098 11.1366 26.2234C11.4094 26.3589 11.7224 26.39 12.0165 26.3108C12.3107 26.2316 12.5657 26.0475 12.7335 25.7933C12.5526 25.3914 12.1095 25.4969 11.8032 25.3321C11.9469 25.2922 12.0972 25.2822 12.2449 25.3028C12.3926 25.3233 12.5345 25.374 12.6618 25.4517C12.9556 25.6269 12.968 25.9441 12.681 26.1573C12.2692 26.4631 11.7902 26.5993 11.2973 26.4397C10.9629 26.33 10.6644 26.1116 10.3498 25.9426L10.3504 25.942ZM14.4532 30.3766C13.7044 30.1806 12.9665 29.9372 12.2338 29.686C11.8672 29.5607 11.523 29.3688 11.0851 29.1686C11.2328 29.1312 11.2718 29.1068 11.2931 29.1166C12.8744 29.8644 14.5748 30.2258 16.255 30.6538C17.153 30.8831 18.0516 31.1093 18.9486 31.3407C19.0765 31.3734 19.1987 31.4286 19.323 31.4733L19.2538 31.5742C17.6532 31.1779 16.0485 30.7936 14.4526 30.3771L14.4532 30.3766ZM20.1071 36.381C18.9324 36.8943 17.4213 36.2661 17.0126 35.0498C16.6886 34.0847 16.8566 33.1539 17.4499 32.3162C17.5799 32.1332 17.7338 31.959 17.9418 32.1404C17.7411 32.4847 17.5487 32.8128 17.3584 33.143C17.3256 33.2002 17.3163 33.3042 17.2742 33.3172C16.8831 33.4394 16.9824 33.7628 16.9897 34.0275C17.0034 34.2967 17.0408 34.5642 17.1015 34.8268C17.1582 35.1008 17.2861 35.3312 17.5784 35.432C17.6549 35.4672 17.7237 35.5172 17.7806 35.5792C18.3698 36.1283 19.0671 36.1944 19.8144 36.0384C20.0562 35.9864 20.2969 35.9312 20.573 35.8699C20.5621 36.2365 20.3021 36.2973 20.1066 36.3816L20.1071 36.381ZM21.4492 33.6453C21.3042 34.5148 20.4966 35.055 19.6214 34.9453C18.9553 34.86 18.6017 34.378 18.4738 33.768C18.3755 33.3 18.661 32.9178 19.0052 32.6329C19.3495 32.3479 19.7806 32.3729 20.1622 32.5159C20.443 32.623 20.6302 32.8908 20.6984 33.2085C20.7327 33.3708 20.7597 33.5346 20.8076 33.7914C21.1196 33.2267 21.0587 32.9594 20.6058 32.6001C20.6299 32.5854 20.6565 32.5754 20.6843 32.5705C21.5824 32.6053 21.546 33.0629 21.4492 33.6453ZM16.3678 31.4691C21.2865 32.3348 26.27 32.7791 31.2642 32.7972C31.2767 32.7972 31.2892 32.8492 31.3298 32.9444C26.266 33.0213 21.2787 32.648 16.3678 31.4696V31.4691ZM31.7858 32.7795L32.401 33.0816L32.3557 33.1778L31.7385 32.8794C31.7541 32.8466 31.7697 32.8133 31.7858 32.78V32.7795ZM33.9386 41.3538C33.3515 41.7859 32.7821 42.2508 32.3854 42.8753C31.9938 43.491 31.8134 44.1966 31.6277 44.8945C31.753 43.2939 32.4727 42.0735 33.9386 41.3543V41.3538ZM35.1632 45.8258C34.6546 45.9028 34.0998 45.5019 33.9807 44.9491C34.4175 44.6407 34.9552 44.3849 34.9198 43.711C35.5355 43.659 35.965 43.9777 36.03 44.5315C36.1049 45.1722 35.7253 45.7395 35.1632 45.8243V45.8258ZM37.2541 45.0058C37.2354 43.7864 37.2094 43.647 36.9073 43.0542C37.3581 43.2315 37.5578 44.1862 37.2541 45.0058ZM34.8621 41.6533C35.5054 41.4183 36.1751 41.3377 36.8553 41.4807C37.1153 41.5327 37.3794 41.5977 37.5687 41.956C35.0836 40.8582 32.6074 43.1166 32.4696 45.2887C32.3843 46.6303 33.1388 47.5522 34.5954 47.8299C34.1991 48.0426 33.832 48.0379 33.4722 47.8575C32.6994 47.4721 32.2699 46.8211 32.1763 45.9855C32.1285 45.5585 32.1243 45.0879 32.2554 44.6855C32.6968 43.3205 33.4342 42.1733 34.8621 41.6533ZM33.4935 38.3134C33.5975 38.8568 33.7446 39.3825 34.1456 39.8416C33.8819 39.8848 33.7686 39.7376 33.6999 39.5983C33.5439 39.2863 33.3671 38.9628 33.2985 38.6243C33.04 37.331 32.5875 36.0842 31.9564 34.9261C31.9283 34.8741 31.9293 34.8075 31.9044 34.6848C32.2044 34.7987 32.3027 35.0155 32.3937 35.2178C32.8456 36.2172 33.285 37.2245 33.4945 38.3118L33.4935 38.3134ZM53.1921 41.2103C56.1998 42.75 59.1976 44.31 62.2297 45.8003C64.5177 46.9251 66.852 47.9599 69.1733 49.0176C69.4234 49.132 69.725 49.1699 70.0053 49.1767C70.5284 49.1892 71.0526 49.1465 71.5767 49.1413C71.752 49.1413 71.9282 49.1803 72.0931 49.2006C72.0931 49.2932 72.1045 49.3478 72.0931 49.3566C71.5481 49.6478 71.0099 49.9567 70.4468 50.2079C70.2876 50.2791 70.05 50.1964 69.8534 50.1559C68.6133 49.9104 67.4661 49.4071 66.3762 48.7924C63.5895 47.2199 60.6505 45.9688 57.751 44.6324C55.3262 43.5155 52.9441 42.3122 50.5942 41.0444C47.8008 39.5364 45.0266 37.9873 42.1213 36.692C39.8385 35.6744 37.5776 34.6084 35.3093 33.5559C34.7581 33.2995 34.2215 33.0125 33.6796 32.7369C33.5895 32.6909 33.5026 32.6388 33.4196 32.5809C33.1404 32.3874 32.7956 32.193 32.895 31.7962C32.9958 31.388 33.2886 31.0375 33.7072 30.9642C36.0202 30.5732 38.3009 29.9663 40.6622 29.8899C40.7848 29.8926 40.9072 29.9018 41.0288 29.9174L41.0413 30.0318L38.6815 30.5305C38.6878 30.568 38.6935 30.6054 38.6997 30.6434C39.2644 30.5778 39.8276 30.4952 40.3939 30.4525C40.931 30.4114 41.4666 30.2528 42.0059 30.3454L42.023 30.4494L39.8734 31.0006C39.8786 31.0422 39.8832 31.0838 39.8884 31.1254C40.4116 31.1342 40.9347 31.1535 41.4578 31.0734C41.9924 30.9907 42.5254 30.9028 43.0599 30.8217C43.5945 30.7406 44.1186 30.6657 44.648 30.5908C44.6605 30.634 44.6724 30.6772 44.6844 30.7203C44.5986 30.7593 44.5159 30.8181 44.4244 30.8352C43.5451 31.0016 42.6637 31.1587 41.7844 31.324C41.6193 31.355 41.4609 31.4147 41.3164 31.5003C43.1676 31.6251 45.0084 31.428 46.8533 31.3641L46.8653 31.4821C46.6911 31.4993 46.5169 31.519 46.3422 31.5341C44.7088 31.6667 43.0755 31.805 41.4916 32.2621C41.1042 32.3806 40.7239 32.5214 40.3528 32.6838C40.1662 32.764 39.9913 32.869 39.8328 32.9958C39.2892 33.4243 39.2665 33.8771 39.7647 34.3541C40.4199 34.9812 41.2113 35.4107 42.0116 35.8101C43.3412 36.4752 44.6756 37.133 46.0317 37.7403C48.458 38.8219 50.8324 40.0002 53.1932 41.2087L53.1921 41.2103ZM53.6456 28.5275C53.0143 29.035 52.3814 29.5394 51.7517 30.048C51.647 30.1335 51.5472 30.2248 51.4527 30.3215C51.16 30.6158 50.8459 30.6413 50.4372 30.5425C49.0264 30.2029 47.6021 29.9185 46.1841 29.6065C45.7717 29.516 45.3614 29.4156 44.9527 29.3111C44.8487 29.2758 44.7479 29.2314 44.6516 29.1785V29.0693C44.7645 29.0449 44.8768 29.0028 44.9902 28.9991C46.2236 28.9606 47.4581 28.9513 48.69 28.8894C50.2588 28.8109 51.8261 28.6934 53.333 28.1874C53.6331 28.087 53.6367 28.098 53.943 28.2659C53.8161 28.3788 53.734 28.4557 53.6466 28.5259L53.6456 28.5275ZM78.8489 20.8237C77.8386 21.093 76.8277 21.3624 75.8137 21.6167C74.0285 22.0639 72.2376 22.4851 70.4577 22.9453C69.1509 23.2833 67.8577 23.667 66.5577 24.0284C66.2004 24.1283 65.839 24.2151 65.4828 24.3196C64.5122 24.6056 63.5427 24.8953 62.5745 25.1886C61.9125 25.3882 61.2485 25.5827 60.5923 25.8006C59.6796 26.1027 58.7722 26.4272 57.8638 26.7366C57.6976 26.785 57.5289 26.8242 57.3584 26.8541L57.3381 26.8708L57.2684 26.8879L56.5518 27.2108C56.5357 27.1656 56.5191 27.1198 56.4998 27.0746L57.2663 26.8879L57.3272 26.8604L57.3558 26.8541C57.3971 26.8116 57.4432 26.7739 57.493 26.7418C57.5011 26.7372 57.5096 26.7335 57.5185 26.7309C57.939 26.5842 58.3599 26.4385 58.7811 26.2936C58.1144 26.4984 57.2788 26.6825 56.3402 26.8474C52.462 27.7464 45.8591 29.0007 42.2175 28.1255C42.1333 28.1052 50.9447 27.7943 56.3402 26.8474C58.1841 26.4199 59.4124 26.0726 59.4124 26.0726L59.3531 26.096C59.9209 25.9004 60.4893 25.7058 61.0582 25.512C61.5532 25.3435 62.0628 25.2125 62.5474 25.0185C63.6493 24.5786 64.8022 24.3186 65.941 24.0061C67.2264 23.653 68.4936 23.2318 69.7843 22.9006C72.2366 22.2708 74.7009 21.69 77.1574 21.0764C77.6966 20.9417 78.2223 20.754 78.7558 20.5949C78.9035 20.5507 79.0554 20.5221 79.2972 20.4644C79.1708 20.7493 78.9987 20.7836 78.8489 20.8237ZM79.0216 10.1871C78.3934 11.3482 77.5416 12.3222 76.5256 13.1625C75.8875 13.6908 75.2609 14.2332 74.6369 14.7787C74.4711 14.9231 74.3226 15.0863 74.1944 15.2649C73.911 15.6621 73.9744 15.8941 74.4071 16.1109C74.5823 16.1988 74.7659 16.2705 75.0415 16.3917L69.6688 15.5347C69.6688 15.4942 69.6657 15.4541 69.6637 15.4136C69.96 15.3356 70.2538 15.2472 70.5528 15.1817C71.7312 14.9217 72.8824 14.5759 73.9084 13.93C74.4522 13.591 74.9578 13.1942 75.4164 12.7465C76.3865 11.7766 77.2349 10.6922 77.9431 9.5173C78.7101 8.26254 79.5119 7.02962 80.2945 5.78422C80.9596 4.7255 81.608 3.65534 82.2861 2.60442C82.5695 2.16553 82.9054 1.75941 83.2273 1.34549C83.3604 1.17441 83.518 1.02257 83.6506 0.877492C83.9283 0.964852 83.9538 1.11461 83.8659 1.29037C83.7302 1.56233 83.6022 1.84313 83.4286 2.09065C82.0714 4.02298 81.0116 6.11702 80.0262 8.25474C79.7256 8.91306 79.3679 9.54798 79.0216 10.1871ZM80.6429 15.3839C81.2815 13.8962 81.7843 12.3508 82.3974 10.8511C83.4078 8.38266 84.4597 5.9319 85.4961 3.47437C85.5385 3.39419 85.5877 3.31782 85.6432 3.2461L85.7431 3.28873C85.6458 3.56537 85.5611 3.84721 85.4488 4.11762C84.6277 6.0983 83.7806 8.06962 82.9834 10.0576C82.3433 11.6555 81.7578 13.2753 81.1562 14.8879C80.944 15.4562 80.7105 16.022 80.567 16.608C80.359 17.465 80.2867 18.3417 80.4599 19.221C80.4661 19.2866 80.4661 19.3526 80.4599 19.4181L80.3429 19.4259C80.2815 19.1347 80.1843 18.8461 80.165 18.5523C80.0954 17.4645 80.1999 16.4167 80.6429 15.3839ZM82.0599 23.392C81.9242 23.0144 82.0287 22.7004 82.413 22.3644C82.2388 22.7612 81.997 23.0852 82.232 23.4081C82.4224 23.6712 82.6886 23.8792 82.9512 24.1413C82.4723 24.0711 82.2066 23.8012 82.0599 23.3946V23.392ZM83.8716 23.7898C83.9465 23.4138 84.0229 23.0332 84.0952 22.6702C84.3776 22.886 84.2871 23.4252 83.8716 23.7924V23.7898ZM93.8301 23.068C93.3356 23.1283 92.8348 23.1574 92.3481 23.2552C91.0237 23.522 89.7039 23.8106 88.3862 24.1085C88.1091 24.1714 87.8803 24.1605 87.6172 24.0331C85.3411 22.9172 83.0822 21.7654 80.7246 20.8252C80.5223 20.7524 80.3333 20.647 80.165 20.5132C82.8607 21.4773 85.4878 22.5932 87.9905 23.9972C89.5843 23.3124 91.292 23.1008 93.0116 22.7815C90.4881 20.9688 87.7076 19.6792 85.1186 18.0921C88.16 19.5076 91.0507 21.1601 93.8546 22.9676C93.8462 23.0009 93.8384 23.0373 93.8301 23.068Z" fill="url(#paint0_radial_774_109853)"/>
<defs>
<radialGradient id="paint0_radial_774_109853" cx="0" cy="0" r="1" gradientUnits="userSpaceOnUse" gradientTransform="translate(94.3678 41.2336) rotate(-151.039) scale(92.6176 296.38)">
<stop stop-color="#8F8AD2"/>
<stop offset="1" stop-color="#4267B2"/>
</radialGradient>
</defs>
</svg>
