<svg width="101" height="46" viewBox="0 0 101 46" fill="none" xmlns="http://www.w3.org/2000/svg">
<path d="M97.1542 42.0056C94.6244 41.2059 92.079 40.4545 89.5564 39.6324C86.4068 38.6059 83.2967 37.4515 80.1278 36.4895C74.9975 34.9295 69.9166 33.2254 64.8154 31.5786C64.1544 31.3649 63.8643 30.9619 63.8731 30.2703C63.8799 29.7019 64.0109 29.1674 64.3598 28.7056C64.5897 28.4004 64.82 28.0951 65.0676 27.8044C66.2396 26.4322 67.7518 25.4852 69.2952 24.6267C73.2441 22.4335 77.4421 20.7226 81.7991 19.5307C82.851 19.2411 83.9144 18.9306 85.0262 19.1766C85.5836 19.3004 86.1338 19.461 86.6845 19.616C87.5269 19.8531 87.6314 19.8146 88.0625 19.0638C88.0776 19.0367 88.1145 19.0206 88.1535 18.9873C88.2237 19.0118 88.3048 19.0362 88.3833 19.0664C89.5825 19.5245 90.7847 19.9758 91.9791 20.4449C92.4968 20.6573 93.0684 20.7001 93.6119 20.5671C93.9322 20.4896 94.2552 20.4236 94.5776 20.3549C96.3071 19.9862 97.9409 19.2395 99.7162 19.0456C99.8363 19.0326 99.9476 18.9312 100.148 18.8261C99.9284 18.6665 99.7937 18.537 99.6346 18.4569C98.9991 18.1376 98.3632 17.8163 97.7137 17.5266C95.4158 16.5022 93.1122 15.4908 90.8107 14.4737C90.6391 14.3978 90.4706 14.3141 90.2834 14.2262C90.3505 14.013 90.4046 13.8315 90.4649 13.6542C91.0813 11.8106 91.6983 9.96758 92.3161 8.12505C93.1713 5.57497 94.0258 3.02454 94.8797 0.473767C94.9249 0.338047 94.901 0.17945 94.9093 0.03125L94.4933 0.0796096L94.8183 0.13161C94.5063 1.19085 94.1085 2.19341 93.705 3.22509C93.7612 2.73109 93.445 2.49085 93.0992 2.32497C92.7607 2.16377 92.3899 1.99529 92.0254 1.97657C90.9854 1.92457 90.0416 2.25477 89.22 2.89697C88.244 3.65981 87.4125 4.57137 86.6174 5.51517C85.9581 6.29829 85.3039 7.08713 84.6768 7.89573C83.6507 9.23194 82.5335 10.4956 81.3332 11.6777C80.367 12.621 79.2459 13.3417 78.0275 13.9137C77.9934 13.9298 77.9561 13.9378 77.9184 13.9372C77.8807 13.9366 77.8437 13.9273 77.8102 13.91C77.9142 13.8409 78.0098 13.7634 78.117 13.702C79.7529 12.7796 81.1491 11.5737 82.3482 10.1328C83.7349 8.46565 85.1254 6.80165 86.5196 5.14077C86.9527 4.61998 87.4125 4.12202 87.8971 3.64889C88.2996 3.26824 88.7319 2.92046 89.1899 2.60889C89.7619 2.21473 90.3531 1.85073 90.9579 1.50701C91.9875 0.919927 93.12 0.581407 94.2339 0.200767C94.3286 0.162145 94.4209 0.117507 94.51 0.067127C93.4231 0.291385 92.3688 0.651998 91.3723 1.14041C90.5954 1.52001 89.8502 1.97241 89.1212 2.44041C88.6263 2.75879 88.1607 3.12076 87.7302 3.52201C87.2403 3.98962 86.7748 4.4822 86.3356 4.99777C84.7926 6.76161 83.2554 8.53082 81.7242 10.3054C81.5682 10.4864 81.4054 10.6632 81.2562 10.829C79.8449 10.2227 78.4742 9.64189 77.1108 9.04441C76.4868 8.77245 75.8716 8.73241 75.2388 8.98461C73.984 9.48901 72.7277 9.98925 71.4807 10.5108C71.2263 10.6208 70.9934 10.775 70.7928 10.9663C70.3898 11.347 70.3918 11.7203 70.8084 12.0781C71.0848 12.3154 71.39 12.5168 71.7168 12.6776C72.8223 13.2195 73.9408 13.7343 75.0536 14.261C75.166 14.313 75.272 14.3791 75.4842 14.4945C75.0391 14.6167 74.713 14.7389 74.3766 14.7909C73.5545 14.9188 72.7266 15.0104 71.9024 15.1232C70.89 15.262 69.8807 15.4248 68.8662 15.546C66.1668 15.8694 63.4951 15.546 60.8311 15.1502C59.1859 14.9058 57.5702 14.5028 55.9067 14.3281C53.9307 14.1201 51.9906 14.1945 50.064 14.6401C46.7948 15.3941 43.9504 16.9578 41.484 19.2213C41.3639 19.3316 41.2926 19.4943 41.199 19.6337L41.2141 19.6228L41.2094 19.6269C42.4018 18.5973 43.6285 17.6182 44.9982 16.8366C45.0966 16.7811 45.1956 16.7262 45.2951 16.6718C45.3944 16.6198 45.4953 16.5652 45.5962 16.5158C46.7131 15.9438 47.8842 15.5153 49.0755 15.1414C49.1457 15.1217 49.2206 15.1272 49.2871 15.157C47.4245 15.885 45.539 16.5433 43.8989 17.7362C42.2588 18.9291 40.8033 20.2998 39.3463 21.6918L39.5746 21.8998L39.5938 21.8967L39.5876 21.891L39.5938 21.8952C39.595 21.8949 39.5962 21.8949 39.5974 21.8952L39.6052 21.9009C39.9105 21.8665 40.2194 21.8814 40.5199 21.9451L40.6203 21.9607C40.7731 21.9965 40.9239 22.0402 41.0722 22.0917C41.9728 22.4037 42.8495 22.7989 43.7668 23.047C45.2379 23.4437 46.5545 24.1774 47.919 24.8082C48.4044 25.04 48.8706 25.3101 49.3131 25.6158C49.5534 25.777 49.7733 25.8238 50.0411 25.7556C51.1513 25.4785 52.261 25.1987 53.3047 24.7125C53.4461 24.6465 53.5834 24.5648 53.7316 24.5212C55.4928 24.0012 56.8126 22.8202 58.0912 21.5852C58.4396 21.2483 58.748 20.8697 59.0792 20.5125C59.6866 19.8516 59.7355 19.0872 59.4802 18.2765C59.2722 17.6098 58.8603 17.0872 58.3034 16.6645C57.3617 15.9495 56.3118 15.4929 55.1683 15.2012C53.9073 14.8746 52.6055 14.7326 51.3037 14.7795C51.191 14.7837 51.0782 14.7709 50.9693 14.7415C53.3816 14.4945 55.7107 14.7446 57.8468 15.9895C58.6955 16.4846 59.4479 17.094 59.7625 18.0945C60.0111 18.8854 59.9409 19.6399 59.5228 20.3502C59.3476 20.6477 59.1588 20.955 58.9128 21.1895C57.9956 22.0621 57.07 22.9274 56.108 23.7495C55.7601 24.0464 55.3217 24.2695 54.8896 24.4307C53.3816 24.998 51.8528 25.5159 50.3396 26.0734C50.1877 26.135 50.024 26.1623 49.8603 26.1533C49.6966 26.1444 49.5369 26.0993 49.3927 26.0214C48.2294 25.44 47.0693 24.8508 45.8952 24.2918C43.8895 23.3376 41.8532 22.4594 39.6827 21.9373C39.6665 21.9327 39.6515 21.9243 39.639 21.9128L39.6156 21.8931L39.9604 22.1853L40.0374 22.2508C39.8637 22.2633 39.7378 22.3028 39.6214 22.2763C38.5751 22.059 37.5502 22.2306 36.5419 22.4781C35.621 22.7038 34.7219 23.0095 33.8093 23.2768C33.696 23.3096 33.5769 23.3226 33.4599 23.3454L33.4687 23.3376L32.9388 23.554H32.9425L32.9508 23.5493L32.9628 23.542L32.4235 23.8155L32.2405 23.8571C32.176 23.9098 32.1075 23.9572 32.0356 23.9991C30.3097 24.8368 28.6348 25.7608 27.093 26.9111C27.0352 26.9454 26.974 26.9738 26.9105 26.9958L26.2735 27.5678L25.8018 28.0301L25.2969 28.2667C25.0723 27.9173 24.8471 27.5262 24.5814 27.1648C23.986 26.3536 23.3854 25.5461 22.7588 24.7578C21.9814 23.7786 21.178 22.8202 20.384 21.8546C20.3058 21.7614 20.2204 21.6744 20.1286 21.5946C19.864 21.3616 19.7839 21.3715 19.5317 21.6398C18.8224 22.3954 18.4849 23.3366 18.1797 24.2606C18.4106 24.4759 18.6227 24.6543 18.8125 24.8534C19.2192 25.2814 19.6107 25.7239 20.0153 26.1534C20.9898 27.1893 21.84 28.3437 22.9658 29.236C23.1623 29.392 23.3168 29.6 23.4712 29.7648C23.2689 30.0529 23.0739 30.2791 22.9366 30.536C22.6652 31.0446 22.7214 31.4242 23.153 31.7944C23.3979 32.0024 23.6984 32.1584 23.9933 32.2952C24.2533 32.4168 24.544 32.4808 24.8253 32.5723C24.8238 32.6507 24.8147 32.7287 24.7982 32.8053C24.5559 33.5286 24.3302 34.2587 24.0593 34.9716C23.531 36.3669 22.9876 37.756 22.4291 39.1389C22.2877 39.4925 22.3345 39.7795 22.5851 40.0458C22.919 40.3983 23.2528 40.7504 23.5924 41.0977C23.7255 41.234 23.8524 41.392 24.0172 41.4784C24.648 41.8112 25.0842 41.847 25.3141 41.0946C25.3694 40.9304 25.4156 40.7632 25.4524 40.5938C25.5564 40.0312 25.6604 39.468 25.7524 38.9033C26.001 37.3792 26.2397 35.8535 26.4914 34.3273C26.5782 33.8032 26.6942 33.2832 26.8101 32.6904C26.9432 32.8198 27.0228 32.8984 27.1055 32.9779C27.3717 33.2244 27.6052 33.5265 27.9115 33.7059C29.0841 34.3866 30.3004 34.9778 31.6295 35.3002C31.9339 35.3679 32.2329 35.4581 32.5239 35.5701C33.1614 35.8301 33.8239 35.9736 34.5051 35.9445C35.4754 35.9029 36.4462 35.8296 37.4093 35.711C38.0608 35.6304 38.7051 35.476 39.249 35.0506C39.587 34.7865 39.989 34.6991 40.4216 34.6892C41.9489 34.6539 43.4761 34.6024 45.0034 34.5509C45.3642 34.539 45.7251 34.4703 46.0844 34.4844C46.675 34.5125 47.2563 34.6418 47.803 34.8666C48.2358 35.0454 48.6789 35.1979 49.1301 35.3231C51.4784 35.9409 53.8304 36.5441 56.1818 37.1504C58.5509 37.7609 60.92 38.3698 63.2892 38.9772C66.4159 39.7769 69.5468 40.559 72.6694 41.3738C74.2294 41.7815 75.7754 42.2485 77.3286 42.6837C78.7482 43.082 80.1678 43.4809 81.5926 43.8652C82.6805 44.159 83.7704 44.4491 84.8686 44.7081C85.8816 44.9468 86.9065 45.1355 87.9226 45.3607C88.1171 45.4038 88.3386 45.4647 88.4738 45.5994C88.5803 45.7136 88.7091 45.8049 88.8521 45.8675C88.9952 45.9301 89.1496 45.9627 89.3058 45.9634C89.7738 45.9634 90.2512 45.9842 90.7041 45.8916C92.2506 45.5754 93.7898 45.2218 95.3279 44.8667C96.3922 44.6206 97.4528 44.3585 98.5098 44.0804C98.826 43.9903 99.129 43.859 99.411 43.6899C99.671 43.5376 99.8561 43.3041 99.7292 42.8995C98.8863 42.6078 98.0283 42.2818 97.1542 42.0056ZM48.868 21.6435L48.7713 21.5702C49.221 20.9429 49.7511 20.3774 50.3479 19.888L48.868 21.6435ZM49.0557 18.4351C47.621 19.7164 46.3689 21.1453 45.4157 22.8592C45.4563 22.1058 47.3012 19.7278 48.9143 18.317C50.5185 16.913 52.6957 15.729 53.9947 15.6188C52.2028 16.314 50.5003 17.146 49.0557 18.4351ZM51.3957 15.0676C52.1305 14.8242 52.585 14.818 53.4409 15.0483C53.2553 15.1206 53.12 15.1794 52.9812 15.2262C51.3656 15.7716 49.8232 16.4742 48.3823 17.3899C46.45 18.6171 45.0054 20.3019 43.8526 22.2566C43.7652 22.4042 43.6774 22.5509 43.576 22.7214L40.8283 21.8411C40.9682 21.6658 41.0748 21.5197 41.1923 21.385C42.0243 20.4454 42.9754 19.6373 43.9883 18.902C46.2664 17.251 48.724 15.9521 51.3957 15.0676ZM54.1595 14.5611H53.3213V14.5091H54.1595V14.5611ZM63.505 30.0103C63.5242 30.5755 63.7764 31.07 63.8991 31.6613C63.6277 31.6613 63.388 31.6992 63.1649 31.655C61.2284 31.2749 59.2774 31.1636 57.3081 31.2541C56.2161 31.3061 55.121 31.3061 54.0269 31.3212C53.8931 31.3247 53.763 31.2771 53.6629 31.1881C53.7955 31.1444 53.9255 31.0893 54.0607 31.0586C56.226 30.5698 58.3954 30.0982 60.5566 29.5927C61.6876 29.328 62.805 29.0077 63.8367 28.4487C63.8887 28.4191 63.9652 28.4269 64.0967 28.4076C63.8669 28.9833 63.4842 29.4034 63.505 30.0103ZM63.2585 21.8463C63.8502 21.957 64.4748 21.5863 64.7498 21.0294C65.0436 20.434 64.755 19.8854 64.6183 19.3134C64.8086 19.2437 64.9116 19.2822 64.9823 19.4356C65.457 20.4407 65.3229 21.4058 64.1836 21.8967C63.9126 22.0131 63.6337 22.1101 63.349 22.1869C63.0817 22.2592 62.9564 22.1817 62.8898 21.9134C62.8542 21.7627 62.8458 21.6068 62.8648 21.4532C62.9283 20.9217 63.0156 20.3934 63.077 19.862C63.0978 19.6779 63.1134 19.5219 63.3817 19.5011C63.636 20.304 63.22 21.072 63.2585 21.8452V21.8463ZM83.2816 18.9676C83.279 18.9405 83.2764 18.9156 83.2743 18.8859L84.5306 18.7408V18.8802L83.2816 18.9676ZM83.1776 11.439C83.2005 11.3932 83.2192 11.3444 83.2436 11.2996C83.2519 11.2849 83.2609 11.2707 83.2707 11.257C84.6126 9.43909 85.9558 7.62186 87.3002 5.80533L87.3397 5.71537C87.3397 5.71537 89.1919 2.87045 90.3328 2.70769C91.4737 2.54493 92.0072 2.70769 92.0072 2.70769C92.0072 2.70769 90.3073 2.63645 89.4706 3.48769C89.48 3.49453 89.4899 3.50061 89.5003 3.50589L89.5081 3.50069C89.5122 3.50953 89.5081 3.51005 89.5003 3.50589L89.3791 3.58857L89.3495 3.62497C88.5695 4.62025 87.0319 6.41841 87.0319 6.41841C85.8931 7.97009 84.7508 9.51934 83.605 11.0662C83.5629 11.1227 83.5172 11.1766 83.4683 11.2274C83.3877 11.3137 83.3014 11.3953 83.2203 11.4811L82.8724 11.9762L82.7777 11.9075L83.1776 11.439ZM83.3367 15.0041C84.7012 14.4885 86.1235 14.1412 87.5721 13.9698C88.9361 13.8008 89.9402 13.1514 90.5772 11.9346C90.6076 11.8731 90.6435 11.8144 90.6843 11.7593C90.701 11.7375 90.7426 11.7349 90.8684 11.6876C90.5824 12.5102 90.3177 13.2715 90.053 14.0343C87.3548 14.0863 84.7969 14.6859 82.305 15.6136L82.265 15.5096C82.6212 15.3369 82.9686 15.144 83.3362 15.0031L83.3367 15.0041ZM87.6148 16.8127L87.556 16.8818L87.2466 16.7347L87.2731 16.6749L87.6148 16.8127ZM82.1256 16.003C82.5884 15.6567 83.135 15.4955 83.6955 15.3229C83.5239 15.832 83.5556 16.0046 83.995 16.3C84.3362 16.5373 84.7057 16.7312 85.0949 16.8772C86.9923 17.5474 88.8997 18.1896 90.8029 18.8428C91.2293 18.9894 91.6572 19.1334 92.0784 19.2941C92.6309 19.5095 93.2256 19.5945 93.8163 19.5427C94.5245 19.4782 95.2286 19.3768 95.9353 19.2946C96.1163 19.2738 96.2993 19.265 96.4704 19.2515C96.5557 19.5843 96.3326 19.5884 96.1802 19.6295C95.4434 19.8292 94.7018 20.0107 93.9655 20.213C93.2955 20.406 92.5805 20.372 91.9318 20.1162C90.4238 19.5442 88.9039 19.0008 87.3813 18.4684C86.399 18.1246 85.4001 17.8288 84.4173 17.4939C83.7283 17.2599 83.0492 16.9968 82.3674 16.7425C82.2873 16.7085 82.2121 16.6639 82.1439 16.6099C81.8381 16.3873 81.8251 16.2266 82.1256 16.0025V16.003ZM77.5356 14.131C77.4316 14.183 77.3276 14.235 77.221 14.2777C77.1281 14.3203 77.0231 14.3285 76.9246 14.3011L77.4696 14.0411L77.5356 14.131ZM75.1337 11.4458L77.1284 12.4514C77.1144 12.4863 77.0999 12.5206 77.0853 12.5554L75.0812 11.5529L75.1337 11.4458ZM72.3809 12.699C71.9417 12.4943 71.5192 12.2556 71.1172 11.985C70.6706 11.6761 70.6784 11.361 71.1084 11.0298C71.3172 10.8739 71.5442 10.744 71.7844 10.6429C72.5769 10.2945 73.3767 9.96169 74.1764 9.62473C74.2381 9.60401 74.3014 9.58836 74.3657 9.57793C74.3802 9.60393 74.3943 9.62993 74.4083 9.65593C74.2419 9.74381 74.0724 9.82701 73.9086 9.92061C73.6684 10.0584 73.4214 10.1879 73.1962 10.3486C72.6128 10.7646 72.6019 11.1312 73.1723 11.5856C73.4173 11.7786 73.6825 11.9444 73.9632 12.0802C74.6324 12.4062 75.3152 12.7042 75.9912 13.0162C76.3214 13.168 76.6552 13.3136 76.9792 13.48C77.0707 13.5268 77.1295 13.636 77.2673 13.7884L75.9309 14.3474C74.7032 13.7816 73.5363 13.2507 72.3809 12.6979V12.699ZM76.4738 14.571L76.0578 14.7925C76.0375 14.7545 76.0167 14.7166 75.9959 14.6786L76.4415 14.5013L76.4738 14.571ZM82.4283 19.1184C77.5845 20.4184 72.8208 21.9264 68.406 24.3548C67.665 24.8346 66.9499 25.3533 66.2636 25.9085L66.2672 25.9132L66.0072 26.1212C65.1872 26.819 64.4472 27.585 64.038 28.3343C64.038 28.3343 64.3619 26.4062 68.2255 24.2487L69.2057 23.7729C72.4864 21.9446 80.4003 19.121 82.4283 19.1184ZM67.2854 17.7664C68.147 17.6624 69.0045 17.524 69.8625 17.393C70.7205 17.262 71.565 17.0222 72.4796 16.9848C72.4224 17.2968 72.2295 17.277 72.0699 17.3093C71.1339 17.498 70.1942 17.665 69.2655 17.8813C68.0487 18.1657 66.8418 18.4902 65.6307 18.796C65.4643 18.8381 65.2969 18.8755 65.1055 18.9202C64.9454 18.6082 64.8122 18.3456 64.6484 18.0253C65.5486 17.9416 66.419 17.874 67.2848 17.769L67.2854 17.7664ZM64.4056 18.2546C64.5138 18.4866 64.5725 18.7408 64.6656 19.0305L63.154 19.3737C63.0344 18.9171 62.9257 18.5022 62.7993 18.0217C63.2829 18.0217 63.6974 18.0066 64.1092 18.0326C64.2148 18.0414 64.3583 18.1558 64.4051 18.2572L64.4056 18.2546ZM64.1019 17.7414C63.8513 17.7934 63.856 17.7856 63.3625 17.5365C63.1358 17.4221 62.8867 17.353 62.6475 17.263L62.57 17.3472C62.5808 17.3647 62.5879 17.3841 62.5908 17.4044C62.6886 17.7492 62.9028 19.3331 62.9917 19.4844C62.8695 19.5567 62.6116 17.9286 62.4889 18.0009C62.3948 17.5849 61.9169 17.4008 61.8815 16.8808C62.7047 17.082 63.4759 17.1767 64.1014 17.744L64.1019 17.7414ZM60.1354 16.8376C60.2576 16.9078 60.3818 16.9739 60.4994 17.0482C60.9944 17.3556 61.4307 17.7622 62.0172 17.914C62.0636 17.932 62.1059 17.959 62.1416 17.9936C62.1774 18.0282 62.2058 18.0695 62.2252 18.1153C62.4306 18.5771 62.5494 19.0728 62.5757 19.5775C62.2294 19.6534 61.9304 19.7387 61.6262 19.7803C61.2788 19.8276 61.115 19.7398 61.0381 19.4163C60.867 18.6998 60.5222 18.0643 60.178 17.4268C60.0964 17.275 60.0782 17.0893 60.0308 16.9193L60.1354 16.8376ZM18.4215 24.1686C18.3695 23.8004 18.7486 22.9476 19.033 22.6424C19.217 22.2442 19.4948 21.8966 19.8426 21.6294C20.0179 21.8042 20.2066 21.955 20.3486 22.1396C21.6798 23.8462 23.0055 25.5572 24.3256 27.2725C24.5408 27.5656 24.7354 27.8733 24.908 28.1934C24.975 28.312 24.9818 28.4648 25.0161 28.6021L24.9064 28.6505C24.8347 28.572 24.767 28.4899 24.7036 28.4045C24.2023 27.6573 23.7265 26.8918 23.1992 26.1638C22.4473 25.1259 21.6744 24.1033 20.8806 23.0958C20.1562 22.1723 19.9815 22.1208 19.0949 22.7126C18.9134 23.0974 18.5936 24.0324 19.268 24.8555C20.0522 25.8123 22.8368 28.6339 23.4026 29.2048L23.9226 29.1382C23.7146 29.339 23.6698 29.3826 23.5008 29.3067V29.5865C23.5008 29.5865 18.4802 24.6127 18.4215 24.1686ZM23.7114 28.8767C23.7114 28.8767 20.2638 25.6163 19.9945 23.9273C19.9945 23.9273 22.8654 28.0613 23.5029 28.3728C24.1404 28.6843 23.7114 28.8767 23.7114 28.8767ZM23.1483 39.6927C22.882 38.9834 24.3053 35.3288 24.7239 34.2847C24.7533 34.1881 24.7912 34.0943 24.8372 34.0044C24.8372 34.0044 24.7951 34.1084 24.7239 34.2847C24.2762 35.6367 23.4327 40.4514 23.1483 39.6927ZM26.3588 33.7522C26.0894 35.4308 25.8183 37.1092 25.5455 38.7874C25.4477 39.3864 25.3588 39.988 25.2335 40.5819C25.1706 40.8814 25.0364 41.1658 24.9189 41.5028L24.0552 41.3707C24.7249 40.9594 24.844 40.3827 24.9428 39.806C25.2444 38.0443 25.5405 36.2817 25.831 34.5182C25.8622 34.3304 25.8403 34.1334 25.8783 33.9462C25.9698 33.4979 25.7706 33.2182 25.3952 33.0174C25.2486 32.9389 25.1144 32.8375 24.974 32.7465L25.012 32.6092L26.4981 32.7756C26.4508 33.1162 26.4097 33.435 26.3588 33.7517V33.7522ZM28.666 29.8964C28.6416 30.4382 28.5875 30.9681 28.3706 31.471C28.1715 31.9317 27.8439 32.2177 27.3395 32.33C26.5912 32.4964 25.8575 32.4142 25.013 32.2676C25.2844 32.1922 25.4628 32.136 25.6448 32.0944C25.83 32.0523 26.0173 32.0197 26.2059 31.9967C26.6739 31.94 27.1226 31.8407 27.5381 31.5921C28.0966 31.2609 28.3519 30.7513 28.4299 30.1413C28.4934 29.6499 28.2219 29.262 27.7539 29.0961C27.2032 28.9016 26.6567 28.9698 26.1185 29.1377C24.9516 29.5017 23.999 30.1538 23.3693 31.2281C23.3336 31.2858 23.2942 31.341 23.2512 31.3935C23.2424 31.4044 23.219 31.4034 23.1961 31.4091C23.118 31.3401 23.0658 31.2466 23.0479 31.144C23.03 31.0413 23.0477 30.9357 23.0978 30.8444C23.2211 30.5994 23.3365 30.3244 23.5326 30.147C24.1503 29.5924 24.7892 29.0606 25.4493 28.5517C25.8398 28.2527 26.3099 28.1606 26.8127 28.119C27.716 28.0416 28.7076 28.9807 28.666 29.8959V29.8964ZM26.703 30.8844L27.3436 30.4372C27.249 30.7544 27.0098 30.8667 26.7633 30.9686L26.703 30.8844ZM28.9317 31.2931C28.9421 31.2515 28.953 31.2099 28.9634 31.1683C29.1844 31.1683 29.4054 31.1683 29.6264 31.1683C31.0679 31.1751 32.5098 31.1777 33.9513 31.1922C34.5077 31.1995 35.0614 31.1132 35.5893 30.9369C36.1171 30.7601 36.218 30.5844 36.2559 30.0222C36.2897 29.5293 36.2559 29.0504 35.7791 28.8039C35.3844 28.6006 34.9434 28.4222 34.5082 28.3754C33.6294 28.2813 32.747 28.3026 31.8796 28.5657C30.94 28.8512 29.9842 29.0857 29.0009 29.2989C29.0643 29.25 29.1205 29.1798 29.1922 29.1564C29.7694 28.9687 30.3482 28.7831 30.9296 28.6099C32.5083 28.1388 34.0886 27.6739 35.6517 27.2111C36.5757 27.9656 36.8711 30.2521 36.1951 31.5022C33.8473 31.4652 31.474 31.4294 29.1002 31.3878C29.0435 31.3857 28.9879 31.3243 28.9317 31.2916V31.2931ZM30.3165 30.5786C30.9441 30.1855 33.9097 29.8288 35.3085 29.9947L30.3165 30.5786ZM34.8025 31.6072V31.6441H32.4428V31.6072H34.8025ZM31.9077 31.5032C31.9077 31.5183 31.9077 31.5339 31.9077 31.5495H30.1683V31.5032H31.9077ZM31.2114 34.0855C31.9342 34.2816 32.6944 34.3372 33.4386 34.4547C31.9009 34.4469 30.4033 34.2888 29.133 33.2852C29.8246 33.5536 30.4985 33.8884 31.2114 34.0814V34.0855ZM38.273 35.2815C37.129 35.5862 35.9704 35.7407 34.7859 35.6388C34.1879 35.5868 33.5899 35.5264 32.9929 35.4698L32.9898 35.3512C33.9534 35.3512 34.9206 35.4032 35.88 35.3366C36.829 35.2732 37.7696 35.0943 38.7519 35.0569C38.5923 35.1286 38.4404 35.2321 38.273 35.2768V35.2815ZM39.754 34.3486H39.7503C39.6702 34.3928 39.5943 34.4667 39.5116 34.4818H39.495C37.5793 34.6513 35.6652 34.8582 33.7459 34.9576C32.6717 35.02 31.595 34.8908 30.5661 34.5759C30.4714 34.5462 30.3955 34.4568 30.3139 34.384L30.2645 34.3684L30.2125 34.3486L29.8048 34.318C29.8121 34.2769 29.8194 34.2358 29.8272 34.1947C29.9568 34.2467 30.087 34.2987 30.2177 34.3507L30.2759 34.3549L30.3056 34.3798C31.6394 34.8057 33.0096 34.8681 34.3896 34.7756L34.5248 34.7662C36.2663 34.6367 38.0088 34.488 39.7477 34.3502H39.7524L40.7659 34.2982C40.7659 34.331 40.7659 34.3637 40.7659 34.397L39.754 34.3486ZM41.615 24.6486C39.7269 24.7146 37.8372 24.7853 35.9741 25.1212C35.6891 25.1732 35.4052 25.2305 35.1218 25.2918C32.5707 26.0895 28.1403 28.2922 28.1403 28.2922C28.4371 27.9697 28.7684 27.6808 29.1283 27.4306L29.1007 27.3786L29.5365 27.1591C29.8822 26.9433 30.2392 26.7463 30.6061 26.5689V26.5653L30.6274 26.5596C32.799 25.5071 35.3402 24.9939 35.9782 24.9538C36.6022 24.8498 37.2335 24.7744 37.8664 24.7156C39.0899 24.6028 40.3218 24.5716 41.55 24.5076C41.7539 24.4972 41.9588 24.5076 42.1631 24.5076C42.1631 24.5451 42.1668 24.5825 42.1688 24.62C41.9811 24.6262 41.7981 24.6376 41.615 24.6439V24.6486ZM42.2437 23.7786C42.0232 23.7786 41.8022 23.7755 41.5818 23.7786C40.3509 23.7963 39.1175 23.7786 37.8898 23.8426C35.5789 23.9684 33.3918 24.6314 31.2572 25.4884C30.2567 25.8842 29.295 26.3716 28.3842 26.9444C28.2282 27.0437 28.0659 27.1342 27.9068 27.2288L27.8298 27.1326C27.9666 27.0073 28.0898 26.8606 28.2458 26.7613C28.7991 26.4041 29.3529 26.0458 29.9239 25.7182C32.164 24.4333 34.5196 23.452 37.0744 22.9778C38.3 22.7506 39.5122 22.6325 40.7217 23.0386C41.1808 23.1946 41.6405 23.3434 42.0971 23.5035C42.1673 23.5285 42.2219 23.5971 42.2832 23.6455C42.2682 23.684 42.2562 23.7287 42.2437 23.7739V23.7786ZM42.9941 34.2509L42.7492 34.228L42.9946 34.2462L42.9941 34.2509ZM45.9435 30.238C45.5483 30.29 45.1552 30.353 44.76 30.4029C44.5432 30.439 44.3212 30.4293 44.1084 30.3743C44.1084 30.3743 58.2524 27.4867 61.245 26.0063C63.7384 24.7718 60.1135 27.6276 50.5622 29.4476C49.0337 29.7659 47.4942 30.0278 45.9435 30.2334V30.238ZM84.7683 43.8381C83.9836 43.692 83.1984 43.5433 82.4231 43.3556C81.6654 43.172 80.9193 42.9396 80.1689 42.7248C78.3681 42.2079 76.5658 41.6962 74.7682 41.1648C73.5035 40.792 72.2545 40.365 70.9841 40.0125C69.5801 39.6235 68.172 39.2481 66.7492 38.9434C63.7624 38.3043 60.788 37.6189 57.8302 36.8566C55.6129 36.2846 53.3811 35.7688 51.1617 35.204C50.5419 35.048 49.9392 34.8151 49.3365 34.5951C48.7921 34.3965 48.5175 33.9191 48.2638 33.4433C48.2081 33.3393 48.2482 33.1313 48.323 33.0299C48.3672 32.9696 48.583 32.9883 48.6943 33.033C49.389 33.304 50.0744 33.5993 50.7681 33.8744C52.5803 34.5925 54.4783 35.0241 56.3513 35.5358C64.0494 37.639 71.7496 39.7346 79.4518 41.8226C82.1636 42.5548 84.8915 43.2266 87.6158 43.9099C88.7827 44.2016 89.9475 44.198 91.106 43.8022C91.6292 43.6234 92.1814 43.5261 92.7222 43.4003C93.2333 43.2684 93.7718 43.289 94.2713 43.4596C93.8792 43.5464 93.5995 43.6026 93.3228 43.6676C92.4128 43.8886 91.4877 44.0633 90.6006 44.3534C89.9688 44.5614 89.3526 44.6431 88.712 44.5375C87.3953 44.3233 86.0813 44.0825 84.7683 43.8381ZM96.8567 43.4653C95.2638 43.6152 93.7085 44.0373 92.2584 44.7133C91.8575 44.8974 91.4066 45.0445 91.209 45.5141C91.1906 45.5426 91.1666 45.5671 91.1383 45.5859C91.11 45.6047 91.0781 45.6174 91.0447 45.6233C90.4124 45.746 89.7769 45.8474 89.1358 45.6924C89.0073 45.6618 88.8888 45.5884 88.7655 45.5364C88.7598 45.4844 88.7541 45.4324 88.7479 45.3846C88.9715 45.2712 89.1883 45.1418 89.4197 45.0471C90.9053 44.4398 92.457 44.0674 94.0326 43.796C95.3326 43.5724 96.6378 43.3852 97.942 43.1928C98.2061 43.1538 98.4776 43.1616 98.7454 43.1476C98.7454 43.1824 98.75 43.2167 98.7526 43.2516C98.1208 43.3254 97.4896 43.4076 96.8567 43.4653Z" fill="url(#paint0_radial_1_2)"/>
<path d="M31.8333 23.9764C31.8547 23.9686 31.8765 23.9614 31.8989 23.9541L31.9321 23.9442C32.0325 23.914 32.1365 23.8922 32.2358 23.8589L32.4194 23.8173C32.4418 23.7643 32.4753 23.7166 32.5175 23.6775C32.5597 23.6383 32.6097 23.6085 32.6643 23.5901L32.6825 23.5838C32.7724 23.5585 32.8652 23.545 32.9586 23.5438L32.9467 23.5511L32.9383 23.5558H32.9347L33.4646 23.3394C33.4859 23.3207 33.5062 23.2989 33.527 23.2791L33.5358 23.2708C33.5421 23.2652 33.5483 23.26 33.5545 23.2552C33.5605 23.2503 33.5668 23.2458 33.5733 23.2417L33.5831 23.2354C33.5898 23.2316 33.5968 23.2283 33.6039 23.2256C35.2362 22.5974 36.8955 22.0711 38.6516 21.9255C38.8164 21.9115 38.9854 21.9463 39.1523 21.9583C39.1006 21.9008 39.07 21.8275 39.0655 21.7503C39.0655 21.7456 39.0655 21.7415 39.0655 21.7368C39.0665 21.7236 39.0688 21.7105 39.0723 21.6978C39.0955 21.6295 39.1379 21.5694 39.1945 21.5246C39.6302 21.1351 40.0504 20.7285 40.4747 20.3286C40.7222 20.0946 40.9661 19.8575 41.2121 19.6214L41.2001 19.6318V19.6271L40.0218 20.5179C39.3978 20.2059 38.7634 19.8939 38.1269 19.5762C28.7568 14.9294 19.3878 10.2775 10.0199 5.62039C9.48681 5.34505 8.87858 5.25086 8.28722 5.35207C7.15466 5.52263 6.01742 5.65939 4.8859 5.83307C3.85526 5.98907 2.83242 6.19707 1.89798 6.69055C1.63798 6.82627 1.37798 6.98435 1.17674 7.19027C0.666621 7.71027 0.772181 8.42163 1.38474 8.80227C4.09879 10.4867 6.81285 12.1705 9.5269 13.8536C15.6449 17.6257 21.7648 21.3939 27.8865 25.1584C28.0878 25.2827 28.2817 25.4184 28.4715 25.5458L28.2115 25.9192C29.3763 25.2889 30.5391 24.655 31.708 24.0321C31.7484 24.0105 31.7903 23.9919 31.8333 23.9764ZM18.1157 15.0745L24.3864 18.2465C24.3599 18.2814 24.3344 18.3167 24.3079 18.3505L18.0559 15.1926L18.1157 15.0745ZM13.0104 12.4953L17.8074 14.9076L17.7497 15.0309L12.9615 12.592L13.0104 12.4953ZM30.511 24.4554C30.4101 24.4964 30.2447 24.4439 30.134 24.3862C28.0254 23.2869 25.9345 22.1502 23.8118 21.0816C20.3694 19.3441 16.9778 17.5152 13.637 15.5951C11.337 14.2675 9.04278 12.9259 6.79118 11.5193C5.49794 10.7107 4.28114 9.77624 3.05758 8.86208C2.70502 8.59843 2.42526 8.22507 2.15746 7.86835C2.03006 7.69831 1.99366 7.45235 1.94374 7.23551C1.88654 6.98747 2.00562 6.83875 2.31814 6.79039C2.34518 6.93547 2.3743 7.05039 2.3873 7.16947C2.43566 7.61823 2.67538 7.95311 3.03834 8.18815C4.0149 8.81891 4.9769 9.47828 5.99038 10.0446C9.00638 11.7273 12.0416 13.3726 15.0696 15.0288C17.1707 16.1794 19.2717 17.3299 21.3725 18.4805C22.3465 19.0151 23.3225 19.5465 24.2881 20.0957C25.6152 20.8507 26.9214 21.6421 28.2589 22.3785C29.2006 22.8985 30.1787 23.3504 31.1402 23.8345C31.213 23.8714 31.2842 23.912 31.4267 23.9905C31.0819 24.1678 30.8063 24.3352 30.511 24.4554Z" fill="url(#paint1_radial_1_2)"/>
<defs>
<radialGradient id="paint0_radial_1_2" cx="0" cy="0" r="1" gradientUnits="userSpaceOnUse" gradientTransform="translate(100.148 36.7785) rotate(-150.205) scale(81.6571 265.96)">
<stop stop-color="#8F8AD2"/>
<stop offset="1" stop-color="#4267B2"/>
</radialGradient>
<radialGradient id="paint1_radial_1_2" cx="0" cy="0" r="1" gradientUnits="userSpaceOnUse" gradientTransform="translate(41.2121 21.7978) rotate(-152.45) scale(39.3549 121.898)">
<stop stop-color="#8F8AD2"/>
<stop offset="1" stop-color="#4267B2"/>
</radialGradient>
</defs>
</svg>
