<svg width="18" height="11" viewBox="0 0 18 11" fill="none" xmlns="http://www.w3.org/2000/svg">
<path fill-rule="evenodd" clip-rule="evenodd" d="M11.3807 10.3694C11.7112 10.7059 12.252 10.7108 12.5886 10.3802L16.9371 6.1094C17.1006 5.9488 17.1927 5.72921 17.1927 5.5C17.1927 5.27079 17.1006 5.0512 16.9371 4.8906L12.5886 0.619762C12.252 0.289208 11.7112 0.29408 11.3807 0.630645C11.0501 0.967209 11.055 1.50802 11.3915 1.83857L14.2498 4.64583L0.963542 4.64583C0.491798 4.64583 0.109375 5.02826 0.109375 5.5C0.109375 5.97174 0.491798 6.35417 0.963542 6.35417L14.2498 6.35417L11.3915 9.16143C11.055 9.49198 11.0501 10.0328 11.3807 10.3694Z" fill="#33669A"/>
</svg>
