<svg width="20" height="15" viewBox="0 0 20 15" fill="none" xmlns="http://www.w3.org/2000/svg">
<path fill-rule="evenodd" clip-rule="evenodd" d="M0 11.5C0 13.1569 1.34315 14.5 3 14.5L17 14.5C18.6569 14.5 20 13.1569 20 11.5V3.5C20 1.84315 18.6569 0.5 17 0.5H3C1.34314 0.5 0 1.84315 0 3.5V11.5ZM18 11.5C18 12.0523 17.5523 12.5 17 12.5H13.3178C14.9345 11.4251 16 9.58697 16 7.5C16 5.41303 14.9345 3.57492 13.3178 2.5L17 2.5C17.5523 2.5 18 2.94771 18 3.5V11.5ZM6.68221 2.5L3 2.5C2.44771 2.5 2 2.94772 2 3.5L2 11.5C2 12.0523 2.44771 12.5 3 12.5H6.68221C5.06551 11.4251 4 9.58697 4 7.5C4 5.41303 5.06551 3.57492 6.68221 2.5ZM14 7.5C14 5.29086 12.2091 3.5 10 3.5C7.79086 3.5 6 5.29086 6 7.5C6 9.70914 7.79086 11.5 10 11.5C12.2091 11.5 14 9.70914 14 7.5Z" fill="#9A9A9A"/>
</svg>
