<svg width="14" height="12" viewBox="0 0 14 12" fill="none" xmlns="http://www.w3.org/2000/svg">
<path fill-rule="evenodd" clip-rule="evenodd" d="M2.1826 7.49214C1.96253 7.51546 1.74522 7.428 1.6026 7.2587L0.442604 5.84472C0.369747 5.76273 0.342868 5.64964 0.371039 5.54361C0.399209 5.43759 0.478671 5.35278 0.582604 5.31781L1.0026 5.1644C1.17909 5.10473 1.37249 5.12166 1.53594 5.21109L2.92927 5.99812L5.41594 5.10438L2.4426 1.54941C2.36975 1.46742 2.34287 1.35433 2.37104 1.2483C2.39921 1.14228 2.47867 1.05747 2.5826 1.0225L3.0026 0.869095C3.17909 0.809421 3.37249 0.826351 3.53594 0.915783L8.76927 3.87047L11.2559 2.97006C11.7561 2.79105 12.3065 2.81498 12.7893 3.03676L13.4559 3.34357C13.5368 3.38115 13.5992 3.44957 13.6293 3.53354C13.6594 3.61752 13.6545 3.71004 13.6159 3.79044V3.8438C13.4615 4.156 13.1911 4.39538 12.8626 4.51077L6.12927 6.96523C5.8202 7.07225 5.50062 7.14603 5.17594 7.18533L2.1826 7.49214ZM13.6693 11.1672V10.5002C13.6693 10.316 13.52 10.1667 13.3359 10.1667H0.669271C0.485176 10.1667 0.335938 10.316 0.335938 10.5002V11.1672C0.335938 11.3513 0.485176 11.5007 0.669271 11.5007H13.3359C13.52 11.5007 13.6693 11.3513 13.6693 11.1672Z" fill="#254D9B"/>
</svg>
