<svg width="20" height="17" viewBox="0 0 20 17" fill="none" xmlns="http://www.w3.org/2000/svg">
<path fill-rule="evenodd" clip-rule="evenodd" d="M2.77 10.4872C2.43988 10.5222 2.11393 10.391 1.9 10.1371L0.16 8.0161C0.050715 7.89311 0.0103964 7.72348 0.052652 7.56444C0.0949076 7.40541 0.2141 7.27819 0.37 7.22573L1 6.99563C1.26473 6.90612 1.55483 6.93151 1.8 7.06566L3.89 8.2462L7.62 6.90559L3.16 1.57313C3.05071 1.45015 3.0104 1.28051 3.05265 1.12148C3.09491 0.962445 3.2141 0.83523 3.37 0.782771L4 0.552665C4.26473 0.463155 4.55483 0.48855 4.8 0.622697L12.65 5.05474L16.38 3.70411C17.1303 3.43559 17.9558 3.4715 18.68 3.80416L19.68 4.26437C19.8013 4.32075 19.8949 4.42338 19.94 4.54934C19.9851 4.6753 19.9779 4.81408 19.92 4.93468V5.01472C19.6883 5.48302 19.2828 5.84209 18.79 6.01518L8.69 9.69687C8.2264 9.8574 7.74703 9.96807 7.26 10.027L2.77 10.4872ZM20 15.9998V14.9993C20 14.723 19.7761 14.4991 19.5 14.4991H0.5C0.223858 14.4991 0 14.723 0 14.9993V15.9998C0 16.276 0.223858 16.5 0.5 16.5H19.5C19.7761 16.5 20 16.276 20 15.9998Z" fill="black"/>
</svg>
