<svg width="12" height="15" viewBox="0 0 12 15" fill="none" xmlns="http://www.w3.org/2000/svg">
<path fill-rule="evenodd" clip-rule="evenodd" d="M2.66667 1.4987C2.66667 1.13051 2.96514 0.832031 3.33333 0.832031C3.70152 0.832031 4 1.13051 4 1.4987V2.16536H8V1.4987C8 1.13051 8.29848 0.832031 8.66667 0.832031C9.03486 0.832031 9.33333 1.13051 9.33333 1.4987V2.16536H10C11.1046 2.16536 12 3.06079 12 4.16536V5.4987V12.1654C12 13.2699 11.1046 14.1654 10 14.1654H2C0.895431 14.1654 0 13.2699 0 12.1654V5.4987V4.16536C0 3.0608 0.89543 2.16536 2 2.16536H2.66667V1.4987ZM3.33333 3.4987H8.66667H10C10.3682 3.4987 10.6667 3.79717 10.6667 4.16536V4.83203H1.33333V4.16536C1.33333 3.79718 1.63181 3.4987 2 3.4987H3.33333ZM1.33333 6.16536V12.1654C1.33333 12.5336 1.63181 12.832 2 12.832H10C10.3682 12.832 10.6667 12.5336 10.6667 12.1654V6.16536H1.33333ZM7.87201 8.55815C8.08893 8.26065 8.02361 7.84362 7.72612 7.62669C7.42861 7.40977 7.01159 7.47508 6.79466 7.77258L5.36707 9.73042L4.85603 9.0849C4.62749 8.79622 4.20821 8.74746 3.91953 8.976C3.63085 9.20454 3.5821 9.62382 3.81064 9.9125L4.86619 11.2458C4.99552 11.4092 5.19378 11.5027 5.40209 11.4986C5.6104 11.4944 5.80481 11.3932 5.92756 11.2248L7.87201 8.55815Z" fill="black"/>
</svg>
