<svg width="14" height="15" viewBox="0 0 14 15" fill="none" xmlns="http://www.w3.org/2000/svg">
<path fill-rule="evenodd" clip-rule="evenodd" d="M1.44705 7.4987C1.44705 4.43045 3.93436 1.94314 7.0026 1.94314C10.0709 1.94314 12.5582 4.43045 12.5582 7.4987C12.5582 10.5669 10.0709 13.0543 7.0026 13.0543C3.93436 13.0543 1.44705 10.5669 1.44705 7.4987ZM7.0026 0.832031C3.32071 0.832031 0.335938 3.8168 0.335938 7.4987C0.335938 11.1806 3.32071 14.1654 7.0026 14.1654C10.6845 14.1654 13.6693 11.1806 13.6693 7.4987C13.6693 3.8168 10.6845 0.832031 7.0026 0.832031ZM7.55816 5.27648C7.55816 4.96965 7.30943 4.72092 7.0026 4.72092C6.69578 4.72092 6.44705 4.96965 6.44705 5.27648V7.74567C6.44705 7.93145 6.53991 8.10493 6.69449 8.20796L8.54686 9.44256C8.80218 9.61273 9.14709 9.5437 9.31726 9.28839C9.48743 9.03307 9.4184 8.68815 9.16309 8.51799L7.55816 7.44831V5.27648Z" fill="black"/>
</svg>
