<svg width="14" height="13" viewBox="0 0 14 13" fill="none" xmlns="http://www.w3.org/2000/svg">
<path fill-rule="evenodd" clip-rule="evenodd" d="M6.33594 0.5C5.59956 0.5 5.0026 1.09695 5.0026 1.83333V2.5L2.33594 2.5C1.23137 2.5 0.335938 3.39543 0.335938 4.5V10.5C0.335938 11.6046 1.23137 12.5 2.33594 12.5H11.6693C12.7738 12.5 13.6693 11.6046 13.6693 10.5V4.5C13.6693 3.39543 12.7738 2.5 11.6693 2.5L9.0026 2.5V1.83333C9.0026 1.09695 8.40565 0.5 7.66927 0.5H6.33594ZM8.49334 3.83333C8.12713 4.2425 7.59494 4.5 7.0026 4.5C6.41027 4.5 5.87808 4.2425 5.51187 3.83333L2.33594 3.83333C1.96775 3.83333 1.66927 4.13181 1.66927 4.5L1.66927 10.5C1.66927 10.8682 1.96775 11.1667 2.33594 11.1667V10.8333C2.33594 10.1804 2.60409 9.59017 3.03628 9.16667C2.60409 8.74316 2.33594 8.1529 2.33594 7.5C2.33594 6.21134 3.38061 5.16667 4.66927 5.16667C5.95793 5.16667 7.0026 6.21134 7.0026 7.5C7.0026 8.1529 6.73445 8.74316 6.30226 9.16667C6.73445 9.59017 7.0026 10.1804 7.0026 10.8333V11.1667L11.6693 11.1667C12.0375 11.1667 12.3359 10.8682 12.3359 10.5V4.5C12.3359 4.13181 12.0375 3.83333 11.6693 3.83333H8.49334ZM6.33594 1.83333H7.66927V2.5C7.66927 2.86819 7.37079 3.16667 7.0026 3.16667C6.63442 3.16667 6.33594 2.86819 6.33594 2.5V1.83333ZM5.66927 10.8333V11.1667H3.66927V10.8333C3.66927 10.281 4.11699 9.83333 4.66927 9.83333C5.22156 9.83333 5.66927 10.281 5.66927 10.8333ZM5.66927 7.5C5.66927 8.05228 5.22156 8.5 4.66927 8.5C4.11699 8.5 3.66927 8.05228 3.66927 7.5C3.66927 6.94772 4.11699 6.5 4.66927 6.5C5.22156 6.5 5.66927 6.94772 5.66927 7.5ZM7.66927 6.5C7.66927 6.13181 7.96775 5.83333 8.33594 5.83333H11.0026C11.3708 5.83333 11.6693 6.13181 11.6693 6.5C11.6693 6.86819 11.3708 7.16667 11.0026 7.16667H8.33594C7.96775 7.16667 7.66927 6.86819 7.66927 6.5ZM8.33594 8.5C7.96775 8.5 7.66927 8.79848 7.66927 9.16667C7.66927 9.53486 7.96775 9.83333 8.33594 9.83333H11.0026C11.3708 9.83333 11.6693 9.53486 11.6693 9.16667C11.6693 8.79848 11.3708 8.5 11.0026 8.5H8.33594Z" fill="#254D9B"/>
</svg>
