<svg width="14" height="13" viewBox="0 0 14 13" fill="none" xmlns="http://www.w3.org/2000/svg">
<path fill-rule="evenodd" clip-rule="evenodd" d="M3.37594 6.58323L1.29594 5.17892C1.11608 5.05761 1.00664 4.85648 1.0026 4.63982V2.84948C0.99584 2.73758 1.04597 2.62979 1.13597 2.56274C1.22597 2.49569 1.34374 2.47838 1.44927 2.51671L1.86927 2.68975C2.05396 2.75554 2.20028 2.89917 2.26927 3.08243L2.80927 4.51336L5.66927 5.51169V0.852823C5.66251 0.740917 5.71264 0.633132 5.80264 0.566081C5.89264 0.49903 6.0104 0.481726 6.11594 0.520047L6.53594 0.693091C6.72063 0.758881 6.86694 0.902514 6.93594 1.08577L9.0426 6.69638L11.5359 7.56825C12.0335 7.7496 12.4387 8.12061 12.6626 8.59986L12.9693 9.26541C13.0079 9.34564 13.0127 9.43797 12.9826 9.52176C12.9526 9.60555 12.8901 9.67383 12.8093 9.71133H12.7559C12.4356 9.86136 12.0687 9.87813 11.7359 9.75792L4.24927 7.0225C3.94126 6.91229 3.64796 6.76476 3.37594 6.58323ZM13.6693 12.1672V11.5017C13.6693 11.3179 13.52 11.1689 13.3359 11.1689H0.669271C0.485176 11.1689 0.335938 11.3179 0.335938 11.5017V12.1672C0.335938 12.351 0.485176 12.5 0.669271 12.5H13.3359C13.52 12.5 13.6693 12.351 13.6693 12.1672Z" fill="#254D9B"/>
</svg>
